<svg width="111" height="58" viewBox="0 0 111 58" fill="none" xmlns="http://www.w3.org/2000/svg">
<path d="M13.584 46.768C12.336 46.768 11.088 46.592 9.84 46.24C8.624 45.888 7.488 45.344 6.432 44.608C5.376 43.872 4.448 42.96 3.648 41.872C2.88 40.752 2.304 39.424 1.92 37.888L7.632 35.68C7.984 37.28 8.656 38.56 9.648 39.52C10.672 40.48 11.968 40.96 13.536 40.96C14.304 40.96 15.008 40.832 15.648 40.576C16.32 40.288 16.896 39.904 17.376 39.424C17.888 38.944 18.272 38.384 18.528 37.744C18.816 37.072 18.96 36.336 18.96 35.536C18.96 34.768 18.816 34.064 18.528 33.424C18.272 32.752 17.904 32.176 17.424 31.696C16.944 31.184 16.368 30.8 15.696 30.544C15.056 30.256 14.336 30.112 13.536 30.112C12.544 30.112 11.664 30.336 10.896 30.784C10.128 31.2 9.472 31.728 8.928 32.368L2.832 29.584L4.752 13.168H23.232V18.688H9.984L8.736 26.368L9.12 26.464C9.76 25.92 10.544 25.456 11.472 25.072C12.4 24.688 13.52 24.496 14.832 24.496C16.208 24.496 17.52 24.768 18.768 25.312C20.016 25.824 21.12 26.56 22.08 27.52C23.04 28.48 23.808 29.648 24.384 31.024C24.96 32.368 25.248 33.872 25.248 35.536C25.248 37.168 24.96 38.672 24.384 40.048C23.808 41.424 22.992 42.608 21.936 43.6C20.912 44.592 19.68 45.376 18.24 45.952C16.832 46.496 15.28 46.768 13.584 46.768ZM29.7705 46V40.288C31.6585 38.432 33.4025 36.704 35.0025 35.104C35.6745 34.432 36.3625 33.744 37.0665 33.04C37.7705 32.336 38.4265 31.68 39.0345 31.072C39.6425 30.464 40.1865 29.92 40.6665 29.44C41.1465 28.928 41.5145 28.528 41.7705 28.24C42.2825 27.632 42.7305 27.088 43.1145 26.608C43.5305 26.128 43.8505 25.664 44.0745 25.216C44.3305 24.736 44.5225 24.272 44.6505 23.824C44.7785 23.344 44.8425 22.832 44.8425 22.288C44.8425 21.232 44.4265 20.32 43.5945 19.552C42.7625 18.752 41.6265 18.352 40.1865 18.352C38.7465 18.352 37.6265 18.768 36.8265 19.6C36.0265 20.4 35.4825 21.312 35.1945 22.336L29.4825 19.984C29.7385 19.12 30.1545 18.24 30.7305 17.344C31.3065 16.416 32.0425 15.6 32.9385 14.896C33.8345 14.16 34.8905 13.568 36.1065 13.12C37.3545 12.64 38.7465 12.4 40.2825 12.4C41.9465 12.4 43.4505 12.656 44.7945 13.168C46.1385 13.648 47.2745 14.32 48.2025 15.184C49.1305 16.048 49.8505 17.072 50.3625 18.256C50.8745 19.408 51.1305 20.656 51.1305 22C51.1305 24.048 50.6185 25.936 49.5945 27.664C48.6025 29.36 47.3865 30.944 45.9465 32.416L41.8185 36.544C40.7305 37.632 39.4985 38.848 38.1225 40.192L38.3145 40.48H51.6105V46H29.7705ZM57.1748 11.632H63.6548V25.36H78.1028V11.632H84.5828V46H78.1028V31.504H63.6548V46H57.1748V11.632ZM89.5673 40.816L101.567 27.856H89.9513V22.48H109.295V27.664L97.2953 40.624H109.487V46H89.5673V40.816Z" fill="white"/>
</svg>
