<svg width="213" height="70" viewBox="0 0 213 70" fill="none" xmlns="http://www.w3.org/2000/svg">
<path d="M45.12 42.896V37.232H27.744V36.848V30.704H42.624V25.04H34.656C36.192 22.736 37.872 20.048 39.36 17.456L33.12 15.392C31.968 18.32 30.096 22.208 28.32 25.04H16.752L19.68 23.408C18.768 21.152 16.752 17.888 14.64 15.488L9.84 17.888C11.472 20 13.2 22.832 14.112 25.04H6.144V30.704H21.024V36.752V37.232H2.976V42.896H19.872C18 47.264 13.2 51.632 1.536 54.992C3.072 56.336 4.992 58.832 5.76 60.128C16.752 56.768 22.416 52.16 25.2 47.312C29.232 53.456 34.848 57.68 42.816 59.888C43.68 58.208 45.456 55.568 46.848 54.272C38.592 52.496 32.592 48.512 28.944 42.896H45.12ZM93.504 33.92H75.504V24.08H90.24V18.416H53.76V24.08H69.456V33.92H50.496V39.584H69.456V52.736C69.456 53.696 69.024 53.984 67.968 54.032C66.864 54.08 63.072 54.08 59.52 53.888C60.48 55.52 61.584 58.208 61.92 59.936C66.672 59.936 70.176 59.792 72.432 58.832C74.736 57.92 75.504 56.336 75.504 52.784V39.584H93.504V33.92ZM114.857 56.768C113.609 56.768 112.361 56.592 111.113 56.24C109.897 55.888 108.761 55.344 107.705 54.608C106.649 53.872 105.721 52.96 104.921 51.872C104.153 50.752 103.577 49.424 103.193 47.888L108.905 45.68C109.257 47.28 109.929 48.56 110.921 49.52C111.945 50.48 113.241 50.96 114.809 50.96C115.577 50.96 116.281 50.832 116.921 50.576C117.593 50.288 118.169 49.904 118.649 49.424C119.161 48.944 119.545 48.384 119.801 47.744C120.089 47.072 120.233 46.336 120.233 45.536C120.233 44.768 120.089 44.064 119.801 43.424C119.545 42.752 119.177 42.176 118.697 41.696C118.217 41.184 117.641 40.8 116.969 40.544C116.329 40.256 115.609 40.112 114.809 40.112C113.817 40.112 112.937 40.336 112.169 40.784C111.401 41.2 110.745 41.728 110.201 42.368L104.105 39.584L106.025 23.168H124.505V28.688H111.257L110.009 36.368L110.393 36.464C111.033 35.92 111.817 35.456 112.745 35.072C113.673 34.688 114.793 34.496 116.105 34.496C117.481 34.496 118.793 34.768 120.041 35.312C121.289 35.824 122.393 36.56 123.353 37.52C124.313 38.48 125.081 39.648 125.657 41.024C126.233 42.368 126.521 43.872 126.521 45.536C126.521 47.168 126.233 48.672 125.657 50.048C125.081 51.424 124.265 52.608 123.209 53.6C122.185 54.592 120.953 55.376 119.513 55.952C118.105 56.496 116.553 56.768 114.857 56.768ZM131.044 56V50.288C132.932 48.432 134.676 46.704 136.276 45.104C136.948 44.432 137.636 43.744 138.34 43.04C139.044 42.336 139.7 41.68 140.308 41.072C140.916 40.464 141.46 39.92 141.94 39.44C142.42 38.928 142.788 38.528 143.044 38.24C143.556 37.632 144.004 37.088 144.388 36.608C144.804 36.128 145.124 35.664 145.348 35.216C145.604 34.736 145.796 34.272 145.924 33.824C146.052 33.344 146.116 32.832 146.116 32.288C146.116 31.232 145.7 30.32 144.868 29.552C144.036 28.752 142.9 28.352 141.46 28.352C140.02 28.352 138.9 28.768 138.1 29.6C137.3 30.4 136.756 31.312 136.468 32.336L130.756 29.984C131.012 29.12 131.428 28.24 132.004 27.344C132.58 26.416 133.316 25.6 134.212 24.896C135.108 24.16 136.164 23.568 137.38 23.12C138.628 22.64 140.02 22.4 141.556 22.4C143.22 22.4 144.724 22.656 146.068 23.168C147.412 23.648 148.548 24.32 149.476 25.184C150.404 26.048 151.124 27.072 151.636 28.256C152.148 29.408 152.404 30.656 152.404 32C152.404 34.048 151.892 35.936 150.868 37.664C149.876 39.36 148.66 40.944 147.22 42.416L143.092 46.544C142.004 47.632 140.772 48.848 139.396 50.192L139.588 50.48H152.884V56H131.044ZM158.448 21.632H164.928V35.36H179.376V21.632H185.856V56H179.376V41.504H164.928V56H158.448V21.632ZM190.841 50.816L202.841 37.856H191.225V32.48H210.569V37.664L198.569 50.624H210.761V56H190.841V50.816Z" fill="white"/>
</svg>
