<svg width="72" height="72" viewBox="0 0 72 72" fill="none" xmlns="http://www.w3.org/2000/svg">
<circle cx="36" cy="36" r="36" fill="#5CD7D4"/>
<path d="M57.0222 31.511C56.9339 31.2792 56.7883 31.0735 56.5991 30.9132C56.4098 30.7528 56.1831 30.643 55.9399 30.5939C54.3725 30.2782 51.5621 29.8453 51.4432 29.827C51.0453 29.7659 50.64 29.8706 50.3219 30.1166L50.1613 30.241L50.1517 30.1382C50.1285 29.8856 50.0404 29.6433 49.8959 29.4349C49.7513 29.2265 49.5553 29.0591 49.3269 28.9489L45.1506 26.9358C44.9332 26.8311 44.6935 26.7816 44.4524 26.7915C44.2114 26.8014 43.9765 26.8705 43.7686 26.9928C43.5606 27.115 43.386 27.2866 43.2601 27.4923C43.1342 27.698 43.0609 27.9316 43.0466 28.1723C42.9557 29.7104 43.0498 31.0685 43.3261 32.2082C43.5299 33.0486 43.8342 33.7876 44.2569 34.4664C44.4121 34.7156 44.5842 34.9456 44.7366 35.1489C44.832 35.276 44.9587 35.4459 45.0464 35.5808C45.0436 35.5831 45.0404 35.5854 45.0376 35.5882C44.2973 36.1807 43.6763 36.3239 42.5146 35.3867C41.7793 34.7932 41.0702 33.956 40.2491 32.9862C38.566 30.9983 36.4716 28.5248 32.7965 26.5833C30.2533 25.2394 27.884 24.5188 25.7557 24.4413C23.7403 24.3674 21.9448 24.8589 20.4186 25.9008C18.7007 27.074 17.3852 28.9265 16.615 31.2576C15.9651 33.2239 15.7361 35.4353 15.9702 37.4851C16.369 40.9817 18.0641 43.904 20.8717 45.9373C23.3708 47.7471 26.664 48.7982 30.3947 48.9772C32.8952 49.097 35.589 48.5421 37.5814 48.0372C38.7844 48.7688 40.087 49.1599 41.2088 49.1599C41.8899 49.1599 42.5045 49.0157 42.9892 48.716C43.7585 48.2405 44.1445 47.3964 43.9971 46.5134C43.9434 46.1925 43.8351 45.8772 43.7025 45.5835C45.3961 44.693 46.8089 43.6218 47.9908 42.3361C49.2929 40.9193 50.0401 39.5432 50.6405 38.438L50.6497 38.4215C50.9273 37.9102 51.1132 37.4989 51.2491 37.1983C51.3244 37.0317 51.4166 36.8283 51.4671 36.7439C51.5052 36.7246 51.5956 36.6847 51.7783 36.6287C54.6805 35.7387 56.7385 33.0312 56.8244 32.9164C57.1273 32.5125 57.2021 31.9824 57.0222 31.511ZM50.9172 33.8192C49.4393 34.2722 49.0455 34.9405 48.5723 35.9875C48.4424 36.2753 48.2951 36.6011 48.0683 37.0184L48.0591 37.0349C46.9897 39.0044 45.5251 41.7014 40.9903 43.6163C40.7734 43.7079 40.5817 43.8503 40.4314 44.0316C40.281 44.2128 40.1765 44.4275 40.1265 44.6576C40.0765 44.8877 40.0826 45.1264 40.1441 45.3537C40.2057 45.581 40.3211 45.7901 40.4804 45.9635C40.5281 46.0154 40.5805 46.0801 40.6342 46.1517C40.1082 46.0383 39.416 45.7753 38.711 45.2626C38.4598 45.08 38.1573 44.9817 37.8467 44.9817C37.7205 44.9817 37.5938 44.9978 37.4695 45.0308C35.6294 45.5197 32.9085 46.1563 30.5351 46.0429C27.3759 45.8914 24.6303 45.0322 22.5947 43.558C20.443 41.9997 19.1959 39.8443 18.8889 37.1519C18.7048 35.5395 18.893 33.727 19.4043 32.1793C19.799 30.9841 20.583 29.346 22.0751 28.3266C23.0716 27.6459 24.2746 27.3269 25.6483 27.3765C27.3314 27.438 29.2747 28.0447 31.4242 29.1803C34.5967 30.8565 36.4083 32.9963 38.0069 34.8841C38.8863 35.9228 39.7171 36.9041 40.6695 37.6724C43.3302 39.8195 45.5118 38.9713 46.8731 37.8812C48.0665 36.9256 48.1564 35.8874 48.022 35.1847C47.8811 34.4471 47.4592 33.8844 47.0875 33.3878C46.9599 33.2175 46.8392 33.0564 46.751 32.9146C46.5867 32.6507 46.1888 32.0113 46.024 30.6178L47.3023 31.2338L47.4794 33.1734C47.5034 33.4356 47.5973 33.6864 47.7515 33.8998C47.9056 34.1131 48.1143 34.2811 48.3556 34.3861C48.597 34.4912 48.8621 34.5296 49.1233 34.4971C49.3845 34.4646 49.6322 34.3626 49.8405 34.2016L51.6181 32.8274C51.8765 32.8682 52.1996 32.9201 52.5535 32.9779C52.0647 33.3263 51.5084 33.6379 50.9172 33.8192ZM30.856 23.6807C30.9376 23.9717 31.3503 23.968 31.4278 23.6757C31.6844 22.7104 32.058 21.2706 32.2912 20.2214C32.7318 18.239 29.3243 18.194 29.9274 20.3581C30.2079 21.3661 30.5939 22.7453 30.856 23.6807ZM33.8747 24.578C35.153 23.7174 37.5163 22.1105 38.8845 21.0742C41.3552 19.2029 37.6586 16.0157 36.1338 18.8715C35.1956 20.6285 34.0675 22.9353 33.4506 24.2131C33.3216 24.4798 33.6287 24.7437 33.8747 24.578Z" fill="#1C2550"/>
</svg>
