<svg width="142" height="34" viewBox="0 0 142 34" fill="none" xmlns="http://www.w3.org/2000/svg">
<path d="M24.632 23.332C24.632 23.98 24.38 24.16 23.696 24.196C22.976 24.232 20.42 24.232 17.972 24.124C18.44 25.06 18.98 26.572 19.124 27.544C22.472 27.544 24.776 27.436 26.144 26.896C27.548 26.392 28.052 25.456 28.052 23.368V10.264H32.732V7.096H28.052V0.975998H24.632V7.096H11.096V10.264H24.632V23.332ZM12.5 14.008C14.264 16.24 16.46 19.336 17.432 21.208L20.24 19.48C19.232 17.608 16.964 14.656 15.164 12.532L12.5 14.008ZM9.692 7.816C8.612 6.124 6.272 3.64 4.292 1.84L1.7 3.568C3.644 5.44 5.948 8.068 6.92 9.796L9.692 7.816ZM8.756 14.08H0.908V17.212H5.48V25.924C3.896 26.572 2.06 28.048 0.26 29.992L2.636 33.268C4.22 30.964 5.876 28.732 6.992 28.732C7.784 28.732 8.972 29.92 10.52 30.82C13.112 32.332 16.1 32.728 20.564 32.728C24.056 32.728 30.176 32.512 32.66 32.368C32.732 31.36 33.272 29.632 33.704 28.696C30.212 29.128 24.632 29.452 20.672 29.452C16.712 29.452 13.508 29.2 11.204 27.796C10.124 27.184 9.404 26.644 8.756 26.212V14.08ZM69.2 18.832V15.484H54.764V9.436H66.572V6.088H54.764V0.759999H51.236V6.088H39.752V9.436H51.236V15.484H36.944V18.832H47.744C45.548 22.648 42.776 26.248 41.804 27.22C40.76 28.444 39.968 29.236 39.14 29.452C39.572 30.352 40.112 32.044 40.292 32.764C41.84 32.152 44.036 32.044 62.828 30.532C63.512 31.648 64.088 32.692 64.484 33.592L67.796 31.864C66.176 28.66 62.756 23.944 59.552 20.416L56.528 21.784C58.004 23.476 59.516 25.528 60.92 27.544L44.684 28.588C47.168 25.816 49.796 22.396 51.992 18.832H69.2ZM77.156 27.184V19.228H83.852V27.184H77.156ZM83.852 9.472V16.312H77.156V9.472H83.852ZM94.04 6.376C94.616 4.792 95.084 3.136 95.516 1.48L92.276 0.723999C91.196 5.476 89.288 10.264 86.912 13.36V6.556H81.152C81.728 5.044 82.412 3.136 83.024 1.336L79.388 0.723999C79.172 2.452 78.632 4.828 78.128 6.556H74.096V32.872H77.156V30.136H86.912V13.612C87.74 14.08 89 14.98 89.54 15.484C90.692 13.828 91.808 11.74 92.816 9.436H101.312C100.844 23.008 100.376 28.444 99.224 29.632C98.828 30.136 98.432 30.244 97.712 30.244C96.812 30.244 94.724 30.208 92.42 30.028C93.032 30.964 93.428 32.368 93.5 33.268C95.552 33.376 97.676 33.412 98.936 33.268C100.304 33.088 101.168 32.764 102.068 31.576C103.508 29.776 103.94 24.196 104.444 7.96C104.48 7.528 104.48 6.376 104.48 6.376H94.04ZM98.648 22.612C97.568 20.488 95.12 17.068 93.212 14.584L90.584 16.06C92.492 18.652 94.832 22.18 95.84 24.376L98.648 22.612ZM140.732 7.636V4.648H124.82C125.252 3.64 125.648 2.596 126.008 1.588L122.768 0.759999C121.508 4.864 119.312 9.004 116.9 11.596C117.656 12.028 119.132 12.928 119.78 13.468C121.076 11.92 122.336 9.868 123.452 7.636H140.732ZM118.7 4.936C117.296 3.784 114.524 2.236 112.4 1.3L110.528 3.604C112.652 4.648 115.388 6.304 116.72 7.492L118.7 4.936ZM116.324 15.124C115.064 14.008 112.436 12.532 110.456 11.596L108.62 13.864C110.6 14.872 113.192 16.528 114.416 17.68L116.324 15.124ZM112.508 33.232C114.056 29.848 115.784 25.492 117.152 21.712L114.524 19.876C113.084 23.98 111.032 28.624 109.628 31.468L112.508 33.232ZM130.832 25.672L132.236 24.7C131.444 23.584 129.824 22.036 128.384 20.92H135.656C135.548 22.828 135.404 24.412 135.26 25.672H130.832ZM127.808 20.92L126.26 21.892C127.556 22.972 129.104 24.52 129.968 25.672H123.056C123.308 24.232 123.524 22.612 123.776 20.92H127.808ZM128.528 13.54L127.16 14.44C128.348 15.412 129.752 16.78 130.58 17.86H124.172C124.352 16.42 124.568 14.944 124.676 13.54H128.528ZM136.052 13.54C135.98 15.088 135.908 16.564 135.836 17.86H131.48L132.74 16.96C132.056 15.988 130.616 14.584 129.32 13.54H136.052ZM141.668 20.92V17.86H138.932C139.004 16.168 139.112 14.26 139.184 12.136C139.22 11.704 139.256 10.66 139.256 10.66H121.868C121.652 12.82 121.4 15.34 121.076 17.86H117.404V20.92H120.644C120.248 23.764 119.78 26.464 119.384 28.552H134.792C134.612 29.452 134.36 30.028 134.108 30.316C133.748 30.784 133.424 30.856 132.776 30.856C132.092 30.856 130.544 30.856 128.816 30.676C129.32 31.468 129.608 32.692 129.68 33.484C131.408 33.592 133.172 33.628 134.18 33.484C135.296 33.34 136.124 33.052 136.844 32.044C137.312 31.504 137.672 30.424 137.96 28.552H140.696V25.672H138.356C138.5 24.34 138.608 22.792 138.716 20.92H141.668Z" fill="white"/>
</svg>
