<svg width="142" height="34" viewBox="0 0 142 34" fill="none" xmlns="http://www.w3.org/2000/svg">
<path d="M26.576 5.008V7.78H16.388V5.008H26.576ZM16.388 13.216V10.3H26.576V13.216H16.388ZM16.388 23.692V15.952H29.672C28.412 17.032 26.648 18.436 25.064 19.444C23.768 18.472 22.544 17.5 21.392 16.708L19.124 18.4C22.868 21.1 27.404 25.132 29.492 27.76L31.976 25.78C30.824 24.448 29.06 22.828 27.188 21.208C28.952 20.2 30.896 18.868 32.624 17.644L30.068 15.592L29.816 15.808V2.272H13.004V22.432C13.004 24.016 12.104 24.844 11.42 25.276C11.96 25.816 12.68 27.148 12.896 27.904C13.688 27.4 14.876 27.04 22.328 25.132C22.256 24.484 22.148 23.224 22.148 22.324L16.388 23.692ZM9.584 7.78C8.504 6.124 6.164 3.748 4.22 2.128L1.664 3.928C3.608 5.692 5.912 8.14 6.92 9.796L9.584 7.78ZM8.684 13.504H0.944V16.6H5.444V27.004C3.896 27.688 2.132 29.056 0.44 30.676L2.456 33.484C4.292 31.36 6.128 29.38 7.388 29.38C8.216 29.38 9.368 30.388 10.916 31.252C13.472 32.584 16.568 33.016 20.816 33.016C24.272 33.016 30.284 32.764 32.768 32.62C32.804 31.72 33.308 30.172 33.668 29.344C30.248 29.74 24.848 30.028 20.924 30.028C17.072 30.028 13.868 29.776 11.564 28.552C10.268 27.868 9.404 27.22 8.684 26.86V13.504ZM63.584 18.616V28.48H54.764V16.528H65.888V3.928H62.18V13.288H54.764V0.831998H51.056V13.288H43.856V3.928H40.328V16.528H51.056V28.48H42.344V18.616H38.6V31.828H63.584V33.808H67.292V18.616H63.584ZM93.932 25.312C93.428 26.716 92.492 28.768 91.7 30.172H84.032L85.976 29.488C85.652 28.3 84.788 26.536 83.924 25.276L80.936 26.248C81.62 27.436 82.376 28.984 82.664 30.172H73.304V33.052H104.732V30.172H95.048C95.732 28.948 96.488 27.508 97.172 26.104L93.932 25.312ZM95.624 22.54H81.8V18.652H95.624V22.54ZM99.188 15.952H78.452V25.24H99.188V15.952ZM102.284 5.296C101.132 6.556 99.296 8.14 97.64 9.436C96.884 8.68 96.236 7.888 95.552 7.096C97.244 5.908 99.188 4.36 100.808 2.92L98.288 1.156C97.244 2.308 95.552 3.82 94.076 5.008C93.176 3.712 92.456 2.344 91.844 0.939999L88.928 1.84C90.296 5.044 92.096 7.96 94.292 10.552H83.924C85.76 8.356 87.308 5.872 88.352 3.1L86.12 2.02L85.544 2.164H74.708V4.9H83.96C83.096 6.448 82.016 7.924 80.756 9.328C79.64 8.212 77.876 6.916 76.328 6.052L74.492 7.888C75.968 8.824 77.66 10.156 78.776 11.272C76.688 13.108 74.312 14.656 72.008 15.628C72.656 16.24 73.628 17.392 74.024 18.112C77.12 16.636 80.18 14.512 82.772 11.812V13.396H95.408V11.812C97.82 14.368 100.628 16.456 103.724 17.86C104.264 16.96 105.272 15.664 106.028 15.016C103.688 14.116 101.528 12.784 99.584 11.164C101.276 9.976 103.22 8.464 104.768 7.06L102.284 5.296ZM135.8 17.572C134.252 19.156 131.84 21.136 129.716 22.612C128.456 21.244 127.448 19.696 126.62 18.04V17.14H140.696V14.188H136.088C136.412 10.48 136.664 6.232 136.736 2.704L134.072 2.524L133.496 2.668H111.752V5.764H133.028C132.992 6.628 132.956 7.492 132.92 8.464H112.904V11.452H132.74C132.704 12.388 132.632 13.288 132.56 14.188H109.484V17.14H123.2V23.26C118.124 25.312 112.832 27.436 109.376 28.624L111.212 31.648C114.596 30.208 118.988 28.336 123.2 26.464V30.388C123.2 30.892 123.02 31.072 122.444 31.072C121.904 31.108 119.888 31.108 117.944 31.036C118.412 31.828 118.88 33.052 119.096 33.916C121.832 33.952 123.704 33.916 124.964 33.448C126.224 33.016 126.62 32.188 126.62 30.46V23.512C129.644 27.688 133.784 30.784 138.968 32.476C139.436 31.576 140.444 30.208 141.164 29.56C137.528 28.588 134.36 26.896 131.768 24.7C133.964 23.296 136.556 21.46 138.68 19.696L135.8 17.572ZM111.716 19.876C113.984 21.208 116.828 23.188 118.196 24.556L120.572 22.252C119.06 20.884 116.18 19.048 113.948 17.86L111.716 19.876Z" fill="white"/>
</svg>
