<svg width="141" height="35" viewBox="0 0 141 35" fill="none" xmlns="http://www.w3.org/2000/svg">
<path d="M24.388 23.116V29.056H8.008V23.116H24.388ZM4.624 34.06H8.008V32.152H24.388V33.988H27.88V20.02H4.624V34.06ZM18.628 13.756V8.788H29.284V5.728H18.628V0.831998H15.1V5.728H8.404C8.98 4.468 9.52 3.136 9.988 1.84L6.64 1.048C5.344 4.972 3.076 9.004 0.484 11.452C1.312 11.884 2.824 12.784 3.544 13.252C4.624 12.028 5.704 10.516 6.748 8.788H15.1V13.756H0.34V16.888H31.768V13.756H18.628ZM42.352 27.976V20.344H61.54V27.976H42.352ZM61.54 9.652V17.032H42.352V9.652H61.54ZM51.64 6.304C52.396 4.792 53.188 3.028 53.908 1.336L49.624 0.651998C49.264 2.308 48.58 4.504 47.86 6.304H39.004V33.844H42.352V31.324H61.54V33.7H65.068V6.304H51.64ZM82.384 7.132C81.124 5.62 78.496 3.208 76.516 1.552L74.284 3.604C76.264 5.404 78.82 7.888 79.972 9.544L82.384 7.132ZM80.512 26.788V11.884H71.728V15.088H77.164V27.148C77.164 28.984 76.156 30.244 75.436 30.82C76.012 31.324 76.912 32.548 77.236 33.268C77.812 32.512 78.856 31.72 84.868 27.4C84.508 26.752 84.04 25.384 83.824 24.484L80.512 26.788ZM91.708 30.1C89.548 30.1 89.152 29.776 89.152 28.336V18.004H98.872V19.804H102.256V3.244H85.012V6.52H98.872V14.836H85.732V28.336C85.732 32.296 87.064 33.304 91.42 33.304H98.98C103.084 33.304 104.092 31.648 104.596 25.672C103.624 25.456 102.184 24.88 101.392 24.268C101.14 29.236 100.816 30.1 98.764 30.1H91.708ZM134.8 17.572C133.252 19.156 130.84 21.136 128.716 22.612C127.456 21.244 126.448 19.696 125.62 18.04V17.14H139.696V14.188H135.088C135.412 10.48 135.664 6.232 135.736 2.704L133.072 2.524L132.496 2.668H110.752V5.764H132.028C131.992 6.628 131.956 7.492 131.92 8.464H111.904V11.452H131.74C131.704 12.388 131.632 13.288 131.56 14.188H108.484V17.14H122.2V23.26C117.124 25.312 111.832 27.436 108.376 28.624L110.212 31.648C113.596 30.208 117.988 28.336 122.2 26.464V30.388C122.2 30.892 122.02 31.072 121.444 31.072C120.904 31.108 118.888 31.108 116.944 31.036C117.412 31.828 117.88 33.052 118.096 33.916C120.832 33.952 122.704 33.916 123.964 33.448C125.224 33.016 125.62 32.188 125.62 30.46V23.512C128.644 27.688 132.784 30.784 137.968 32.476C138.436 31.576 139.444 30.208 140.164 29.56C136.528 28.588 133.36 26.896 130.768 24.7C132.964 23.296 135.556 21.46 137.68 19.696L134.8 17.572ZM110.716 19.876C112.984 21.208 115.828 23.188 117.196 24.556L119.572 22.252C118.06 20.884 115.18 19.048 112.948 17.86L110.716 19.876Z" fill="white"/>
</svg>
