<svg width="141" height="34" viewBox="0 0 141 34" fill="none" xmlns="http://www.w3.org/2000/svg">
<path d="M32.624 20.596V17.284H19.088C19.124 16.852 19.124 16.456 19.124 16.06V11.56H30.716V8.248H24.092C25.316 6.412 26.72 4.144 27.836 2.092L24.236 0.868C23.372 3.136 21.752 6.088 20.384 8.248H11.132L13.436 6.988C12.752 5.296 11.204 2.848 9.692 1.048L6.884 2.452C8.216 4.18 9.62 6.556 10.304 8.248H3.788V11.56H15.272V15.988C15.272 16.384 15.272 16.816 15.236 17.284H1.52V20.596H14.552C13.292 24.196 9.8 27.904 0.62 30.82C1.556 31.612 2.636 33.016 3.104 33.808C11.816 30.892 15.884 27.112 17.72 23.224C20.708 28.3 25.136 31.864 31.292 33.628C31.832 32.584 32.876 31.108 33.668 30.316C27.26 28.84 22.616 25.384 19.88 20.596H32.624ZM68.948 14.836H55.124V6.556H66.5V3.244H39.536V6.556H51.596V14.836H37.088V18.148H51.596V29.236C51.596 29.992 51.272 30.208 50.516 30.208C49.688 30.244 46.952 30.28 44.108 30.172C44.684 31.108 45.332 32.692 45.512 33.7C49.112 33.7 51.596 33.628 53.072 33.052C54.548 32.512 55.124 31.504 55.124 29.272V18.148H68.948V14.836ZM104.336 7.636C103.22 5.944 100.808 3.496 98.792 1.768L96.272 3.496C98.288 5.296 100.628 7.888 101.636 9.58L104.336 7.636ZM100.52 15.772C99.476 17.824 98.036 19.804 96.416 21.64C95.912 19.444 95.48 17.032 95.12 14.332H104.984V11.164H94.76C94.472 7.996 94.328 4.576 94.364 1.12H90.908C90.944 4.54 91.088 7.924 91.376 11.164H83.744V5.512C85.868 5.08 87.92 4.576 89.684 4L87.344 1.192C83.852 2.416 78.128 3.568 73.124 4.324C73.556 5.044 73.988 6.34 74.168 7.096C76.112 6.844 78.236 6.556 80.36 6.196V11.164H73.088V14.332H80.36V20.02C77.372 20.596 74.6 21.1 72.476 21.46L73.412 24.808C75.464 24.376 77.804 23.872 80.36 23.332V29.74C80.36 30.316 80.144 30.496 79.496 30.532C78.884 30.568 76.796 30.568 74.6 30.496C75.104 31.396 75.68 32.944 75.86 33.88C78.74 33.88 80.756 33.772 82.016 33.232C83.276 32.692 83.744 31.72 83.744 29.74V22.576C85.832 22.144 87.956 21.64 90.008 21.172L89.756 18.184L83.744 19.372V14.332H91.7C92.132 18.04 92.744 21.496 93.608 24.412C91.052 26.644 88.244 28.552 85.292 29.92C86.156 30.676 87.056 31.792 87.596 32.62C90.116 31.288 92.492 29.668 94.724 27.76C96.308 31.612 98.432 33.988 101.168 33.988C104.084 33.988 105.2 32.332 105.776 26.212C104.876 25.924 103.724 25.132 102.968 24.34C102.788 28.804 102.356 30.568 101.492 30.568C100.016 30.568 98.612 28.552 97.424 25.204C99.836 22.756 101.888 20.02 103.508 17.032L100.52 15.772ZM114.848 1.012C113.408 6.304 111.032 11.668 108.26 15.196C108.836 16.06 109.7 17.932 109.988 18.76C110.708 17.86 111.356 16.888 112.004 15.772V33.844H115.172V9.58C116.288 7.06 117.188 4.432 117.98 1.876L114.848 1.012ZM118.916 33.844H122.192V8.284H118.916V33.844ZM120.428 2.272C121.976 4.432 123.812 7.42 124.604 9.256L127.34 7.6C126.476 5.8 124.568 2.884 123.02 0.831998L120.428 2.272ZM140.192 2.056H127.664V5.08H136.88V29.884C136.88 30.46 136.7 30.676 136.088 30.676C135.548 30.712 133.604 30.748 131.732 30.64C132.164 31.468 132.668 32.908 132.776 33.772C135.584 33.772 137.456 33.7 138.608 33.16C139.796 32.656 140.192 31.72 140.192 29.92V2.056Z" fill="white"/>
</svg>
