<svg width="108" height="50" viewBox="0 0 108 50" fill="none" xmlns="http://www.w3.org/2000/svg">
<path d="M10.044 8.588H13.392V12.152H21.96V8.552H25.272V12.152H32.04V15.212H25.272V18.884H33.552V22.196H25.344C27.528 24.476 30.696 26.288 34.848 27.632L33.372 30.656C27.972 28.496 24.072 25.676 21.672 22.196H14.148C11.748 25.604 8.04 28.448 3.024 30.728L1.224 27.812C5.256 26.3 8.352 24.428 10.512 22.196H2.448V18.884H10.044V15.212H3.924V12.152H10.044V8.588ZM13.392 18.884H21.96V15.212H13.392V18.884ZM10.836 31.34C9.588 34.46 8.112 37.184 6.408 39.512L3.6 37.496C5.232 35.384 6.648 32.852 7.848 29.9L10.836 31.34ZM27.864 28.604C29.64 31.604 31.2 34.82 32.544 38.252L29.448 39.656C28.032 35.816 26.508 32.456 24.876 29.576L27.864 28.604ZM22.068 29.396C23.508 32.204 24.78 35.3 25.884 38.684L22.752 40.088C21.648 36.416 20.424 33.176 19.08 30.368L22.068 29.396ZM10.656 41.528L9.864 38.252C10.992 38.396 12.06 38.468 13.068 38.468C13.716 38.468 14.04 37.988 14.04 37.028V25.328H17.46V37.928C17.46 40.328 16.392 41.528 14.256 41.528H10.656ZM40.356 14.96H52.344V13.268H39.312V10.496H52.344V8.444H55.656V10.496H68.724V13.268H55.656V14.96H67.644V17.66H40.356V14.96ZM45.864 26.048H42.48V19.136H65.52V26.048H62.604L61.452 28.1H70.164V30.908H37.836V28.1H46.764L45.864 26.048ZM58.968 26.048H49.464L50.364 28.1H57.816L58.968 26.048ZM62.244 23.564V21.584H45.72V23.564H62.244ZM66.06 32.528V41.744H62.784V40.412H45.252V41.744H41.94V32.528H66.06ZM45.252 37.64H62.784V35.3H45.252V37.64ZM78.768 12.296H83.268L82.44 30.728H79.596L78.768 12.296ZM81 32.852C81.792 32.852 82.428 33.092 82.908 33.572C83.412 34.028 83.664 34.64 83.664 35.408C83.664 36.152 83.412 36.776 82.908 37.28C82.356 37.76 81.72 38 81 38C80.28 38 79.668 37.748 79.164 37.244C78.636 36.74 78.372 36.128 78.372 35.408C78.372 34.64 78.636 34.028 79.164 33.572C79.644 33.092 80.256 32.852 81 32.852Z" fill="white"/>
</svg>
