<?xml version="1.0" standalone="no"?><!DOCTYPE svg PUBLIC "-//W3C//DTD SVG 1.1//EN" "http://www.w3.org/Graphics/SVG/1.1/DTD/svg11.dtd"><svg t="1644657271760" class="icon" viewBox="0 0 1024 1024" version="1.1" xmlns="http://www.w3.org/2000/svg" p-id="5702" xmlns:xlink="http://www.w3.org/1999/xlink" width="200" height="200"><defs><style type="text/css"></style></defs><path d="M824.1 89.6H199.9C131.2 89.6 75 143.9 75 210.3v603.4c0 66.4 56.2 120.7 124.9 120.7h624.3c68.7 0 124.9-54.3 124.9-120.7V210.3c-0.1-66.4-56.3-120.7-125-120.7z m0 663.8c0 33.2-28.1 60.3-62.4 60.3H262.3c-34.3 0-62.4-27.2-62.4-60.3V270.6c0-33.2 28.1-60.3 62.4-60.3h499.4c34.3 0 62.4 27.2 62.4 60.3v482.8z" p-id="5703" fill="#d81e06"></path><path d="M651.8 442.1H372.2c-38.5 0-69.9 31.5-69.9 69.9s31.5 69.9 69.9 69.9h279.6c38.5 0 69.9-31.5 69.9-69.9s-31.4-69.9-69.9-69.9z" p-id="5704" fill="#d81e06"></path></svg>