<?xml version="1.0" standalone="no"?><!DOCTYPE svg PUBLIC "-//W3C//DTD SVG 1.1//EN" "http://www.w3.org/Graphics/SVG/1.1/DTD/svg11.dtd"><svg t="1652503439330" class="icon" viewBox="0 0 1024 1024" version="1.1" xmlns="http://www.w3.org/2000/svg" p-id="8714" xmlns:xlink="http://www.w3.org/1999/xlink" width="200" height="200"><defs><style type="text/css">@font-face { font-family: feedback-iconfont; src: url("//at.alicdn.com/t/font_1031158_u69w8yhxdu.woff2?t=1630033759944") format("woff2"), url("//at.alicdn.com/t/font_1031158_u69w8yhxdu.woff?t=1630033759944") format("woff"), url("//at.alicdn.com/t/font_1031158_u69w8yhxdu.ttf?t=1630033759944") format("truetype"); }
</style></defs><path d="M896 512a42.666667 42.666667 0 0 0-42.666667 42.666667v256a42.666667 42.666667 0 0 1-42.666666 42.666666H213.333333a42.666667 42.666667 0 0 1-42.666666-42.666666V213.333333a42.666667 42.666667 0 0 1 42.666666-42.666666h256a42.666667 42.666667 0 0 0 0-85.333334H213.333333a128 128 0 0 0-128 128v597.333334a128 128 0 0 0 128 128h597.333334a128 128 0 0 0 128-128v-256a42.666667 42.666667 0 0 0-42.666667-42.666667z m-640 32.426667V725.333333a42.666667 42.666667 0 0 0 42.666667 42.666667h180.906666a42.666667 42.666667 0 0 0 30.293334-12.373333l295.253333-295.68L926.293333 341.333333a42.666667 42.666667 0 0 0 0-60.586666l-180.906666-183.04a42.666667 42.666667 0 0 0-60.586667 0l-120.32 120.746666-296.106667 295.68a42.666667 42.666667 0 0 0-12.373333 30.293334z m459.093333-356.266667l120.746667 120.746667-60.586667 60.586666-120.746666-120.746666zM341.333333 561.92l253.013334-253.013333 120.746666 120.746666L462.08 682.666667H341.333333z" p-id="8715" fill="#1296db"></path></svg>