<svg width="162" height="48" viewBox="0 0 162 48" fill="none" xmlns="http://www.w3.org/2000/svg">
<path d="M25.784 11.72H13.016V16.52H20.648C19.976 19.448 18.296 21.272 12.344 22.376C13.4 23.288 14.696 25.304 15.224 26.504C22.568 24.536 24.92 21.416 25.784 16.52H30.488V19.304C30.488 23.432 31.4 24.776 35.912 24.776H40.136C43.256 24.776 44.6 23.672 45.08 19.208C43.784 18.92 41.672 18.2 40.76 17.48C40.616 20.072 40.424 20.36 39.608 20.36H36.632C35.576 20.36 35.432 20.264 35.432 19.256V16.52H44.504V11.72H31.4V8.456H41.816V3.752H31.4V0.343997H25.784V3.752H15.992V8.456H25.784V11.72ZM13.016 10.52C11.288 8.408 7.592 5.384 4.808 3.32L1.016 7.112C3.8 9.368 7.304 12.68 8.888 14.792L13.016 10.52ZM8.936 22.616C6.248 27.848 2.744 33.512 0.392 36.92L5.24 40.568C7.928 36.2 10.808 31.016 13.16 26.216L8.936 22.616ZM24.776 30.776H33.32C32.312 32.264 30.92 33.608 29.192 34.808C27.368 33.704 25.832 32.408 24.536 30.968L24.776 30.776ZM37.064 26.408L36.008 26.6H28.568C29.144 25.832 29.672 25.016 30.152 24.152L24.968 22.616C22.616 26.792 17.96 30.248 12.92 32.36C14.072 33.272 15.992 35.24 16.856 36.248C18.2 35.576 19.496 34.808 20.792 33.896C21.896 35.144 23.048 36.344 24.344 37.4C20.84 38.84 16.52 39.944 11.288 40.664C12.44 41.864 13.736 43.736 14.36 45.176C20.312 44.168 25.256 42.68 29.192 40.712C33.032 42.824 37.496 44.312 42.488 45.224C43.256 43.736 44.744 41.48 45.944 40.28C41.672 39.704 37.736 38.744 34.328 37.4C37.448 34.808 39.56 31.688 40.808 27.944L37.064 26.408ZM82.232 7.544H60.104V5.72H82.232V7.544ZM82.232 12.872H60.104V11H82.232V12.872ZM87.992 1.928H54.584V16.616H87.992V1.928ZM86.168 33.032C84.632 34.04 82.664 35.24 80.792 36.2C79.4 35.288 78.2 34.232 77.24 33.032H86.168ZM67.784 39.032V33.032H71.72C72.824 35 74.168 36.776 75.704 38.312L67.784 39.032ZM87.752 33.032H92.36V28.904H58.664C58.76 27.608 58.808 26.312 58.808 25.16V22.424H91.592V18.344H53.336V25.112C53.336 30.104 52.856 37.112 48.2 42.056C49.496 42.632 51.896 44.216 52.904 45.128C55.928 41.816 57.464 37.352 58.184 33.032H62.408V39.512C60.68 39.656 59.096 39.8 57.704 39.896L58.28 44.504C63.32 44.024 70.184 43.304 76.712 42.68L76.616 39.128C80.12 42.152 84.68 44.168 90.488 45.176C91.16 43.784 92.552 41.624 93.704 40.52C90.392 40.088 87.512 39.368 84.968 38.36C86.936 37.4 89.048 36.248 90.824 35L87.752 33.032ZM87.704 27.368V24.008H60.44V27.368H87.704ZM110.024 15.128C109.448 20.024 108.536 24.344 107.144 28.088C105.944 27.224 104.744 26.408 103.592 25.688C104.36 22.328 105.128 18.776 105.896 15.128H110.024ZM112.28 9.752L111.32 9.896H107C107.624 6.776 108.2 3.704 108.68 0.871999L103.304 0.391999C102.872 3.32 102.296 6.584 101.672 9.896H96.92V15.128H100.664C99.512 20.696 98.312 26.072 97.208 30.008L101.912 32.456L102.296 30.968C103.16 31.592 104.024 32.264 104.888 32.936C102.872 36.44 100.28 39.128 97.064 40.808C98.216 41.864 99.704 43.88 100.472 45.32C104.024 43.112 106.904 40.28 109.208 36.536C110.936 38.168 112.424 39.752 113.432 41.096L116.888 36.488C115.688 34.952 113.816 33.224 111.704 31.496C113.912 25.976 115.208 19.016 115.736 10.28L112.28 9.752ZM141.464 19.352H130.904V16.616C134.264 13.448 137.816 8.984 140.36 5.24L136.616 2.456L135.464 2.744H116.696V8.024H131.624C130.28 10.04 128.6 12.152 127.016 13.784H125.24V19.352H115.112V24.728H125.24V38.744C125.24 39.416 125 39.608 124.184 39.608C123.416 39.656 120.872 39.608 118.424 39.512C119.24 41.096 120.2 43.544 120.488 45.128C123.992 45.176 126.584 44.984 128.504 44.072C130.376 43.208 130.904 41.672 130.904 38.792V24.728H141.464V19.352ZM152.312 47.624C158.264 45.848 161.768 41.432 161.768 35.96C161.768 31.928 159.992 29.384 156.584 29.384C154.04 29.384 151.88 31.016 151.88 33.704C151.88 36.44 154.04 37.976 156.44 37.976C156.632 37.976 156.824 37.976 156.968 37.928C156.68 40.472 154.52 42.536 150.776 43.736L152.312 47.624Z" fill="white"/>
</svg>
