<svg width="161" height="48" viewBox="0 0 161 48" fill="none" xmlns="http://www.w3.org/2000/svg">
<path d="M10.528 15.512H33.136V18.968H10.528V15.512ZM10.528 7.352H33.136V10.856H10.528V7.352ZM44.032 29.48H24.784V24.008H39.04V2.312H4.912V24.008H18.88V29.48H0.16V34.904H18.88V45.128H24.784V34.904H44.032V29.48ZM71.536 37.064V20.456H88.48V14.648H71.536V0.919998H65.392V37.064H48.208V42.824H91.84V37.064H71.536ZM109.024 15.128C108.448 20.024 107.536 24.344 106.144 28.088C104.944 27.224 103.744 26.408 102.592 25.688C103.36 22.328 104.128 18.776 104.896 15.128H109.024ZM111.28 9.752L110.32 9.896H106C106.624 6.776 107.2 3.704 107.68 0.871999L102.304 0.391999C101.872 3.32 101.296 6.584 100.672 9.896H95.92V15.128H99.664C98.512 20.696 97.312 26.072 96.208 30.008L100.912 32.456L101.296 30.968C102.16 31.592 103.024 32.264 103.888 32.936C101.872 36.44 99.28 39.128 96.064 40.808C97.216 41.864 98.704 43.88 99.472 45.32C103.024 43.112 105.904 40.28 108.208 36.536C109.936 38.168 111.424 39.752 112.432 41.096L115.888 36.488C114.688 34.952 112.816 33.224 110.704 31.496C112.912 25.976 114.208 19.016 114.736 10.28L111.28 9.752ZM140.464 19.352H129.904V16.616C133.264 13.448 136.816 8.984 139.36 5.24L135.616 2.456L134.464 2.744H115.696V8.024H130.624C129.28 10.04 127.6 12.152 126.016 13.784H124.24V19.352H114.112V24.728H124.24V38.744C124.24 39.416 124 39.608 123.184 39.608C122.416 39.656 119.872 39.608 117.424 39.512C118.24 41.096 119.2 43.544 119.488 45.128C122.992 45.176 125.584 44.984 127.504 44.072C129.376 43.208 129.904 41.672 129.904 38.792V24.728H140.464V19.352ZM151.312 47.624C157.264 45.848 160.768 41.432 160.768 35.96C160.768 31.928 158.992 29.384 155.584 29.384C153.04 29.384 150.88 31.016 150.88 33.704C150.88 36.44 153.04 37.976 155.44 37.976C155.632 37.976 155.824 37.976 155.968 37.928C155.68 40.472 153.52 42.536 149.776 43.736L151.312 47.624Z" fill="white"/>
</svg>
