<svg width="159" height="48" viewBox="0 0 159 48" fill="none" xmlns="http://www.w3.org/2000/svg">
<path d="M22.928 24.584V14.264H33.776V24.584H22.928ZM6.08 24.584V14.264H16.88V24.584H6.08ZM22.928 8.648V0.343997H16.88V8.648H0.32V32.84H6.08V30.2H16.88V45.176H22.928V30.2H33.776V32.6H39.776V8.648H22.928ZM89.6 21.848H70.976V11.912H85.856V6.296H59.648C60.272 4.712 60.848 3.176 61.376 1.592L55.28 0.103997C53.36 6.584 49.904 13.016 45.872 16.856C47.408 17.672 50.048 19.352 51.296 20.36C53.264 18.152 55.232 15.176 57.008 11.912H65.024V21.848H46.448V27.656H65.024V45.176H70.976V27.656H89.6V21.848ZM107.024 15.128C106.448 20.024 105.536 24.344 104.144 28.088C102.944 27.224 101.744 26.408 100.592 25.688C101.36 22.328 102.128 18.776 102.896 15.128H107.024ZM109.28 9.752L108.32 9.896H104C104.624 6.776 105.2 3.704 105.68 0.871999L100.304 0.391999C99.872 3.32 99.296 6.584 98.672 9.896H93.92V15.128H97.664C96.512 20.696 95.312 26.072 94.208 30.008L98.912 32.456L99.296 30.968C100.16 31.592 101.024 32.264 101.888 32.936C99.872 36.44 97.28 39.128 94.064 40.808C95.216 41.864 96.704 43.88 97.472 45.32C101.024 43.112 103.904 40.28 106.208 36.536C107.936 38.168 109.424 39.752 110.432 41.096L113.888 36.488C112.688 34.952 110.816 33.224 108.704 31.496C110.912 25.976 112.208 19.016 112.736 10.28L109.28 9.752ZM138.464 19.352H127.904V16.616C131.264 13.448 134.816 8.984 137.36 5.24L133.616 2.456L132.464 2.744H113.696V8.024H128.624C127.28 10.04 125.6 12.152 124.016 13.784H122.24V19.352H112.112V24.728H122.24V38.744C122.24 39.416 122 39.608 121.184 39.608C120.416 39.656 117.872 39.608 115.424 39.512C116.24 41.096 117.2 43.544 117.488 45.128C120.992 45.176 123.584 44.984 125.504 44.072C127.376 43.208 127.904 41.672 127.904 38.792V24.728H138.464V19.352ZM149.312 47.624C155.264 45.848 158.768 41.432 158.768 35.96C158.768 31.928 156.992 29.384 153.584 29.384C151.04 29.384 148.88 31.016 148.88 33.704C148.88 36.44 151.04 37.976 153.44 37.976C153.632 37.976 153.824 37.976 153.968 37.928C153.68 40.472 151.52 42.536 147.776 43.736L149.312 47.624Z" fill="white"/>
</svg>
