<svg width="163" height="48" viewBox="0 0 163 48" fill="none" xmlns="http://www.w3.org/2000/svg">
<path d="M27.36 13.928L27.936 13.832C27.696 12.584 27.072 10.808 26.304 9.32H35.328C34.896 10.808 34.272 12.536 33.696 13.928H27.36ZM16.656 4.664V9.32H20.784C21.504 10.712 22.128 12.536 22.416 13.928H15.216V21.8H20.496V18.296H40.32V21.8H45.792V13.928H38.832C39.552 12.632 40.32 11 41.088 9.32H45.072V4.664H33.312V0.439999H27.648V4.664H16.656ZM11.472 0.487998C9.024 7.352 4.896 14.168 0.576 18.488C1.536 19.832 3.072 23 3.6 24.392C4.704 23.24 5.808 21.944 6.864 20.552V45.08H12.288V12.104C14.064 8.888 15.648 5.528 16.896 2.216L11.472 0.487998ZM46.416 28.136V23.72H33.312V19.4H27.648V23.72H15.12V28.136H24.192C23.52 34.184 21.84 38.504 14.112 41.048C15.264 42.056 16.704 43.976 17.232 45.32C23.472 43.016 26.592 39.608 28.176 35.192H36.912C36.576 38.36 36.144 39.848 35.664 40.328C35.28 40.712 34.848 40.76 34.128 40.76C33.36 40.76 31.728 40.712 29.904 40.568C30.672 41.816 31.152 43.736 31.248 45.176C33.552 45.224 35.712 45.224 36.864 45.08C38.256 44.936 39.312 44.552 40.272 43.592C41.424 42.344 42.096 39.32 42.672 32.696L42.816 30.728H29.28C29.424 29.912 29.568 29.048 29.664 28.136H46.416ZM73.056 23.72V17.336H77.712C77.568 19.592 77.376 21.704 77.04 23.72H73.056ZM81.12 9.224C80.496 10.472 79.728 11.672 79.056 12.68H72.576C73.488 11.576 74.352 10.424 75.12 9.224H81.12ZM87.744 23.72H82.464C82.752 21.704 82.944 19.544 83.088 17.336H87.744V23.72ZM56.304 31.112V22.328H60.336V31.112H56.304ZM60.336 8.936V17.384H56.304V8.936H60.336ZM86.16 39.368C85.2 39.368 85.056 39.224 85.056 37.832V28.376H93.072V12.68H84.624C86.016 10.712 87.408 8.456 88.368 6.536L84.816 4.328L84 4.52H77.712C78.24 3.416 78.72 2.36 79.152 1.256L73.584 0.391999C72.144 4.328 69.552 8.888 65.472 12.488V3.944H51.264V39.8H56.304V36.104H65.472V14.648C66.432 15.464 67.44 16.568 67.968 17.384L68.112 17.24V28.376H75.936C74.064 33.8 70.176 37.976 61.632 40.664C62.928 41.816 64.416 43.88 64.992 45.32C72.864 42.536 77.232 38.456 79.728 33.368V37.88C79.728 42.824 80.736 44.36 85.248 44.36H89.328C93.024 44.36 94.32 42.632 94.848 35.768C93.408 35.432 91.152 34.52 90.096 33.656C89.952 38.648 89.76 39.368 88.752 39.368H86.16ZM111.024 15.128C110.448 20.024 109.536 24.344 108.144 28.088C106.944 27.224 105.744 26.408 104.592 25.688C105.36 22.328 106.128 18.776 106.896 15.128H111.024ZM113.28 9.752L112.32 9.896H108C108.624 6.776 109.2 3.704 109.68 0.871999L104.304 0.391999C103.872 3.32 103.296 6.584 102.672 9.896H97.92V15.128H101.664C100.512 20.696 99.312 26.072 98.208 30.008L102.912 32.456L103.296 30.968C104.16 31.592 105.024 32.264 105.888 32.936C103.872 36.44 101.28 39.128 98.064 40.808C99.216 41.864 100.704 43.88 101.472 45.32C105.024 43.112 107.904 40.28 110.208 36.536C111.936 38.168 113.424 39.752 114.432 41.096L117.888 36.488C116.688 34.952 114.816 33.224 112.704 31.496C114.912 25.976 116.208 19.016 116.736 10.28L113.28 9.752ZM142.464 19.352H131.904V16.616C135.264 13.448 138.816 8.984 141.36 5.24L137.616 2.456L136.464 2.744H117.696V8.024H132.624C131.28 10.04 129.6 12.152 128.016 13.784H126.24V19.352H116.112V24.728H126.24V38.744C126.24 39.416 126 39.608 125.184 39.608C124.416 39.656 121.872 39.608 119.424 39.512C120.24 41.096 121.2 43.544 121.488 45.128C124.992 45.176 127.584 44.984 129.504 44.072C131.376 43.208 131.904 41.672 131.904 38.792V24.728H142.464V19.352ZM153.312 47.624C159.264 45.848 162.768 41.432 162.768 35.96C162.768 31.928 160.992 29.384 157.584 29.384C155.04 29.384 152.88 31.016 152.88 33.704C152.88 36.44 155.04 37.976 157.44 37.976C157.632 37.976 157.824 37.976 157.968 37.928C157.68 40.472 155.52 42.536 151.776 43.736L153.312 47.624Z" fill="white"/>
</svg>
