<svg width="160" height="48" viewBox="0 0 160 48" fill="none" xmlns="http://www.w3.org/2000/svg">
<path d="M22.056 23.72V17.336H26.712C26.568 19.592 26.376 21.704 26.04 23.72H22.056ZM30.12 9.224C29.496 10.472 28.728 11.672 28.056 12.68H21.576C22.488 11.576 23.352 10.424 24.12 9.224H30.12ZM36.744 23.72H31.464C31.752 21.704 31.944 19.544 32.088 17.336H36.744V23.72ZM5.304 31.112V22.328H9.336V31.112H5.304ZM9.336 8.936V17.384H5.304V8.936H9.336ZM35.16 39.368C34.2 39.368 34.056 39.224 34.056 37.832V28.376H42.072V12.68H33.624C35.016 10.712 36.408 8.456 37.368 6.536L33.816 4.328L33 4.52H26.712C27.24 3.416 27.72 2.36 28.152 1.256L22.584 0.391999C21.144 4.328 18.552 8.888 14.472 12.488V3.944H0.264V39.8H5.304V36.104H14.472V14.648C15.432 15.464 16.44 16.568 16.968 17.384L17.112 17.24V28.376H24.936C23.064 33.8 19.176 37.976 10.632 40.664C11.928 41.816 13.416 43.88 13.992 45.32C21.864 42.536 26.232 38.456 28.728 33.368V37.88C28.728 42.824 29.736 44.36 34.248 44.36H38.328C42.024 44.36 43.32 42.632 43.848 35.768C42.408 35.432 40.152 34.52 39.096 33.656C38.952 38.648 38.76 39.368 37.752 39.368H35.16ZM70.536 37.064V20.456H87.48V14.648H70.536V0.919998H64.392V37.064H47.208V42.824H90.84V37.064H70.536ZM108.024 15.128C107.448 20.024 106.536 24.344 105.144 28.088C103.944 27.224 102.744 26.408 101.592 25.688C102.36 22.328 103.128 18.776 103.896 15.128H108.024ZM110.28 9.752L109.32 9.896H105C105.624 6.776 106.2 3.704 106.68 0.871999L101.304 0.391999C100.872 3.32 100.296 6.584 99.672 9.896H94.92V15.128H98.664C97.512 20.696 96.312 26.072 95.208 30.008L99.912 32.456L100.296 30.968C101.16 31.592 102.024 32.264 102.888 32.936C100.872 36.44 98.28 39.128 95.064 40.808C96.216 41.864 97.704 43.88 98.472 45.32C102.024 43.112 104.904 40.28 107.208 36.536C108.936 38.168 110.424 39.752 111.432 41.096L114.888 36.488C113.688 34.952 111.816 33.224 109.704 31.496C111.912 25.976 113.208 19.016 113.736 10.28L110.28 9.752ZM139.464 19.352H128.904V16.616C132.264 13.448 135.816 8.984 138.36 5.24L134.616 2.456L133.464 2.744H114.696V8.024H129.624C128.28 10.04 126.6 12.152 125.016 13.784H123.24V19.352H113.112V24.728H123.24V38.744C123.24 39.416 123 39.608 122.184 39.608C121.416 39.656 118.872 39.608 116.424 39.512C117.24 41.096 118.2 43.544 118.488 45.128C121.992 45.176 124.584 44.984 126.504 44.072C128.376 43.208 128.904 41.672 128.904 38.792V24.728H139.464V19.352ZM150.312 47.624C156.264 45.848 159.768 41.432 159.768 35.96C159.768 31.928 157.992 29.384 154.584 29.384C152.04 29.384 149.88 31.016 149.88 33.704C149.88 36.44 152.04 37.976 154.44 37.976C154.632 37.976 154.824 37.976 154.968 37.928C154.68 40.472 152.52 42.536 148.776 43.736L150.312 47.624Z" fill="white"/>
</svg>
