<svg width="213" height="58" viewBox="0 0 213 58" fill="none" xmlns="http://www.w3.org/2000/svg">
<path d="M29.664 38.896C28.992 40.624 27.984 42.784 27.168 44.224L28.464 44.512H19.008L20.832 43.984C20.448 42.544 19.584 40.528 18.528 38.896H29.664ZM15.648 30.112H32.016V34.384H15.648V30.112ZM33.6 38.896H37.92V25.6H10.128V38.896H15.36L12.864 39.52C13.776 41.008 14.592 42.928 15.072 44.512H3.456V49.216H44.736V44.512H32.688C33.504 43.12 34.464 41.248 35.472 39.28L33.6 38.896ZM41.424 11.344C40.08 12.88 38.016 14.752 36.048 16.288C35.28 15.52 34.512 14.704 33.792 13.84C35.904 12.4 38.304 10.576 40.368 8.848L36.048 5.776C34.8 7.216 33.024 8.896 31.248 10.336C30.24 8.8 29.424 7.168 28.704 5.488L23.808 7.024C25.536 11.104 27.744 14.848 30.384 18.112H18.048C20.304 15.376 22.176 12.256 23.472 8.752L19.776 6.832L18.816 7.072H6.24V11.68H16.08C15.072 13.312 13.872 14.944 12.48 16.432C11.136 15.088 8.88 13.6 7.056 12.544L3.936 15.664C5.664 16.768 7.728 18.352 9.072 19.696C6.528 21.76 3.744 23.488 0.96 24.64C2.112 25.6 3.6 27.568 4.368 28.816C8.208 26.944 11.952 24.4 15.216 21.232V22.864H32.88V20.896C35.856 23.92 39.312 26.416 43.152 28.144C44.016 26.656 45.648 24.448 46.944 23.392C44.256 22.336 41.712 20.896 39.408 19.216C41.472 17.776 43.68 16 45.6 14.32L41.424 11.344ZM74.784 28.096H85.872C83.952 30.112 81.024 32.512 78.48 34.384C76.992 32.752 75.792 30.976 74.784 29.104V28.096ZM86.208 28.096H93.168V23.152H87.312C87.792 18.208 88.128 12.688 88.224 7.696L83.616 7.456L82.56 7.696H53.952V12.88H81.792L81.696 15.472H55.536V20.56H81.408L81.264 23.152H51.072V28.096H68.928V35.632C62.208 38.272 55.152 40.912 50.64 42.448L53.76 47.584C58.128 45.76 63.6 43.408 68.928 41.104V44.656C68.928 45.328 68.64 45.52 67.872 45.52C67.152 45.568 64.368 45.568 62.112 45.424C62.88 46.816 63.696 48.832 64.032 50.368C67.632 50.368 70.272 50.272 72.192 49.552C74.16 48.784 74.784 47.536 74.784 44.8V37.936C78.624 42.736 83.664 46.336 89.952 48.4C90.816 46.912 92.496 44.56 93.792 43.36C89.328 42.208 85.392 40.288 82.176 37.792C84.912 36.016 88.176 33.76 90.912 31.504L86.208 28.096ZM66.384 34.096C64.416 32.224 60.432 29.872 57.504 28.336L53.712 31.792C56.736 33.52 60.576 36.112 62.304 37.984L66.384 34.096ZM114.857 46.768C113.609 46.768 112.361 46.592 111.113 46.24C109.897 45.888 108.761 45.344 107.705 44.608C106.649 43.872 105.721 42.96 104.921 41.872C104.153 40.752 103.577 39.424 103.193 37.888L108.905 35.68C109.257 37.28 109.929 38.56 110.921 39.52C111.945 40.48 113.241 40.96 114.809 40.96C115.577 40.96 116.281 40.832 116.921 40.576C117.593 40.288 118.169 39.904 118.649 39.424C119.161 38.944 119.545 38.384 119.801 37.744C120.089 37.072 120.233 36.336 120.233 35.536C120.233 34.768 120.089 34.064 119.801 33.424C119.545 32.752 119.177 32.176 118.697 31.696C118.217 31.184 117.641 30.8 116.969 30.544C116.329 30.256 115.609 30.112 114.809 30.112C113.817 30.112 112.937 30.336 112.169 30.784C111.401 31.2 110.745 31.728 110.201 32.368L104.105 29.584L106.025 13.168H124.505V18.688H111.257L110.009 26.368L110.393 26.464C111.033 25.92 111.817 25.456 112.745 25.072C113.673 24.688 114.793 24.496 116.105 24.496C117.481 24.496 118.793 24.768 120.041 25.312C121.289 25.824 122.393 26.56 123.353 27.52C124.313 28.48 125.081 29.648 125.657 31.024C126.233 32.368 126.521 33.872 126.521 35.536C126.521 37.168 126.233 38.672 125.657 40.048C125.081 41.424 124.265 42.608 123.209 43.6C122.185 44.592 120.953 45.376 119.513 45.952C118.105 46.496 116.553 46.768 114.857 46.768ZM131.044 46V40.288C132.932 38.432 134.676 36.704 136.276 35.104C136.948 34.432 137.636 33.744 138.34 33.04C139.044 32.336 139.7 31.68 140.308 31.072C140.916 30.464 141.46 29.92 141.94 29.44C142.42 28.928 142.788 28.528 143.044 28.24C143.556 27.632 144.004 27.088 144.388 26.608C144.804 26.128 145.124 25.664 145.348 25.216C145.604 24.736 145.796 24.272 145.924 23.824C146.052 23.344 146.116 22.832 146.116 22.288C146.116 21.232 145.7 20.32 144.868 19.552C144.036 18.752 142.9 18.352 141.46 18.352C140.02 18.352 138.9 18.768 138.1 19.6C137.3 20.4 136.756 21.312 136.468 22.336L130.756 19.984C131.012 19.12 131.428 18.24 132.004 17.344C132.58 16.416 133.316 15.6 134.212 14.896C135.108 14.16 136.164 13.568 137.38 13.12C138.628 12.64 140.02 12.4 141.556 12.4C143.22 12.4 144.724 12.656 146.068 13.168C147.412 13.648 148.548 14.32 149.476 15.184C150.404 16.048 151.124 17.072 151.636 18.256C152.148 19.408 152.404 20.656 152.404 22C152.404 24.048 151.892 25.936 150.868 27.664C149.876 29.36 148.66 30.944 147.22 32.416L143.092 36.544C142.004 37.632 140.772 38.848 139.396 40.192L139.588 40.48H152.884V46H131.044ZM158.448 11.632H164.928V25.36H179.376V11.632H185.856V46H179.376V31.504H164.928V46H158.448V11.632ZM190.841 40.816L202.841 27.856H191.225V22.48H210.569V27.664L198.569 40.624H210.761V46H190.841V40.816Z" fill="white"/>
</svg>
