<svg width="96" height="58" viewBox="0 0 96 58" fill="none" xmlns="http://www.w3.org/2000/svg">
<path d="M20.448 35.152C19.872 36.688 19.056 38.032 17.664 39.328C15.888 38.224 14.4 36.88 13.008 35.152H20.448ZM12.528 27.376H21.36V28.912C21.36 29.44 21.36 29.968 21.312 30.496H12.528V27.376ZM12.528 20.032H21.36V23.104H12.528V20.032ZM36.384 20.032V23.104H27.36V20.032H36.384ZM36.384 30.496H27.312C27.36 29.968 27.36 29.44 27.36 28.96V27.376H36.384V30.496ZM42.048 35.152V15.424H27.36V12.592H45.024V7.504H2.976V12.592H21.36V15.424H7.152V35.152H12.24L7.872 36.928C9.312 39.04 10.944 40.864 12.816 42.304C10.08 43.456 6.576 44.416 1.968 45.136C3.216 46.48 4.752 48.88 5.424 50.224C10.992 49.12 15.216 47.536 18.432 45.712C25.296 48.736 34.128 49.456 44.544 49.696C44.88 47.728 45.936 45.328 46.992 44.032C37.248 44.08 29.376 43.888 23.136 41.824C24.912 39.856 26.016 37.552 26.64 35.152H42.048ZM85.152 31.072C83.424 33.664 81.216 35.824 78.528 37.6C76.8 36.016 73.92 34.144 71.328 32.704C72.24 32.176 73.056 31.648 73.872 31.072H85.152ZM78.432 13.648C76.608 15.664 74.4 17.488 71.808 19.072C70.224 17.728 67.584 16.144 65.184 14.896C65.808 14.464 66.384 14.08 66.96 13.648H78.432ZM89.28 26.08L88.32 26.32H79.728C80.784 25.312 81.792 24.256 82.704 23.152L76.944 21.808C81.024 18.832 84.48 15.232 86.832 10.816L83.184 8.704L82.224 8.944H72.624C73.44 8.128 74.208 7.312 74.928 6.496L68.736 5.2C65.424 9.136 59.52 13.168 51.024 15.856C52.272 16.816 54.048 18.784 54.864 20.08C56.832 19.312 58.656 18.496 60.384 17.584C62.592 18.784 65.04 20.368 66.816 21.712C61.872 23.968 56.256 25.552 50.64 26.464C51.648 27.712 52.752 29.92 53.28 31.36C61.248 29.776 69.12 26.992 75.552 22.768C71.712 26.944 65.184 31.072 55.968 33.856C57.168 34.816 58.8 36.928 59.472 38.272C61.92 37.408 64.224 36.448 66.336 35.392C68.736 36.832 71.568 38.8 73.392 40.432C68.016 42.832 61.584 44.272 54.672 44.992C55.536 46.336 56.64 48.64 57.072 50.224C73.536 47.968 87.312 42.304 93.12 28.048L89.28 26.08Z" fill="white"/>
</svg>
