<svg width="192" height="58" viewBox="0 0 192 58" fill="none" xmlns="http://www.w3.org/2000/svg">
<path d="M33.888 34.624C33.888 35.44 33.552 35.728 32.544 35.776C31.584 35.776 28.128 35.776 25.056 35.632C25.872 37.216 26.736 39.76 26.976 41.44C31.44 41.44 34.752 41.296 36.816 40.384C38.976 39.52 39.696 37.984 39.696 34.672V18.928H45.6V13.552H39.696V5.68H33.888V13.552H16.08V18.928H33.888V34.624ZM17.424 23.536C19.776 26.56 22.704 30.64 23.952 33.232L28.848 30.256C27.456 27.664 24.384 23.776 21.984 20.992L17.424 23.536ZM14.496 14.944C13.104 12.544 9.888 9.232 7.248 6.832L2.832 9.808C5.424 12.304 8.448 15.904 9.744 18.256L14.496 14.944ZM13.344 23.056H2.16V28.384H7.728V38.992C5.664 39.904 3.312 41.728 1.056 44.08L5.088 49.888C6.768 47.056 8.88 43.84 10.272 43.84C11.328 43.84 13.008 45.376 15.264 46.528C18.768 48.448 22.848 49.024 28.944 49.024C33.84 49.024 41.664 48.736 44.976 48.496C45.072 46.816 46.032 43.84 46.752 42.16C41.952 42.928 34.128 43.36 29.136 43.36C23.856 43.36 19.392 43.072 16.128 41.2C15.024 40.576 14.112 40 13.344 39.52V23.056ZM93.888 29.968V24.208H74.784V17.392H90.432V11.68H74.784V5.344H68.784V11.68H53.952V17.392H68.784V24.208H50.304V29.968H63.936C62.64 34.048 60.768 38.704 58.944 42.352L52.08 42.64L52.896 48.688C61.584 48.256 74.112 47.536 86.016 46.72C86.832 48.16 87.552 49.504 88.032 50.656L93.744 47.68C91.68 43.36 87.36 37.12 83.232 32.416L77.808 34.816C79.344 36.736 80.976 38.896 82.512 41.152C76.752 41.44 70.896 41.776 65.52 42.016C67.44 38.416 69.504 34.048 71.232 29.968H93.888ZM104.832 40.192V30.784H112.464V40.192H104.832ZM112.464 25.84H104.832V18.064H112.464V25.84ZM127.728 12.736C128.448 10.72 129.072 8.704 129.6 6.64L124.128 5.392C122.736 11.008 120.432 16.816 117.648 20.848V13.072H110.208C111.024 11.008 111.888 8.608 112.704 6.208L106.464 5.344C106.272 7.6 105.696 10.672 105.072 13.072H99.648V48.736H104.832V45.232H117.648V22.816C118.944 23.68 120.576 24.784 121.344 25.504C122.832 23.44 124.32 20.8 125.568 17.92H135.84C135.312 34.864 134.688 42.064 133.296 43.6C132.672 44.224 132.144 44.416 131.184 44.416C129.936 44.416 127.104 44.416 124.032 44.128C125.04 45.712 125.808 48.112 125.904 49.696C128.736 49.792 131.616 49.84 133.44 49.6C135.36 49.264 136.704 48.736 138.048 46.96C140.016 44.416 140.544 36.784 141.168 15.328C141.216 14.656 141.216 12.736 141.216 12.736H127.728ZM133.248 34.624C131.76 31.84 128.592 27.28 126.192 23.968L121.728 26.512C124.08 30.016 127.056 34.72 128.4 37.6L133.248 34.624ZM158.976 10.384C157.2 8.8 153.648 6.832 150.96 5.68L147.696 9.856C150.528 11.152 153.936 13.36 155.52 14.944L158.976 10.384ZM156.672 22.912C154.944 21.328 151.44 19.504 148.704 18.4L145.584 22.624C148.272 23.872 151.728 25.936 153.312 27.52L156.672 22.912ZM151.584 49.696C153.792 44.992 156.144 39.376 158.016 34.24L153.456 31.072C151.344 36.688 148.464 42.832 146.448 46.576L151.584 49.696ZM176.112 38.608C176.304 37.072 176.496 35.344 176.688 33.568H181.632C181.488 35.536 181.344 37.216 181.2 38.608H176.112ZM171.792 33.568C171.6 35.344 171.408 37.072 171.216 38.608H166.704C166.896 36.976 167.136 35.296 167.376 33.568H171.792ZM168.528 23.872H172.656C172.56 25.36 172.416 26.896 172.32 28.432H168L168.528 23.872ZM177.168 28.432C177.312 26.896 177.456 25.36 177.552 23.872H182.112C182.064 25.504 181.968 27.04 181.92 28.432H177.168ZM190.8 33.568V28.432H187.152C187.296 26.272 187.392 23.92 187.488 21.328C187.536 20.656 187.536 19.024 187.536 19.024H164.736C165.408 18.016 166.032 16.96 166.608 15.856H189.792V10.768H168.912C169.44 9.376 169.92 7.936 170.352 6.496L164.736 5.344C163.248 10.768 160.512 16.192 157.104 19.552C158.448 20.224 160.896 21.856 161.904 22.816C162.48 22.144 163.056 21.472 163.632 20.704C163.392 23.152 163.104 25.792 162.768 28.432H157.968V33.568H162.096C161.472 37.984 160.752 42.112 160.128 45.328L165.6 45.76L165.984 43.408H180.432C180.24 44.08 180 44.56 179.808 44.848C179.328 45.472 178.848 45.616 178.032 45.616C177.072 45.616 175.2 45.568 173.136 45.424C173.904 46.672 174.48 48.688 174.528 50.08C176.88 50.176 179.184 50.176 180.576 49.936C182.208 49.744 183.36 49.264 184.416 47.776C184.992 47.008 185.472 45.664 185.856 43.408H190.272V38.608H186.48C186.624 37.12 186.768 35.488 186.864 33.568H190.8Z" fill="white"/>
</svg>
