<svg width="192" height="58" viewBox="0 0 192 58" fill="none" xmlns="http://www.w3.org/2000/svg">
<path d="M34.416 36.256V42.736H14.256V36.256H34.416ZM8.4 50.368H14.256V48.016H34.416V50.224H40.56V30.976H8.4V50.368ZM28.224 22.288V16.768H42.24V11.536H28.224V5.296H22.176V11.536H14.544C15.264 10 15.888 8.464 16.416 6.88L10.704 5.44C9.024 10.624 6 15.904 2.544 19.168C3.984 19.792 6.576 21.28 7.776 22.192C9.12 20.704 10.464 18.88 11.712 16.768H22.176V22.288H2.88V27.568H45.168V22.288H28.224ZM59.808 41.2V32.32H84.048V41.2H59.808ZM84.048 18.112V26.656H59.808V18.112H84.048ZM72.672 12.304C73.632 10.384 74.544 8.272 75.456 6.112L68.016 5.152C67.632 7.312 66.864 9.952 66.048 12.304H54V50.08H59.808V47.008H84.048V50.032H90.096V12.304H72.672ZM112.992 13.792C111.216 11.584 107.52 8.368 104.784 6.064L100.992 9.616C103.68 12.064 107.328 15.616 108.864 17.824L112.992 13.792ZM110.592 38.944V19.984H97.92V25.456H104.88V40.24C104.88 42.784 103.488 44.656 102.48 45.52C103.392 46.384 104.928 48.448 105.456 49.648C106.32 48.592 107.808 47.296 116.064 41.392C115.44 40.24 114.624 37.888 114.336 36.352L110.592 38.944ZM125.856 43.936C123.216 43.936 122.784 43.6 122.784 41.584V29.248H133.872V31.6H139.632V8.464H115.872V14.128H133.872V23.872H116.88V41.536C116.88 47.728 118.896 49.408 125.232 49.408H134.256C140.16 49.408 141.84 47.056 142.512 38.8C140.928 38.368 138.432 37.456 137.136 36.496C136.8 42.832 136.368 43.936 133.872 43.936H125.856ZM170.784 28.096H181.872C179.952 30.112 177.024 32.512 174.48 34.384C172.992 32.752 171.792 30.976 170.784 29.104V28.096ZM182.208 28.096H189.168V23.152H183.312C183.792 18.208 184.128 12.688 184.224 7.696L179.616 7.456L178.56 7.696H149.952V12.88H177.792L177.696 15.472H151.536V20.56H177.408L177.264 23.152H147.072V28.096H164.928V35.632C158.208 38.272 151.152 40.912 146.64 42.448L149.76 47.584C154.128 45.76 159.6 43.408 164.928 41.104V44.656C164.928 45.328 164.64 45.52 163.872 45.52C163.152 45.568 160.368 45.568 158.112 45.424C158.88 46.816 159.696 48.832 160.032 50.368C163.632 50.368 166.272 50.272 168.192 49.552C170.16 48.784 170.784 47.536 170.784 44.8V37.936C174.624 42.736 179.664 46.336 185.952 48.4C186.816 46.912 188.496 44.56 189.792 43.36C185.328 42.208 181.392 40.288 178.176 37.792C180.912 36.016 184.176 33.76 186.912 31.504L182.208 28.096ZM162.384 34.096C160.416 32.224 156.432 29.872 153.504 28.336L149.712 31.792C152.736 33.52 156.576 36.112 158.304 37.984L162.384 34.096Z" fill="white"/>
</svg>
