<svg width="126" height="13" viewBox="0 0 126 13" fill="none" xmlns="http://www.w3.org/2000/svg">
<path d="M11.3793 3.272C10.9953 2.708 10.1553 1.868 9.47128 1.28L8.78728 1.748C9.48328 2.36 10.2993 3.224 10.6593 3.788L11.3793 3.272ZM10.3113 5.888C9.90328 6.656 9.37528 7.388 8.73928 8.072C8.53528 7.28 8.36728 6.356 8.24728 5.336H11.6793V4.484H8.15128C8.05528 3.416 8.00728 2.264 8.00728 1.064H7.09528C7.10728 2.24 7.15528 3.392 7.26328 4.484H4.51528V2.396C5.24728 2.24 5.94328 2.048 6.51928 1.844L5.88328 1.112C4.75528 1.532 2.82328 1.94 1.14328 2.192C1.26328 2.408 1.38328 2.72 1.43128 2.936C2.13928 2.84 2.89528 2.72 3.63928 2.576V4.484H1.07128V5.336H3.63928V7.436C2.59528 7.652 1.62328 7.856 0.903281 7.976L1.15528 8.876C1.87528 8.72 2.73928 8.516 3.63928 8.324V10.76C3.63928 10.976 3.56728 11.036 3.35128 11.036C3.14728 11.048 2.43928 11.06 1.67128 11.024C1.80328 11.276 1.95928 11.684 2.00728 11.924C2.97928 11.924 3.62728 11.9 3.99928 11.756C4.37128 11.612 4.51528 11.348 4.51528 10.772V8.108C5.24728 7.94 5.99128 7.772 6.72328 7.592L6.66328 6.788C5.95528 6.944 5.22328 7.1 4.51528 7.256V5.336H7.33528C7.49128 6.632 7.71928 7.82 8.00728 8.816C7.15528 9.608 6.17128 10.268 5.16328 10.76C5.39128 10.952 5.64328 11.252 5.77528 11.468C6.67528 11 7.52728 10.4 8.30728 9.704C8.85928 11.108 9.57928 11.948 10.5273 11.948C11.4273 11.948 11.7393 11.372 11.9073 9.392C11.6553 9.308 11.3433 9.104 11.1513 8.912C11.0793 10.448 10.9353 11.06 10.6113 11.06C10.0113 11.06 9.47128 10.292 9.01528 9.032C9.85528 8.18 10.5633 7.232 11.1033 6.212L10.3113 5.888ZM19.9353 6.464V8.732H16.7913V6.464H19.9353ZM20.7753 9.5V5.708H15.9633V10.364H16.7913V9.5H20.7753ZM21.4113 3.68H15.3633V4.46H21.4113V3.68ZM23.2953 1.58H13.4553V11.948H14.3193V2.432H22.4193V10.796C22.4193 10.988 22.3473 11.06 22.1313 11.072C21.9273 11.084 21.2313 11.084 20.4753 11.06C20.6193 11.3 20.7633 11.684 20.7993 11.936C21.8313 11.936 22.4313 11.912 22.8033 11.768C23.1633 11.612 23.2953 11.348 23.2953 10.796V1.58ZM32.2713 2.48C32.1153 2.852 31.8753 3.344 31.6833 3.68L31.9833 3.764H28.6473L28.9953 3.668C28.9113 3.344 28.7073 2.864 28.4793 2.48H32.2713ZM35.5113 3.764H32.5353C32.7513 3.428 32.9913 3.008 33.2193 2.576L32.7633 2.48H34.8993V1.76H30.7833V0.956H29.9073V1.76H25.8153V2.48H28.0233L27.6153 2.576C27.8193 2.936 28.0233 3.416 28.1193 3.764H25.2753V4.496H35.5113V3.764ZM33.3273 6.476H27.4713V5.768H33.3273V6.476ZM33.3273 7.832H27.4713V7.1H33.3273V7.832ZM34.1913 5.096H26.6193V8.504H29.5233L29.0673 8.948C29.7993 9.272 30.6513 9.8 31.0593 10.184L31.6113 9.62C31.2033 9.26 30.4233 8.804 29.7273 8.504H34.1913V5.096ZM25.5993 11.648C26.4873 11.12 27.0033 10.244 27.3513 9.38L26.5953 9.104C26.3073 9.896 25.7433 10.7 24.9153 11.18L25.5993 11.648ZM29.5473 11.072C28.9233 11.072 28.8273 11.012 28.8273 10.724V9.188H27.9513V10.724C27.9513 11.588 28.2753 11.804 29.4753 11.804H31.7433C32.7033 11.804 32.9793 11.492 33.0633 10.16C32.8473 10.1 32.4873 9.992 32.3073 9.86C32.2473 10.928 32.1753 11.072 31.6593 11.072H29.5473ZM33.0273 9.416C33.8433 10.028 34.7433 10.928 35.1273 11.564L35.8473 11.12C35.4273 10.472 34.5273 9.596 33.7113 8.996L33.0273 9.416ZM43.7656 8.432C43.7656 9.216 43.4936 9.872 42.9496 10.4C42.4056 10.928 41.7336 11.192 40.9336 11.192C40.2936 11.192 39.7136 10.992 39.1936 10.592C38.6736 10.192 38.3296 9.652 38.1616 8.972L39.1456 8.576C39.2656 9.056 39.4816 9.436 39.7936 9.716C40.1136 9.996 40.4856 10.136 40.9096 10.136C41.4216 10.136 41.8376 9.98 42.1576 9.668C42.4856 9.348 42.6496 8.94 42.6496 8.444C42.6496 7.94 42.4856 7.528 42.1576 7.208C41.8376 6.888 41.4256 6.728 40.9216 6.728C40.3376 6.728 39.8776 6.964 39.5416 7.436L38.4256 6.956L38.9536 2.792H43.2616V3.848H39.8776L39.5776 6.2L39.6256 6.212C40.0336 5.884 40.5296 5.72 41.1136 5.72C41.8496 5.72 42.4736 5.98 42.9856 6.5C43.5056 7.02 43.7656 7.664 43.7656 8.432ZM50.0499 9.944V11H44.8179V9.896L46.9419 7.748C47.6539 7.02 48.1459 6.476 48.4179 6.116C48.6899 5.748 48.8259 5.364 48.8259 4.964C48.8259 4.604 48.6859 4.296 48.4059 4.04C48.1259 3.784 47.7659 3.656 47.3259 3.656C46.9499 3.656 46.6259 3.768 46.3539 3.992C46.0819 4.216 45.9059 4.488 45.8259 4.808L44.8179 4.4C44.9779 3.896 45.2859 3.472 45.7419 3.128C46.1979 2.776 46.7339 2.6 47.3499 2.6C48.0939 2.6 48.7139 2.828 49.2099 3.284C49.7059 3.74 49.9539 4.3 49.9539 4.964C49.9539 5.756 49.5179 6.612 48.6459 7.532L46.2459 9.944H50.0499ZM52.5403 11H51.4363V2.408H52.5403V6.092H56.8363V2.408H57.9403V11H56.8363V7.124H52.5403V11ZM63.9348 11H59.1828V10.04L62.5308 6.128H59.2788V5.12H63.8868V6.08L60.5388 9.992H63.9348V11ZM70.0527 6.188H67.5327V3.68H70.0527V6.188ZM67.5327 9.86V6.98H70.0527V9.86H67.5327ZM68.5407 0.931999C68.4567 1.496 68.2407 2.3 68.0607 2.876H66.7167V11.612H67.5327V10.664H70.8687V2.876H68.8767C69.0807 2.36 69.2967 1.7 69.5007 1.112L68.5407 0.931999ZM76.7367 2.84H73.1487C73.3527 2.276 73.5207 1.7 73.6647 1.112L72.8127 0.908C72.4287 2.552 71.7807 4.208 70.9767 5.264C71.1687 5.384 71.5527 5.624 71.7087 5.768C72.1287 5.204 72.5007 4.472 72.8367 3.668H75.8847C75.7287 8.444 75.5487 10.268 75.1527 10.688C75.0327 10.844 74.9007 10.868 74.6607 10.868C74.3847 10.868 73.6647 10.868 72.8847 10.796C73.0527 11.048 73.1607 11.408 73.1847 11.672C73.8567 11.708 74.5407 11.732 74.9607 11.684C75.3687 11.648 75.6447 11.54 75.9087 11.204C76.3887 10.616 76.5447 8.768 76.7367 3.296V2.84ZM74.8407 8.24C74.4567 7.532 73.6287 6.38 72.9567 5.528L72.2607 5.936C72.9207 6.8 73.7247 7.988 74.0847 8.708L74.8407 8.24ZM86.3367 2.636C86.0607 3.068 85.6887 3.536 85.3887 3.872H82.8807C83.3127 3.476 83.6967 3.056 84.0207 2.636H86.3367ZM82.5567 4.16V4.568H87.5607V5.552H82.8447V6.224H87.5607V7.28H82.4967V7.988H88.4007V3.872H86.3007C86.7207 3.392 87.2007 2.804 87.5127 2.276L86.9727 1.904L86.8407 1.952H84.5127C84.6807 1.7 84.8247 1.472 84.9447 1.232L84.1287 1.076C83.7087 1.88 82.9527 2.888 81.9447 3.656C82.1367 3.752 82.4007 4.004 82.5327 4.184L82.5567 4.16ZM86.5767 9.512C86.1567 9.092 85.3167 8.444 84.6687 8L84.1167 8.468C84.7887 8.936 85.6167 9.62 86.0247 10.052L86.5767 9.512ZM81.5007 1.436L81.3687 1.472H78.6447V11.924H79.4367V2.288H81.0327C80.7927 3.104 80.4327 4.184 80.0847 5.048C80.9367 5.984 81.1647 6.788 81.1647 7.436C81.1647 7.784 81.1047 8.108 80.9127 8.24C80.8167 8.312 80.6967 8.348 80.5407 8.348C80.3487 8.372 80.1207 8.36 79.8447 8.336C79.9767 8.564 80.0607 8.9 80.0727 9.128C80.3247 9.14 80.6367 9.128 80.8767 9.104C81.1167 9.08 81.3327 9.008 81.5007 8.888C81.8247 8.66 81.9687 8.144 81.9687 7.508C81.9687 6.788 81.7527 5.924 80.8767 4.952C81.2847 3.992 81.7287 2.768 82.0887 1.784L81.5007 1.436ZM82.0647 11.576C82.4607 10.928 82.7967 9.944 83.0007 9.224L82.3047 8.924C82.1127 9.62 81.7647 10.568 81.3687 11.132L82.0647 11.576ZM84.7287 11.06C84.2607 11.06 84.1767 11.012 84.1767 10.76V8.96H83.3727V10.76C83.3727 11.576 83.6247 11.816 84.6567 11.816H86.4087C87.2007 11.816 87.4527 11.528 87.5487 10.328C87.3087 10.268 86.9847 10.148 86.8167 10.028C86.7687 10.94 86.7087 11.06 86.3247 11.06H84.7287ZM87.0807 9.056C87.6087 9.788 88.1607 10.784 88.3887 11.444L89.1087 11.144C88.8807 10.484 88.3287 9.512 87.7647 8.78L87.0807 9.056ZM95.5287 7.916C95.2287 7.616 93.9207 6.392 93.4767 6.02V5.3H95.5767V4.448H93.4767V2.312C94.1967 2.132 94.8807 1.928 95.4207 1.7L94.7607 1.04C93.7407 1.508 91.8687 1.916 90.2607 2.168C90.3687 2.36 90.4887 2.66 90.5367 2.864C91.1967 2.768 91.9047 2.648 92.6007 2.504V4.448H90.2847V5.3H92.4327C91.8687 6.716 90.8967 8.324 90.0327 9.188C90.1767 9.416 90.4047 9.776 90.5007 10.028C91.2327 9.212 92.0127 7.904 92.6007 6.596V11.876H93.4767V6.932C94.0167 7.484 94.7007 8.216 94.9767 8.6L95.5287 7.916ZM101.169 11.612C100.905 10.328 100.089 8.324 99.2487 6.788L98.4087 7.052C98.8767 7.928 99.3327 8.96 99.6687 9.92C98.5167 10.04 97.3647 10.16 96.3447 10.268C97.0407 7.784 97.8207 4.196 98.2887 1.376L97.2927 1.208C96.9087 4.04 96.1167 7.868 95.4207 10.364C95.0007 10.4 94.6287 10.436 94.2927 10.472L94.5087 11.396C95.9487 11.228 97.9767 10.976 99.9447 10.712C100.077 11.156 100.185 11.564 100.245 11.912L101.169 11.612ZM105.729 4.58V3.752H104.457V0.956H103.605V3.752H102.261V4.58H103.605V11.912H104.457V4.58H105.729ZM106.293 5.324C106.077 6.464 105.681 7.592 105.153 8.348C105.345 8.444 105.681 8.684 105.825 8.816C106.365 7.988 106.833 6.728 107.085 5.468L106.293 5.324ZM111.585 3.224H109.077V1.076H108.225V3.224H106.101V4.088H108.213C108.141 6.404 107.661 9.164 105.033 11.336C105.249 11.456 105.561 11.744 105.705 11.936C108.489 9.596 108.993 6.596 109.065 4.088H110.721C110.613 8.72 110.481 10.412 110.169 10.784C110.049 10.94 109.917 10.976 109.713 10.976C109.449 10.976 108.825 10.964 108.141 10.916C108.297 11.156 108.393 11.516 108.417 11.768C109.041 11.804 109.689 11.816 110.061 11.78C110.445 11.732 110.697 11.636 110.937 11.312C111.345 10.772 111.453 8.996 111.585 3.68V3.224ZM111.681 5.516C112.005 6.62 112.329 8.06 112.437 8.912L113.253 8.708C113.133 7.868 112.773 6.452 112.425 5.36L111.681 5.516ZM122.121 3.668C121.917 3.02 121.389 2 120.897 1.208L120.129 1.52C120.609 2.312 121.125 3.38 121.317 4.04L122.121 3.668ZM117.189 3.08C116.889 2.6 116.217 1.844 115.653 1.304L115.029 1.784C115.581 2.348 116.217 3.128 116.517 3.632L117.189 3.08ZM116.781 9.896V4.7H114.237V5.564H115.905V9.788C115.905 10.4 115.605 10.796 115.389 10.988C115.557 11.12 115.809 11.432 115.917 11.612C116.097 11.384 116.409 11.144 118.497 9.656C118.413 9.476 118.281 9.14 118.221 8.9L116.781 9.896ZM123.585 1.7C123.201 4.184 122.577 6.428 121.305 8.204C120.093 6.548 119.373 4.388 118.929 1.856L118.113 1.988C118.617 4.82 119.397 7.16 120.705 8.948C119.865 9.896 118.797 10.676 117.393 11.276C117.561 11.456 117.789 11.792 117.909 12.008C119.313 11.384 120.405 10.58 121.269 9.632C122.169 10.628 123.285 11.42 124.677 11.96C124.797 11.732 125.085 11.372 125.301 11.18C123.897 10.676 122.769 9.92 121.869 8.912C123.321 6.992 124.029 4.568 124.497 1.844L123.585 1.7Z" fill="white"/>
</svg>
