<svg width="249" height="12" viewBox="0 0 249 12" fill="none" xmlns="http://www.w3.org/2000/svg">
<path d="M5.2537 9.192C3.9817 9.192 2.9177 8.764 2.0617 7.908C1.2137 7.052 0.789703 5.984 0.789703 4.704C0.789703 3.424 1.2137 2.36 2.0617 1.512C2.9097 0.648 3.9737 0.215999 5.2537 0.215999C6.5497 0.215999 7.6017 0.684 8.4097 1.62L7.6177 2.388C7.0017 1.644 6.2137 1.272 5.2537 1.272C4.3017 1.272 3.5057 1.592 2.8657 2.232C2.2337 2.864 1.9177 3.688 1.9177 4.704C1.9177 5.72 2.2337 6.544 2.8657 7.176C3.5057 7.816 4.3017 8.136 5.2537 8.136C6.2537 8.136 7.1217 7.716 7.8577 6.876L8.6617 7.656C8.2537 8.144 7.7537 8.524 7.1617 8.796C6.5697 9.06 5.9337 9.192 5.2537 9.192ZM9.18952 6.06C9.18952 5.156 9.47352 4.408 10.0415 3.816C10.6175 3.224 11.3415 2.928 12.2135 2.928C13.0855 2.928 13.8055 3.224 14.3735 3.816C14.9495 4.408 15.2375 5.156 15.2375 6.06C15.2375 6.972 14.9495 7.72 14.3735 8.304C13.8055 8.896 13.0855 9.192 12.2135 9.192C11.3415 9.192 10.6175 8.896 10.0415 8.304C9.47352 7.712 9.18952 6.964 9.18952 6.06ZM10.2935 6.06C10.2935 6.692 10.4775 7.204 10.8455 7.596C11.2135 7.988 11.6695 8.184 12.2135 8.184C12.7575 8.184 13.2135 7.988 13.5815 7.596C13.9495 7.204 14.1335 6.692 14.1335 6.06C14.1335 5.436 13.9495 4.928 13.5815 4.536C13.2055 4.136 12.7495 3.936 12.2135 3.936C11.6775 3.936 11.2215 4.136 10.8455 4.536C10.4775 4.928 10.2935 5.436 10.2935 6.06ZM19.0618 8.184C19.5898 8.184 20.0338 7.984 20.3938 7.584C20.7538 7.192 20.9338 6.684 20.9338 6.06C20.9338 5.444 20.7538 4.936 20.3938 4.536C20.0338 4.136 19.5898 3.936 19.0618 3.936C18.5258 3.936 18.0778 4.136 17.7178 4.536C17.3658 4.936 17.1898 5.444 17.1898 6.06C17.1898 6.684 17.3658 7.196 17.7178 7.596C18.0778 7.988 18.5258 8.184 19.0618 8.184ZM19.2418 9.192C18.8098 9.192 18.4138 9.1 18.0538 8.916C17.7018 8.732 17.4298 8.488 17.2378 8.184H17.1898L17.2378 9V11.592H16.1338V3.12H17.1898V3.936H17.2378C17.4298 3.632 17.7018 3.388 18.0538 3.204C18.4138 3.02 18.8098 2.928 19.2418 2.928C20.0178 2.928 20.6738 3.232 21.2098 3.84C21.7618 4.456 22.0378 5.196 22.0378 6.06C22.0378 6.932 21.7618 7.672 21.2098 8.28C20.6738 8.888 20.0178 9.192 19.2418 9.192ZM28.0706 3.12L24.3866 11.592H23.2466L24.6146 8.628L22.1906 3.12H23.3906L25.1426 7.344H25.1666L26.8706 3.12H28.0706ZM29.8951 9H28.7911V3.12H29.8471V4.08H29.8951C30.0071 3.768 30.2351 3.504 30.5791 3.288C30.9311 3.064 31.2751 2.952 31.6111 2.952C31.9311 2.952 32.2031 3 32.4271 3.096L32.0911 4.164C31.9551 4.108 31.7391 4.08 31.4431 4.08C31.0271 4.08 30.6631 4.248 30.3511 4.584C30.0471 4.92 29.8951 5.312 29.8951 5.76V9ZM34.5785 1.092C34.5785 1.308 34.5025 1.492 34.3505 1.644C34.1985 1.796 34.0145 1.872 33.7985 1.872C33.5825 1.872 33.3985 1.796 33.2465 1.644C33.0945 1.492 33.0185 1.308 33.0185 1.092C33.0185 0.875999 33.0945 0.691999 33.2465 0.539999C33.3985 0.388 33.5825 0.312 33.7985 0.312C34.0145 0.312 34.1985 0.388 34.3505 0.539999C34.5025 0.691999 34.5785 0.875999 34.5785 1.092ZM34.3505 3.12V9H33.2465V3.12H34.3505ZM38.3686 8.184C38.9126 8.184 39.3566 7.988 39.7006 7.596C40.0606 7.204 40.2406 6.692 40.2406 6.06C40.2406 5.444 40.0606 4.936 39.7006 4.536C39.3486 4.136 38.9046 3.936 38.3686 3.936C37.8406 3.936 37.3966 4.136 37.0366 4.536C36.6766 4.936 36.4966 5.444 36.4966 6.06C36.4966 6.684 36.6766 7.192 37.0366 7.584C37.3966 7.984 37.8406 8.184 38.3686 8.184ZM38.3326 11.784C38.0046 11.784 37.6966 11.74 37.4086 11.652C37.1206 11.572 36.8566 11.456 36.6166 11.304C36.3846 11.152 36.1846 10.972 36.0166 10.764C35.8486 10.556 35.7206 10.324 35.6326 10.068L36.6766 9.636C36.7966 9.98 37.0046 10.256 37.3006 10.464C37.5966 10.672 37.9406 10.776 38.3326 10.776C38.9326 10.776 39.4006 10.596 39.7366 10.236C40.0726 9.876 40.2406 9.38 40.2406 8.748V8.184H40.1926C39.9846 8.496 39.7006 8.744 39.3406 8.928C38.9886 9.104 38.6046 9.192 38.1886 9.192C37.4206 9.192 36.7606 8.892 36.2086 8.292C35.6646 7.676 35.3926 6.932 35.3926 6.06C35.3926 5.188 35.6646 4.448 36.2086 3.84C36.7606 3.232 37.4206 2.928 38.1886 2.928C38.6046 2.928 38.9886 3.02 39.3406 3.204C39.7006 3.38 39.9846 3.624 40.1926 3.936H40.2406V3.12H41.2966V8.748C41.2966 9.692 41.0286 10.432 40.4926 10.968C39.9486 11.512 39.2286 11.784 38.3326 11.784ZM42.6427 0.408H43.7467V3.12L43.6987 3.936H43.7467C43.9147 3.648 44.1707 3.408 44.5147 3.216C44.8667 3.024 45.2307 2.928 45.6067 2.928C46.3267 2.928 46.8787 3.136 47.2627 3.552C47.6547 3.96 47.8507 4.544 47.8507 5.304V9H46.7467V5.52C46.7467 4.464 46.2787 3.936 45.3427 3.936C44.8947 3.936 44.5147 4.124 44.2027 4.5C43.8987 4.868 43.7467 5.3 43.7467 5.796V9H42.6427V0.408ZM51.1699 9.096C50.6899 9.096 50.2899 8.948 49.9699 8.652C49.6579 8.356 49.4979 7.944 49.4899 7.416V4.128H48.4579V3.12H49.4899V1.32H50.5939V3.12H52.0339V4.128H50.5939V7.056C50.5939 7.448 50.6699 7.716 50.8219 7.86C50.9739 7.996 51.1459 8.064 51.3379 8.064C51.4259 8.064 51.5099 8.056 51.5899 8.04C51.6779 8.016 51.7579 7.988 51.8299 7.956L52.1779 8.94C51.8899 9.044 51.5539 9.096 51.1699 9.096ZM60.7608 7.944V9H55.5288V7.896L57.6528 5.748C58.3648 5.02 58.8568 4.476 59.1288 4.116C59.4008 3.748 59.5368 3.364 59.5368 2.964C59.5368 2.604 59.3968 2.296 59.1168 2.04C58.8368 1.784 58.4768 1.656 58.0368 1.656C57.6608 1.656 57.3368 1.768 57.0648 1.992C56.7928 2.216 56.6168 2.488 56.5368 2.808L55.5288 2.4C55.6888 1.896 55.9968 1.472 56.4528 1.128C56.9088 0.776 57.4448 0.599999 58.0608 0.599999C58.8048 0.599999 59.4248 0.828 59.9208 1.284C60.4168 1.74 60.6648 2.3 60.6648 2.964C60.6648 3.756 60.2288 4.612 59.3568 5.532L56.9568 7.944H60.7608ZM61.8112 4.896C61.8112 3.648 62.1192 2.62 62.7352 1.812C63.3512 1.004 64.1432 0.599999 65.1112 0.599999C66.0792 0.599999 66.8712 1.008 67.4872 1.824C68.1032 2.632 68.4112 3.656 68.4112 4.896C68.4112 6.128 68.1032 7.156 67.4872 7.98C66.8712 8.788 66.0792 9.192 65.1112 9.192C64.1432 9.192 63.3512 8.788 62.7352 7.98C62.1192 7.156 61.8112 6.128 61.8112 4.896ZM67.2832 4.896C67.2832 3.952 67.0832 3.176 66.6832 2.568C66.2912 1.96 65.7672 1.656 65.1112 1.656C64.4552 1.656 63.9312 1.96 63.5392 2.568C63.1392 3.176 62.9392 3.952 62.9392 4.896C62.9392 5.84 63.1392 6.62 63.5392 7.236C63.9312 7.836 64.4552 8.136 65.1112 8.136C65.7672 8.136 66.2912 7.832 66.6832 7.224C67.0832 6.608 67.2832 5.832 67.2832 4.896ZM74.5304 7.944V9H69.2984V7.896L71.4224 5.748C72.1344 5.02 72.6264 4.476 72.8984 4.116C73.1704 3.748 73.3064 3.364 73.3064 2.964C73.3064 2.604 73.1664 2.296 72.8864 2.04C72.6064 1.784 72.2464 1.656 71.8064 1.656C71.4304 1.656 71.1064 1.768 70.8344 1.992C70.5624 2.216 70.3864 2.488 70.3064 2.808L69.2984 2.4C69.4584 1.896 69.7664 1.472 70.2224 1.128C70.6784 0.776 71.2144 0.599999 71.8304 0.599999C72.5744 0.599999 73.1944 0.828 73.6904 1.284C74.1864 1.74 74.4344 2.3 74.4344 2.964C74.4344 3.756 73.9984 4.612 73.1264 5.532L70.7264 7.944H74.5304ZM78.5355 0.792V9H77.4315V2.16L75.8355 2.856L75.4155 1.92L77.8275 0.792H78.5355ZM85.4893 1.464V9H84.3853V1.464H81.9853V0.408H87.8893V1.464H85.4893ZM97.8977 0.408H99.0497L96.7577 9H95.6297L93.7817 3.336H93.7337L91.8857 9H90.7577L88.3697 0.408H89.5217L91.3337 7.164H91.3817L93.2417 1.56H94.2737L96.1337 7.164H96.1817L97.8977 0.408ZM103.032 1.464V9H101.928V1.464H99.5282V0.408H105.432V1.464H103.032ZM114.162 6.708C114.162 7.46 113.886 8.064 113.334 8.52C112.774 8.968 112.094 9.192 111.294 9.192C110.582 9.192 109.954 8.984 109.41 8.568C108.866 8.152 108.49 7.584 108.282 6.864L109.338 6.432C109.41 6.688 109.51 6.92 109.638 7.128C109.766 7.336 109.914 7.516 110.082 7.668C110.258 7.812 110.45 7.928 110.658 8.016C110.866 8.096 111.086 8.136 111.318 8.136C111.822 8.136 112.234 8.008 112.554 7.752C112.874 7.488 113.034 7.14 113.034 6.708C113.034 6.348 112.902 6.04 112.638 5.784C112.39 5.536 111.926 5.296 111.246 5.064C110.558 4.816 110.13 4.648 109.962 4.56C109.05 4.096 108.594 3.412 108.594 2.508C108.594 1.876 108.846 1.336 109.35 0.887999C109.862 0.439999 110.49 0.215999 111.234 0.215999C111.89 0.215999 112.458 0.383999 112.938 0.719999C113.418 1.048 113.738 1.46 113.898 1.956L112.866 2.388C112.77 2.068 112.578 1.804 112.29 1.596C112.01 1.38 111.666 1.272 111.258 1.272C110.826 1.272 110.462 1.392 110.166 1.632C109.87 1.856 109.722 2.148 109.722 2.508C109.722 2.804 109.838 3.06 110.07 3.276C110.326 3.492 110.882 3.748 111.738 4.044C112.61 4.34 113.23 4.704 113.598 5.136C113.974 5.56 114.162 6.084 114.162 6.708ZM117.322 9.096C116.842 9.096 116.442 8.948 116.122 8.652C115.81 8.356 115.65 7.944 115.642 7.416V4.128H114.61V3.12H115.642V1.32H116.746V3.12H118.186V4.128H116.746V7.056C116.746 7.448 116.822 7.716 116.974 7.86C117.126 7.996 117.298 8.064 117.49 8.064C117.578 8.064 117.662 8.056 117.742 8.04C117.83 8.016 117.91 7.988 117.982 7.956L118.33 8.94C118.042 9.044 117.706 9.096 117.322 9.096ZM124.396 9H123.34V8.184H123.292C123.124 8.472 122.864 8.712 122.512 8.904C122.168 9.096 121.808 9.192 121.432 9.192C120.712 9.192 120.156 8.988 119.764 8.58C119.38 8.164 119.188 7.576 119.188 6.816V3.12H120.292V6.744C120.316 7.704 120.8 8.184 121.744 8.184C122.184 8.184 122.552 8.008 122.848 7.656C123.144 7.296 123.292 6.868 123.292 6.372V3.12H124.396V9ZM128.322 8.184C128.866 8.184 129.31 7.988 129.654 7.596C130.014 7.204 130.194 6.692 130.194 6.06C130.194 5.444 130.014 4.936 129.654 4.536C129.302 4.136 128.858 3.936 128.322 3.936C127.794 3.936 127.35 4.136 126.99 4.536C126.63 4.936 126.45 5.444 126.45 6.06C126.45 6.684 126.63 7.192 126.99 7.584C127.35 7.984 127.794 8.184 128.322 8.184ZM128.142 9.192C127.374 9.192 126.714 8.888 126.162 8.28C125.618 7.664 125.346 6.924 125.346 6.06C125.346 5.196 125.618 4.456 126.162 3.84C126.714 3.232 127.374 2.928 128.142 2.928C128.574 2.928 128.966 3.02 129.318 3.204C129.678 3.388 129.954 3.632 130.146 3.936H130.194L130.146 3.12V0.408H131.25V9H130.194V8.184H130.146C129.954 8.488 129.678 8.732 129.318 8.916C128.966 9.1 128.574 9.192 128.142 9.192ZM134.024 1.092C134.024 1.308 133.948 1.492 133.796 1.644C133.644 1.796 133.46 1.872 133.244 1.872C133.028 1.872 132.844 1.796 132.692 1.644C132.54 1.492 132.464 1.308 132.464 1.092C132.464 0.875999 132.54 0.691999 132.692 0.539999C132.844 0.388 133.028 0.312 133.244 0.312C133.46 0.312 133.644 0.388 133.796 0.539999C133.948 0.691999 134.024 0.875999 134.024 1.092ZM133.796 3.12V9H132.692V3.12H133.796ZM134.838 6.06C134.838 5.156 135.122 4.408 135.69 3.816C136.266 3.224 136.99 2.928 137.862 2.928C138.734 2.928 139.454 3.224 140.022 3.816C140.598 4.408 140.886 5.156 140.886 6.06C140.886 6.972 140.598 7.72 140.022 8.304C139.454 8.896 138.734 9.192 137.862 9.192C136.99 9.192 136.266 8.896 135.69 8.304C135.122 7.712 134.838 6.964 134.838 6.06ZM135.942 6.06C135.942 6.692 136.126 7.204 136.494 7.596C136.862 7.988 137.318 8.184 137.862 8.184C138.406 8.184 138.862 7.988 139.23 7.596C139.598 7.204 139.782 6.692 139.782 6.06C139.782 5.436 139.598 4.928 139.23 4.536C138.854 4.136 138.398 3.936 137.862 3.936C137.326 3.936 136.87 4.136 136.494 4.536C136.126 4.928 135.942 5.436 135.942 6.06ZM143.425 8.256C143.425 8.48 143.345 8.672 143.185 8.832C143.033 8.992 142.841 9.072 142.609 9.072C142.385 9.072 142.193 8.992 142.033 8.832C141.873 8.672 141.793 8.48 141.793 8.256C141.793 8.024 141.873 7.832 142.033 7.68C142.193 7.52 142.385 7.44 142.609 7.44C142.841 7.44 143.033 7.52 143.185 7.68C143.345 7.832 143.425 8.024 143.425 8.256ZM150.263 1.764L148.859 5.64H151.715L150.311 1.764H150.263ZM147.647 9H146.423L149.663 0.408H150.911L154.151 9H152.927L152.099 6.672H148.487L147.647 9ZM156.071 0.408V9H154.967V0.408H156.071ZM158.52 0.408V9H157.416V0.408H158.52ZM163.798 1.464V4.488H165.574C166.022 4.488 166.402 4.344 166.714 4.056C167.026 3.76 167.182 3.396 167.182 2.964C167.182 2.564 167.034 2.216 166.738 1.92C166.45 1.616 166.086 1.464 165.646 1.464H163.798ZM163.798 9H162.694V0.408H165.622C166.366 0.408 166.998 0.656 167.518 1.152C168.046 1.64 168.31 2.244 168.31 2.964C168.31 3.556 168.114 4.084 167.722 4.548C167.338 5.004 166.85 5.296 166.258 5.424L166.234 5.46L168.646 8.952V9H167.338L165.022 5.52H163.798V9ZM170.868 1.092C170.868 1.308 170.792 1.492 170.64 1.644C170.488 1.796 170.304 1.872 170.088 1.872C169.872 1.872 169.688 1.796 169.536 1.644C169.384 1.492 169.308 1.308 169.308 1.092C169.308 0.875999 169.384 0.691999 169.536 0.539999C169.688 0.388 169.872 0.312 170.088 0.312C170.304 0.312 170.488 0.388 170.64 0.539999C170.792 0.691999 170.868 0.875999 170.868 1.092ZM170.64 3.12V9H169.536V3.12H170.64ZM174.658 8.184C175.202 8.184 175.646 7.988 175.99 7.596C176.35 7.204 176.53 6.692 176.53 6.06C176.53 5.444 176.35 4.936 175.99 4.536C175.638 4.136 175.194 3.936 174.658 3.936C174.13 3.936 173.686 4.136 173.326 4.536C172.966 4.936 172.786 5.444 172.786 6.06C172.786 6.684 172.966 7.192 173.326 7.584C173.686 7.984 174.13 8.184 174.658 8.184ZM174.622 11.784C174.294 11.784 173.986 11.74 173.698 11.652C173.41 11.572 173.146 11.456 172.906 11.304C172.674 11.152 172.474 10.972 172.306 10.764C172.138 10.556 172.01 10.324 171.922 10.068L172.966 9.636C173.086 9.98 173.294 10.256 173.59 10.464C173.886 10.672 174.23 10.776 174.622 10.776C175.222 10.776 175.69 10.596 176.026 10.236C176.362 9.876 176.53 9.38 176.53 8.748V8.184H176.482C176.274 8.496 175.99 8.744 175.63 8.928C175.278 9.104 174.894 9.192 174.478 9.192C173.71 9.192 173.05 8.892 172.498 8.292C171.954 7.676 171.682 6.932 171.682 6.06C171.682 5.188 171.954 4.448 172.498 3.84C173.05 3.232 173.71 2.928 174.478 2.928C174.894 2.928 175.278 3.02 175.63 3.204C175.99 3.38 176.274 3.624 176.482 3.936H176.53V3.12H177.586V8.748C177.586 9.692 177.318 10.432 176.782 10.968C176.238 11.512 175.518 11.784 174.622 11.784ZM178.932 0.408H180.036V3.12L179.988 3.936H180.036C180.204 3.648 180.46 3.408 180.804 3.216C181.156 3.024 181.52 2.928 181.896 2.928C182.616 2.928 183.168 3.136 183.552 3.552C183.944 3.96 184.14 4.544 184.14 5.304V9H183.036V5.52C183.036 4.464 182.568 3.936 181.632 3.936C181.184 3.936 180.804 4.124 180.492 4.5C180.188 4.868 180.036 5.3 180.036 5.796V9H178.932V0.408ZM187.459 9.096C186.979 9.096 186.579 8.948 186.259 8.652C185.947 8.356 185.787 7.944 185.779 7.416V4.128H184.747V3.12H185.779V1.32H186.883V3.12H188.323V4.128H186.883V7.056C186.883 7.448 186.959 7.716 187.111 7.86C187.263 7.996 187.435 8.064 187.627 8.064C187.715 8.064 187.799 8.056 187.879 8.04C187.967 8.016 188.047 7.988 188.119 7.956L188.467 8.94C188.179 9.044 187.843 9.096 187.459 9.096ZM193.99 7.368C193.99 7.88 193.766 8.312 193.318 8.664C192.87 9.016 192.306 9.192 191.626 9.192C191.034 9.192 190.514 9.04 190.066 8.736C189.618 8.424 189.298 8.016 189.106 7.512L190.09 7.092C190.234 7.444 190.442 7.72 190.714 7.92C190.994 8.112 191.298 8.208 191.626 8.208C191.978 8.208 192.27 8.132 192.502 7.98C192.742 7.828 192.862 7.648 192.862 7.44C192.862 7.064 192.574 6.788 191.998 6.612L190.99 6.36C189.846 6.072 189.274 5.52 189.274 4.704C189.274 4.168 189.49 3.74 189.922 3.42C190.362 3.092 190.922 2.928 191.602 2.928C192.122 2.928 192.59 3.052 193.006 3.3C193.43 3.548 193.726 3.88 193.894 4.296L192.91 4.704C192.798 4.456 192.614 4.264 192.358 4.128C192.11 3.984 191.83 3.912 191.518 3.912C191.23 3.912 190.97 3.984 190.738 4.128C190.514 4.272 190.402 4.448 190.402 4.656C190.402 4.992 190.718 5.232 191.35 5.376L192.238 5.604C193.406 5.892 193.99 6.48 193.99 7.368ZM198.884 1.464V4.488H200.66C201.108 4.488 201.488 4.344 201.8 4.056C202.112 3.76 202.268 3.396 202.268 2.964C202.268 2.564 202.12 2.216 201.824 1.92C201.536 1.616 201.172 1.464 200.732 1.464H198.884ZM198.884 9H197.78V0.408H200.708C201.452 0.408 202.084 0.656 202.604 1.152C203.132 1.64 203.396 2.244 203.396 2.964C203.396 3.556 203.2 4.084 202.808 4.548C202.424 5.004 201.936 5.296 201.344 5.424L201.32 5.46L203.732 8.952V9H202.424L200.108 5.52H198.884V9ZM207.048 9.192C206.184 9.192 205.472 8.896 204.912 8.304C204.352 7.712 204.072 6.964 204.072 6.06C204.072 5.164 204.344 4.42 204.888 3.828C205.432 3.228 206.128 2.928 206.976 2.928C207.848 2.928 208.54 3.212 209.052 3.78C209.572 4.34 209.832 5.128 209.832 6.144L209.82 6.264H205.2C205.216 6.84 205.408 7.304 205.776 7.656C206.144 8.008 206.584 8.184 207.096 8.184C207.8 8.184 208.352 7.832 208.752 7.128L209.736 7.608C209.472 8.104 209.104 8.492 208.632 8.772C208.168 9.052 207.64 9.192 207.048 9.192ZM205.284 5.352H208.656C208.624 4.944 208.456 4.608 208.152 4.344C207.856 4.072 207.456 3.936 206.952 3.936C206.536 3.936 206.176 4.064 205.872 4.32C205.576 4.576 205.38 4.92 205.284 5.352ZM215.401 7.368C215.401 7.88 215.177 8.312 214.729 8.664C214.281 9.016 213.717 9.192 213.037 9.192C212.445 9.192 211.925 9.04 211.477 8.736C211.029 8.424 210.709 8.016 210.517 7.512L211.501 7.092C211.645 7.444 211.853 7.72 212.125 7.92C212.405 8.112 212.709 8.208 213.037 8.208C213.389 8.208 213.681 8.132 213.913 7.98C214.153 7.828 214.273 7.648 214.273 7.44C214.273 7.064 213.985 6.788 213.409 6.612L212.401 6.36C211.257 6.072 210.685 5.52 210.685 4.704C210.685 4.168 210.901 3.74 211.333 3.42C211.773 3.092 212.333 2.928 213.013 2.928C213.533 2.928 214.001 3.052 214.417 3.3C214.841 3.548 215.137 3.88 215.305 4.296L214.321 4.704C214.209 4.456 214.025 4.264 213.769 4.128C213.521 3.984 213.241 3.912 212.929 3.912C212.641 3.912 212.381 3.984 212.149 4.128C211.925 4.272 211.813 4.448 211.813 4.656C211.813 4.992 212.129 5.232 212.761 5.376L213.649 5.604C214.817 5.892 215.401 6.48 215.401 7.368ZM219.06 9.192C218.196 9.192 217.484 8.896 216.924 8.304C216.364 7.712 216.084 6.964 216.084 6.06C216.084 5.164 216.356 4.42 216.9 3.828C217.444 3.228 218.14 2.928 218.988 2.928C219.86 2.928 220.552 3.212 221.064 3.78C221.584 4.34 221.844 5.128 221.844 6.144L221.832 6.264H217.212C217.228 6.84 217.42 7.304 217.788 7.656C218.156 8.008 218.596 8.184 219.108 8.184C219.812 8.184 220.364 7.832 220.764 7.128L221.748 7.608C221.484 8.104 221.116 8.492 220.644 8.772C220.18 9.052 219.652 9.192 219.06 9.192ZM217.296 5.352H220.668C220.636 4.944 220.468 4.608 220.164 4.344C219.868 4.072 219.468 3.936 218.964 3.936C218.548 3.936 218.188 4.064 217.884 4.32C217.588 4.576 217.392 4.92 217.296 5.352ZM223.958 9H222.854V3.12H223.91V4.08H223.958C224.07 3.768 224.298 3.504 224.642 3.288C224.994 3.064 225.338 2.952 225.674 2.952C225.994 2.952 226.266 3 226.49 3.096L226.154 4.164C226.018 4.108 225.802 4.08 225.506 4.08C225.09 4.08 224.726 4.248 224.414 4.584C224.11 4.92 223.958 5.312 223.958 5.76V9ZM230.186 9H229.082L226.706 3.12H227.906L229.634 7.68H229.658L231.41 3.12H232.586L230.186 9ZM235.771 9.192C234.907 9.192 234.195 8.896 233.635 8.304C233.075 7.712 232.795 6.964 232.795 6.06C232.795 5.164 233.067 4.42 233.611 3.828C234.155 3.228 234.851 2.928 235.699 2.928C236.571 2.928 237.263 3.212 237.775 3.78C238.295 4.34 238.555 5.128 238.555 6.144L238.543 6.264H233.923C233.939 6.84 234.131 7.304 234.499 7.656C234.867 8.008 235.307 8.184 235.819 8.184C236.523 8.184 237.075 7.832 237.475 7.128L238.459 7.608C238.195 8.104 237.827 8.492 237.355 8.772C236.891 9.052 236.363 9.192 235.771 9.192ZM234.007 5.352H237.379C237.347 4.944 237.179 4.608 236.875 4.344C236.579 4.072 236.179 3.936 235.675 3.936C235.259 3.936 234.899 4.064 234.595 4.32C234.299 4.576 234.103 4.92 234.007 5.352ZM242.263 8.184C242.807 8.184 243.251 7.988 243.595 7.596C243.955 7.204 244.135 6.692 244.135 6.06C244.135 5.444 243.955 4.936 243.595 4.536C243.243 4.136 242.799 3.936 242.263 3.936C241.735 3.936 241.291 4.136 240.931 4.536C240.571 4.936 240.391 5.444 240.391 6.06C240.391 6.684 240.571 7.192 240.931 7.584C241.291 7.984 241.735 8.184 242.263 8.184ZM242.083 9.192C241.315 9.192 240.655 8.888 240.103 8.28C239.559 7.664 239.287 6.924 239.287 6.06C239.287 5.196 239.559 4.456 240.103 3.84C240.655 3.232 241.315 2.928 242.083 2.928C242.515 2.928 242.907 3.02 243.259 3.204C243.619 3.388 243.895 3.632 244.087 3.936H244.135L244.087 3.12V0.408H245.191V9H244.135V8.184H244.087C243.895 8.488 243.619 8.732 243.259 8.916C242.907 9.1 242.515 9.192 242.083 9.192ZM248.073 8.256C248.073 8.48 247.993 8.672 247.833 8.832C247.681 8.992 247.489 9.072 247.257 9.072C247.033 9.072 246.841 8.992 246.681 8.832C246.521 8.672 246.441 8.48 246.441 8.256C246.441 8.024 246.521 7.832 246.681 7.68C246.841 7.52 247.033 7.44 247.257 7.44C247.489 7.44 247.681 7.52 247.833 7.68C247.993 7.832 248.073 8.024 248.073 8.256Z" fill="white"/>
</svg>
