<svg width="54" height="51" viewBox="0 0 54 51" fill="none" xmlns="http://www.w3.org/2000/svg">
<path d="M0.304344 0.499999C0.304344 0.223857 0.528202 0 0.804344 0H53.4373C53.7367 0 53.969 0.261436 53.9338 0.558812L53.2133 6.64214C53.1835 6.89378 52.9701 7.08333 52.7167 7.08333H40.899C40.7024 7.08333 40.5241 7.19851 40.4433 7.37769L27.1522 36.8333L25.6376 39.756C22.8789 45.0796 17.8773 48.8847 12.0106 50.123L8.65686 50.8308C8.29079 50.9081 7.97265 50.5707 8.0713 50.2098L12.8019 32.9029C12.8549 32.7092 12.7868 32.5026 12.6291 32.3783L7.92592 28.6723C3.11314 24.8799 0.304344 19.0907 0.304344 12.9633V0.499999Z" fill="white"/>
<path d="M42.302 11.2946C42.3828 11.1153 42.5612 11 42.7579 11H51.7134C52.0368 11 52.2752 11.3024 52.1996 11.6168L50.6833 17.9262C48.7149 26.1172 41.7508 32.1466 33.3624 32.9223V32.9223C32.987 32.957 32.7137 32.574 32.8685 32.2303L42.302 11.2946Z" fill="white"/>
</svg>
