<svg width="114" height="17" viewBox="0 0 114 17" fill="none" xmlns="http://www.w3.org/2000/svg">
<path d="M9.198 10.212C8.406 10.476 7.38 10.776 6.12 11.112V14.838C6.12 16.026 5.514 16.62 4.302 16.62H2.286L1.908 14.982C2.544 15.054 3.144 15.09 3.708 15.09C4.164 15.09 4.392 14.862 4.392 14.406V11.508C3.18 11.772 2.07 11.982 1.062 12.138L0.828 10.428C2.076 10.224 3.264 10.008 4.392 9.78V6.558H0.828V4.92H4.392V3.012C3.72 3.144 2.796 3.3 1.62 3.48L1.26 1.86C3.804 1.584 6.036 1.056 7.956 0.276L8.55 1.878C7.782 2.142 6.972 2.394 6.12 2.634V4.92H10.008C9.9 3.516 9.846 1.968 9.846 0.276H11.574C11.574 2.04 11.628 3.588 11.736 4.92H17.172V6.558H11.88C11.988 7.746 12.15 8.736 12.366 9.528C12.426 9.792 12.51 10.104 12.618 10.464C13.41 9.516 14.088 8.454 14.652 7.278L16.128 8.052C15.312 9.72 14.352 11.142 13.248 12.318C13.5 12.87 13.71 13.278 13.878 13.542C14.418 14.358 14.832 14.766 15.12 14.766C15.36 14.766 15.594 13.83 15.822 11.958L17.334 12.75C16.878 15.318 16.218 16.602 15.354 16.602C14.586 16.602 13.776 16.068 12.924 15C12.564 14.556 12.258 14.058 12.006 13.506C10.746 14.562 9.354 15.384 7.83 15.972L6.876 14.496C8.568 13.884 10.044 13.002 11.304 11.85C11.1 11.298 10.914 10.68 10.746 9.996C10.494 9.024 10.296 7.878 10.152 6.558H6.12V9.384C7.2 9.096 8.226 8.79 9.198 8.466V10.212ZM13.554 0.438C14.814 1.23 15.9 2.04 16.812 2.868L15.57 4.092C14.814 3.3 13.758 2.448 12.402 1.536L13.554 0.438ZM20.448 0.419999C21.672 1.368 22.692 2.304 23.508 3.228L22.266 4.452C21.594 3.6 20.592 2.634 19.26 1.554L20.448 0.419999ZM30.744 16.548C30.156 16.548 29.106 16.536 27.594 16.512C26.478 16.5 25.536 16.398 24.768 16.206C24.084 16.002 23.46 15.582 22.896 14.946C22.668 14.646 22.446 14.496 22.23 14.496C21.87 14.496 21.228 15.306 20.304 16.926L19.044 15.756C19.944 14.292 20.754 13.38 21.474 13.02V7.926H19.044V6.342H23.076V13.164L23.184 13.272C23.232 13.32 23.274 13.368 23.31 13.416C23.718 13.896 24.144 14.256 24.588 14.496C25.14 14.76 25.926 14.91 26.946 14.946C28.29 14.97 29.478 14.982 30.51 14.982C31.086 14.982 31.986 14.97 33.21 14.946C34.002 14.934 34.698 14.904 35.298 14.856L34.884 16.548H30.744ZM24.156 1.068H34.65V2.724H30.636C30.516 3.048 30.312 3.522 30.024 4.146V14.208H28.332V6.882C27.3 8.226 26.028 9.45 24.516 10.554L23.436 9.132C26.04 7.332 27.876 5.196 28.944 2.724H24.156V1.068ZM31.572 4.542C33.168 6.426 34.41 8.106 35.298 9.582L33.858 10.572C32.97 9.048 31.77 7.356 30.258 5.496L31.572 4.542ZM44.712 0.833999H52.02V10.104H44.712V0.833999ZM50.364 8.628V7.44H46.386V8.628H50.364ZM46.386 6.054H50.364V4.92H46.386V6.054ZM46.386 3.516H50.364V2.346H46.386V3.516ZM41.526 10.266H39.798V5.982C39.09 7.23 38.238 8.388 37.242 9.456L36.612 7.836C37.908 6.696 38.952 5.382 39.744 3.894H36.99V2.31H39.798V0.455999H41.526V2.31H43.722V3.894H41.526V4.524C42.39 5.1 43.296 5.766 44.244 6.522L43.272 7.944C42.516 7.068 41.934 6.426 41.526 6.018V10.266ZM40.086 11.562C39.654 13.314 39.042 14.814 38.25 16.062L36.774 15.144C37.53 13.92 38.07 12.6 38.394 11.184L40.086 11.562ZM42.93 16.476C41.634 16.476 40.986 15.81 40.986 14.478V11.004H42.732V14.118C42.732 14.586 42.978 14.82 43.47 14.82H47.25C47.538 14.82 47.76 14.724 47.916 14.532C48.084 14.364 48.198 13.77 48.258 12.75L49.878 13.29C49.758 14.814 49.5 15.738 49.104 16.062C48.768 16.338 48.252 16.476 47.556 16.476H42.93ZM45.09 10.59C45.954 11.514 46.596 12.276 47.016 12.876L45.648 13.83C45.168 13.086 44.538 12.282 43.758 11.418L45.09 10.59ZM50.688 10.626C51.864 12.126 52.77 13.446 53.406 14.586L51.948 15.594C51.324 14.418 50.442 13.056 49.302 11.508L50.688 10.626ZM62.568 3.606H67.608V0.204H69.336V3.606H71.19V5.262H69.336V14.73C69.336 16.11 68.622 16.8 67.194 16.8H64.458L64.098 15.126C64.962 15.198 65.796 15.234 66.6 15.234C67.272 15.234 67.608 14.922 67.608 14.298V5.262H62.568V3.606ZM56.34 4.884C57.516 6.18 58.5 7.326 59.292 8.322C59.856 6.858 60.186 5.274 60.282 3.57H55.494V1.914H61.812V3.174C61.776 5.586 61.302 7.782 60.39 9.762C61.05 10.674 61.686 11.598 62.298 12.534L61.038 13.794C60.606 13.038 60.102 12.24 59.526 11.4C58.578 12.936 57.294 14.388 55.674 15.756L54.702 14.262C56.298 13.05 57.564 11.622 58.5 9.978C57.54 8.694 56.436 7.356 55.188 5.964L56.34 4.884ZM63.774 7.08C64.926 8.496 65.826 9.78 66.474 10.932L65.124 11.868C64.464 10.692 63.582 9.414 62.478 8.034L63.774 7.08ZM74.772 7.368C74.352 7.884 73.8 8.508 73.116 9.24L72.558 7.422C74.442 5.322 75.822 2.892 76.698 0.131999L78.3 0.887999C77.808 2.364 77.202 3.702 76.482 4.902V16.854H74.772V7.368ZM86.886 7.404C87.762 9.552 88.512 11.802 89.136 14.154L87.642 14.838C86.958 12.246 86.202 9.936 85.374 7.908L86.886 7.404ZM80.532 3.948C80.004 5.244 79.374 6.462 78.642 7.602L77.166 6.684C78.522 4.68 79.476 2.532 80.028 0.239999L81.63 0.581999C81.438 1.302 81.27 1.872 81.126 2.292H88.686V3.408C88.374 4.572 88.02 5.652 87.624 6.648L85.986 6.18C86.37 5.496 86.682 4.752 86.922 3.948H80.532ZM80.298 16.728L79.92 15.108C80.784 15.192 81.486 15.234 82.026 15.234C82.458 15.234 82.674 15 82.674 14.532V5.262H84.33V14.964C84.33 16.14 83.754 16.728 82.602 16.728H80.298ZM81.27 8.016C80.646 10.5 79.83 12.672 78.822 14.532L77.22 13.956C78.18 12.264 79.02 10.14 79.74 7.584L81.27 8.016ZM97.002 3.966H102.06C102.744 2.814 103.368 1.518 103.932 0.077999L105.57 0.653999C105.042 1.89 104.454 2.994 103.806 3.966H106.2V9.96H103.806V14.478C103.806 14.85 103.968 15.036 104.292 15.036H105.192C105.42 15.036 105.588 14.916 105.696 14.676C105.84 14.424 105.93 13.68 105.966 12.444L107.496 12.912C107.364 14.688 107.148 15.744 106.848 16.08C106.548 16.404 106.092 16.566 105.48 16.566H103.824C102.732 16.566 102.186 15.984 102.186 14.82V9.96H100.764C100.512 13.128 99.138 15.432 96.642 16.872L95.706 15.414C97.818 14.334 98.988 12.516 99.216 9.96H97.002V3.966ZM104.616 8.412V5.514H98.604V8.412H104.616ZM99 0.149999C99.6 0.977999 100.2 1.932 100.8 3.012L99.36 3.732C98.796 2.7 98.172 1.746 97.488 0.87L99 0.149999ZM93.132 0.383999C94.26 1.248 95.238 2.13 96.066 3.03L94.896 4.218C94.164 3.354 93.174 2.466 91.926 1.554L93.132 0.383999ZM90.684 5.604H94.842V13.182C95.286 12.786 95.814 12.282 96.426 11.67L96.876 13.47C95.808 14.526 94.65 15.474 93.402 16.314L92.754 14.784C93.054 14.484 93.204 14.142 93.204 13.758V7.242H90.684V5.604ZM112.5 3.858C112.896 3.858 113.214 3.978 113.454 4.218C113.706 4.446 113.832 4.752 113.832 5.136C113.832 5.508 113.706 5.82 113.454 6.072C113.178 6.312 112.86 6.432 112.5 6.432C112.14 6.432 111.834 6.306 111.582 6.054C111.318 5.802 111.186 5.496 111.186 5.136C111.186 4.752 111.318 4.446 111.582 4.218C111.822 3.978 112.128 3.858 112.5 3.858ZM112.5 10.446C112.896 10.446 113.214 10.566 113.454 10.806C113.706 11.034 113.832 11.34 113.832 11.724C113.832 12.096 113.706 12.408 113.454 12.66C113.178 12.9 112.86 13.02 112.5 13.02C112.14 13.02 111.834 12.894 111.582 12.642C111.318 12.39 111.186 12.084 111.186 11.724C111.186 11.34 111.318 11.034 111.582 10.806C111.822 10.566 112.128 10.446 112.5 10.446Z" fill="white"/>
</svg>
