<svg width="266" height="50" viewBox="0 0 266 50" fill="none" xmlns="http://www.w3.org/2000/svg">
<path d="M2.916 9.92H33.12V13.124H19.692V16.148H30.312V29.648H34.164V32.888H30.312V37.388C30.312 40.196 29.1 41.6 26.676 41.6H23.256L22.392 38.288L25.56 38.432C26.52 38.432 27 37.832 27 36.632V32.888H9V41.708H5.688V32.888H1.836V29.648H5.688V16.148H16.308V13.124H2.916V9.92ZM9 29.648H16.308V25.868H9V29.648ZM19.692 29.648H27V25.868H19.692V29.648ZM9 22.88H16.308V19.244H9V22.88ZM19.692 19.244V22.88H27V19.244H19.692ZM54.36 17.012C53.28 20.132 51.888 22.64 50.184 24.536L47.304 22.484C50.184 19.052 52.02 14.3 52.812 8.228L56.268 8.804C55.932 10.796 55.62 12.392 55.332 13.592H69.336V15.896C68.496 19.136 67.452 22.328 66.204 25.472L62.676 24.428C63.804 22.364 64.752 19.892 65.52 17.012H54.36ZM40.608 9.38C43.2 12.62 45.216 15.464 46.656 17.912L43.74 19.892C42.252 17.348 40.212 14.468 37.62 11.252L40.608 9.38ZM46.836 25.724C45.084 31.1 43.14 36.128 41.004 40.808L37.512 39.26C39.816 34.532 41.844 29.6 43.596 24.464L46.836 25.724ZM60.192 19.136C60.192 21.344 60.06 23.468 59.796 25.508C61.884 31.1 65.556 35.552 70.812 38.864L68.256 41.852C64.08 38.828 60.876 35.132 58.644 30.764L58.5 31.268C57.132 35.54 53.856 39.08 48.672 41.888L46.332 38.972C50.772 36.62 53.676 33.74 55.044 30.332C56.148 27.428 56.712 23.696 56.736 19.136H60.192ZM83.16 21.116H96.948V34.292H83.16V21.116ZM93.636 31.088V24.32H86.472V31.088H93.636ZM90.9 8.804C90.444 10.556 89.88 12.104 89.208 13.448H104.688V37.424C104.688 40.136 103.464 41.492 101.016 41.492H95.688L94.752 38.036L99.864 38.18C100.8 38.18 101.268 37.676 101.268 36.668V16.724H79.02V41.636H75.6V13.448H85.572C86.34 11.84 86.928 10.124 87.336 8.3L90.9 8.804ZM122.058 38V16.832H114.858V12.224H134.118V16.832H126.918V38H122.058ZM145.163 36.128H144.875C144.323 36.8 143.651 37.376 142.859 37.856C142.091 38.336 141.095 38.576 139.871 38.576C138.959 38.576 138.095 38.42 137.279 38.108C136.487 37.82 135.791 37.412 135.191 36.884C134.591 36.356 134.123 35.72 133.787 34.976C133.451 34.232 133.283 33.416 133.283 32.528C133.283 31.616 133.463 30.8 133.823 30.08C134.183 29.336 134.687 28.7 135.335 28.172C135.983 27.644 136.739 27.248 137.603 26.984C138.491 26.696 139.451 26.552 140.483 26.552C141.635 26.552 142.583 26.648 143.327 26.84C144.071 27.008 144.683 27.188 145.163 27.38V26.84C145.163 25.904 144.791 25.136 144.047 24.536C143.303 23.912 142.379 23.6 141.275 23.6C139.643 23.6 138.263 24.284 137.135 25.652L133.715 23.312C135.587 20.96 138.143 19.784 141.383 19.784C144.119 19.784 146.207 20.432 147.647 21.728C149.087 23 149.807 24.896 149.807 27.416V38H145.163V36.128ZM145.163 30.836C144.611 30.572 144.035 30.368 143.435 30.224C142.859 30.056 142.223 29.972 141.527 29.972C140.399 29.972 139.523 30.224 138.899 30.728C138.299 31.208 137.999 31.808 137.999 32.528C137.999 33.248 138.287 33.824 138.863 34.256C139.463 34.688 140.147 34.904 140.915 34.904C141.539 34.904 142.115 34.796 142.643 34.58C143.171 34.34 143.615 34.04 143.975 33.68C144.359 33.296 144.647 32.864 144.839 32.384C145.055 31.88 145.163 31.364 145.163 30.836ZM187.703 28.064V41.672H184.211V39.944H167.075V41.672H163.583V28.064H187.703ZM167.075 36.704H184.211V31.268H167.075V36.704ZM166.211 16.544C165.083 18.104 163.691 19.604 162.035 21.044L159.839 18.164C163.007 15.524 165.155 12.332 166.283 8.588L169.811 9.02C169.331 10.628 168.803 12.032 168.227 13.232H174.095V8.624H177.551V13.232H189.215V16.544H177.551V21.548H191.915V24.86H159.155V21.548H174.095V16.544H166.211ZM224.495 13.988V41.636H221.075V39.08H202.031V41.708H198.611V13.988H207.251C208.019 12.092 208.571 10.208 208.907 8.336L212.687 8.84C212.327 10.64 211.799 12.356 211.103 13.988H224.495ZM202.031 35.768H221.075V27.776H202.031V35.768ZM202.031 24.536H221.075V17.228H202.031V24.536ZM238.535 15.716C239.327 15.716 239.963 15.956 240.443 16.436C240.947 16.892 241.199 17.504 241.199 18.272C241.199 19.016 240.947 19.64 240.443 20.144C239.891 20.624 239.255 20.864 238.535 20.864C237.815 20.864 237.203 20.612 236.699 20.108C236.171 19.604 235.907 18.992 235.907 18.272C235.907 17.504 236.171 16.892 236.699 16.436C237.179 15.956 237.791 15.716 238.535 15.716ZM238.535 28.892C239.327 28.892 239.963 29.132 240.443 29.612C240.947 30.068 241.199 30.68 241.199 31.448C241.199 32.192 240.947 32.816 240.443 33.32C239.891 33.8 239.255 34.04 238.535 34.04C237.815 34.04 237.203 33.788 236.699 33.284C236.171 32.78 235.907 32.168 235.907 31.448C235.907 30.68 236.171 30.068 236.699 29.612C237.179 29.132 237.791 28.892 238.535 28.892Z" fill="white"/>
</svg>
