<svg width="205" height="82" viewBox="0 0 205 82" fill="none" xmlns="http://www.w3.org/2000/svg">
<path d="M0.984375 15.6562C1.92188 17.9062 3 20.0625 4.21875 22.125C4.6875 21.4688 5.29688 20.7188 6.04688 19.875V34.0781H12.2344V12.5625C12.7031 11.625 13.3594 10.4062 14.2031 8.90625H34.7344V3H16.5938C16.875 2.4375 17.2031 1.78125 17.5781 1.03125L10.8281 0.1875C10.2656 1.3125 9.75 2.25 9.28125 3H1.40625V8.90625H6.1875C4.5 11.4375 2.76562 13.6875 0.984375 15.6562ZM13.9219 27.8906V33.5156H35.0156V27.8906H27.9844V21.7031H33.8906V15.375H27.9844V10.5938H21.2344V15.375H14.7656V21.7031H21.2344V27.8906H13.9219ZM48.5156 3.5625C46.0781 2.4375 43.7812 1.3125 41.625 0.1875L38.3906 4.96875C40.3594 6.09375 42.6094 7.40625 45.1406 8.90625L48.5156 3.5625ZM39.5156 8.90625L37.5469 14.1094C40.0781 15.0469 42.6094 15.8906 45.1406 16.6406L45.8438 14.25C45.4688 13.875 45.0938 13.3594 44.7188 12.7031C45.1875 12.2344 45.6562 11.7656 46.125 11.2969C43.7812 10.4531 41.5781 9.65625 39.5156 8.90625ZM44.2969 18.8906L42.1875 18.1875C40.875 22.3125 39.1406 26.2969 36.9844 30.1406C38.8594 31.3594 40.5938 32.5781 42.1875 33.7969C42.75 32.9531 43.3125 32.0156 43.875 30.9844C43.3125 30.3281 42.7031 29.625 42.0469 28.875C43.7344 27.75 45.1406 26.5312 46.2656 25.2188L44.2969 25.0781V18.8906ZM49.9219 19.4531C49.4531 18.9844 49.125 18.6094 48.9375 18.3281H45.8438V23.3906H50.625C48.75 25.5469 46.5938 27.4219 44.1562 29.0156C45.5625 30.6094 46.9219 32.2031 48.2344 33.7969C50.2969 31.8281 52.4531 29.8594 54.7031 27.8906V34.0781H61.4531V27.3281C63.7031 29.4844 66 31.5 68.3438 33.375C69.1875 31.5 70.1719 29.7656 71.2969 28.1719C69.3281 26.8594 67.4531 25.2656 65.6719 23.3906H70.4531V17.9062H61.4531V15.7969H54.7031V17.9062H52.7344C51.7031 18.5625 50.7656 19.0781 49.9219 19.4531ZM50.4844 17.625C50.9531 17.3438 51.5625 17.0625 52.3125 16.7812H53.1562V14.25H56.6719V7.21875C55.3594 7.21875 54.1406 7.125 53.0156 6.9375C51.9844 10.0312 49.9219 12.0938 46.8281 13.125C47.9531 14.7188 49.1719 16.2188 50.4844 17.625ZM66.2344 9.75C66.1406 10.125 66.0469 10.5 65.9531 10.875C65.8594 11.25 65.7188 11.4375 65.5312 11.4375H64.2656V9.75H62.2969V6.65625H58.6406V14.25H62.8594V16.2188H66.5156C68.6719 16.0312 69.9844 14.4375 70.4531 11.4375C69.2344 11.0625 67.8281 10.5 66.2344 9.75ZM50.2031 9.1875C50.7656 8.0625 51.3281 6.84375 51.8906 5.53125H63.7031V8.34375H69.8906V0.1875H47.1094V1.03125C47.9531 1.59375 49.1719 2.29688 50.7656 3.14062C49.3594 5.48437 48 7.5 46.6875 9.1875H50.2031ZM73.4062 5.53125C75.5625 6.65625 77.7656 7.875 80.0156 9.1875L82.5469 4.40625C80.2969 3.1875 78.1406 2.15625 76.0781 1.3125L73.4062 5.53125ZM78.75 11.2969C77.1562 10.7344 76.0312 10.3594 75.375 10.1719L73.4062 15.375C75.5625 16.2188 77.8594 17.0625 80.2969 17.9062L81.7031 13.4062L78.75 11.2969ZM78.1875 33.2344C79.6875 30.4219 81.0469 27.5156 82.2656 24.5156H81.4219V21.2812L78.1875 19.7344C76.6875 23.2031 75.0469 26.5312 73.2656 29.7188L78.1875 33.2344ZM93.2344 1.3125C91.2656 1.21875 89.2969 1.03125 87.3281 0.75C85.8281 4.3125 83.7656 7.6875 81.1406 10.875C82.6406 11.9062 84.2344 12.8438 85.9219 13.6875C87.6094 11.8125 89.0156 9.9375 90.1406 8.0625H105.328V3.28125H92.3906L93.2344 1.3125ZM99.9844 33.5156C101.859 33.5156 102.891 32.7656 103.078 31.2656H106.031V26.0625H104.484V22.9688H106.312V17.625H104.484V10.0312H90.5625C88.5938 12.75 86.8594 14.9062 85.3594 16.5V17.625H82.8281V22.9688H85.0781V31.2656H93.2344V28.5938H94.3594C95.1094 30.375 95.5781 32.1094 95.7656 33.7969L99.9844 33.5156ZM96.0469 12L99.1406 15.9375L98.5781 17.2031L95.625 13.5469L92.1094 15.375L93.5156 17.625H90.9844V16.6406V14.25L96.0469 12ZM90.9844 22.5469L96.0469 19.875L98.8594 24.5156L98.0156 25.6406L95.7656 21.7031L91.8281 23.6719L93.375 26.0625H90.9844V22.5469ZM114.75 35.0625C115.594 34.0312 116.297 32.8594 116.859 31.5469C117.422 30.3281 117.75 29.0625 117.844 27.75V22.4062H112.078V27.75H114.609C114.141 31.3125 113.062 33.75 111.375 35.0625H114.75ZM27.1406 74.0625C27.1406 74.7188 26.9531 75.0469 26.5781 75.0469H23.0625C23.7188 77.2031 24.2344 79.4531 24.6094 81.7969H25.3125C27.1875 81.7969 29.0625 81.5156 30.9375 80.9531C32.8125 80.4844 33.8438 79.2656 34.0312 77.2969V51.5625H20.9531C21.5156 50.9062 21.9844 49.9688 22.3594 48.75L13.9219 48.1875C13.3594 49.3125 12.6094 50.4375 11.6719 51.5625H2.39062V81.5156H8.85938V58.0312H27.1406V74.0625ZM10.4062 59.4375V74.7656H21.375L21.2344 73.6406H25.5938V59.4375H10.4062ZM19.6875 65.2031V68.8594H16.7344V65.2031H19.6875ZM54.9844 59.2969H62.4375V78H70.5938V59.2969H78.0469V52.6875H54.9844V59.2969ZM89.8594 74.3438C88.5469 74.3438 87.7969 73.8281 87.6094 72.7969C87.7031 71.6719 88.6875 70.9688 90.5625 70.6875C91.5938 70.5 92.4844 70.2188 93.2344 69.8438C93.1406 72.75 92.0156 74.25 89.8594 74.3438ZM101.531 78V77.5781C100.969 77.2969 100.641 76.875 100.547 76.3125C100.547 75.6562 100.594 75.2812 100.688 75.1875V66.6094C100.5 63.4219 99.4219 61.3594 97.4531 60.4219C95.4844 59.3906 93.4219 58.9219 91.2656 59.0156C88.1719 59.1094 85.7344 59.7188 83.9531 60.8438C82.1719 61.9688 81.2812 63.4219 81.2812 65.2031H88.1719C88.5469 64.0781 89.4375 63.4688 90.8438 63.375C92.5312 63.6562 93.3281 64.2188 93.2344 65.0625C93.1406 65.5312 92.5781 65.9062 91.5469 66.1875C90.6094 66.4688 89.625 66.6562 88.5938 66.75C86.25 67.125 84.2344 67.875 82.5469 69C80.9531 70.0312 80.1562 71.3906 80.1562 73.0781C80.25 74.8594 81 76.1719 82.4062 77.0156C83.8125 77.7656 85.2656 78.1875 86.7656 78.2812C89.7656 78.0938 92.0625 77.3438 93.6562 76.0312L94.0781 78H101.531ZM128.25 60.8438C129.188 59.625 130.125 58.3125 131.062 56.9062H134.719H135.562V57.75V59.1562V60H134.719H130.922C129.984 61.3125 129.141 62.2969 128.391 62.9531C126.891 61.8281 125.531 60.8438 124.312 60H122.625V64.7812H154.828V60H142.594V56.9062H152.297V51.8438H142.594V48.4688H136.125V49.3125V51.8438H133.453L134.156 49.5938L127.969 48.1875C126.844 51.5625 125.156 54.5625 122.906 57.1875C124.781 58.4062 126.562 59.625 128.25 60.8438ZM138.938 67.0312H126V81.5156H151.453V67.0312H138.938ZM144.562 71.3906V77.0156H133.031V71.3906H144.562ZM170.859 48.4688C170.391 49.7812 169.781 51.1406 169.031 52.5469H160.734V81.375H189.422V52.5469H177.047C177.609 51.7031 178.031 50.8125 178.312 49.875L170.859 48.4688ZM182.25 68.8594V75.4688H167.625V68.8594H182.25ZM167.906 63.9375V58.0312H182.25V63.9375H167.906ZM204.609 66.6094V61.2656H198.984V66.6094H204.609ZM204.609 78.4219V73.0781H198.984V78.4219H204.609Z" fill="white"/>
</svg>
