<svg width="194" height="50" viewBox="0 0 194 50" fill="none" xmlns="http://www.w3.org/2000/svg">
<path d="M11.16 21.116H24.948V34.292H11.16V21.116ZM21.636 31.088V24.32H14.472V31.088H21.636ZM18.9 8.804C18.444 10.556 17.88 12.104 17.208 13.448H32.688V37.424C32.688 40.136 31.464 41.492 29.016 41.492H23.688L22.752 38.036L27.864 38.18C28.8 38.18 29.268 37.676 29.268 36.668V16.724H7.02V41.636H3.6V13.448H13.572C14.34 11.84 14.928 10.124 15.336 8.3L18.9 8.804ZM50.0581 38V16.832H42.8581V12.224H62.1181V16.832H54.9181V38H50.0581ZM73.1634 36.128H72.8754C72.3234 36.8 71.6514 37.376 70.8594 37.856C70.0914 38.336 69.0954 38.576 67.8714 38.576C66.9594 38.576 66.0954 38.42 65.2794 38.108C64.4874 37.82 63.7914 37.412 63.1914 36.884C62.5914 36.356 62.1234 35.72 61.7874 34.976C61.4514 34.232 61.2834 33.416 61.2834 32.528C61.2834 31.616 61.4634 30.8 61.8234 30.08C62.1834 29.336 62.6874 28.7 63.3354 28.172C63.9834 27.644 64.7394 27.248 65.6034 26.984C66.4914 26.696 67.4514 26.552 68.4834 26.552C69.6354 26.552 70.5834 26.648 71.3274 26.84C72.0714 27.008 72.6834 27.188 73.1634 27.38V26.84C73.1634 25.904 72.7914 25.136 72.0474 24.536C71.3034 23.912 70.3794 23.6 69.2754 23.6C67.6434 23.6 66.2634 24.284 65.1354 25.652L61.7154 23.312C63.5874 20.96 66.1434 19.784 69.3834 19.784C72.1194 19.784 74.2074 20.432 75.6474 21.728C77.0874 23 77.8074 24.896 77.8074 27.416V38H73.1634V36.128ZM73.1634 30.836C72.6114 30.572 72.0354 30.368 71.4354 30.224C70.8594 30.056 70.2234 29.972 69.5274 29.972C68.3994 29.972 67.5234 30.224 66.8994 30.728C66.2994 31.208 65.9994 31.808 65.9994 32.528C65.9994 33.248 66.2874 33.824 66.8634 34.256C67.4634 34.688 68.1474 34.904 68.9154 34.904C69.5394 34.904 70.1154 34.796 70.6434 34.58C71.1714 34.34 71.6154 34.04 71.9754 33.68C72.3594 33.296 72.6474 32.864 72.8394 32.384C73.0554 31.88 73.1634 31.364 73.1634 30.836ZM115.703 28.064V41.672H112.211V39.944H95.0752V41.672H91.5832V28.064H115.703ZM95.0752 36.704H112.211V31.268H95.0752V36.704ZM94.2112 16.544C93.0832 18.104 91.6912 19.604 90.0352 21.044L87.8392 18.164C91.0072 15.524 93.1552 12.332 94.2832 8.588L97.8112 9.02C97.3312 10.628 96.8032 12.032 96.2272 13.232H102.095V8.624H105.551V13.232H117.215V16.544H105.551V21.548H119.915V24.86H87.1552V21.548H102.095V16.544H94.2112ZM152.495 13.988V41.636H149.075V39.08H130.031V41.708H126.611V13.988H135.251C136.019 12.092 136.571 10.208 136.907 8.336L140.687 8.84C140.327 10.64 139.799 12.356 139.103 13.988H152.495ZM130.031 35.768H149.075V27.776H130.031V35.768ZM130.031 24.536H149.075V17.228H130.031V24.536ZM166.535 15.716C167.327 15.716 167.963 15.956 168.443 16.436C168.947 16.892 169.199 17.504 169.199 18.272C169.199 19.016 168.947 19.64 168.443 20.144C167.891 20.624 167.255 20.864 166.535 20.864C165.815 20.864 165.203 20.612 164.699 20.108C164.171 19.604 163.907 18.992 163.907 18.272C163.907 17.504 164.171 16.892 164.699 16.436C165.179 15.956 165.791 15.716 166.535 15.716ZM166.535 28.892C167.327 28.892 167.963 29.132 168.443 29.612C168.947 30.068 169.199 30.68 169.199 31.448C169.199 32.192 168.947 32.816 168.443 33.32C167.891 33.8 167.255 34.04 166.535 34.04C165.815 34.04 165.203 33.788 164.699 33.284C164.171 32.78 163.907 32.168 163.907 31.448C163.907 30.68 164.171 30.068 164.699 29.612C165.179 29.132 165.791 28.892 166.535 28.892Z" fill="white"/>
</svg>
