<svg width="96" height="17" viewBox="0 0 96 17" fill="none" xmlns="http://www.w3.org/2000/svg">
<path d="M9.198 10.212C8.406 10.476 7.38 10.776 6.12 11.112V14.838C6.12 16.026 5.514 16.62 4.302 16.62H2.286L1.908 14.982C2.544 15.054 3.144 15.09 3.708 15.09C4.164 15.09 4.392 14.862 4.392 14.406V11.508C3.18 11.772 2.07 11.982 1.062 12.138L0.828 10.428C2.076 10.224 3.264 10.008 4.392 9.78V6.558H0.828V4.92H4.392V3.012C3.72 3.144 2.796 3.3 1.62 3.48L1.26 1.86C3.804 1.584 6.036 1.056 7.956 0.276L8.55 1.878C7.782 2.142 6.972 2.394 6.12 2.634V4.92H10.008C9.9 3.516 9.846 1.968 9.846 0.276H11.574C11.574 2.04 11.628 3.588 11.736 4.92H17.172V6.558H11.88C11.988 7.746 12.15 8.736 12.366 9.528C12.426 9.792 12.51 10.104 12.618 10.464C13.41 9.516 14.088 8.454 14.652 7.278L16.128 8.052C15.312 9.72 14.352 11.142 13.248 12.318C13.5 12.87 13.71 13.278 13.878 13.542C14.418 14.358 14.832 14.766 15.12 14.766C15.36 14.766 15.594 13.83 15.822 11.958L17.334 12.75C16.878 15.318 16.218 16.602 15.354 16.602C14.586 16.602 13.776 16.068 12.924 15C12.564 14.556 12.258 14.058 12.006 13.506C10.746 14.562 9.354 15.384 7.83 15.972L6.876 14.496C8.568 13.884 10.044 13.002 11.304 11.85C11.1 11.298 10.914 10.68 10.746 9.996C10.494 9.024 10.296 7.878 10.152 6.558H6.12V9.384C7.2 9.096 8.226 8.79 9.198 8.466V10.212ZM13.554 0.438C14.814 1.23 15.9 2.04 16.812 2.868L15.57 4.092C14.814 3.3 13.758 2.448 12.402 1.536L13.554 0.438ZM26.712 0.833999H34.02V10.104H26.712V0.833999ZM32.364 8.628V7.44H28.386V8.628H32.364ZM28.386 6.054H32.364V4.92H28.386V6.054ZM28.386 3.516H32.364V2.346H28.386V3.516ZM23.526 10.266H21.798V5.982C21.09 7.23 20.238 8.388 19.242 9.456L18.612 7.836C19.908 6.696 20.952 5.382 21.744 3.894H18.99V2.31H21.798V0.455999H23.526V2.31H25.722V3.894H23.526V4.524C24.39 5.1 25.296 5.766 26.244 6.522L25.272 7.944C24.516 7.068 23.934 6.426 23.526 6.018V10.266ZM22.086 11.562C21.654 13.314 21.042 14.814 20.25 16.062L18.774 15.144C19.53 13.92 20.07 12.6 20.394 11.184L22.086 11.562ZM24.93 16.476C23.634 16.476 22.986 15.81 22.986 14.478V11.004H24.732V14.118C24.732 14.586 24.978 14.82 25.47 14.82H29.25C29.538 14.82 29.76 14.724 29.916 14.532C30.084 14.364 30.198 13.77 30.258 12.75L31.878 13.29C31.758 14.814 31.5 15.738 31.104 16.062C30.768 16.338 30.252 16.476 29.556 16.476H24.93ZM27.09 10.59C27.954 11.514 28.596 12.276 29.016 12.876L27.648 13.83C27.168 13.086 26.538 12.282 25.758 11.418L27.09 10.59ZM32.688 10.626C33.864 12.126 34.77 13.446 35.406 14.586L33.948 15.594C33.324 14.418 32.442 13.056 31.302 11.508L32.688 10.626ZM45.936 5.622V7.314H50.382V5.622H45.936ZM50.382 4.128V2.4H45.936V4.128H50.382ZM53.046 10.536C52.338 11.448 51.528 12.156 50.616 12.66C51.348 13.656 52.284 14.508 53.424 15.216L52.488 16.71C49.704 14.79 48.024 12.168 47.448 8.844H45.936V14.496C46.872 14.208 47.784 13.848 48.672 13.416L49.104 15.018C47.856 15.522 46.2 16.038 44.136 16.566L43.776 15.126C44.1 14.994 44.262 14.79 44.262 14.514V0.852H52.038V8.844H48.96C49.14 9.78 49.434 10.638 49.842 11.418C50.586 10.974 51.294 10.326 51.966 9.474L53.046 10.536ZM37.386 0.87H43.2V6.846H41.562V9.348H43.308V10.914H41.562V13.722L43.47 13.11V14.766C41.622 15.402 39.51 15.996 37.134 16.548L36.648 14.91C36.924 14.838 37.182 14.784 37.422 14.748V8.448H38.934V14.406L39.96 14.154V6.846H37.386V0.87ZM41.58 5.262V2.454H39.024V5.262H41.58ZM56.772 7.368C56.352 7.884 55.8 8.508 55.116 9.24L54.558 7.422C56.442 5.322 57.822 2.892 58.698 0.131999L60.3 0.887999C59.808 2.364 59.202 3.702 58.482 4.902V16.854H56.772V7.368ZM68.886 7.404C69.762 9.552 70.512 11.802 71.136 14.154L69.642 14.838C68.958 12.246 68.202 9.936 67.374 7.908L68.886 7.404ZM62.532 3.948C62.004 5.244 61.374 6.462 60.642 7.602L59.166 6.684C60.522 4.68 61.476 2.532 62.028 0.239999L63.63 0.581999C63.438 1.302 63.27 1.872 63.126 2.292H70.686V3.408C70.374 4.572 70.02 5.652 69.624 6.648L67.986 6.18C68.37 5.496 68.682 4.752 68.922 3.948H62.532ZM62.298 16.728L61.92 15.108C62.784 15.192 63.486 15.234 64.026 15.234C64.458 15.234 64.674 15 64.674 14.532V5.262H66.33V14.964C66.33 16.14 65.754 16.728 64.602 16.728H62.298ZM63.27 8.016C62.646 10.5 61.83 12.672 60.822 14.532L59.22 13.956C60.18 12.264 61.02 10.14 61.74 7.584L63.27 8.016ZM79.002 3.966H84.06C84.744 2.814 85.368 1.518 85.932 0.077999L87.57 0.653999C87.042 1.89 86.454 2.994 85.806 3.966H88.2V9.96H85.806V14.478C85.806 14.85 85.968 15.036 86.292 15.036H87.192C87.42 15.036 87.588 14.916 87.696 14.676C87.84 14.424 87.93 13.68 87.966 12.444L89.496 12.912C89.364 14.688 89.148 15.744 88.848 16.08C88.548 16.404 88.092 16.566 87.48 16.566H85.824C84.732 16.566 84.186 15.984 84.186 14.82V9.96H82.764C82.512 13.128 81.138 15.432 78.642 16.872L77.706 15.414C79.818 14.334 80.988 12.516 81.216 9.96H79.002V3.966ZM86.616 8.412V5.514H80.604V8.412H86.616ZM81 0.149999C81.6 0.977999 82.2 1.932 82.8 3.012L81.36 3.732C80.796 2.7 80.172 1.746 79.488 0.87L81 0.149999ZM75.132 0.383999C76.26 1.248 77.238 2.13 78.066 3.03L76.896 4.218C76.164 3.354 75.174 2.466 73.926 1.554L75.132 0.383999ZM72.684 5.604H76.842V13.182C77.286 12.786 77.814 12.282 78.426 11.67L78.876 13.47C77.808 14.526 76.65 15.474 75.402 16.314L74.754 14.784C75.054 14.484 75.204 14.142 75.204 13.758V7.242H72.684V5.604ZM94.5 3.858C94.896 3.858 95.214 3.978 95.454 4.218C95.706 4.446 95.832 4.752 95.832 5.136C95.832 5.508 95.706 5.82 95.454 6.072C95.178 6.312 94.86 6.432 94.5 6.432C94.14 6.432 93.834 6.306 93.582 6.054C93.318 5.802 93.186 5.496 93.186 5.136C93.186 4.752 93.318 4.446 93.582 4.218C93.822 3.978 94.128 3.858 94.5 3.858ZM94.5 10.446C94.896 10.446 95.214 10.566 95.454 10.806C95.706 11.034 95.832 11.34 95.832 11.724C95.832 12.096 95.706 12.408 95.454 12.66C95.178 12.9 94.86 13.02 94.5 13.02C94.14 13.02 93.834 12.894 93.582 12.642C93.318 12.39 93.186 12.084 93.186 11.724C93.186 11.34 93.318 11.034 93.582 10.806C93.822 10.566 94.128 10.446 94.5 10.446Z" fill="white"/>
</svg>
