<svg width="400" height="300" xmlns="http://www.w3.org/2000/svg" fill="none">

 <g>
  <title>Layer 1</title>
  <path id="svg_1" fill="#33588D" d="m-20,10.41177c13.3333,-13.33333 26.6667,-13.33333 40,0c13.3333,13.3333 26.6667,13.3333 40,0c13.3333,-13.33333 26.667,-13.33333 40,0c13.333,13.3333 26.667,13.3333 40,0c13.333,-13.33333 26.667,-13.33333 40,0c13.333,13.3333 26.667,13.3333 40,0c13.333,-13.33333 26.667,-13.33333 40,0c13.333,13.3333 26.667,13.3333 40,0c13.333,-13.33333 26.667,-13.33333 40,0c13.333,13.3333 26.667,13.3333 40,0c13.333,-13.33333 26.667,-13.33333 40,0c13.333,13.3333 26.667,13.3333 40,0c13.333,-13.33333 26.667,-13.33333 40,0c13.333,13.3333 26.667,13.3333 40,0l0,542l-560,0l0,-542z"/>
 </g>
</svg>