<svg width="400" height="600" xmlns="http://www.w3.org/2000/svg" fill="none">

 <g>
  <title>Layer 1</title>
  <g fill="#52B4CE" stroke="null">
   <path stroke="null" fill="#1C2550" d="m-20,10c13.3333,-13.33333 26.6667,-13.33333 40,0c13.3333,13.3333 26.66667,13.3333 40,0c13.3333,-13.33333 26.6667,-13.33333 40,0c13.3333,13.3333 26.6667,13.3333 40,0c13.333,-13.33333 26.667,-13.33333 40,0c13.333,13.3333 26.667,13.3333 40,0c13.333,-13.33333 26.667,-13.33333 40,0c13.333,13.3333 26.667,13.3333 40,0c13.333,-13.33333 26.667,-13.33333 40,0c13.333,13.3333 26.667,13.3333 40,0c13.333,-13.33333 26.667,-13.33333 40,0c13.333,13.3333 26.667,13.3333 40,0c13.333,-13.33333 26.667,-13.33333 40,0c13.333,13.3333 26.667,13.3333 40,0l0,542l-560,0l0,-542z"/>
  </g>
  <rect stroke="null" id="svg_2" height="145" width="427" y="520.5" x="-23" fill="#1c2550"/>
 </g>
</svg>