<svg width="84" height="84" viewBox="0 0 84 84" fill="none" xmlns="http://www.w3.org/2000/svg">
<mask id="path-1-inside-1_145_544" fill="white">
<path d="M5.68745 31.4573C5.84528 31.043 6.10543 30.6755 6.44366 30.3889C6.78189 30.1023 7.18719 29.906 7.62175 29.8183C10.4231 29.2539 15.4459 28.4804 15.6584 28.4476C16.3696 28.3385 17.0939 28.5255 17.6624 28.9652L17.9495 29.1875L17.9667 29.0038C18.008 28.5524 18.1655 28.1194 18.4239 27.7469C18.6822 27.3744 19.0325 27.0752 19.4408 26.8783L26.9048 23.2804C27.2932 23.0933 27.7218 23.0047 28.1525 23.0224C28.5833 23.0402 29.0031 23.1637 29.3748 23.3822C29.7464 23.6006 30.0585 23.9073 30.2835 24.2749C30.5086 24.6426 30.6396 25.06 30.6651 25.4904C30.8276 28.2392 30.6594 30.6665 30.1656 32.7034C29.8014 34.2054 29.2575 35.5261 28.502 36.7393C28.2247 37.1847 27.9171 37.5957 27.6448 37.9591C27.4741 38.1863 27.2477 38.4898 27.091 38.731C27.096 38.7351 27.1017 38.7392 27.1066 38.7441C28.4298 39.8032 29.5397 40.0591 31.6159 38.384C32.93 37.3234 34.1974 35.8271 35.665 34.0938C38.673 30.541 42.4161 26.1204 48.9844 22.6504C53.5297 20.2486 57.7642 18.9607 61.568 18.822C65.17 18.69 68.379 19.5685 71.1066 21.4306C74.177 23.5273 76.528 26.8381 77.9045 31.0045C79.066 34.5187 79.4754 38.471 79.057 42.1345C78.3442 48.3836 75.3148 53.6066 70.2969 57.2405C65.8303 60.475 59.9446 62.3536 53.2771 62.6735C48.808 62.8876 43.9936 61.8958 40.4326 60.9935C38.2826 62.3011 35.9545 63 33.9497 63C32.7323 63 31.6339 62.7424 30.7677 62.2067C29.3928 61.3569 28.703 59.8483 28.9663 58.27C29.0623 57.6966 29.2559 57.1331 29.4929 56.6081C26.466 55.0167 23.9411 53.1021 21.8287 50.8044C19.5015 48.2721 18.166 45.8128 17.0931 43.8375L17.0767 43.8079C16.5804 42.8941 16.2482 42.1591 16.0053 41.6218C15.8708 41.324 15.7059 40.9606 15.6157 40.8097C15.5476 40.7752 15.386 40.7039 15.0595 40.6038C9.87269 39.0132 6.1944 34.1742 6.04101 33.9691C5.4996 33.2472 5.36589 32.2998 5.68745 31.4573ZM22.038 38.0101C21.1922 36.139 24.6794 38.8198 22.038 38.0101C21.6328 37.2645 22.2701 38.5245 22.038 38.0101L22.14 37.6216L23.015 38.9341L21.265 39.3716L21.7065 36.5957C23.6178 40.1157 26.2355 44.9359 34.3401 48.3582C34.7278 48.522 42.2876 47.2914 42.5562 47.6153C42.4669 47.204 42.8249 47.9392 42.5562 47.6153C42.6663 47.2091 42.6456 48.0265 42.5562 47.6153C42.841 47.3054 42.4462 48.0215 42.5562 47.6153C43.1572 46.5255 43.1958 46.3627 42.5562 47.6153C41.2962 48.5316 43.4963 47.4127 42.5562 47.6153C43.0051 47.2889 53.96 42.8715 54.515 42.8716C54.7406 42.8716 54.9027 40.6284 55.125 40.6875C58.4136 41.5611 50.2731 43.0742 54.515 42.8716C60.1612 42.6009 46.6744 44.7693 50.3125 42.1345C54.1581 39.3495 44.0762 44.6245 44.625 39.8125C44.9539 36.9307 48.1638 38.2036 47.25 35.4375C46.5445 33.3014 47.25 31.0625 55.5625 31.9375C61.25 33.25 61.9552 38.4114 59.5 38.5C56.4919 38.6099 59.8415 36.033 56 38.0625C50.33 41.0583 57.3721 39.4976 54.515 42.8716C52.9433 44.7279 40.7584 50.1796 39.0562 51.5528C34.3009 55.3902 32.448 49.1948 30.015 47.2466C27.8822 45.5387 21.7976 39.266 22.038 38.0101C21.3735 38.8977 22.2898 36.6919 22.038 38.0101C21.8805 38.2636 22.266 37.7058 22.038 38.0101C21.7435 40.5006 22.3317 37.5385 22.038 38.0101C22.3135 37.6288 21.6345 37.96 22.038 38.0101C22.4693 37.8225 21.7625 38.3914 22.038 38.0101C22.5048 38.0681 21.6067 38.198 22.038 38.0101C22.4102 38.2979 21.5711 37.9521 22.038 38.0101C22.6705 37.9068 21.5762 38.0831 22.038 38.0101C21.857 37.9876 22.9116 38.6328 22.038 38.0101Z"/>
</mask>
<path d="M5.68745 31.4573C5.84528 31.043 6.10543 30.6755 6.44366 30.3889C6.78189 30.1023 7.18719 29.906 7.62175 29.8183C10.4231 29.2539 15.4459 28.4804 15.6584 28.4476C16.3696 28.3385 17.0939 28.5255 17.6624 28.9652L17.9495 29.1875L17.9667 29.0038C18.008 28.5524 18.1655 28.1194 18.4239 27.7469C18.6822 27.3744 19.0325 27.0752 19.4408 26.8783L26.9048 23.2804C27.2932 23.0933 27.7218 23.0047 28.1525 23.0224C28.5833 23.0402 29.0031 23.1637 29.3748 23.3822C29.7464 23.6006 30.0585 23.9073 30.2835 24.2749C30.5086 24.6426 30.6396 25.06 30.6651 25.4904C30.8276 28.2392 30.6594 30.6665 30.1656 32.7034C29.8014 34.2054 29.2575 35.5261 28.502 36.7393C28.2247 37.1847 27.9171 37.5957 27.6448 37.9591C27.4741 38.1863 27.2477 38.4898 27.091 38.731C27.096 38.7351 27.1017 38.7392 27.1066 38.7441C28.4298 39.8032 29.5397 40.0591 31.6159 38.384C32.93 37.3234 34.1974 35.8271 35.665 34.0938C38.673 30.541 42.4161 26.1204 48.9844 22.6504C53.5297 20.2486 57.7642 18.9607 61.568 18.822C65.17 18.69 68.379 19.5685 71.1066 21.4306C74.177 23.5273 76.528 26.8381 77.9045 31.0045C79.066 34.5187 79.4754 38.471 79.057 42.1345C78.3442 48.3836 75.3148 53.6066 70.2969 57.2405C65.8303 60.475 59.9446 62.3536 53.2771 62.6735C48.808 62.8876 43.9936 61.8958 40.4326 60.9935C38.2826 62.3011 35.9545 63 33.9497 63C32.7323 63 31.6339 62.7424 30.7677 62.2067C29.3928 61.3569 28.703 59.8483 28.9663 58.27C29.0623 57.6966 29.2559 57.1331 29.4929 56.6081C26.466 55.0167 23.9411 53.1021 21.8287 50.8044C19.5015 48.2721 18.166 45.8128 17.0931 43.8375L17.0767 43.8079C16.5804 42.8941 16.2482 42.1591 16.0053 41.6218C15.8708 41.324 15.7059 40.9606 15.6157 40.8097C15.5476 40.7752 15.386 40.7039 15.0595 40.6038C9.87269 39.0132 6.1944 34.1742 6.04101 33.9691C5.4996 33.2472 5.36589 32.2998 5.68745 31.4573ZM22.038 38.0101C21.1922 36.139 24.6794 38.8198 22.038 38.0101C21.6328 37.2645 22.2701 38.5245 22.038 38.0101L22.14 37.6216L23.015 38.9341L21.265 39.3716L21.7065 36.5957C23.6178 40.1157 26.2355 44.9359 34.3401 48.3582C34.7278 48.522 42.2876 47.2914 42.5562 47.6153C42.4669 47.204 42.8249 47.9392 42.5562 47.6153C42.6663 47.2091 42.6456 48.0265 42.5562 47.6153C42.841 47.3054 42.4462 48.0215 42.5562 47.6153C43.1572 46.5255 43.1958 46.3627 42.5562 47.6153C41.2962 48.5316 43.4963 47.4127 42.5562 47.6153C43.0051 47.2889 53.96 42.8715 54.515 42.8716C54.7406 42.8716 54.9027 40.6284 55.125 40.6875C58.4136 41.5611 50.2731 43.0742 54.515 42.8716C60.1612 42.6009 46.6744 44.7693 50.3125 42.1345C54.1581 39.3495 44.0762 44.6245 44.625 39.8125C44.9539 36.9307 48.1638 38.2036 47.25 35.4375C46.5445 33.3014 47.25 31.0625 55.5625 31.9375C61.25 33.25 61.9552 38.4114 59.5 38.5C56.4919 38.6099 59.8415 36.033 56 38.0625C50.33 41.0583 57.3721 39.4976 54.515 42.8716C52.9433 44.7279 40.7584 50.1796 39.0562 51.5528C34.3009 55.3902 32.448 49.1948 30.015 47.2466C27.8822 45.5387 21.7976 39.266 22.038 38.0101C21.3735 38.8977 22.2898 36.6919 22.038 38.0101C21.8805 38.2636 22.266 37.7058 22.038 38.0101C21.7435 40.5006 22.3317 37.5385 22.038 38.0101C22.3135 37.6288 21.6345 37.96 22.038 38.0101C22.4693 37.8225 21.7625 38.3914 22.038 38.0101C22.5048 38.0681 21.6067 38.198 22.038 38.0101C22.4102 38.2979 21.5711 37.9521 22.038 38.0101C22.6705 37.9068 21.5762 38.0831 22.038 38.0101C21.857 37.9876 22.9116 38.6328 22.038 38.0101Z" fill="#5CABD7"/>
<path d="M5.68745 31.4573L99.1357 67.0583L99.1244 67.0879L99.1132 67.1174L5.68745 31.4573ZM7.62175 29.8183L-12.1551 -68.2066L-12.1415 -68.2093L-12.1278 -68.2121L7.62175 29.8183ZM15.6584 28.4476L0.395287 -70.3808L0.445374 -70.3885L0.495468 -70.3962L15.6584 28.4476ZM17.6624 28.9652L78.8429 -50.1357L78.8635 -50.1197L78.8841 -50.1037L17.6624 28.9652ZM17.9495 29.1875L117.513 38.5198L100.539 219.607L-43.2723 108.256L17.9495 29.1875ZM17.9667 29.0038L117.55 38.1216L117.54 38.2289L117.53 38.3361L17.9667 29.0038ZM19.4408 26.8783L-23.9952 -63.1956L-23.988 -63.1991L-23.9809 -63.2025L19.4408 26.8783ZM26.9048 23.2804L-16.5168 -66.8004L-16.5077 -66.8048L-16.4985 -66.8093L26.9048 23.2804ZM29.3748 23.3822L80.0388 -62.8336L80.0502 -62.8269L80.0616 -62.8202L29.3748 23.3822ZM30.6651 25.4904L130.49 19.5704L130.49 19.5812L130.491 19.592L30.6651 25.4904ZM30.1656 32.7034L127.35 56.2656L127.349 56.2694L30.1656 32.7034ZM28.502 36.7393L-56.3943 -16.1059L-56.3896 -16.1136L-56.3848 -16.1212L28.502 36.7393ZM27.6448 37.9591L107.666 97.9302L107.638 97.9678L107.61 98.0053L27.6448 37.9591ZM27.091 38.731L-36.9274 115.553L-105.139 58.7103L-56.7663 -15.7478L27.091 38.731ZM27.1066 38.7441L-35.3806 116.817L-39.6958 113.363L-43.604 109.455L27.1066 38.7441ZM31.6159 38.384L94.4225 116.2L94.4149 116.206L94.4074 116.212L31.6159 38.384ZM35.665 34.0938L-40.6545 -30.5231L-40.6536 -30.5241L35.665 34.0938ZM48.9844 22.6504L95.7049 111.065L95.6955 111.07L48.9844 22.6504ZM61.568 18.822L65.2321 118.755L65.2211 118.755L65.2101 118.756L61.568 18.822ZM71.1066 21.4306L127.49 -61.1579L127.5 -61.1515L71.1066 21.4306ZM77.9045 31.0045L-17.0433 62.3878L-17.0476 62.3748L77.9045 31.0045ZM79.057 42.1345L-20.2986 30.8008L-20.2972 30.7886L79.057 42.1345ZM70.2969 57.2405L128.952 138.232L128.949 138.234L70.2969 57.2405ZM53.2771 62.6735L58.0698 162.559L58.0623 162.559L53.2771 62.6735ZM40.4326 60.9935L-11.529 -24.4465L24.3216 -46.2496L64.996 -35.9428L40.4326 60.9935ZM30.7677 62.2067L83.3472 -22.8544L83.3544 -22.85L83.3615 -22.8455L30.7677 62.2067ZM28.9663 58.27L-69.6703 41.8135L-69.666 41.7875L-69.6617 41.7615L28.9663 58.27ZM29.4929 56.6081L76.028 -31.9045L159.393 11.9243L120.632 97.7629L29.4929 56.6081ZM21.8287 50.8044L-51.7895 118.483L-51.795 118.477L-51.8005 118.471L21.8287 50.8044ZM17.0931 43.8375L104.506 -4.73228L104.738 -4.31438L104.966 -3.89427L17.0931 43.8375ZM17.0767 43.8079L-70.336 92.3777L-70.5701 91.9563L-70.8002 91.5328L17.0767 43.8079ZM16.0053 41.6218L-75.1216 82.8028L-75.1256 82.7939L16.0053 41.6218ZM15.6157 40.8097L60.7665 -48.417L86.5942 -35.3475L101.447 -10.5026L15.6157 40.8097ZM15.0595 40.6038L-14.2478 136.213L-14.2587 136.209L15.0595 40.6038ZM6.04101 33.9691L86.041 -26.0309L86.0794 -25.9796L86.1178 -25.9284L6.04101 33.9691ZM21.7065 36.5957L-77.052 20.8872L-30.8286 -269.716L109.587 -11.1229L21.7065 36.5957ZM34.3401 48.3582L73.2409 -43.7653L73.2491 -43.7618L73.2574 -43.7583L34.3401 48.3582ZM55.125 40.6875L29.4503 137.335L29.4475 137.335L55.125 40.6875ZM50.3125 42.1345L-8.34386 -38.8558L-8.34122 -38.8577L50.3125 42.1345ZM44.625 39.8125L-54.731 28.4812L-54.7298 28.4714L44.625 39.8125ZM47.25 35.4375L-47.7025 66.8067L-47.7055 66.7976L47.25 35.4375ZM55.5625 31.9375L66.031 -67.513L72.1011 -66.8741L78.0484 -65.5016L55.5625 31.9375ZM59.5 38.5L55.8482 -61.4333L55.8711 -61.4341L55.8939 -61.435L59.5 38.5ZM56 38.0625L9.28411 -50.3548L9.28844 -50.3571L56 38.0625ZM39.0562 51.5528L-23.7434 -26.2688L-23.7329 -26.2773L39.0562 51.5528ZM30.015 47.2466L-32.4898 125.305L-32.4911 125.304L30.015 47.2466ZM21.265 39.3716L45.5186 136.386L-101.26 173.08L-77.4935 23.663L21.265 39.3716ZM23.015 38.9341L106.22 -16.5359L184.932 101.532L47.2686 135.948L23.015 38.9341ZM22.14 37.6216L-74.5829 12.231L-18.0847 -202.993L105.345 -17.8484L22.14 37.6216ZM-87.7607 -4.14374C-81.5921 -20.3357 -71.4237 -34.7031 -58.2028 -45.9056L71.0901 106.683C83.6346 96.054 93.2826 82.4218 99.1357 67.0583L-87.7607 -4.14374ZM-58.2028 -45.9056C-44.9821 -57.1078 -29.1405 -64.7797 -12.1551 -68.2066L27.3986 127.843C43.5149 124.592 58.5459 117.312 71.0901 106.683L-58.2028 -45.9056ZM-12.1278 -68.2121C-10.2634 -68.5877 -8.50748 -68.9044 -7.26067 -69.1233C-5.92204 -69.3583 -4.643 -69.5724 -3.59173 -69.745C-2.52441 -69.9203 -1.57909 -70.0712 -0.884758 -70.1808C-0.533836 -70.2362 -0.238274 -70.2824 -0.0133133 -70.3174C0.0994644 -70.335 0.194206 -70.3497 0.268768 -70.3612C0.339256 -70.3721 0.404594 -70.3822 0.395287 -70.3808L30.9214 127.276C30.9117 127.277 29.973 127.422 28.8135 127.612C28.2324 127.708 27.7172 127.795 27.3195 127.865C27.1268 127.898 27.019 127.918 26.988 127.924C26.9423 127.932 27.085 127.906 27.3714 127.849L-12.1278 -68.2121ZM0.495468 -70.3962C28.2389 -74.6521 56.5686 -67.3637 78.8429 -50.1357L-43.5181 108.066C-22.3808 124.415 4.50025 131.329 30.8212 127.291L0.495468 -70.3962ZM78.8841 -50.1037L79.1712 -49.8814L-43.2723 108.256L-43.5594 108.034L78.8841 -50.1037ZM-81.6141 19.8552L-81.5969 19.6714L117.53 38.3361L117.513 38.5198L-81.6141 19.8552ZM-81.6167 19.8859C-80.0012 2.24088 -73.8447 -14.6846 -63.7474 -29.2433L100.595 84.7371C110.176 70.9233 116.017 54.8638 117.55 38.1216L-81.6167 19.8859ZM-63.7474 -29.2433C-53.6502 -43.8019 -39.9554 -55.4992 -23.9952 -63.1956L62.8768 116.952C78.0204 109.65 91.0145 98.5508 100.595 84.7371L-63.7474 -29.2433ZM-23.9809 -63.2025L-16.5168 -66.8004L70.3265 113.361L62.8625 116.959L-23.9809 -63.2025ZM-16.4985 -66.8093C-1.31767 -74.123 15.4306 -77.5862 32.2673 -76.8929L24.0378 122.938C40.0129 123.596 55.9042 120.31 70.3081 113.37L-16.4985 -66.8093ZM32.2673 -76.8929C49.1036 -76.1995 65.5104 -71.3711 80.0388 -62.8336L-21.2892 109.598C-7.50426 117.699 8.06303 122.28 24.0378 122.938L32.2673 -76.8929ZM80.0616 -62.8202C94.5844 -54.2809 106.781 -42.2977 115.576 -27.9291L-55.0085 76.479C-46.6641 90.1123 -35.0916 101.482 -21.312 109.585L80.0616 -62.8202ZM115.576 -27.9291C124.37 -13.5603 129.492 2.75282 130.49 19.5704L-69.1595 31.4103C-68.2132 47.3672 -63.3531 62.8455 -55.0085 76.479L115.576 -27.9291ZM130.491 19.592C131.066 29.3257 130.78 42.1186 127.35 56.2656L-67.0189 9.14112C-69.4612 19.2144 -69.411 27.1528 -69.1608 31.3888L130.491 19.592ZM127.349 56.2694C124.685 67.2541 120.235 78.6055 113.389 89.5998L-56.3848 -16.1212C-61.7201 -7.55342 -65.0827 1.15663 -67.018 9.13728L127.349 56.2694ZM113.398 89.5845C111.816 92.1257 110.402 94.1642 109.445 95.5036C108.539 96.7715 107.736 97.8374 107.666 97.9302L-52.3769 -22.012C-52.1741 -22.2826 -52.6875 -21.6039 -53.302 -20.7437C-53.9675 -19.812 -55.0898 -18.2017 -56.3943 -16.1059L113.398 89.5845ZM107.61 98.0053C107.568 98.0609 107.889 97.6357 108.308 97.058C108.533 96.7477 108.868 96.2824 109.271 95.7037C109.658 95.1477 110.248 94.2879 110.948 93.2098L-56.7663 -15.7478C-55.3338 -17.9529 -54.1002 -19.6651 -53.5829 -20.3783C-52.9687 -21.2249 -52.4494 -21.9155 -52.3206 -22.0871L107.61 98.0053ZM91.1095 -38.0911C90.1504 -38.8904 89.3758 -39.5033 89.2819 -39.5779C88.9222 -39.8635 89.5025 -39.4042 89.9309 -39.0582C90.9081 -38.2689 94.1014 -35.6824 97.8173 -31.9665L-43.604 109.455C-39.8931 113.166 -36.7051 115.748 -35.7332 116.533C-35.3074 116.877 -34.7299 117.334 -35.0921 117.046C-35.1887 116.969 -35.9658 116.354 -36.9274 115.553L91.1095 -38.0911ZM89.5938 -39.3286C84.4275 -43.4636 61.9326 -61.0369 27.2251 -60.3934C-5.18251 -59.7926 -25.9459 -43.6635 -31.1756 -39.4442L94.4074 116.212C87.1014 122.107 64.745 138.945 30.9326 139.572C-5.17966 140.242 -28.891 122.011 -35.3806 116.817L89.5938 -39.3286ZM-31.1907 -39.432C-35.9098 -35.6231 -39.0137 -32.2992 -40.0553 -31.1654C-41.0204 -30.1151 -41.6955 -29.2935 -40.6545 -30.5231L111.984 98.7107C111.558 99.2144 109.515 101.651 107.221 104.148C104.85 106.728 100.456 111.331 94.4225 116.2L-31.1907 -39.432ZM-40.6536 -30.5241C-36.8629 -35.0013 -22.6163 -52.6206 2.27324 -65.7694L95.6955 111.07C101.282 108.119 105.772 104.654 109.081 101.577C111.873 98.9813 113.707 96.676 111.984 98.7117L-40.6536 -30.5241ZM2.26379 -65.7644C15.6967 -72.8627 34.773 -80.2678 57.9258 -81.1116L65.2101 118.756C80.7554 118.189 91.3628 113.36 95.7049 111.065L2.26379 -65.7644ZM57.9038 -81.1108C80.8307 -81.9514 105.507 -76.166 127.49 -61.1579L14.7228 104.019C31.2509 115.303 49.5092 119.331 65.2321 118.755L57.9038 -81.1108ZM127.5 -61.1515C151.806 -44.5532 165.879 -21.4859 172.857 -0.365793L-17.0476 62.3748C-12.8229 75.1622 -3.45235 91.6078 14.7133 104.013L127.5 -61.1515ZM172.852 -0.378822C178.542 16.8357 180.48 35.3648 178.411 53.4804L-20.2972 30.7886C-21.5293 41.5771 -20.4101 52.2018 -17.0433 62.3878L172.852 -0.378822ZM178.413 53.4682C174.571 87.1486 157.099 117.847 128.952 138.232L11.642 -23.7508C-6.46985 -10.634 -17.8823 9.61865 -20.2986 30.8008L178.413 53.4682ZM128.949 138.234C105.701 155.069 80.0144 161.506 58.0698 162.559L48.4843 -37.2116C39.8747 -36.7985 25.9594 -34.1187 11.6453 -23.7532L128.949 138.234ZM58.0623 162.559C38.1164 163.514 21.3858 159.328 15.8692 157.93L64.996 -35.9428C64.9758 -35.9479 63.6428 -36.2944 61.4739 -36.6226C59.5225 -36.9178 54.8852 -37.5183 48.4918 -37.212L58.0623 162.559ZM92.3942 146.433C77.637 155.408 57.5523 163 33.9497 163V-37C14.3567 -37 -1.07188 -30.8062 -11.529 -24.4465L92.3942 146.433ZM33.9497 163C19.4849 163 -1.16534 160.035 -21.8262 147.259L83.3615 -22.8455C64.4332 -34.5503 45.9798 -37 33.9497 -37V163ZM-21.8118 147.268C-57.2914 125.337 -76.6996 83.945 -69.6703 41.8135L127.603 74.7266C134.105 35.7517 116.077 -2.62282 83.3472 -22.8544L-21.8118 147.268ZM-69.6617 41.7615C-67.7705 30.4634 -64.3668 21.4788 -61.6459 15.4532L120.632 97.7629C122.878 92.7874 125.895 84.9299 127.594 74.7786L-69.6617 41.7615ZM-17.0422 145.121C-29.3159 138.668 -41.2455 129.952 -51.7895 118.483L95.447 -16.8739C89.1276 -23.748 82.2479 -28.6345 76.028 -31.9045L-17.0422 145.121ZM-51.8005 118.471C-63.2003 106.066 -69.4885 93.9468 -70.78 91.5692L104.966 -3.89427C105.821 -2.32127 102.203 -9.5222 95.458 -16.862L-51.8005 118.471ZM-70.3196 92.4072L-70.336 92.3777L104.489 -4.76181L104.506 -4.73228L-70.3196 92.4072ZM-70.8002 91.5328C-73.1426 87.2197 -74.7219 83.6874 -75.1216 82.8028L107.132 0.440762C107.258 0.718029 106.969 0.0720863 106.581 -0.734756C106.16 -1.61076 105.616 -2.6962 104.954 -3.91692L-70.8002 91.5328ZM-75.1256 82.7939C-75.2303 82.5623 -74.9809 83.1196 -74.6478 83.8256C-74.4724 84.1975 -74.0947 84.9922 -73.5821 86.0079C-73.3179 86.5316 -72.9312 87.2861 -72.4456 88.1904C-71.9915 89.0358 -71.2276 90.4296 -70.2158 92.122L101.447 -10.5026C103.292 -7.41667 104.571 -4.88925 104.974 -4.09117C105.547 -2.95549 105.991 -2.02307 106.236 -1.50428C106.707 -0.504326 107.106 0.383476 107.136 0.449673L-75.1256 82.7939ZM-29.5352 130.036C-22.9478 133.37 -17.3913 135.249 -14.2478 136.213L44.3668 -55.0052C48.1633 -53.8415 54.043 -51.8192 60.7665 -48.417L-29.5352 130.036ZM-14.2587 136.209C-36.3801 129.426 -51.2641 117.395 -58.384 110.961C-66.2536 103.849 -71.5091 97.2445 -74.0358 93.8666L86.1178 -25.9284C83.7445 -29.1012 80.4049 -33.1839 75.7095 -37.427C71.7637 -40.9927 61.3123 -49.8087 44.3778 -55.0019L-14.2587 136.209ZM-73.959 93.9691C-95.0553 65.8406 -100.331 28.7878 -87.7382 -4.20275L99.1132 67.1174C111.062 35.8117 106.055 0.653831 86.041 -26.0309L-73.959 93.9691ZM51.3443 -57.5992C48.8544 -58.3624 39.8193 -61.1151 27.6823 -61.713C21.7938 -62.0031 9.07885 -62.1608 -6.18675 -57.5118C-22.1578 -52.6479 -48.7824 -39.7463 -65.1952 -8.98272C-81.3885 21.3693 -77.4856 50.1415 -73.1252 65.4259C-68.8506 80.4095 -62.0513 90.8827 -58.3896 96.0076C-50.7971 106.634 -42.7857 113.395 -38.2363 116.893C-33.1046 120.838 -26.3948 125.187 -18.0279 128.881C-13.7731 130.76 -7.52422 133.164 0.324318 134.923C7.60806 136.556 20.572 138.622 36.5663 136.276C53.6883 133.764 76.6291 125.642 95.5306 105.104C114.195 84.8242 120.168 61.9408 121.534 46.0932C122.83 31.0569 120.411 19.1234 118.74 12.6649C116.931 5.67008 114.699 0.223673 113.162 -3.17744L-69.086 79.1977C-70.729 75.5627 -73.0324 69.918 -74.8851 62.7564C-76.5991 56.1312 -79.0323 44.0627 -77.7271 28.9191C-76.352 12.9641 -70.3462 -9.99891 -51.6301 -30.3348C-32.6771 -50.9281 -9.6664 -59.0827 7.53894 -61.6066C23.6166 -63.965 36.6774 -61.891 44.0662 -60.2349C52.0198 -58.4522 58.3821 -56.0087 62.7535 -54.0787C71.3535 -50.2815 78.3093 -45.781 83.659 -41.6683C88.4264 -38.0034 96.6277 -31.0581 104.341 -20.2625C108.063 -15.0529 114.906 -4.49876 119.201 10.5581C123.583 25.9158 127.484 54.7537 111.262 85.1599C94.8203 115.978 68.1394 128.922 52.0795 133.813C36.725 138.489 23.8886 138.343 17.841 138.045C5.38582 137.431 -4.1181 134.585 -7.26834 133.619L51.3443 -57.5992ZM113.184 -3.12906C113.354 -2.75222 113.68 -2.02401 114.07 -1.10843C114.268 -0.645151 114.575 0.0841656 114.934 0.983576C115.232 1.72737 115.9 3.41978 116.652 5.60672C117.028 6.69998 117.659 8.59242 118.333 10.9803C118.679 12.2056 119.131 13.898 119.594 15.9305C120.032 17.8551 120.664 20.8829 121.175 24.6373C121.438 26.5644 121.718 29.0372 121.897 31.9241C122.073 34.7476 122.193 38.592 121.965 43.1432C121.853 45.0259 121.494 49.04 121.238 51.1689C120.886 53.6113 119.927 58.8252 119.301 61.5896C118.477 64.7747 116.348 71.5373 115.01 75.0955C113.287 79.1635 108.988 87.6224 106.366 91.9661C103.105 96.7605 95.3296 106.226 90.7834 110.81C85.5061 115.458 73.7807 123.742 67.3683 127.3C60.669 130.396 46.978 134.991 40.072 136.507C33.578 137.475 21.1576 138.133 15.2839 137.906C10.1177 137.418 0.574699 135.796 -3.79087 134.73C-7.53207 133.649 -14.3655 131.256 -17.4618 129.983C-20.1104 128.797 -24.9513 126.382 -27.1497 125.175C-29.0463 124.074 -32.5316 121.902 -34.125 120.841C-37.9612 118.234 -41.0037 115.774 -43.1785 113.901C-45.4028 111.984 -47.2283 110.241 -48.6209 108.848C-51.3336 106.136 -53.3838 103.771 -54.6605 102.243C-56.0098 100.627 -57.0912 99.2283 -57.8621 98.2024C-58.6537 97.1488 -59.3137 96.2269 -59.8224 95.5006C-60.8148 94.0837 -61.5894 92.8989 -62.0847 92.1268C-62.6068 91.3131 -63.0356 90.6186 -63.349 90.1037C-63.9603 89.099 -64.4373 88.275 -64.7234 87.775C-65.0317 87.2363 -65.2863 86.7798 -65.4705 86.4464C-65.8318 85.7923 -66.1215 85.251 -66.3072 84.9008C-66.6811 84.196 -67.0026 83.5705 -67.2595 83.0625C-67.4788 82.6291 -67.903 81.784 -68.407 80.7229C-68.5504 80.4211 -68.7465 80.0045 -68.9748 79.507C-69.1843 79.0504 -69.5386 78.2698 -69.9589 77.2927C-70.174 76.7927 -70.4698 76.0938 -70.8094 75.2536C-71.126 74.4704 -71.6373 73.1783 -72.2174 71.5623C-72.5151 70.7333 -72.9019 69.6216 -73.3259 68.299C-73.7319 67.0326 -74.3129 65.1357 -74.9157 62.8043C-75.2244 61.6104 -75.5874 60.1161 -75.9523 58.3839C-76.3106 56.6833 -76.7384 54.4341 -77.1149 51.7724C-77.4793 49.196 -77.9022 45.4919 -78.0477 41.014C-78.0911 39.1301 -78.0631 35.0399 -77.9786 32.8354C-77.8175 30.2524 -77.2312 24.6126 -76.7787 21.5633C-76.1165 17.9478 -74.1879 10.0698 -72.8647 5.83489C-71.0299 0.834309 -66.071 -9.7838 -62.8505 -15.3115C-58.6373 -21.5095 -48.1379 -33.6097 -41.7933 -39.3244C-34.4613 -44.8364 -18.328 -53.7841 -9.65339 -57.1239C-1.23653 -59.5191 15.1495 -62.0043 22.983 -62.2266C29.676 -61.9296 41.8874 -60.2146 47.3771 -58.9326C51.8623 -57.6382 59.9083 -54.7277 63.4768 -53.1795C66.3961 -51.7874 71.6529 -48.9772 73.9998 -47.5883C75.9518 -46.3657 79.5013 -43.9765 81.105 -42.8226C82.4645 -41.806 84.9623 -39.8415 86.1043 -38.8994C88.828 -36.6185 90.9913 -34.559 92.528 -33.026C94.1041 -31.4535 95.4048 -30.0507 96.3992 -28.9402C97.4083 -27.8131 98.2654 -26.8045 98.9541 -25.9719C100.301 -24.3441 101.365 -22.9523 102.087 -21.9828C102.837 -20.9769 103.456 -20.1061 103.921 -19.4397C104.827 -18.1407 105.532 -17.0645 105.965 -16.3925C106.821 -15.0632 107.466 -13.9917 107.775 -13.4747C108.135 -12.872 108.425 -12.3722 108.615 -12.0415C109.26 -10.9203 109.762 -9.99575 109.901 -9.73957L-65.8253 85.7598C-65.7874 85.8296 -65.3541 86.6304 -64.7528 87.6758C-64.5735 87.9875 -64.293 88.4713 -63.941 89.0609C-63.6402 89.5647 -63.0014 90.6258 -62.1499 91.9471C-61.7194 92.6151 -61.0171 93.6881 -60.1129 94.9844C-59.649 95.6494 -59.0305 96.519 -58.2816 97.5239C-57.5599 98.4923 -56.4967 99.8831 -55.1507 101.51C-54.4623 102.342 -53.6055 103.351 -52.5966 104.477C-51.6025 105.588 -50.3021 106.99 -48.7262 108.562C-47.1898 110.095 -45.0268 112.154 -42.3033 114.435C-41.1613 115.377 -38.6636 117.342 -37.3042 118.358C-35.7006 119.512 -32.1512 121.901 -30.1993 123.124C-27.8524 124.513 -22.5958 127.323 -19.6765 128.715C-16.1081 130.263 -8.0622 133.173 -3.57703 134.468C1.91264 135.75 14.1239 137.465 20.8168 137.762C28.6503 137.539 45.0363 135.054 53.4531 132.659C62.1277 129.319 78.2609 120.372 85.5929 114.86C91.9374 109.145 102.437 97.0448 106.65 90.8469C109.87 85.3192 114.829 74.7012 116.664 69.7007C117.987 65.4658 119.916 57.5878 120.578 53.9724C121.031 50.9232 121.617 45.2836 121.778 42.7006C121.862 40.4962 121.89 36.4061 121.847 34.5224C121.702 30.0447 121.279 26.3408 120.914 23.7647C120.538 21.1033 120.11 18.8545 119.752 17.1542C119.387 15.4223 119.024 13.9284 118.716 12.7349C118.113 10.4044 117.532 8.50844 117.127 7.24309C116.703 5.9216 116.316 4.81106 116.019 3.98335C115.44 2.36998 114.93 1.08092 114.615 0.301222C114.277 -0.535467 113.982 -1.23037 113.769 -1.72612C113.353 -2.69453 113.003 -3.46479 112.799 -3.90974C112.576 -4.39556 112.386 -4.79913 112.249 -5.08678C111.772 -6.09107 111.385 -6.86107 111.206 -7.21576C110.989 -7.64498 110.71 -8.18816 110.374 -8.82171C110.207 -9.13629 109.935 -9.64481 109.589 -10.2707C109.413 -10.59 109.165 -11.0336 108.864 -11.5607C108.584 -12.0492 108.113 -12.863 107.507 -13.8592C107.196 -14.3699 106.77 -15.0605 106.25 -15.8707C105.757 -16.6394 104.984 -17.8212 103.993 -19.2355C103.486 -19.9606 102.826 -20.8813 102.036 -21.9339C101.266 -22.9588 100.185 -24.3567 98.8362 -25.9713C97.5602 -27.4989 95.5105 -29.863 92.7984 -32.5751C91.4061 -33.9674 89.5809 -35.7107 87.3567 -37.6267C85.1822 -39.5 82.1399 -41.9593 78.3039 -44.5667C76.7107 -45.6275 73.2254 -47.7994 71.3289 -48.9C69.1307 -50.1075 64.2898 -52.5222 61.6413 -53.7085C58.5451 -54.9809 51.7118 -57.3746 47.9706 -58.4555C43.6052 -59.5206 34.0623 -61.1433 28.8961 -61.6307C23.0225 -61.8582 10.6021 -61.2005 4.10822 -60.2325C-2.79774 -58.716 -16.4887 -54.1213 -23.1879 -51.0247C-29.6003 -47.4669 -41.3256 -39.1829 -46.6029 -34.5349C-51.149 -29.9509 -58.924 -20.4858 -62.1858 -15.6915C-64.8074 -11.3479 -69.1064 -2.88902 -70.8294 1.1789C-72.1668 4.73698 -74.2965 11.4995 -75.1206 14.6845C-75.7461 17.4488 -76.705 22.6626 -77.0567 25.1049C-77.3134 27.2337 -77.6719 31.2476 -77.7841 33.1302C-78.0123 37.6811 -77.8921 41.5252 -77.7164 44.3484C-77.5367 47.235 -77.2568 49.7074 -76.9944 51.6341C-76.483 55.3877 -75.8517 58.4146 -75.4137 60.338C-74.9511 62.3694 -74.4989 64.0605 -74.1536 65.2845C-73.4807 67.6695 -72.8509 69.5585 -72.4763 70.6477C-71.727 72.8265 -71.0624 74.5083 -70.7703 75.2387C-70.4161 76.1246 -70.116 76.8378 -69.9268 77.2818C-69.5531 78.159 -69.2489 78.8368 -69.1079 79.1493L113.184 -3.12906ZM109.587 -11.1229C110.546 -9.35699 106.629 -17.217 99.3044 -25.1807C91.1802 -34.0141 81.8944 -40.1112 73.2409 -43.7653L-4.56057 140.482C-21.3188 133.405 -35.9658 123.187 -47.9028 110.208C-59.0399 98.0985 -65.2213 86.0684 -66.1737 84.3144L109.587 -11.1229ZM73.2574 -43.7583C64.7482 -47.3532 57.5702 -48.9786 53.8623 -49.7157C49.6988 -50.5434 46.2526 -50.9503 44.0272 -51.1657C39.668 -51.5874 36.2177 -51.6253 34.5748 -51.6267C31.1486 -51.6295 28.5187 -51.4462 27.7134 -51.389C26.5762 -51.3083 25.7153 -51.2254 25.3237 -51.1865C24.8803 -51.1424 24.5674 -51.1072 24.45 -51.0939C24.2494 -51.0711 24.2298 -51.0673 24.6171 -51.1157C24.7864 -51.1369 24.9695 -51.1601 25.2271 -51.1926C25.4646 -51.2226 25.7669 -51.2608 26.0797 -51.2999C26.9192 -51.4049 29.5586 -51.7392 32.3115 -51.9852C33.3679 -52.0796 36.8536 -52.3912 41.1423 -52.4341C42.8945 -52.4516 48.2033 -52.4877 54.8848 -51.6486C58.0595 -51.2499 64.9294 -50.2588 73.2722 -47.5615C77.5765 -46.17 84.0589 -43.7591 91.3935 -39.6523C98.4843 -35.682 109.379 -28.4573 119.522 -16.2305L-34.4094 111.461C-24.2753 123.678 -13.3922 130.893 -6.31672 134.855C1.00244 138.953 7.46593 141.356 11.7481 142.74C20.0465 145.423 26.8586 146.403 29.9631 146.793C36.5042 147.614 41.6226 147.571 43.1417 147.556C46.964 147.518 49.812 147.248 50.1158 147.221C51.3636 147.109 52.0384 147.012 50.9059 147.153C50.6862 147.181 48.5595 147.453 47.0493 147.625C46.3549 147.704 44.3105 147.936 41.8735 148.109C40.8239 148.184 37.9916 148.376 34.4119 148.373C32.6923 148.372 29.1775 148.332 24.7669 147.905C22.5158 147.687 19.0473 147.277 14.8647 146.445C11.1379 145.705 3.94418 144.075 -4.57712 140.475L73.2574 -43.7583ZM119.522 -16.2305C118.426 -17.5518 116.648 -19.627 114.305 -22.0378C112.347 -24.0521 107.886 -28.5027 101.419 -33.2022C98.119 -35.6008 92.6574 -39.271 85.351 -42.7222C78.5856 -45.9179 65.7374 -51.0924 48.6479 -52.1196C29.8525 -53.2492 5.50285 -49.1807 -16.7577 -32.7391C-37.9602 -17.0789 -47.8349 2.86302 -52.2677 16.2411C-56.5852 29.2713 -57.2639 40.3394 -57.3352 46.5346C-57.4124 53.2351 -56.798 58.7102 -56.2687 62.2928C-55.2309 69.3162 -53.653 74.7511 -52.7582 77.6014C-50.8814 83.5795 -48.7809 88.2883 -47.2812 91.3677C-45.7815 94.4471 -43.3694 99.0041 -39.82 104.168C-38.1277 106.629 -34.8216 111.223 -29.932 116.37C-27.4378 118.996 -23.5061 122.855 -18.1832 126.926C-13.2617 130.69 -4.12941 136.98 8.79132 141.614C22.057 146.373 43.8458 150.894 69.2479 143.857C95.9175 136.469 114.134 119.807 124.833 104.313C134.562 90.2252 138.409 76.9193 140.065 69.6225C141.853 61.7423 142.331 55.1795 142.477 51.1022C142.764 43.1136 142.011 36.8574 141.632 34.0738C141.179 30.7424 140.641 28.0634 140.277 26.3858L-55.1643 68.8448C-55.5399 67.1157 -56.0854 64.3943 -56.5432 61.0283C-56.9265 58.2102 -57.6817 51.9273 -57.3939 43.9188C-57.247 39.8316 -56.7681 33.2605 -54.9788 25.3736C-53.3219 18.0701 -49.4719 4.75914 -39.7411 -9.33237C-29.0392 -24.8302 -10.8198 -41.4943 15.8533 -48.8835C41.2589 -55.9216 63.0515 -51.4 76.3214 -46.6398C89.2463 -42.0034 98.3831 -35.7108 103.31 -31.9435C108.637 -27.8692 112.574 -24.005 115.074 -21.3736C119.974 -16.215 123.291 -11.6069 124.996 -9.12767C128.569 -3.92959 131.006 0.671989 132.528 3.79735C134.05 6.92271 136.17 11.6788 138.06 17.6969C138.961 20.5673 140.543 26.0205 141.583 33.0591C142.114 36.6494 142.729 42.1314 142.651 48.838C142.58 55.0394 141.901 66.1126 137.582 79.1471C133.148 92.5294 123.271 112.475 102.065 128.137C79.802 144.581 55.4487 148.65 36.6488 147.52C19.5549 146.493 6.70139 141.317 -0.0702667 138.118C-7.3828 134.664 -12.8515 130.989 -16.1599 128.585C-22.6424 123.874 -27.1233 119.405 -29.1057 117.366C-31.4735 114.93 -33.2798 112.823 -34.4094 111.461L119.522 -16.2305ZM140.277 26.3858C139.912 24.7082 139.29 22.0475 138.32 18.8284C137.51 16.1387 135.599 10.1338 132.024 2.98437C130.199 -0.664581 127.041 -6.43758 122.145 -12.8657C117.611 -18.818 108.589 -29.3279 93.8925 -38.1095C77.7288 -47.7678 54.2412 -55.3696 26.91 -51.0263C0.877869 -46.8895 -17.071 -33.7353 -27.1665 -23.9016C-36.9995 -14.3235 -42.6989 -4.81144 -45.6152 0.654968C-48.7694 6.56716 -50.7453 11.71 -51.9253 15.134C-54.2384 21.8461 -55.3406 27.3972 -55.8589 30.3393C-56.946 36.5101 -57.2499 41.6571 -57.3368 45.0812C-57.4237 48.5053 -57.3811 53.6611 -56.6083 59.8791C-56.2398 62.8437 -55.4205 68.4435 -53.4507 75.2643C-52.4458 78.7437 -50.7332 83.9801 -47.8828 90.0446C-45.2474 95.6519 -40.0377 105.441 -30.7029 115.505C-21.119 125.838 -3.8602 139.885 21.9287 145.337C49.0045 151.06 72.8474 144.659 89.4799 135.833C104.603 127.808 114.146 117.769 118.976 112.054C124.191 105.882 127.638 100.277 129.646 96.7251C133.579 89.7662 135.792 83.8658 136.737 81.2206C137.869 78.0548 138.626 75.4292 139.075 73.7722L-53.9622 21.4584C-53.4994 19.7506 -52.7303 17.0837 -51.5866 13.8851C-50.6291 11.207 -48.4061 5.28221 -44.4626 -1.694C-42.45 -5.25439 -38.9989 -10.8667 -33.7786 -17.0435C-28.9445 -22.7635 -19.3972 -32.8061 -4.27036 -40.8333C12.3661 -49.6617 36.2127 -56.0635 63.292 -50.3393C89.0844 -44.8871 106.346 -30.8377 115.933 -20.5015C125.271 -10.4339 130.484 -0.640627 133.122 4.97212C135.975 11.0421 137.69 16.2851 138.697 19.7719C140.671 26.6076 141.494 32.2259 141.865 35.2114C142.643 41.471 142.687 46.678 142.599 50.1531C142.511 53.6283 142.202 58.8264 141.108 65.0385C140.586 68.0013 139.479 73.5706 137.161 80.2974C135.979 83.7287 134 88.878 130.843 94.7955C127.924 100.267 122.222 109.784 112.385 119.365C102.287 129.202 84.3344 142.358 58.2987 146.495C30.964 150.839 7.47272 143.236 -8.69474 133.576C-23.3951 124.792 -32.421 114.278 -36.9588 108.321C-41.8592 101.887 -45.0213 96.1069 -46.8508 92.449C-50.4355 85.2818 -52.3552 79.2519 -53.1758 76.5288C-54.1558 73.2762 -54.7887 70.5738 -55.1643 68.8448L140.277 26.3858ZM139.075 73.7722C139.524 72.1152 140.197 69.4669 140.818 66.1628C141.337 63.402 142.407 57.192 142.525 49.1991C142.586 45.1197 142.441 38.541 141.055 30.5803C139.772 23.209 136.604 9.72513 127.602 -4.83783C117.702 -20.8545 100.354 -38.4186 74.0933 -47.1496C49.0807 -55.4656 27.0907 -52.0549 13.6008 -47.975C0.461693 -44.0012 -8.97779 -38.1824 -14.0838 -34.6731C-19.6062 -30.8777 -23.7285 -27.2225 -26.3527 -24.7266C-31.497 -19.8338 -35.0317 -15.4139 -36.8466 -13.041C-40.6533 -8.06415 -43.2934 -3.63531 -44.9473 -0.635902C-46.6012 2.36351 -48.9377 6.95971 -51.1152 12.835C-52.1534 15.6362 -54.0048 20.9842 -55.3973 27.9459C-56.1077 31.4971 -56.9989 36.9339 -57.2616 43.6297C-57.5044 49.8206 -57.3878 60.9089 -53.7365 74.1412C-49.9877 87.7269 -41.1368 108.144 -20.7556 124.859C0.642647 142.408 24.7547 147.706 43.5832 147.531C60.7028 147.371 73.7968 142.855 80.7156 140.006C88.1875 136.93 93.8282 133.541 97.246 131.313C103.942 126.948 108.623 122.729 110.681 120.817C113.144 118.528 115.024 116.545 116.186 115.281L-31.0733 -20.0508C-29.876 -21.3536 -27.9652 -23.3666 -25.477 -25.6793C-23.3937 -27.6155 -18.692 -31.851 -11.979 -36.2274C-8.55289 -38.461 -2.90492 -41.8535 4.57333 -44.9324C11.4985 -47.7836 24.5979 -52.3013 41.7219 -52.4606C60.5549 -52.6359 84.6705 -47.3369 106.072 -29.7855C126.455 -13.0682 135.308 7.35219 139.058 20.9421C142.711 34.1788 142.828 45.2723 142.585 51.4693C142.322 58.1712 141.43 63.6149 140.718 67.1737C139.322 74.1506 137.465 79.5165 136.42 82.3374C134.228 88.2521 131.869 92.8945 130.191 95.9387C128.512 98.9829 125.845 103.455 122.013 108.465C120.185 110.855 116.638 115.289 111.482 120.192C108.853 122.694 104.725 126.353 99.1975 130.152C94.0864 133.665 84.6423 139.486 71.4989 143.461C58.0048 147.542 36.0109 150.953 10.9949 142.636C-15.2693 133.904 -32.6203 116.337 -42.5227 100.317C-51.5264 85.7502 -54.6966 72.2611 -55.9811 64.883C-57.3681 56.9156 -57.5132 50.3286 -57.4527 46.2392C-57.3341 38.2265 -56.2613 31.9899 -55.7356 29.1949C-55.1077 25.8564 -54.425 23.1661 -53.9622 21.4584L139.075 73.7722ZM-46.507 2.14289C-46.1654 1.47374 -45.7413 0.653696 -45.2731 -0.221981C-45.0985 -0.548471 -44.6209 -1.43984 -44.0011 -2.53329C-43.9011 -2.70967 -42.8469 -4.5876 -41.4018 -6.86334C-40.9732 -7.53821 -40.1697 -8.78728 -39.1068 -10.3172C-38.5096 -11.1768 -35.8194 -15.0755 -31.8151 -19.5932C-30.2817 -21.3233 -24.8905 -27.3919 -16.5882 -33.5556C-12.5881 -36.5253 -3.6312 -42.7768 9.31036 -47.4107C21.7792 -51.8754 49.2472 -58.722 80.7857 -45.8593C114.567 -32.0817 130.415 -5.15392 136.748 11.8749C142.577 27.5453 143.009 40.8404 143.021 46.517C143.047 58.4331 140.857 67.5563 140.324 69.8053C138.816 76.1663 136.985 80.9697 136.629 81.9161C135.944 83.7399 135.345 85.1701 135.024 85.9239C134.365 87.4707 133.808 88.6679 133.574 89.1682C133.048 90.2919 132.611 91.1681 132.436 91.5195C132.017 92.3574 131.66 93.0418 131.455 93.4333C130.996 94.3077 130.544 95.143 130.125 95.9024L-45.0129 -0.671886C-45.1311 -0.457392 -45.3531 -0.051096 -45.6556 0.525461C-45.7828 0.767927 -46.0796 1.33621 -46.4577 2.09268C-46.613 2.40335 -47.0337 3.24742 -47.5491 4.34798C-47.778 4.83672 -48.3307 6.02458 -48.9864 7.56425C-49.3059 8.31458 -49.9039 9.74173 -50.5883 11.5632C-50.9431 12.5072 -52.7737 17.3087 -54.2814 23.6684C-54.8145 25.9168 -57.0043 35.0395 -56.9782 46.9552C-56.9658 52.6317 -56.5337 65.9266 -50.7053 81.5969C-44.3716 98.6256 -28.5245 125.553 5.25719 139.331C36.7955 152.194 64.2635 145.347 76.7322 140.882C89.6736 136.248 98.6305 129.997 102.63 127.028C110.932 120.864 116.323 114.796 117.856 113.066C121.859 108.549 124.549 104.652 125.144 103.795C126.206 102.267 127.007 101.021 127.434 100.349C128.87 98.0872 129.911 96.2321 129.993 96.0882C130.576 95.0597 130.997 94.2718 131.094 94.0891C131.409 93.5012 131.598 93.1305 131.619 93.0877L-46.507 2.14289ZM21.4868 -50.1399C23.7586 -50.6296 28.2235 -51.52 33.9166 -52.0218C36.8293 -52.2785 41.2251 -52.541 46.5679 -52.3365C51.474 -52.1487 60.2647 -51.4713 70.78 -48.4037C80.7119 -45.5063 99.2841 -38.4172 115.878 -20.649C124.542 -11.371 131.894 0.0536385 136.741 13.3419C141.552 26.5316 143.102 39.3672 142.749 50.7272C142.081 72.2129 134.706 88.0038 130.465 95.7347C125.852 104.142 120.97 110.156 118.006 113.54C112.14 120.239 106.671 124.645 104.315 126.488C101.404 128.764 98.8752 130.482 97.1377 131.611C93.6876 133.854 90.4933 135.632 87.7681 137.018C85.548 138.147 80.7544 140.499 74.3828 142.661C72.558 143.281 69.9943 144.093 66.8834 144.885C64.0063 145.617 59.1148 146.733 52.9401 147.401C49.7625 147.744 45.4826 148.055 40.4204 147.966C35.4962 147.879 28.4439 147.396 20.1781 145.533C4.74145 142.053 -27.3119 130.425 -46.1914 94.8197C-64.3333 60.6056 -56.9421 29.0544 -52.7303 16.3938C-48.2232 2.84542 -41.848 -6.50158 -39.0813 -10.3576C-35.7279 -15.0315 -32.6264 -18.4961 -30.7335 -20.5137C-28.6945 -22.6869 -26.8975 -24.4075 -25.6066 -25.5996C-21.1955 -29.6726 -17.3371 -32.4757 -16.2578 -33.2606L101.37 128.491C102.135 127.935 105.786 125.298 110.073 121.34C111.333 120.176 113.103 118.481 115.121 116.331C116.993 114.336 120.078 110.891 123.419 106.234C126.174 102.395 132.541 93.062 137.044 79.5254C141.252 66.8764 148.643 35.3343 130.505 1.12703C111.629 -34.4714 79.583 -46.095 64.1566 -49.5723C55.896 -51.4343 48.8496 -51.9172 43.9321 -52.0035C38.8765 -52.0923 34.604 -51.7825 31.4345 -51.4397C25.2759 -50.7736 20.4033 -49.6616 17.5473 -48.9346C14.4575 -48.1481 11.9174 -47.343 10.118 -46.7324C3.84812 -44.6049 -0.812981 -42.3111 -2.89555 -41.252C-5.48325 -39.9359 -8.53508 -38.2389 -11.8634 -36.0754C-13.54 -34.9856 -16.0135 -33.3066 -18.8771 -31.0676C-21.1861 -29.2622 -26.6161 -24.8902 -32.4551 -18.2226C-35.4047 -14.8544 -40.2769 -8.85477 -44.8818 -0.460983C-49.1156 7.25652 -56.4864 23.0351 -57.1543 44.5099C-57.5074 55.8644 -55.9582 68.6949 -51.1487 81.8799C-46.3031 95.1633 -38.9542 106.584 -30.2934 115.858C-13.7074 133.618 4.85316 140.7 14.769 143.593C25.2681 146.656 34.0381 147.33 38.9186 147.517C44.2358 147.721 48.6012 147.459 51.4781 147.206C57.0995 146.71 61.4714 145.835 63.6257 145.37L21.4868 -50.1399ZM-16.2508 -33.2657C-9.98286 -37.823 -4.42471 -40.666 -4.11556 -40.8295C-2.44716 -41.7117 -1.09123 -42.3681 -0.422874 -42.6881C0.988983 -43.364 2.16511 -43.8878 2.71423 -44.1308C3.95169 -44.6783 5.12281 -45.173 5.91807 -45.506C7.63814 -46.2261 9.58398 -47.0179 11.3719 -47.7327C13.118 -48.4309 15.2279 -49.2613 17.2016 -50.0054C18.0831 -50.3376 19.6337 -50.9165 21.3791 -51.5159C22.1379 -51.7765 23.9456 -52.3916 26.2127 -53.0549C27.2824 -53.3679 29.5261 -54.0088 32.3914 -54.6563C32.9524 -54.7831 42.4344 -57.1306 54.5333 -57.1284L54.4967 142.872C61.787 142.873 67.4579 142.058 69.8272 141.69C72.7365 141.238 75.0644 140.744 76.4748 140.425C79.2661 139.794 81.4167 139.178 82.3756 138.897C84.421 138.299 85.936 137.779 86.3413 137.64C87.3796 137.283 87.9798 137.052 87.7492 137.139C87.4988 137.233 86.7378 137.528 85.6198 137.975C84.5435 138.405 83.6318 138.779 83.1542 138.979C82.8506 139.106 83.0879 139.01 83.6382 138.766C83.8437 138.675 84.7379 138.28 85.9397 137.705C86.5031 137.435 87.7719 136.822 89.3725 135.975C90.1805 135.548 91.5073 134.833 93.1184 133.889C94.4105 133.133 97.5697 131.254 101.363 128.496L-16.2508 -33.2657ZM54.515 -57.1284C32.8422 -57.1284 15.0051 -50.186 2.32088 -42.4202C-9.71588 -35.0508 -17.7159 -26.6501 -22.3707 -21.0457C-27.197 -15.2347 -30.4773 -9.93793 -32.516 -6.32479C-34.633 -2.57288 -36.1608 0.705193 -37.1985 3.10646C-39.2107 7.76278 -40.4455 11.6118 -41.08 13.7091C-41.7778 16.0156 -42.2584 17.9128 -42.5492 19.121C-43.1083 21.4437 -43.4455 23.2383 -43.5425 23.7565C-43.6559 24.362 -43.7454 24.8838 -43.6918 24.5767C-43.6877 24.5528 -43.5427 23.712 -43.3635 22.7646C-43.2076 21.9407 -42.7842 19.7296 -42.1044 16.9824C-41.7531 15.5628 -41.1737 13.3463 -40.3288 10.6782C-39.5743 8.29546 -38.0412 3.72888 -35.4724 -1.74149C-34.1475 -4.56277 -32.1265 -8.53034 -29.2542 -13.035C-26.5068 -17.344 -21.8841 -23.8833 -14.9089 -30.719C-8.03848 -37.452 3.62029 -46.9279 20.5994 -53.1699C29.2948 -56.3666 39.113 -58.6016 49.7824 -59.1713C60.4949 -59.7434 70.9567 -58.5755 80.8025 -55.9596L29.4475 137.335C39.2863 139.949 49.7413 141.116 60.4468 140.544C71.1093 139.975 80.9207 137.741 89.6093 134.547C106.575 128.31 118.22 118.843 125.077 112.124C132.039 105.301 136.648 98.7789 139.382 94.4907C142.241 90.0068 144.249 86.0637 145.561 83.2703C148.103 77.8556 149.611 73.3582 150.34 71.056C151.159 68.4685 151.713 66.3439 152.04 65.0253C152.669 62.4801 153.044 60.5074 153.151 59.9406C153.282 59.2503 153.378 58.6853 153.334 58.9381C153.33 58.9635 153.291 59.1848 153.25 59.4195C153.205 59.6693 153.132 60.0788 153.04 60.5734C152.894 61.3524 152.507 63.391 151.898 65.923C151.582 67.2359 151.076 69.2292 150.352 71.6208C149.692 73.8033 148.431 77.7266 146.392 82.4442C145.341 84.876 143.8 88.1814 141.67 91.9572C139.618 95.5941 136.324 100.911 131.484 106.739C126.815 112.359 118.802 120.773 106.751 128.15C94.0529 135.925 76.2019 142.872 54.515 142.872V-57.1284ZM80.7997 -55.9604C84.6649 -54.9336 91.367 -52.9306 99.1456 -49.1693C103.174 -47.2215 108.405 -44.3653 114.09 -40.2832C119.732 -36.2325 126.863 -30.229 133.725 -21.7171C140.745 -13.008 147.636 -1.45534 151.868 12.9564C156.178 27.632 156.921 42.5544 154.74 56.5867C152.625 70.1976 148.043 81.2811 143.52 89.5074C139.043 97.6498 134.166 103.842 130.286 108.171C122.861 116.455 115.668 121.688 111.943 124.229C107.777 127.072 104.184 129.066 101.967 130.237C97.7193 132.481 94.1351 133.98 93.3821 134.299C92.9411 134.485 92.244 134.774 92.5212 134.659C92.5449 134.649 92.7311 134.572 92.9884 134.462C93.2434 134.354 93.7011 134.158 94.2797 133.901C95.0409 133.563 97.8555 132.314 101.356 130.403C103.15 129.424 106.253 127.662 109.922 125.144C113.011 123.024 120.007 118.016 127.331 109.947C131.158 105.73 136.473 99.1585 141.307 90.1843C146.18 81.1371 151.529 67.8311 152.919 51.0271C154.382 33.3403 151.126 15.3121 143.121 -1.07969C135.479 -16.7282 125.187 -27.5204 116.769 -34.4386C108.473 -41.2562 100.622 -45.465 95.1725 -47.9773C89.568 -50.5612 84.6684 -52.1878 81.1453 -53.2075C74.3316 -55.1796 68.7516 -55.9954 65.8434 -56.3583C59.9768 -57.0906 55.4072 -57.1085 53.9538 -57.1099C51.9516 -57.1118 50.4315 -57.0474 49.7438 -57.0145L59.2862 142.758C58.0682 142.816 56.1147 142.892 53.7641 142.89C51.9623 142.888 47.1294 142.858 41.073 142.102C38.07 141.727 32.4134 140.897 25.5401 138.907C21.9872 137.879 17.062 136.243 11.436 133.649C5.96523 131.127 -1.90338 126.908 -10.213 120.079C-18.645 113.149 -28.9461 102.346 -36.5942 86.6845C-44.6052 70.2803 -47.8643 52.2391 -46.4 34.5387C-45.0088 17.7212 -39.655 4.40088 -34.7739 -4.66099C-29.932 -13.65 -24.6062 -20.2369 -20.7645 -24.4694C-13.4114 -32.5709 -6.37442 -37.6126 -3.23318 -39.768C0.489113 -42.3221 3.65535 -44.1223 5.52257 -45.1416C9.16942 -47.1325 12.1691 -48.4693 13.1424 -48.9013C14.384 -49.4524 15.4212 -49.8827 15.6063 -49.9599C16.1379 -50.1813 15.7106 -50.0032 15.5429 -49.9324C15.3369 -49.8453 12.3145 -48.5938 8.54997 -46.6052C6.57526 -45.5621 3.20506 -43.6972 -0.770706 -40.9848C-4.30416 -38.5741 -11.337 -33.4723 -18.6444 -25.3197C-22.4662 -21.056 -27.2957 -14.9288 -31.7367 -6.85146C-36.2239 1.30977 -40.7824 12.3285 -42.8876 25.875C-45.0582 39.8429 -44.3188 54.7013 -40.0275 69.3133C-35.8136 83.6616 -28.9566 95.1512 -21.9866 103.798C-15.1755 112.248 -8.11115 118.19 -2.55401 122.179C3.04697 126.201 8.1753 128.997 12.0814 130.886C19.6159 134.529 25.9962 136.418 29.4503 137.335L80.7997 -55.9604ZM49.7261 -57.0137C51.0233 -57.0759 53.0815 -57.1565 55.532 -57.1522C56.5749 -57.1504 63.2273 -57.1981 71.417 -55.9038C73.8743 -55.5154 77.8167 -54.8026 82.5626 -53.4877C86.612 -52.3658 95.373 -49.706 105.404 -43.9903C110.641 -41.0064 118.029 -36.1766 125.631 -28.7821C133.325 -21.2988 142.551 -9.88917 148.87 6.04169C155.491 22.7347 157.49 40.8864 154.68 58.5918C152 75.4836 145.512 88.6042 139.669 97.5619C128.969 113.966 116.2 122.919 111.452 126.092C105.407 130.132 100.163 132.673 97.2412 134.001C91.3561 136.677 86.4906 138.187 84.462 138.796C77.0252 141.027 70.7333 141.929 69.5273 142.11C66.7854 142.521 63.9945 142.84 61.2321 143.064C58.5944 143.277 54.7822 143.502 50.2943 143.447C47.3654 143.41 37.342 143.273 25.2456 140.152C19.652 138.709 5.89291 134.761 -8.65762 124.268C-16.5025 118.61 -26.4427 109.71 -34.8121 96.4664C-43.5893 82.5771 -49.3019 65.9452 -50.1975 47.8568C-51.9194 13.0797 -35.6086 -10.6546 -28.4692 -19.639C-20.4369 -29.7472 -12.2459 -36.0299 -8.34386 -38.8558L108.969 123.125C112.416 120.628 120.286 114.637 128.114 104.787C135.048 96.0604 151.27 72.55 149.558 37.9663C148.667 19.9746 142.984 3.43176 134.258 -10.3756C125.941 -23.5377 116.075 -32.363 108.324 -37.9522C93.9621 -48.309 80.4724 -52.1484 75.211 -53.5059C68.685 -55.1896 63.3646 -55.8348 60.4169 -56.1192C57.1837 -56.4312 54.5391 -56.5162 52.77 -56.5381C49.3089 -56.581 46.6336 -56.4086 45.1014 -56.2846C43.4447 -56.1506 41.7279 -55.9574 39.8872 -55.6816C38.9599 -55.5426 37.6122 -55.3246 35.9608 -54.9989C34.7701 -54.7641 31.3447 -54.0751 26.9955 -52.7704C25.0703 -52.1928 20.2885 -50.7124 14.4652 -48.0649C11.5744 -46.7506 6.35603 -44.2232 0.330338 -40.1965C-2.7794 -38.1185 -6.96782 -35.0693 -11.5209 -30.9124C-15.9538 -26.8652 -22.0727 -20.5535 -27.8449 -11.7043C-33.6839 -2.7526 -40.1691 10.362 -42.8486 27.2481C-45.6572 44.9476 -43.6591 63.0936 -37.0402 79.7811C-30.7235 95.7064 -21.5018 107.111 -13.8132 114.589C-6.21583 121.978 1.16449 126.803 6.39283 129.782C16.407 135.488 25.1441 138.138 29.1629 139.252C33.8781 140.558 37.7829 141.263 40.1955 141.644C48.2065 142.91 54.5662 142.846 55.1845 142.847C57.2105 142.851 58.7125 142.785 59.3039 142.757L49.7261 -57.0137ZM-8.34122 -38.8577C-8.98692 -38.3901 -10.9622 -36.9517 -13.4397 -34.8708C-14.7089 -33.8048 -16.8011 -31.9935 -19.2497 -29.5734C-21.3728 -27.4749 -25.7811 -22.9539 -30.4085 -16.4316C-33.7227 -11.7603 -44.8112 4.27226 -47.9656 28.3722C-49.7518 42.019 -49.1214 59.4976 -41.8754 77.9214C-34.5242 96.6125 -22.5908 110.596 -10.3052 120.172C1.30035 129.217 12.5883 133.907 20.2685 136.399C28.0967 138.94 34.8057 140.043 39.3245 140.579C48.0212 141.61 54.9095 141.242 57.9507 141.029C64.2266 140.59 69.0327 139.618 69.7441 139.479C70.5566 139.32 71.1826 139.187 71.4893 139.12C71.6593 139.083 71.7925 139.054 71.8731 139.036C71.9532 139.018 72.0064 139.006 72.0122 139.005C72.4174 138.914 69.8209 139.518 67.1108 140.025C64.3601 140.54 58.9876 141.458 52.2608 141.799C46.2688 142.103 33.815 142.287 18.9202 138.127C3.10278 133.709 -20.9069 122.652 -38.1965 96.8575C-55.4213 71.1598 -56.5946 44.8226 -54.731 28.4812L143.981 51.1438C145.707 36.0054 144.729 10.5559 127.936 -14.4983C111.077 -39.6493 87.7352 -50.307 72.7257 -54.4995C58.6388 -58.4344 47.1333 -58.1977 42.1339 -57.9442C36.3999 -57.6535 32.0644 -56.8885 30.2993 -56.5579C28.5748 -56.235 26.9123 -55.8474 28.1042 -56.1156C28.2741 -56.1539 29.7156 -56.4822 31.4297 -56.8168C32.4487 -57.0157 37.5135 -58.0294 43.9874 -58.4825C47.1275 -58.7023 54.0996 -59.0697 62.8633 -58.031C67.4156 -57.4915 74.1539 -56.3819 82.007 -53.8332C89.7122 -51.3326 101.021 -46.6326 112.642 -37.5747C124.944 -27.9868 136.889 -13.9884 144.247 4.71986C151.5 23.1609 152.132 40.6591 150.343 54.3281C147.183 78.4724 136.069 94.5595 132.708 99.2966C128.034 105.885 123.558 110.483 121.344 112.671C118.805 115.181 116.599 117.094 115.192 118.275C112.44 120.587 110.093 122.311 108.966 123.127L-8.34122 -38.8577ZM-54.7298 28.4714C-53.5858 18.4494 -50.8213 7.25431 -45.3968 -4.12379C-39.897 -15.6599 -32.7041 -25.1975 -25.0046 -32.8099C-17.6101 -40.1207 -10.581 -44.8275 -6.24319 -47.4741C-2.7653 -49.5961 1.33113 -51.7099 -0.539932 -50.7151C-0.836784 -50.5573 -2.33357 -49.7641 -4.22417 -48.6464C-6.15959 -47.5021 -9.23676 -45.5944 -12.8193 -42.9265C-20.0596 -37.5347 -31.0566 -27.7913 -39.8206 -12.2593C-48.987 3.98576 -52.5252 20.8921 -52.5861 35.8954C-52.6422 49.6916 -49.7827 60.5101 -47.7025 66.8067L142.202 4.06827C144.511 11.0564 147.47 22.4402 147.412 36.7075C147.349 52.182 143.708 69.4651 134.364 86.0249C125.422 101.872 114.174 111.867 106.635 117.482C99.8256 122.552 93.6745 125.704 93.347 125.878C91.1112 127.067 94.8236 125.149 97.9253 123.256C101.887 120.839 108.548 116.396 115.609 109.414C122.976 102.131 129.871 92.9882 135.136 81.945C140.326 71.0596 142.918 60.4552 143.98 51.1536L-54.7298 28.4714ZM-47.7055 66.7976C-50.5073 58.3141 -55.7938 38.9627 -51.07 14.7318C-45.473 -13.9785 -28.2327 -37.4448 -5.66438 -51.807C13.3426 -63.9027 31.6082 -66.7953 40.8827 -67.7063C51.1442 -68.7141 60.0041 -68.1475 66.031 -67.513L45.094 131.388C46.9647 131.585 52.6191 132.103 60.4326 131.336C67.259 130.665 83.8336 128.302 101.713 116.924C123.154 103.279 139.831 80.7181 145.235 53.001C149.765 29.7633 144.655 11.4928 142.205 4.07739L-47.7055 66.7976ZM78.0484 -65.5016C108.426 -58.4913 139.27 -37.2263 153.56 -1.14072C159.95 14.9945 165.67 42.0011 154.563 72.1707C141.05 108.875 106.267 136.878 63.1061 138.435L55.8939 -61.435C13.9605 -59.9218 -19.9894 -32.5978 -33.1219 3.07288C-43.8486 32.2088 -38.1998 57.8264 -32.3905 72.4962C-19.2612 105.651 8.38615 123.679 33.0765 129.377L78.0484 -65.5016ZM63.1518 138.433C56.867 138.663 45.5717 138.543 32.1569 134.858C17.7611 130.904 -1.29918 122.143 -17.245 103.8C-33.1882 85.4608 -38.6253 66.0168 -40.5826 54.1533C-41.5072 48.549 -41.7454 44.0876 -41.8287 42.2554C-41.8696 41.3567 -41.8919 40.5648 -41.8876 40.7064C-41.8876 40.7069 -41.8871 40.7205 -41.8866 40.7386C-41.886 40.7575 -41.885 40.7874 -41.8839 40.8243C-41.8815 40.8963 -41.8777 41.0147 -41.8724 41.1616C-41.8623 41.4447 -41.8437 41.934 -41.8132 42.5443C-41.7392 44.0291 -41.4183 51.3253 -39.2862 60.3718C-37.09 69.6911 -31.6201 86.9475 -16.9066 103.585C-9.41726 112.053 -0.477097 119.263 9.58498 124.825C19.5011 130.307 29.234 133.49 37.8407 135.253C54.1481 138.593 67.4362 137.054 74.1829 135.93C81.454 134.718 87.0547 132.942 90.0623 131.906C93.327 130.781 95.8749 129.707 97.3845 129.043C100.281 127.77 102.317 126.69 102.712 126.482L9.28844 -50.3571C10.643 -51.0727 13.4155 -52.5154 16.8754 -54.0369C18.6669 -54.8247 21.4538 -55.994 24.9211 -57.1884C28.1314 -58.2943 33.8984 -60.115 41.3061 -61.3495C48.1894 -62.4966 61.5843 -64.0366 77.9755 -60.679C86.6242 -58.9074 96.3931 -55.7114 106.34 -50.2128C116.434 -44.6336 125.4 -37.4023 132.911 -28.9088C147.669 -12.2214 153.167 5.09952 155.381 14.4945C157.531 23.6167 157.86 30.9995 157.938 32.5785C157.97 33.2124 157.99 33.7257 158 34.0332C158.006 34.1924 158.01 34.3231 158.013 34.4075C158.016 34.4879 158.018 34.5537 158.018 34.5629C158.024 34.7549 158.003 34.0148 157.965 33.169C157.886 31.4424 157.656 27.0905 156.75 21.5962C154.829 9.95267 149.468 -9.26993 133.694 -27.4151C117.917 -45.5634 99.1183 -54.1568 85.1302 -57.999C72.123 -61.5718 61.3809 -61.6355 55.8482 -61.4333L63.1518 138.433ZM102.716 126.48C103.6 126.013 107.345 124.034 112.028 120.734C114.452 119.026 118.498 116.01 123.052 111.663C127.301 107.607 134.729 99.8209 141.223 88.1137C148.128 75.6681 154.972 56.8403 153.525 33.6098C152.061 10.1068 142.727 -8.06656 133.812 -19.9623C125.629 -30.8796 117.096 -37.5364 113.121 -40.4529C108.879 -43.5651 105.328 -45.6214 104.668 -46.0069C104.225 -46.2661 103.779 -46.5201 104.027 -46.3783C104.092 -46.3411 104.662 -46.0154 105.355 -45.6059C106.669 -44.829 109.784 -42.9606 113.506 -40.2574C120.147 -35.4347 135.945 -22.8869 146.248 -0.138351C151.614 11.7092 154.738 24.7133 155.175 38.1942C155.603 51.4052 153.391 63.0186 150.369 72.4204C147.404 81.6453 143.573 89.0333 140.262 94.4506C136.93 99.9006 133.571 104.257 130.828 107.496L-21.7983 -21.7526C-25.8415 -16.9781 -34.5635 -5.80797 -40.0362 11.2179C-42.9663 20.3336 -45.1409 31.6902 -44.7205 44.669C-44.2913 57.9178 -41.2188 70.7144 -35.9378 82.3745C-25.8047 104.748 -10.3094 117.001 -4.01533 121.572C-0.466499 124.149 2.46336 125.902 3.59317 126.57C3.9185 126.762 4.18369 126.916 4.35448 127.015C4.51778 127.109 4.6416 127.18 4.64577 127.183C4.80258 127.272 4.2674 126.967 3.73714 126.657C2.90405 126.17 -0.809914 124.014 -5.19235 120.799C-9.30794 117.779 -17.9604 111.016 -26.2282 99.9844C-35.2294 87.9744 -44.6159 69.6791 -46.088 46.0418C-47.5432 22.6769 -40.663 3.70234 -33.6679 -8.9071C-27.0825 -20.7781 -19.5091 -28.7448 -15.0472 -33.0041C-10.2816 -37.5533 -5.95704 -40.7934 -3.17665 -42.7526C2.21707 -46.5534 6.98228 -49.1387 9.28411 -50.3548L102.716 126.48ZM130.834 107.488C125.029 114.345 119.542 118.947 116.958 121.035C113.914 123.495 111.255 125.362 109.503 126.548C106.045 128.887 102.996 130.668 101.259 131.66C97.691 133.697 94.1733 135.502 92.3555 136.432C89.4914 137.896 89.2205 138.018 88.2008 138.549C87.8758 138.719 88.521 138.391 89.6121 137.77C90.1687 137.453 91.3807 136.754 92.9429 135.766C94.0847 135.044 97.6136 132.797 101.845 129.383L-23.7329 -26.2773C-21.2849 -28.2522 -19.1716 -29.769 -17.7436 -30.7594C-16.2497 -31.7955 -14.9464 -32.6417 -13.9567 -33.2676C-12.0282 -34.4872 -10.3784 -35.4453 -9.32266 -36.0462C-8.19541 -36.6879 -7.1902 -37.237 -6.41492 -37.6543C-5.62028 -38.082 -4.88472 -38.4692 -4.26328 -38.7932C-3.06206 -39.4195 -1.87769 -40.0226 -1.0243 -40.4563C-0.0166855 -40.9684 0.592087 -41.2762 1.31356 -41.6451C1.97752 -41.9845 2.37759 -42.1927 2.61282 -42.3172C2.88728 -42.4624 2.65154 -42.3429 2.09304 -42.024C1.79339 -41.8529 1.26275 -41.5458 0.565475 -41.1204C-0.101295 -40.7135 -1.19753 -40.0299 -2.56408 -39.1054C-3.26498 -38.6313 -4.13375 -38.0284 -5.12498 -37.3053C-6.10455 -36.5907 -7.34427 -35.6563 -8.75558 -34.5157C-10.1416 -33.3955 -11.9594 -31.8619 -14.0138 -29.9383C-16.0088 -28.0701 -18.7745 -25.324 -21.8045 -21.7453L130.834 107.488ZM101.856 129.374C88.4682 140.178 62.7731 155.283 27.8718 152.444C-5.66322 149.716 -27.0712 131.919 -35.7369 123.565C-40.4332 119.038 -43.7924 114.962 -45.5509 112.752C-46.4961 111.565 -47.2557 110.563 -47.715 109.952C-47.9506 109.638 -48.1501 109.37 -48.2748 109.202C-48.3373 109.118 -48.3955 109.039 -48.4305 108.992C-48.4723 108.936 -48.489 108.913 -48.5029 108.895C-50.8826 105.69 -43.8379 116.218 -32.4898 125.305L92.5198 -30.812C100 -24.8221 105.067 -19.0382 107.458 -16.1937C109.922 -13.2624 111.844 -10.6418 112.074 -10.3327C114.44 -7.14519 109.668 -14.0632 103.066 -20.4266C95.7625 -27.4674 75.8614 -44.3133 44.0873 -46.898C10.9468 -49.5938 -12.7334 -35.1536 -23.7434 -26.2688L101.856 129.374ZM-32.4911 125.304C-39.5026 119.69 -45.6144 113.303 -48.9469 109.628C-50.9018 107.471 -54.5327 103.363 -58.2619 98.1852C-59.9377 95.8585 -63.6373 90.5805 -67.2168 83.4222C-69.0049 79.8463 -71.9814 73.4094 -74.3214 64.9432C-76.3231 57.7013 -80.2771 40.6239 -76.1796 19.2134L120.256 56.8068C124.323 35.5533 120.388 18.6721 118.45 11.6609C116.174 3.42547 113.306 -2.74626 111.665 -6.02715C108.381 -12.5953 105.134 -17.1639 104.028 -18.6992C101.439 -22.2945 99.4172 -24.4924 99.22 -24.7099C98.657 -25.3309 98.2153 -25.7828 97.7686 -26.2198C97.5217 -26.4614 97.0737 -26.8935 96.4307 -27.4799C95.9453 -27.9225 94.5449 -29.1904 92.5211 -30.811L-32.4911 125.304ZM-76.1857 19.2456C-76.4311 20.5303 -76.7863 22.5303 -77.1061 25.0091C-77.3839 27.1626 -77.8871 31.5574 -77.9157 37.1583C-77.9302 40.0186 -77.8324 44.4027 -77.1858 49.7123C-76.5994 54.5284 -75.1793 63.462 -71.0745 73.9732C-67.2441 83.7817 -57.9555 102.992 -36.8611 118.376C-25.8098 126.436 -12.6976 132.516 1.86022 135.518C16.2172 138.479 29.4704 137.938 40.5498 135.853C61.3073 131.945 75.4776 122.496 81.965 117.639C89.2214 112.206 94.2446 106.893 97.0394 103.722C102.599 97.4136 106.107 91.7954 107.611 89.3002C110.959 83.7473 113.076 78.9941 114.233 76.2102C115.483 73.2005 117.036 69.0423 118.402 63.9458C119.072 61.4446 120.115 57.1835 120.858 51.7907C121.238 49.0329 121.662 45.1105 121.767 40.3827C121.865 35.9434 121.74 28.6514 120.091 19.8286C118.556 11.613 114.703 -3.44711 103.716 -19.1382C97.944 -27.3825 90.062 -35.9764 79.5928 -43.3893C68.9851 -50.9001 57.1544 -56.1739 44.8251 -59.0894C20.5917 -64.8198 0.448303 -60.2049 -10.9539 -56.2479C-22.4712 -52.2509 -30.783 -46.9925 -35.3251 -43.8265C-44.2588 -37.5995 -50.0665 -31.3272 -52.1514 -29.0277C-54.8862 -26.0115 -56.883 -23.4312 -58.0152 -21.9188L102.091 97.9391C100.876 99.5625 98.8084 102.229 96.014 105.312C93.8693 107.677 88.0129 113.994 79.0402 120.248C74.4786 123.428 66.1497 128.695 54.6175 132.698C43.2005 136.66 23.0445 141.276 -1.19939 135.543C-13.534 132.626 -25.3695 127.35 -35.9813 119.836C-46.4548 112.421 -54.3406 103.823 -60.1163 95.5738C-71.1093 79.8734 -74.9668 64.8007 -76.505 56.5698C-78.1568 47.7317 -78.2829 40.4215 -78.1842 35.9616C-78.0793 31.2133 -77.6529 27.2679 -77.2693 24.4851C-76.5192 19.0424 -75.4645 14.7233 -74.7772 12.1594C-73.3773 6.93745 -71.7735 2.63462 -70.466 -0.512903C-69.2523 -3.43473 -67.0717 -8.31901 -63.6641 -13.9705C-62.1299 -16.515 -58.5934 -22.1743 -53.0079 -28.5122C-50.2 -31.6983 -45.1643 -37.0238 -37.8961 -42.4651C-31.397 -47.3307 -17.2158 -56.786 3.55177 -60.6952C14.6362 -62.7818 27.8942 -63.322 42.2557 -60.3602C56.8181 -57.3571 69.9345 -51.2759 80.9897 -43.2131C102.092 -27.8227 111.388 -8.60268 115.224 1.22014C119.334 11.7457 120.758 20.6981 121.348 25.5378C121.997 30.8711 122.096 35.2837 122.082 38.1778C122.053 43.8463 121.543 48.3297 121.25 50.5962C120.916 53.1879 120.539 55.3252 120.262 56.7747L-76.1857 19.2456ZM-57.9879 -21.9553C-57.8172 -22.1831 -57.5649 -22.518 -57.258 -22.9179C-56.9971 -23.2579 -56.4485 -23.9691 -55.7369 -24.8512C-55.38 -25.2937 -54.7825 -26.0271 -54.0238 -26.9179C-53.6347 -27.3747 -53.1043 -27.9893 -52.4637 -28.7063C-51.855 -29.3875 -50.9109 -30.4259 -49.7185 -31.6569C-49.1073 -32.2879 -48.3203 -33.0838 -47.3858 -33.987C-46.475 -34.8673 -45.2108 -36.056 -43.6573 -37.4124C-42.1832 -38.6994 -39.8561 -40.6572 -36.8514 -42.8507C-35.3096 -43.9762 -33.315 -45.3651 -30.9243 -46.8606C-28.5834 -48.3251 -25.365 -50.2048 -21.3973 -52.1221C-17.5536 -53.9794 -11.847 -56.4378 -4.63952 -58.4388C-1.5982 -59.2319 5.02603 -60.613 8.60799 -61.1674C12.789 -61.6479 21.8196 -62.083 26.6534 -61.9802C32.1786 -61.5754 43.7649 -59.711 49.7738 -58.1814C56.2518 -56.0753 69.0338 -50.3916 75.254 -46.7943C81.3168 -42.6737 92.3084 -33.3047 97.1993 -28.1281C101.452 -22.9531 108.553 -12.3617 111.44 -7.03364C113.733 -2.15428 117.301 7.2738 118.634 11.7736C119.62 15.7326 121.022 23.1936 121.478 26.6769C122.42 35.0025 122.142 41.9387 121.733 46.6191C121.31 51.459 120.601 55.4907 119.988 58.4184C119.36 61.4144 118.684 63.955 118.112 65.9174C116.997 69.7394 115.861 72.7788 115.107 74.6873C114.308 76.7076 113.572 78.3757 113.022 79.5751C111.951 81.9127 111 83.7469 110.442 84.7993C109.322 86.9086 108.366 88.5248 107.939 89.2382C107.011 90.7908 106.241 91.9809 105.948 92.4308C105.247 93.5096 104.662 94.3653 104.327 94.8491C103.959 95.3811 103.464 96.0869 102.869 96.9048C102.579 97.303 102.081 97.9813 101.447 98.8101C101.125 99.231 100.648 99.8484 100.057 100.586C99.5375 101.234 98.5212 102.488 97.1809 104.016C96.4986 104.794 95.4481 105.968 94.1177 107.353C93.436 108.063 92.5621 108.952 91.5242 109.956C90.5106 110.936 89.1161 112.244 87.4027 113.725C85.7672 115.139 83.2381 117.235 79.9787 119.555C78.3073 120.744 76.1769 122.183 73.6381 123.714C71.1409 125.22 67.7964 127.088 63.7148 128.962C59.7225 130.794 54.0719 133.072 47.0569 134.888C40.1468 136.677 30.1907 138.466 18.1627 138.005C5.76206 137.529 -9.28914 134.611 -24.5565 126.58C-30.0764 123.449 -40.4598 116.174 -45.282 112.06C-49.6635 107.824 -57.3941 98.8789 -60.7485 94.2283C-68.9334 82.1664 -73.0408 70.4642 -75.1721 61.6955C-77.3032 52.9273 -77.8771 45.3871 -77.9819 40.0356C-78.089 34.5633 -77.729 29.94 -77.3302 26.5147C-76.9238 23.0232 -76.39 20.0435 -75.9075 17.7229C-74.9682 13.2047 -73.8895 9.59712 -73.1534 7.32012C-72.3759 4.91458 -71.6324 2.9273 -71.071 1.49891C-69.9774 -1.28388 -68.9743 -3.46535 -68.3849 -4.7105C-67.7422 -6.06827 -67.1779 -7.18081 -66.7792 -7.95005C-66 -9.45324 -65.3389 -10.634 -64.9718 -11.2811C-64.565 -11.9981 -64.2189 -12.5875 -63.9787 -12.9921C-63.5083 -13.7847 -63.1192 -14.4153 -62.9005 -14.7672L106.977 90.7875C107.175 90.4673 107.549 89.862 108.008 89.0893C108.242 88.6946 108.583 88.1136 108.986 87.4039C109.349 86.764 110.007 85.5893 110.783 84.0909C111.181 83.3241 111.744 82.2136 112.386 80.8577C112.974 79.6144 113.977 77.4344 115.07 74.6529C115.631 73.2252 116.374 71.2385 117.152 68.8334C117.888 66.5569 118.966 62.9497 119.906 58.4319C120.388 56.1115 120.922 53.132 121.328 49.6407C121.727 46.2156 122.087 41.5923 121.98 36.1202C121.875 30.7688 121.301 23.2287 119.17 14.4606C117.039 5.692 112.931 -6.01015 104.747 -18.072C101.392 -22.7225 93.6616 -31.6676 89.2802 -35.9032C84.458 -40.0171 74.0746 -47.2924 68.5547 -50.4236C53.2875 -58.4548 38.2363 -61.372 25.8358 -61.8481C13.8078 -62.3099 3.85187 -60.52 -3.05814 -58.7315C-10.073 -56.9158 -15.7236 -54.6378 -19.7157 -52.8054C-23.7972 -50.9321 -27.1416 -49.0633 -29.6387 -47.5576C-32.1773 -46.0268 -34.3076 -44.5881 -35.9788 -43.3988C-39.2379 -41.0797 -41.7666 -38.9837 -43.4017 -37.57C-45.1148 -36.089 -46.5088 -34.7817 -47.522 -33.8017C-48.5594 -32.7982 -49.4328 -31.9099 -50.114 -31.2008C-51.4433 -29.817 -52.4926 -28.6444 -53.1737 -27.8679C-54.5114 -26.3429 -55.5245 -25.0926 -56.0407 -24.4481C-56.6277 -23.7154 -57.1011 -23.103 -57.4186 -22.6878C-58.0439 -21.8702 -58.5319 -21.2055 -58.811 -20.8222C-59.3847 -20.0343 -59.8547 -19.3641 -60.1983 -18.867C-60.5086 -18.4181 -61.0714 -17.5964 -61.755 -16.5443C-62.0387 -16.1078 -62.8016 -14.9292 -63.7245 -13.3855C-64.1483 -12.6766 -65.1028 -11.0641 -66.2206 -8.95792C-66.7784 -7.90695 -67.7285 -6.0741 -68.7992 -3.73758C-69.3485 -2.53879 -70.0843 -0.871134 -70.8829 1.14867C-71.6373 3.05677 -72.7733 6.09576 -73.888 9.91738C-74.4603 11.8796 -75.1363 14.42 -75.7638 17.4159C-76.377 20.3435 -77.0857 24.375 -77.5085 29.2148C-77.9173 33.8951 -78.1959 40.8312 -77.2542 49.1567C-76.7981 52.6399 -75.3961 60.1009 -74.4101 64.0599C-73.0772 68.5596 -69.5084 77.9877 -67.2158 82.867C-64.3291 88.195 -57.2281 98.7865 -52.9752 103.961C-48.0842 109.138 -37.0926 118.507 -31.0299 122.627C-24.8098 126.225 -12.0278 131.908 -5.54977 134.015C0.459068 135.544 12.0454 137.409 17.5705 137.813C22.4043 137.916 31.4349 137.481 35.6158 137.001C39.1977 136.446 45.8219 135.065 48.8632 134.272C56.0705 132.271 61.777 129.813 65.6206 127.955C69.5882 126.038 72.8065 124.159 75.1472 122.694C77.5378 121.199 79.5323 119.81 81.0739 118.685C84.0783 116.491 86.405 114.534 87.8787 113.247C89.4318 111.891 90.6955 110.703 91.6059 109.823C92.5398 108.92 93.3263 108.125 93.9368 107.495C95.128 106.265 96.0707 105.228 96.6778 104.548C97.3168 103.833 97.8455 103.221 98.2325 102.766C98.9872 101.88 99.5798 101.153 99.9309 100.718C100.631 99.8498 101.164 99.158 101.406 98.8434C101.693 98.4689 101.922 98.1653 102.064 97.9756L-57.9879 -21.9553ZM-62.853 -14.8437C-61.0403 -17.7551 -57.5066 -23.1256 -52.112 -29.0919C-49.3225 -32.1771 -45.2433 -36.306 -39.8107 -40.5859C-34.4913 -44.7766 -26.3769 -50.2994 -15.4878 -54.714C-4.30436 -59.2479 10.7585 -62.9665 28.4495 -61.8395C46.665 -60.679 63.1992 -54.6459 76.829 -45.7328C89.8083 -37.2452 98.445 -27.3123 103.88 -19.5898C109.312 -11.8725 112.686 -4.7548 114.749 0.318991C118.712 10.0686 120.239 18.2913 120.875 22.2911C121.606 26.8855 121.879 30.6744 121.999 33.0869C122.235 37.8397 122.079 41.6191 121.977 43.5123C121.763 47.5063 121.353 50.6863 121.123 52.3253C120.857 54.2283 120.526 56.2099 120.123 58.243C119.92 59.2653 119.62 60.6945 119.212 62.3849C118.915 63.611 118.072 67.048 116.614 71.3145C115.973 73.1916 114.312 77.9263 111.459 83.6456C110.048 86.4752 107.304 91.6656 103 97.6175C100.778 100.69 97.4986 104.86 93.0467 109.358C88.7199 113.731 81.9168 119.807 72.431 125.352C62.7993 130.982 48.7715 136.991 31.0402 138.607C12.4695 140.299 -5.81907 136.741 -21.9279 128.872C-37.204 121.41 -47.6996 111.495 -54.3435 103.652C-60.9498 95.8527 -65.142 88.4754 -67.6875 83.3251C-72.5737 73.4395 -74.6978 64.9656 -75.5801 61.0637C-76.6155 56.485 -77.1287 52.7056 -77.397 50.3595C-77.9267 45.7296 -78.0141 42.0484 -78.0377 40.3195C-78.0655 38.286 -78.0262 36.6174 -77.9896 35.5292C-77.9173 33.382 -77.7902 31.6568 -77.7154 30.7231C-77.5603 28.7868 -77.3769 27.17 -77.2701 26.2672L121.346 49.7531C121.379 49.4729 121.517 48.3083 121.646 46.6886C121.708 45.9132 121.828 44.3123 121.897 42.2599C121.932 41.2191 121.971 39.5904 121.944 37.59C121.921 35.8943 121.834 32.2394 121.307 27.6295C121.04 25.2934 120.528 21.5223 119.494 16.9506C118.613 13.0556 116.491 4.58702 111.607 -5.29467C109.062 -10.4429 104.871 -17.8187 98.266 -25.6166C91.6232 -33.4589 81.1287 -43.3728 65.8537 -50.8342C49.7461 -58.7023 31.4587 -62.2602 12.8892 -60.568C-4.84081 -58.9522 -18.8673 -52.9434 -28.4977 -47.3141C-37.9822 -41.7701 -44.7839 -35.6951 -49.1093 -31.3244C-53.5598 -26.8273 -56.8375 -22.6588 -59.058 -19.5886C-63.3597 -13.6408 -66.1 -8.45577 -67.5083 -5.63262C-70.3549 0.0736408 -72.0082 4.79067 -72.6422 6.64588C-74.0851 10.8688 -74.9119 14.2456 -75.1907 15.3992C-75.5818 17.0171 -75.8629 18.3617 -76.0475 19.2914C-76.4144 21.1393 -76.7081 22.9043 -76.9446 24.5938C-77.1442 26.0192 -77.5315 28.9889 -77.7363 32.8104C-77.8331 34.6174 -77.988 38.3201 -77.755 43.0099C-77.6367 45.391 -77.3669 49.1518 -76.6396 53.7222C-76.0069 57.698 -74.4852 65.9006 -70.5282 75.6347C-68.4689 80.7008 -65.0983 87.8119 -59.6704 95.5237C-54.2388 103.241 -45.6062 113.17 -32.6315 121.654C-19.0061 130.564 -2.47678 136.596 15.7335 137.756C33.4193 138.883 48.4766 135.165 59.6541 130.634C70.5372 126.221 78.6453 120.702 83.958 116.517C89.3839 112.242 93.456 108.12 96.238 105.043C101.618 99.0936 105.135 93.7459 106.929 90.864L-62.853 -14.8437ZM9.70625 137.247C3.92389 136.528 -13.3529 134.062 -31.772 122.335C-41.9305 115.867 -54.9336 104.966 -64.8266 87.7229C-75.2458 69.5623 -79.3427 49.2797 -77.7659 29.8475C-74.9496 -4.85933 -55.5969 -26.0453 -48.5638 -33.0361C-39.3723 -42.1723 -29.8029 -48.1513 -21.842 -52.0336C-14.2834 -55.7196 -2.18597 -60.4455 13.4228 -61.7976C24.7864 -62.7819 66.5197 -64.1205 98.1359 -27.1051C131.743 12.2408 121.291 55.813 117.505 67.8662C112.826 82.7609 105.749 92.9007 103.093 96.5771L-59.017 -20.5568C-61.6045 -16.9757 -68.6422 -6.90898 -73.3036 7.931C-77.0724 19.9295 -87.5293 63.4654 -53.9409 102.79C-22.3433 139.783 19.3574 138.437 30.6825 137.456C46.2528 136.108 58.3058 131.396 65.822 127.73C73.7404 123.869 83.2693 117.917 92.4304 108.811C99.433 101.851 118.765 80.6979 121.579 46.0232C123.154 26.6071 119.061 6.34027 108.65 -11.8052C98.7658 -29.0335 85.7768 -39.9202 75.6389 -46.3747C57.261 -58.0752 40.0512 -60.5206 34.3697 -61.2266L9.70625 137.247ZM103.093 96.5771C104.21 95.0316 105.925 92.5661 107.818 89.4006C109.429 86.707 112.793 80.8397 115.762 72.8144C117.288 68.6919 119.382 62.2151 120.701 54.0233C121.959 46.2117 123.156 32.9574 119.723 17.0458C116.016 -0.139441 106.838 -20.1198 88.6418 -36.3946C70.9616 -52.2078 51.5314 -58.4773 37.2462 -60.6836C23.536 -62.8011 12.2782 -61.6157 5.55904 -60.4963C-1.53205 -59.315 -7.21698 -57.5784 -11 -56.2558C-18.3871 -53.6732 -23.9174 -50.7543 -26.8537 -49.1089C-32.9694 -45.682 -37.6045 -42.2332 -40.6076 -39.816C-43.6106 -37.3987 -47.97 -33.6073 -52.6244 -28.365C-54.8591 -25.848 -58.8921 -21.069 -62.9933 -14.4042C-65.0936 -10.9911 -68.0046 -5.80841 -70.6736 0.866579C-73.2026 7.19147 -76.7658 17.9361 -77.6263 31.7821C-78.5228 46.2089 -76.5491 66.5299 -64.8782 87.1803C-52.8666 108.433 -35.3083 121.668 -19.312 128.961C-4.50117 135.714 8.70296 137.376 16.603 137.816C24.8874 138.278 31.6621 137.616 36.0153 137.006C44.4898 135.82 50.9401 133.788 53.9157 132.789C57.4126 131.616 60.1877 130.467 61.9361 129.706L-17.8601 -53.6858C-16.0578 -54.47 -13.2377 -55.6367 -9.70356 -56.8225C-6.69081 -57.8333 -0.211212 -59.8727 8.28574 -61.0623C12.6502 -61.6733 19.4344 -62.3361 27.7268 -61.8741C35.6348 -61.4336 48.8453 -59.7705 63.6611 -53.0152C79.6624 -45.7193 97.2242 -32.4818 109.238 -11.2248C120.911 9.42936 122.886 29.755 121.989 44.187C121.128 58.0383 117.563 68.7888 115.032 75.1201C112.36 81.8016 109.445 86.9912 107.341 90.4118C103.23 97.0913 99.1844 101.887 96.9342 104.421C92.2488 109.699 87.8477 113.529 84.8004 115.981C81.7532 118.434 77.0714 121.916 70.915 125.365C67.9584 127.022 62.4091 129.95 55.0056 132.538C51.2143 133.864 45.5218 135.603 38.4239 136.785C31.6979 137.905 20.434 139.091 6.71864 136.973C-7.57178 134.766 -27.0063 128.494 -44.6898 112.678C-62.8893 96.4004 -72.0693 76.416 -75.7782 59.2255C-79.2122 43.3086 -78.0147 30.0477 -76.7555 22.2282C-75.4352 14.0286 -73.3384 7.54258 -71.809 3.40942C-68.8316 -4.63722 -65.455 -10.5315 -63.8238 -13.2587C-61.9104 -16.4579 -60.1681 -18.9637 -59.017 -20.5568L103.093 96.5771ZM61.9795 129.687C63.727 128.926 66.458 127.678 69.6985 125.918C72.4557 124.42 78.3366 121.084 84.9777 115.69C88.389 112.919 93.4892 108.412 98.7957 102.034C103.855 95.9525 111.637 85.1541 116.786 69.7093C122.347 53.0272 124.622 31.1504 117.242 7.87081C110.071 -14.7475 96.532 -30.0363 85.3585 -39.2055C74.6346 -48.0059 64.3409 -52.7147 57.9891 -55.1703C51.2852 -57.7621 45.5091 -59.1605 41.5807 -59.9473C33.9098 -61.4838 27.6656 -61.7864 24.3018 -61.8648C17.2957 -62.0281 11.5523 -61.4196 7.73832 -60.868C3.92429 -60.3165 -1.75612 -59.2729 -8.42892 -57.1314C-11.6327 -56.1032 -17.5353 -54.0439 -24.4566 -50.3971C-28.0011 -48.5295 -33.1444 -45.5519 -38.8393 -41.1671C-44.2352 -37.0125 -52.773 -29.5803 -60.5643 -18.1023C-68.6822 -6.14318 -77.3349 12.355 -77.8038 36.0781C-78.2865 60.4949 -69.9062 80.8307 -59.8468 95.2537C-50.5335 108.607 -40.0114 116.758 -33.4359 121.157C-26.5399 125.771 -20.3718 128.648 -16.3152 130.339C-8.4181 133.63 -1.83289 135.164 1.23558 135.819C4.8419 136.589 7.8147 137.012 9.70625 137.247L34.3697 -61.2266C36.3196 -60.9843 39.3401 -60.5532 42.9848 -59.7752C46.0916 -59.1121 52.7058 -57.5699 60.6239 -54.2699C64.6909 -52.5748 70.8676 -49.6928 77.7702 -45.0751C84.3523 -40.6718 94.8791 -32.516 104.196 -19.1582C114.258 -4.73067 122.64 15.6096 122.157 40.0308C121.688 63.7583 113.034 82.2609 104.913 94.2244C97.1187 105.707 88.5765 113.143 83.1752 117.302C77.4748 121.691 72.3248 124.673 68.7726 126.544C61.8359 130.199 55.9138 132.266 52.6878 133.302C45.9705 135.458 40.2345 136.513 36.3643 137.073C32.4942 137.632 26.6942 138.245 19.6413 138.081C16.2542 138.002 9.9891 137.697 2.30112 136.158C-1.63581 135.369 -7.4195 133.968 -14.1298 131.374C-20.4881 128.916 -30.7871 124.204 -41.5151 115.401C-52.6927 106.228 -66.2344 90.9355 -73.4065 68.313C-80.7883 45.0292 -78.5127 23.1477 -72.95 6.46048C-67.7997 -8.98953 -60.0148 -19.7935 -54.9498 -25.8812C-49.6383 -32.2653 -44.5312 -36.7792 -41.111 -39.557C-34.4523 -44.9651 -28.5461 -48.3181 -25.7544 -49.8342C-22.4795 -51.6129 -19.7049 -52.8821 -17.9035 -53.6669L61.9795 129.687ZM9.70625 137.247C11.5978 137.482 14.5838 137.799 18.2688 137.935C21.4043 138.051 28.1646 138.176 36.627 136.918C40.974 136.271 47.6589 134.991 55.4743 132.206C62.9264 129.55 75.1235 124.222 87.4218 113.554C100.705 102.032 113.808 84.3657 119.316 60.5734C124.668 37.4571 120.806 17.4037 115.862 3.82143C111.117 -9.2144 104.657 -18.5103 100.443 -23.8591C95.9941 -29.5044 91.736 -33.6503 88.7564 -36.3286C82.9381 -41.5585 77.719 -44.9998 74.8644 -46.7808C68.9187 -50.4904 63.6664 -52.8925 60.1034 -54.3608C56.5404 -55.8291 51.1207 -57.8249 44.2877 -59.3813C41.007 -60.1285 34.8786 -61.3634 27.065 -61.7512C23.0635 -61.9497 17.1208 -62.0076 9.98647 -61.1354C3.22681 -60.3091 -7.9063 -58.2629 -20.458 -52.3549C-33.5358 -46.1993 -50.4049 -34.6891 -62.8935 -14.5139C-75.7472 6.25133 -78.8953 28.0197 -77.5864 45.5555C-76.3746 61.7907 -71.4726 74.1652 -68.0552 81.3002C-64.4711 88.783 -60.6292 94.4014 -57.9997 97.9228C-52.8808 104.778 -47.9954 109.452 -45.6885 111.579C-42.9774 114.079 -40.6349 115.957 -39.1269 117.123L83.2029 -41.1028C84.7574 -39.901 87.1369 -37.9913 89.8769 -35.4652C92.2126 -33.3119 97.1186 -28.6153 102.251 -21.742C104.887 -18.2116 108.734 -12.585 112.322 -5.09505C115.743 2.04715 120.647 14.4279 121.859 30.6686C123.168 48.2097 120.019 69.9827 107.163 90.7516C94.672 110.931 77.7993 122.444 64.7167 128.602C52.1602 134.512 41.0212 136.56 34.2547 137.387C27.1135 138.26 21.163 138.202 17.1528 138.003C9.32174 137.614 3.17267 136.376 -0.130768 135.624C-7.00934 134.057 -12.483 132.043 -16.0984 130.553C-19.7139 129.064 -25.0171 126.636 -31.0024 122.902C-33.8769 121.108 -39.113 117.655 -44.9442 112.413C-47.9303 109.729 -52.1938 105.578 -56.6466 99.927C-60.8658 94.5727 -67.328 85.2716 -72.0749 72.2308C-77.0207 58.6436 -80.8832 38.5856 -75.5306 15.4649C-70.0215 -8.33168 -56.9164 -26.0018 -43.6288 -37.5277C-31.3263 -48.199 -19.1235 -53.5303 -11.6639 -56.1887C-3.841 -58.9765 2.85319 -60.2592 7.2114 -60.9072C15.6963 -62.1689 22.4868 -62.0453 25.6615 -61.9279C29.3857 -61.7902 32.4198 -61.4689 34.3697 -61.2266L9.70625 137.247ZM37.6523 136.784C37.5987 136.792 37.5285 136.803 37.4514 136.815C37.4123 136.821 37.3589 136.83 37.2968 136.839C37.2418 136.848 37.1392 136.864 37.012 136.883C36.9474 136.893 36.8485 136.908 36.728 136.926C36.6663 136.935 36.5872 136.947 36.4953 136.961C36.4061 136.974 36.282 136.992 36.1339 137.013C35.9952 137.033 35.7701 137.065 35.4922 137.103C35.3497 137.123 35.161 137.148 34.9389 137.177C34.7255 137.205 34.4118 137.246 34.0319 137.292C33.869 137.312 33.5128 137.354 33.3196 137.377C33.0849 137.403 32.5615 137.461 32.2726 137.491C31.9058 137.529 31.0613 137.61 30.5834 137.652C29.9308 137.707 28.341 137.822 27.4036 137.878C25.9342 137.948 21.8627 138.028 19.2614 137.993C13.4235 137.667 -13.6356 131.494 -33.1723 121.484C-76.5861 55.2451 -42.3742 -38.5625 -23.1136 -51.2572C-17.6668 -53.8021 -9.57265 -56.883 -7.04629 -57.6843C-5.61539 -58.1057 -3.26047 -58.7492 -2.34028 -58.984C-1.69851 -59.1423 -0.584808 -59.4062 -0.113365 -59.5139C0.24897 -59.5951 0.897217 -59.7367 1.18304 -59.7977C1.41541 -59.8467 1.83939 -59.9346 2.03101 -59.9737C2.1926 -60.0063 2.4915 -60.066 2.62885 -60.0931C2.74769 -60.1164 2.96975 -60.1595 3.073 -60.1794C3.32233 -60.2272 3.53304 -60.2667 3.68891 -60.2956C3.84851 -60.3252 3.98653 -60.3504 4.09589 -60.3702C4.20669 -60.3903 4.30424 -60.4077 4.38499 -60.4221C4.54311 -60.4503 4.67519 -60.4734 4.76888 -60.4897C4.95181 -60.5216 5.09877 -60.5467 5.18221 -60.5608C5.27374 -60.5764 5.3501 -60.5892 5.40359 -60.5982C5.50833 -60.6157 5.59347 -60.6298 5.64301 -60.638C5.69737 -60.647 5.744 -60.6547 5.77869 -60.6604C5.84705 -60.6716 5.90666 -60.6813 5.94942 -60.6882C6.0359 -60.7023 6.11934 -60.7158 6.19037 -60.7272C6.2569 -60.738 6.35109 -60.7531 6.45333 -60.7694C6.49626 -60.7762 6.59768 -60.7924 6.72187 -60.8119C6.75729 -60.8174 6.80392 -60.8247 6.8585 -60.8332C6.91055 -60.8413 6.98853 -60.8534 7.08308 -60.8679C7.16547 -60.8805 7.33012 -60.9057 7.53783 -60.9366C7.64331 -60.9522 7.80751 -60.9765 8.00861 -61.0054C8.1117 -61.0202 8.24443 -61.0391 8.39916 -61.0607C8.54933 -61.0817 8.75934 -61.1107 9.01056 -61.1443C9.11591 -61.1583 9.34434 -61.1882 9.46748 -61.2042C9.61226 -61.2227 9.93097 -61.2628 10.105 -61.2842C10.3163 -61.3098 10.792 -61.3658 11.0564 -61.3959C11.3937 -61.4333 12.1801 -61.5159 12.6292 -61.5603C13.2509 -61.6184 14.798 -61.7459 15.7237 -61.8107C17.2304 -61.8977 21.6426 -62.0215 24.5474 -61.9967C32.2034 -61.5257 82.0417 -42.1719 111.61 -6.89021C118.867 63.7316 68.0833 126.85 58.2062 131.285C54.877 132.501 49.8303 134.095 48.1452 134.563C47.1452 134.826 45.4756 135.24 44.8075 135.397C44.334 135.506 43.5044 135.69 43.1485 135.767C42.8734 135.825 42.3776 135.928 42.157 135.973C41.9774 136.01 41.6478 136.075 41.4977 136.105C41.3713 136.13 41.1363 136.175 41.0277 136.196C40.7701 136.245 40.5548 136.285 40.4019 136.314C40.2441 136.343 40.1088 136.367 40.0041 136.386C39.8976 136.406 39.8045 136.422 39.7287 136.436C39.5802 136.462 39.457 136.484 39.3717 136.498C39.2049 136.527 39.0714 136.55 38.9978 136.563C38.8484 136.588 38.7295 136.608 38.6767 136.617C38.6123 136.628 38.5578 136.637 38.5201 136.643C38.4453 136.655 38.3778 136.666 38.3282 136.674C38.2749 136.683 38.2204 136.692 38.1664 136.701L5.90953 -60.6807C5.9216 -60.6826 5.93068 -60.6841 5.9371 -60.6852C5.9436 -60.6862 5.94643 -60.6867 5.94614 -60.6866C5.94603 -60.6866 5.94078 -60.6858 5.9314 -60.6842C5.92258 -60.6828 5.90505 -60.6799 5.88115 -60.6759C5.85923 -60.6723 5.81791 -60.6655 5.76431 -60.6565C5.7223 -60.6495 5.61184 -60.6311 5.46877 -60.6067C5.39832 -60.5948 5.26732 -60.5724 5.10262 -60.5438C5.01835 -60.5291 4.89604 -60.5077 4.74842 -60.4815C4.67294 -60.4681 4.58021 -60.4515 4.4741 -60.4324C4.36972 -60.4135 4.23472 -60.389 4.07718 -60.3599C3.92449 -60.3317 3.70947 -60.2916 3.4521 -60.2424C3.34354 -60.2216 3.10861 -60.1761 2.9823 -60.1514C2.83233 -60.1218 2.50277 -60.056 2.32325 -60.0197C2.1027 -59.9746 1.60699 -59.8714 1.33192 -59.813C0.97612 -59.7363 0.146561 -59.552 -0.32692 -59.4436C-0.994942 -59.2864 -2.66452 -58.8723 -3.66449 -58.6097C-5.34953 -58.1419 -10.3963 -56.5476 -13.7254 -55.3317C-23.6025 -50.8964 -74.3861 12.2219 -67.1294 82.8437C-37.5609 118.125 12.2774 137.479 19.9334 137.95C22.8382 137.975 27.2503 137.851 28.757 137.764C29.6827 137.699 31.2297 137.572 31.8514 137.514C32.3005 137.469 33.0868 137.387 33.424 137.349C33.6884 137.319 34.164 137.263 34.3753 137.238C34.5492 137.216 34.8678 137.176 35.0125 137.158C35.1356 137.142 35.3639 137.112 35.4692 137.098C35.7202 137.064 35.93 137.035 36.0799 137.014C36.2344 136.993 36.3668 136.974 36.4696 136.959C36.6701 136.93 36.8335 136.906 36.9382 136.891C37.1442 136.86 37.3068 136.835 37.3867 136.823C37.4788 136.809 37.5539 136.797 37.6027 136.79C37.6541 136.782 37.6971 136.775 37.7286 136.77C37.837 136.753 37.9172 136.74 37.935 136.737C37.9654 136.732 37.9863 136.729 37.9945 136.728C38.0042 136.726 38.0105 136.725 38.0136 136.725C38.0162 136.724 38.0286 136.722 38.0542 136.718C38.0665 136.716 38.0982 136.711 38.1428 136.704C38.1656 136.7 38.2014 136.694 38.2461 136.687C38.286 136.68 38.3628 136.667 38.4606 136.651C38.5106 136.643 38.5839 136.63 38.6727 136.615C38.7534 136.601 38.898 136.577 39.079 136.545C39.1717 136.529 39.3029 136.506 39.4603 136.478C39.5407 136.464 39.6379 136.446 39.7483 136.426C39.8574 136.407 39.9951 136.382 40.1544 136.352C40.31 136.323 40.5205 136.284 40.7696 136.236C40.8727 136.216 41.0947 136.173 41.2134 136.15C41.3507 136.123 41.6495 136.063 41.811 136.03C42.0025 135.991 42.4264 135.903 42.6588 135.854C42.9445 135.793 43.5927 135.652 43.955 135.571C44.4264 135.463 45.54 135.199 46.1818 135.041C47.1019 134.806 49.4568 134.162 50.8877 133.741C53.414 132.94 61.5081 129.859 66.9549 127.314C86.2155 114.619 120.427 20.8117 77.0136 -45.4268C57.4769 -55.4368 30.4179 -61.6099 24.5799 -61.9362C21.9786 -61.9716 17.9072 -61.891 16.4379 -61.8212C15.5004 -61.7653 13.9107 -61.6503 13.2581 -61.5957C12.7803 -61.553 11.9358 -61.4719 11.5691 -61.4344C11.2803 -61.4039 10.7569 -61.3465 10.5224 -61.3199C10.3292 -61.2975 9.97313 -61.2553 9.81033 -61.2356C9.43054 -61.1892 9.11708 -61.1488 8.90399 -61.1208C8.68209 -61.0917 8.49364 -61.0662 8.35144 -61.0467C8.07423 -61.0087 7.84983 -60.9768 7.71206 -60.957C7.5648 -60.9359 7.44171 -60.9178 7.35356 -60.9049C7.26279 -60.8915 7.18501 -60.8799 7.12467 -60.8709C7.007 -60.8533 6.9114 -60.8387 6.85069 -60.8295C6.73125 -60.8113 6.63864 -60.7969 6.59608 -60.7903C6.54636 -60.7826 6.50787 -60.7765 6.48626 -60.7731C6.46317 -60.7695 6.44627 -60.7669 6.43762 -60.7655C6.43291 -60.7648 6.42938 -60.7642 6.4272 -60.7639C6.425 -60.7635 6.4238 -60.7633 6.42371 -60.7633L37.6523 136.784ZM80.075 -43.4252C80.6123 -43.0422 81.6406 -42.3036 82.8767 -41.3621C83.48 -40.9025 84.5566 -40.0729 85.8622 -38.9992C86.525 -38.4542 89.9586 -35.6554 93.8901 -31.6336C95.0579 -30.439 96.7752 -28.6238 98.7346 -26.3074C100.493 -24.2289 103.711 -20.2667 107.11 -14.8463C108.86 -12.0548 111.212 -8.00198 113.524 -2.88334C115.739 2.01966 118.799 9.82945 120.68 19.8718C122.546 29.8326 123.858 45.2801 119.218 63.2652C114.217 82.6474 103.354 100.623 87.3796 114.283C72.4383 127.059 56.9168 132.788 46.1114 135.427C35.3588 138.053 26.2835 138.373 20.5129 138.264C9.39011 138.056 0.854523 136.005 -2.69804 135.085C-10.4129 133.086 -16.1339 130.584 -17.8161 129.846C-22.2106 127.917 -25.4917 126.085 -26.4306 125.561C-27.8936 124.744 -29.0828 124.031 -29.8838 123.541C-32.2162 122.114 -35.9546 119.703 -40.2033 116.32C-41.441 115.335 -43.6306 113.547 -46.2071 111.141C-47.5239 109.911 -49.3982 108.096 -51.5285 105.783C-53.4828 103.66 -56.8217 99.8619 -60.3857 94.6772C-63.2363 90.5304 -70.3654 79.6635 -74.5957 63.8263C-76.8622 55.341 -79.01 42.806 -77.4541 27.7423C-75.813 11.8524 -70.1564 -5.28781 -58.816 -20.8587C-36.5269 -51.4626 -5.86421 -58.7718 6.00095 -60.698C19.2968 -62.8563 29.9058 -61.7813 34.3697 -61.2266L9.70625 137.247C14.1589 137.8 24.7589 138.875 38.0481 136.718C49.9066 134.793 80.5648 127.486 102.852 96.8852C114.191 81.316 119.847 64.1777 121.488 48.29C123.043 33.2285 120.896 20.696 118.63 12.2133C114.401 -3.61849 107.275 -14.4791 104.429 -18.6188C100.87 -23.7963 97.538 -27.5869 95.5916 -29.7004C93.4693 -32.005 91.6045 -33.8111 90.2984 -35.0308C87.7433 -37.417 85.5801 -39.182 84.3723 -40.1437C80.2431 -43.4313 76.6798 -45.7246 74.4792 -47.0707C73.7112 -47.5405 72.5523 -48.2352 71.1153 -49.0381C70.2024 -49.5481 66.943 -51.3686 62.5645 -53.2904C60.8903 -54.0253 55.1758 -56.5243 47.4658 -58.522C43.9157 -59.4418 35.3821 -61.4921 24.2609 -61.7005C18.4912 -61.8087 9.41649 -61.4891 -1.33551 -58.8634C-12.1404 -56.2248 -27.6613 -50.4962 -42.6023 -37.7197C-58.576 -24.0601 -69.4386 -6.08512 -74.4396 13.2966C-79.0802 31.2813 -77.7674 46.7282 -75.9021 56.6884C-74.0214 66.7301 -70.9609 74.5392 -68.7467 79.4414C-66.4352 84.5592 -64.084 88.6111 -62.3342 91.4017C-58.9367 96.8201 -55.7198 100.78 -53.964 102.856C-52.0068 105.17 -50.2923 106.982 -49.1279 108.173C-45.2098 112.181 -41.7985 114.96 -41.1684 115.478C-39.8955 116.525 -38.8621 117.32 -38.3139 117.738C-37.188 118.596 -36.3179 119.218 -35.999 119.445L80.075 -43.4252ZM-77.4935 23.663L-77.052 20.8872L120.465 52.3043L120.023 55.0801L-77.4935 23.663ZM47.2686 135.948L45.5186 136.386L-2.98858 -57.6427L-1.23858 -58.0802L47.2686 135.948ZM-74.6849 12.6195L-74.5829 12.231L118.863 63.0122L118.761 63.4007L-74.6849 12.6195ZM105.345 -17.8484L106.22 -16.5359L-60.19 94.4041L-61.065 93.0916L105.345 -17.8484Z" fill="#5CABD7" mask="url(#path-1-inside-1_145_544)"/>
</svg>
