<svg width="96" height="96" viewBox="0 0 96 96" fill="none" xmlns="http://www.w3.org/2000/svg">
<mask id="path-1-inside-1_145_354" fill="white">
<path d="M6.49996 35.9512C6.68034 35.4777 6.97765 35.0577 7.3642 34.7301C7.75075 34.4026 8.21394 34.1783 8.71059 34.0781C11.9121 33.4331 17.6525 32.549 17.8953 32.5115C18.7081 32.3868 19.5359 32.6006 20.1856 33.1031L20.5137 33.3571L20.5334 33.1471C20.5806 32.6313 20.7606 32.1364 21.0558 31.7107C21.3511 31.2851 21.7515 30.9431 22.2181 30.7181L30.7484 26.6062C31.1923 26.3923 31.682 26.2911 32.1743 26.3114C32.6667 26.3316 33.1464 26.4728 33.5712 26.7225C33.9959 26.9722 34.3526 27.3226 34.6098 27.7428C34.8669 28.163 35.0167 28.64 35.0459 29.1318C35.2315 32.2734 35.0393 35.0475 34.475 37.3753C34.0587 39.0918 33.4371 40.6012 32.5737 41.9878C32.2568 42.4968 31.9053 42.9665 31.594 43.3818C31.399 43.6415 31.1403 43.9884 30.9612 44.264C30.9668 44.2687 30.9734 44.2734 30.979 44.279C32.4912 45.4893 33.7596 45.7818 36.1325 43.8675C37.6343 42.6553 39.0828 40.9453 40.76 38.9643C44.1978 34.904 48.4756 29.8518 55.9821 25.8862C61.1768 23.1412 66.0162 21.6693 70.3634 21.5109C74.48 21.36 78.1475 22.364 81.2646 24.4921C84.7737 26.8884 87.4606 30.6721 89.0337 35.4337C90.3612 39.45 90.829 43.9668 90.3509 48.1537C89.5362 55.2956 86.074 61.2646 80.3393 65.4178C75.2346 69.1143 68.5081 71.2612 60.8881 71.6268C55.7806 71.8715 50.2784 70.7381 46.2087 69.7068C43.7515 71.2012 41.0909 72 38.7996 72C37.4084 72 36.1531 71.7056 35.1631 71.0934C33.5918 70.1221 32.8034 68.3981 33.1043 66.5943C33.214 65.939 33.4353 65.295 33.7062 64.695C30.2468 62.8762 27.3612 60.6881 24.9472 58.0621C22.2875 55.1681 20.7612 52.3575 19.535 50.1L19.5162 50.0662C18.949 49.0218 18.5693 48.1818 18.2918 47.5678C18.1381 47.2275 17.9496 46.8121 17.8465 46.6396C17.7687 46.6003 17.584 46.5187 17.2109 46.4043C11.2831 44.5865 7.07934 39.0562 6.90402 38.8218C6.28527 37.9968 6.13246 36.914 6.49996 35.9512ZM25.1863 43.4402C24.2197 41.3017 28.205 44.3655 25.1863 43.4402C24.7232 42.588 25.4516 44.028 25.1863 43.4402L25.3029 42.9961L26.3029 44.4961L24.3029 44.9961L24.8075 41.8237C26.9918 45.8465 29.9834 51.3553 39.2459 55.2665C39.6889 55.4537 48.3287 54.0473 48.6357 54.4175C48.5336 53.9475 48.9428 54.7876 48.6357 54.4175C48.7615 53.9532 48.7378 54.8875 48.6357 54.4175C48.9612 54.0633 48.5099 54.8817 48.6357 54.4175C49.3225 53.172 49.3666 52.9859 48.6357 54.4175C47.1957 55.4646 49.7101 54.1859 48.6357 54.4175C49.1487 54.0445 61.6686 48.996 62.3029 48.9961C62.5607 48.9961 62.7459 46.4325 63 46.5C66.7584 47.4984 57.455 49.2277 62.3029 48.9961C68.7557 48.6867 53.3422 51.165 57.5 48.1537C61.895 44.9709 50.3728 50.9994 51 45.5C51.3759 42.2066 55.0444 43.6612 54 40.5C53.1937 38.0588 54 35.5 63.5 36.5C70 38 70.8059 43.8988 68 44C64.5622 44.1256 68.3903 41.1806 64 43.5C57.52 46.9237 65.5682 45.1402 62.3029 48.9961C60.5066 51.1177 46.581 57.3481 44.6357 58.9175C39.201 63.3031 37.0835 56.2227 34.3029 53.9961C31.8654 52.0442 24.9116 44.8755 25.1863 43.4402C25.4741 41.9336 24.4269 44.4545 25.1863 43.4402C25.4469 43.0923 25.0063 43.7298 25.1863 43.4402C25.5219 42.9011 24.8497 46.2864 25.1863 43.4402C24.7251 43.3828 25.5011 43.0044 25.1863 43.4402C24.8714 43.8759 25.6793 43.2257 25.1863 43.4402C24.6934 43.6549 25.7198 43.5065 25.1863 43.4402C24.6527 43.3739 25.6116 43.769 25.1863 43.4402C24.6585 43.5236 25.9091 43.322 25.1863 43.4402C26.1847 44.1517 24.9794 43.4144 25.1863 43.4402Z"/>
</mask>
<path d="M6.49996 35.9512C6.68034 35.4777 6.97765 35.0577 7.3642 34.7301C7.75075 34.4026 8.21394 34.1783 8.71059 34.0781C11.9121 33.4331 17.6525 32.549 17.8953 32.5115C18.7081 32.3868 19.5359 32.6006 20.1856 33.1031L20.5137 33.3571L20.5334 33.1471C20.5806 32.6313 20.7606 32.1364 21.0558 31.7107C21.3511 31.2851 21.7515 30.9431 22.2181 30.7181L30.7484 26.6062C31.1923 26.3923 31.682 26.2911 32.1743 26.3114C32.6667 26.3316 33.1464 26.4728 33.5712 26.7225C33.9959 26.9722 34.3526 27.3226 34.6098 27.7428C34.8669 28.163 35.0167 28.64 35.0459 29.1318C35.2315 32.2734 35.0393 35.0475 34.475 37.3753C34.0587 39.0918 33.4371 40.6012 32.5737 41.9878C32.2568 42.4968 31.9053 42.9665 31.594 43.3818C31.399 43.6415 31.1403 43.9884 30.9612 44.264C30.9668 44.2687 30.9734 44.2734 30.979 44.279C32.4912 45.4893 33.7596 45.7818 36.1325 43.8675C37.6343 42.6553 39.0828 40.9453 40.76 38.9643C44.1978 34.904 48.4756 29.8518 55.9821 25.8862C61.1768 23.1412 66.0162 21.6693 70.3634 21.5109C74.48 21.36 78.1475 22.364 81.2646 24.4921C84.7737 26.8884 87.4606 30.6721 89.0337 35.4337C90.3612 39.45 90.829 43.9668 90.3509 48.1537C89.5362 55.2956 86.074 61.2646 80.3393 65.4178C75.2346 69.1143 68.5081 71.2612 60.8881 71.6268C55.7806 71.8715 50.2784 70.7381 46.2087 69.7068C43.7515 71.2012 41.0909 72 38.7996 72C37.4084 72 36.1531 71.7056 35.1631 71.0934C33.5918 70.1221 32.8034 68.3981 33.1043 66.5943C33.214 65.939 33.4353 65.295 33.7062 64.695C30.2468 62.8762 27.3612 60.6881 24.9472 58.0621C22.2875 55.1681 20.7612 52.3575 19.535 50.1L19.5162 50.0662C18.949 49.0218 18.5693 48.1818 18.2918 47.5678C18.1381 47.2275 17.9496 46.8121 17.8465 46.6396C17.7687 46.6003 17.584 46.5187 17.2109 46.4043C11.2831 44.5865 7.07934 39.0562 6.90402 38.8218C6.28527 37.9968 6.13246 36.914 6.49996 35.9512ZM25.1863 43.4402C24.2197 41.3017 28.205 44.3655 25.1863 43.4402C24.7232 42.588 25.4516 44.028 25.1863 43.4402L25.3029 42.9961L26.3029 44.4961L24.3029 44.9961L24.8075 41.8237C26.9918 45.8465 29.9834 51.3553 39.2459 55.2665C39.6889 55.4537 48.3287 54.0473 48.6357 54.4175C48.5336 53.9475 48.9428 54.7876 48.6357 54.4175C48.7615 53.9532 48.7378 54.8875 48.6357 54.4175C48.9612 54.0633 48.5099 54.8817 48.6357 54.4175C49.3225 53.172 49.3666 52.9859 48.6357 54.4175C47.1957 55.4646 49.7101 54.1859 48.6357 54.4175C49.1487 54.0445 61.6686 48.996 62.3029 48.9961C62.5607 48.9961 62.7459 46.4325 63 46.5C66.7584 47.4984 57.455 49.2277 62.3029 48.9961C68.7557 48.6867 53.3422 51.165 57.5 48.1537C61.895 44.9709 50.3728 50.9994 51 45.5C51.3759 42.2066 55.0444 43.6612 54 40.5C53.1937 38.0588 54 35.5 63.5 36.5C70 38 70.8059 43.8988 68 44C64.5622 44.1256 68.3903 41.1806 64 43.5C57.52 46.9237 65.5682 45.1402 62.3029 48.9961C60.5066 51.1177 46.581 57.3481 44.6357 58.9175C39.201 63.3031 37.0835 56.2227 34.3029 53.9961C31.8654 52.0442 24.9116 44.8755 25.1863 43.4402C25.4741 41.9336 24.4269 44.4545 25.1863 43.4402C25.4469 43.0923 25.0063 43.7298 25.1863 43.4402C25.5219 42.9011 24.8497 46.2864 25.1863 43.4402C24.7251 43.3828 25.5011 43.0044 25.1863 43.4402C24.8714 43.8759 25.6793 43.2257 25.1863 43.4402C24.6934 43.6549 25.7198 43.5065 25.1863 43.4402C24.6527 43.3739 25.6116 43.769 25.1863 43.4402C24.6585 43.5236 25.9091 43.322 25.1863 43.4402C26.1847 44.1517 24.9794 43.4144 25.1863 43.4402Z" fill="#5CD7D4"/>
<path d="M6.49996 35.9512L99.9482 71.5522L99.9369 71.5818L99.9257 71.6113L6.49996 35.9512ZM8.71059 34.0781L-11.0662 -63.9468L-11.0526 -63.9495L-11.039 -63.9523L8.71059 34.0781ZM17.8953 32.5115L2.63221 -66.3168L2.6823 -66.3245L2.73239 -66.3322L17.8953 32.5115ZM20.1856 33.1031L81.3661 -45.9978L81.3867 -45.9818L81.4073 -45.9659L20.1856 33.1031ZM20.5137 33.3571L120.077 42.6895L103.104 223.777L-40.708 112.426L20.5137 33.3571ZM20.5334 33.1471L120.117 42.265L120.107 42.3723L120.097 42.4795L20.5334 33.1471ZM22.2181 30.7181L-21.2179 -59.3559L-21.2107 -59.3593L-21.2036 -59.3628L22.2181 30.7181ZM30.7484 26.6062L-12.6733 -63.4746L-12.6641 -63.4791L-12.6549 -63.4835L30.7484 26.6062ZM33.5712 26.7225L84.2352 -59.4933L84.2466 -59.4866L84.258 -59.4799L33.5712 26.7225ZM35.0459 29.1318L134.871 23.2119L134.871 23.2226L134.872 23.2334L35.0459 29.1318ZM34.475 37.3753L131.659 60.9375L131.658 60.9413L34.475 37.3753ZM32.5737 41.9878L-52.3226 -10.8575L-52.3178 -10.8651L-52.3131 -10.8728L32.5737 41.9878ZM31.594 43.3818L111.616 103.353L111.588 103.39L111.559 103.428L31.594 43.3818ZM30.9612 44.264L-33.0572 121.086L-101.269 64.2433L-52.8962 -10.2148L30.9612 44.264ZM30.979 44.279L-31.5082 122.352L-35.8234 118.898L-39.7317 114.99L30.979 44.279ZM36.1325 43.8675L98.939 121.683L98.9315 121.69L98.9239 121.696L36.1325 43.8675ZM40.76 38.9643L-35.5595 -25.6526L-35.5586 -25.6536L40.76 38.9643ZM55.9821 25.8862L102.703 114.301L102.693 114.306L55.9821 25.8862ZM70.3634 21.5109L74.0275 121.444L74.0166 121.444L74.0056 121.445L70.3634 21.5109ZM81.2646 24.4921L137.648 -58.0964L137.658 -58.09L81.2646 24.4921ZM89.0337 35.4337L-5.9141 66.817L-5.9184 66.804L89.0337 35.4337ZM90.3509 48.1537L-9.00476 36.82L-9.00337 36.8078L90.3509 48.1537ZM80.3393 65.4178L138.994 146.409L138.991 146.411L80.3393 65.4178ZM60.8881 71.6268L65.6808 171.512L65.6733 171.512L60.8881 71.6268ZM46.2087 69.7068L-5.75288 -15.7332L30.0977 -37.5362L70.7721 -27.2294L46.2087 69.7068ZM35.1631 71.0934L87.7426 -13.9677L87.7498 -13.9633L87.7569 -13.9589L35.1631 71.0934ZM33.1043 66.5943L-65.5323 50.1378L-65.528 50.1118L-65.5236 50.0858L33.1043 66.5943ZM33.7062 64.695L80.2413 -23.8177L163.607 20.0112L124.845 105.85L33.7062 64.695ZM24.9472 58.0621L-48.6711 125.74L-48.6766 125.734L-48.6821 125.729L24.9472 58.0621ZM19.535 50.1L106.948 1.53021L107.18 1.94811L107.408 2.36822L19.535 50.1ZM19.5162 50.0662L-67.8965 98.6359L-68.1306 98.2146L-68.3606 97.7911L19.5162 50.0662ZM18.2918 47.5678L-72.8351 88.7488L-72.8392 88.7399L18.2918 47.5678ZM17.8465 46.6396L62.9974 -42.587L88.8251 -29.5176L103.678 -4.67267L17.8465 46.6396ZM17.2109 46.4043L-12.0964 142.013L-12.1074 142.01L17.2109 46.4043ZM6.90402 38.8218L86.904 -21.1782L86.9425 -21.1269L86.9808 -21.0756L6.90402 38.8218ZM24.8075 41.8237L-73.951 26.1152L-27.7276 -264.488L112.688 -5.89497L24.8075 41.8237ZM39.2459 55.2665L78.1466 -36.857L78.1549 -36.8535L78.1632 -36.85L39.2459 55.2665ZM63 46.5L37.3253 143.148L37.3225 143.147L63 46.5ZM57.5 48.1537L-1.15635 -32.8366L-1.15371 -32.8385L57.5 48.1537ZM51 45.5L-48.3559 34.1687L-48.3548 34.1589L51 45.5ZM54 40.5L-40.9525 71.8692L-40.9555 71.8601L54 40.5ZM63.5 36.5L73.9685 -62.9505L80.0386 -62.3116L85.986 -60.9391L63.5 36.5ZM68 44L64.3482 -55.9333L64.3711 -55.9341L64.3939 -55.935L68 44ZM64 43.5L17.2841 -44.9174L17.2885 -44.9196L64 43.5ZM44.6357 58.9175L-18.1639 -18.9042L-18.1534 -18.9126L44.6357 58.9175ZM34.3029 53.9961L-28.2019 132.055L-28.2032 132.054L34.3029 53.9961ZM24.3029 44.9961L48.5564 142.01L-98.222 178.705L-74.4556 29.2876L24.3029 44.9961ZM26.3029 44.4961L109.508 -10.9739L188.22 107.094L50.5564 141.51L26.3029 44.4961ZM25.3029 42.9961L-71.42 17.6055L-14.9218 -197.618L108.508 -12.4739L25.3029 42.9961ZM-86.9482 0.350163C-80.757 -15.901 -70.5515 -30.3209 -57.2822 -41.5643L72.0106 111.025C84.5068 100.436 94.1177 86.8565 99.9482 71.5522L-86.9482 0.350163ZM-57.2822 -41.5643C-44.0133 -52.8074 -28.1138 -60.5074 -11.0662 -63.9468L28.4874 132.103C44.5417 128.864 59.5148 121.613 72.0106 111.025L-57.2822 -41.5643ZM-11.039 -63.9523C-9.07448 -64.3481 -7.19872 -64.6868 -5.82787 -64.9275C-4.36523 -65.1842 -2.95803 -65.4199 -1.79016 -65.6117C-0.606239 -65.8061 0.444122 -65.9737 1.21625 -66.0956C1.60606 -66.1571 1.93371 -66.2084 2.18198 -66.247C2.3064 -66.2664 2.41061 -66.2825 2.49219 -66.2952C2.56969 -66.3072 2.63962 -66.318 2.63221 -66.3168L33.1583 131.34C33.1334 131.344 32.0078 131.517 30.6151 131.746C29.9173 131.86 29.274 131.969 28.7523 132.06C28.1388 132.168 28.0964 132.182 28.4602 132.108L-11.039 -63.9523ZM2.73239 -66.3322C30.5774 -70.6037 59.0106 -63.2886 81.3661 -45.9978L-40.9949 112.204C-19.9388 128.49 6.83878 135.377 33.0582 131.355L2.73239 -66.3322ZM81.4073 -45.9659L81.7355 -45.7118L-40.708 112.426L-41.0362 112.172L81.4073 -45.9659ZM-79.0499 24.0248L-79.0302 23.8148L120.097 42.4795L120.077 42.6895L-79.0499 24.0248ZM-79.0501 24.0293C-77.4286 6.31979 -71.2496 -10.6675 -61.1154 -25.2795L103.227 88.701C112.771 74.9404 118.59 58.9428 120.117 42.265L-79.0501 24.0293ZM-61.1154 -25.2795C-50.9813 -39.8913 -37.2364 -51.6313 -21.2179 -59.3559L65.6541 120.792C80.7394 113.518 93.6834 102.461 103.227 88.701L-61.1154 -25.2795ZM-21.2036 -59.3628L-12.6733 -63.4746L74.1701 116.687L65.6398 120.799L-21.2036 -59.3628ZM-12.6549 -63.4835C2.58138 -70.824 19.3909 -74.2999 36.2891 -73.604L28.0596 126.227C43.9732 126.882 59.8032 123.609 74.1517 116.696L-12.6549 -63.4835ZM36.2891 -73.604C53.1869 -72.9081 69.6538 -68.062 84.2352 -59.4933L-17.0928 112.938C-3.36095 121.008 12.1464 125.571 28.0596 126.227L36.2891 -73.604ZM84.258 -59.4799C98.8339 -50.9093 111.075 -38.8824 119.902 -24.4613L-50.6823 79.9468C-42.37 93.5276 -30.8421 104.854 -17.1156 112.925L84.258 -59.4799ZM119.902 -24.4613C128.729 -10.0399 133.87 6.33283 134.871 23.2119L-64.7787 35.0518C-63.8361 50.9473 -58.9947 66.3659 -50.6823 79.9468L119.902 -24.4613ZM134.872 23.2334C135.47 33.3598 135.16 46.4996 131.659 60.9375L-62.7095 13.813C-65.0812 23.5953 -65.0071 31.187 -64.78 35.0302L134.872 23.2334ZM131.658 60.9413C128.943 72.1406 124.415 83.6807 117.46 94.8483L-52.3131 -10.8728C-57.5405 -2.47827 -60.8254 6.04311 -62.7086 13.8092L131.658 60.9413ZM117.47 94.833C114.537 99.5453 111.649 103.309 111.616 103.353L-48.4276 -16.5893C-48.2054 -16.8859 -48.6981 -16.2348 -49.2917 -15.4037C-49.9364 -14.5011 -51.0379 -12.9214 -52.3226 -10.8575L117.47 94.833ZM111.559 103.428C111.505 103.5 111.812 103.094 112.217 102.535C112.435 102.234 112.763 101.779 113.159 101.21C113.54 100.663 114.124 99.8122 114.819 98.7428L-52.8962 -10.2148C-51.4524 -12.4371 -50.2052 -14.1688 -49.6739 -14.9012C-49.0458 -15.767 -48.5123 -16.4765 -48.3713 -16.6643L111.559 103.428ZM94.9796 -32.5581C94.0207 -33.3572 93.2464 -33.97 93.1526 -34.0445C92.7931 -34.3299 93.3735 -33.8705 93.8022 -33.5243C94.7798 -32.7347 97.9734 -30.1479 101.69 -26.4317L-39.7317 114.99C-36.021 118.7 -32.8334 121.282 -31.8619 122.067C-31.4363 122.41 -30.859 122.867 -31.2214 122.58C-31.3182 122.503 -32.0955 121.888 -33.0572 121.086L94.9796 -32.5581ZM93.4662 -33.7937C88.3944 -37.8531 65.9864 -55.3795 31.3793 -54.7378C-0.928032 -54.1388 -21.5776 -38.0604 -26.659 -33.9608L98.9239 121.696C91.4697 127.71 68.9995 144.599 35.0867 145.228C-1.12587 145.899 -24.9241 127.621 -31.5082 122.352L93.4662 -33.7937ZM-26.6741 -33.9486C-31.2994 -30.2155 -34.311 -26.9828 -35.2577 -25.9524C-35.5545 -25.6294 -35.7818 -25.3751 -35.9253 -25.2129C-36.0684 -25.0513 -36.1545 -24.9515 -36.1646 -24.9398C-36.1734 -24.9297 -36.1378 -24.9708 -36.0291 -25.0986C-35.9131 -25.235 -35.7813 -25.3906 -35.5595 -25.6526L117.079 103.581C116.548 104.209 114.408 106.76 112.019 109.361C109.553 112.044 105.066 116.738 98.939 121.683L-26.6741 -33.9486ZM-35.5586 -25.6536C-31.3382 -30.6383 -16.5568 -48.8891 9.27103 -62.5337L102.693 114.306C107.811 111.603 111.933 108.419 114.937 105.626C117.424 103.313 119.017 101.293 117.079 103.582L-35.5586 -25.6536ZM9.26157 -62.5287C23.3438 -69.9701 43.025 -77.5591 66.7212 -78.4228L74.0056 121.445C89.0074 120.898 99.0099 116.252 102.703 114.301L9.26157 -62.5287ZM66.6993 -78.422C90.1407 -79.2815 115.276 -73.3705 137.648 -58.0964L24.8809 107.081C41.0194 118.099 58.8192 122.001 74.0275 121.444L66.6993 -78.422ZM137.658 -58.09C162.403 -41.1921 176.812 -17.6519 183.986 4.06342L-5.9184 66.804C-1.89035 78.9962 7.14439 94.9689 24.8714 107.074L137.658 -58.09ZM183.982 4.05039C189.837 21.7669 191.834 40.8607 189.705 59.4996L-9.00337 36.8078C-10.1756 47.073 -9.11498 57.133 -5.9141 66.817L183.982 4.05039ZM189.707 59.4874C185.763 94.0606 167.859 125.505 138.994 146.409L21.6845 -15.5736C4.28942 -2.97594 -6.69031 16.5306 -9.00476 36.82L189.707 59.4874ZM138.991 146.411C115.106 163.708 88.5779 170.413 65.6808 171.512L56.0954 -28.2583C48.4382 -27.8908 35.3637 -25.4795 21.6877 -15.576L138.991 146.411ZM65.6733 171.512C45.089 172.498 27.6706 168.17 21.6453 166.643L70.7721 -27.2294C71.0063 -27.1701 69.9724 -27.449 68.1188 -27.7294C66.4828 -27.9769 62.177 -28.5496 56.1028 -28.2586L65.6733 171.512ZM98.1703 155.147C83.106 164.308 62.6887 172 38.7996 172V-28C19.4931 -28 4.39708 -21.906 -5.75288 -15.7332L98.1703 155.147ZM38.7996 172C24.161 172 3.35381 168.998 -17.4308 156.146L87.7569 -13.9589C68.9524 -25.5871 50.6558 -28 38.7996 -28V172ZM-17.4164 156.155C-53.0924 134.102 -72.5991 92.4947 -65.5323 50.1378L131.741 83.0509C138.206 44.3014 120.276 6.14244 87.7426 -13.9677L-17.4164 156.155ZM-65.5236 50.0858C-63.6188 38.7057 -60.1873 29.6407 -57.4326 23.5401L124.845 105.85C127.058 100.949 130.047 93.1723 131.732 83.1029L-65.5236 50.0858ZM-12.8289 153.208C-25.5351 146.527 -37.8253 137.538 -48.6711 125.74L98.5654 -9.61618C92.5478 -16.162 86.0287 -20.775 80.2413 -23.8177L-12.8289 153.208ZM-48.6821 125.729C-60.4144 112.962 -66.8934 100.492 -68.3381 97.8317L107.408 2.36822C108.416 4.22341 104.989 -2.6262 98.5764 -9.60423L-48.6821 125.729ZM-67.8777 98.6697L-67.8965 98.6359L106.929 1.49646L106.948 1.53021L-67.8777 98.6697ZM-68.3606 97.7911C-70.7739 93.3474 -72.4007 89.7101 -72.8351 88.7488L109.419 6.38673C109.561 6.70238 109.293 6.10187 108.931 5.34719C108.535 4.52335 108.021 3.4968 107.393 2.34135L-68.3606 97.7911ZM-72.8392 88.7399C-72.9534 88.487 -72.7147 89.0207 -72.3915 89.7057C-72.221 90.0671 -71.8481 90.8519 -71.3399 91.8591C-71.0778 92.3785 -70.6931 93.1291 -70.2094 94.0297C-69.7573 94.8716 -68.9951 96.2623 -67.985 97.952L103.678 -4.67267C105.526 -1.58133 106.809 0.953382 107.216 1.76003C107.793 2.90427 108.242 3.84653 108.492 4.37581C108.974 5.39676 109.383 6.30818 109.423 6.39564L-72.8392 88.7399ZM-27.3043 135.866C-20.7267 139.195 -15.1933 141.064 -12.0964 142.013L46.5182 -49.2047C50.3613 -48.0266 56.2641 -45.9942 62.9974 -42.587L-27.3043 135.866ZM-12.1074 142.01C-34.5992 135.113 -49.7998 122.852 -57.1465 116.213C-65.2428 108.897 -70.6352 102.112 -73.1728 98.7193L86.9808 -21.0756C84.6185 -24.2338 81.4157 -28.1364 76.947 -32.1746C73.228 -35.5354 63.0932 -44.1218 46.5292 -49.2013L-12.1074 142.01ZM-73.096 98.8218C-94.2697 70.5902 -99.564 33.4021 -86.9257 0.291151L99.9257 71.6113C111.829 40.426 106.84 5.40343 86.904 -21.1782L-73.096 98.8218ZM54.4926 -52.1692C52.0499 -52.9179 43.0483 -55.6639 30.934 -56.2607C25.0569 -56.5503 12.3506 -56.7088 -2.90868 -52.0617C-18.8734 -47.1998 -45.494 -34.3012 -61.9047 -3.5415C-78.096 26.8067 -74.1929 55.5742 -69.834 70.8533C-65.561 85.8317 -58.7647 96.2991 -55.1073 101.418C-47.5235 112.032 -39.5257 118.78 -34.9918 122.266C-29.8756 126.199 -23.1834 130.538 -14.8332 134.224C-10.5868 136.099 -4.34595 138.501 3.49508 140.258C10.7713 141.889 23.7284 143.955 39.7167 141.609C56.8328 139.099 79.7685 130.978 98.6664 110.445C117.327 90.1688 123.298 67.2912 124.663 51.4512C125.959 36.4226 123.541 24.4988 121.873 18.0521C120.066 11.0692 117.84 5.63698 116.31 2.25257L-65.9377 84.6277C-67.5883 80.976 -69.8968 75.3171 -71.7526 68.1437C-73.4696 61.5066 -75.9039 49.4284 -74.598 34.2771C-73.2222 18.3144 -67.2141 -4.65425 -48.4943 -24.9941C-29.5376 -45.5914 -6.52196 -53.7483 10.6893 -56.273C26.7729 -58.6323 39.8406 -56.5578 47.2369 -54.9001C55.1981 -53.1157 61.5685 -50.6694 65.9482 -48.7356C74.5649 -44.9311 81.5383 -40.4198 86.9035 -36.2952C91.6864 -32.6183 99.9013 -25.6598 107.623 -14.8521C111.35 -9.63648 118.196 0.923429 122.493 15.9856C126.875 31.3485 130.777 60.1911 114.553 90.6011C98.1088 121.423 71.4238 134.37 55.3576 139.263C39.9967 143.941 27.1517 143.795 21.0927 143.497C8.61477 142.882 -0.92263 140.03 -4.12004 139.049L54.4926 -52.1692ZM116.332 2.30096C116.504 2.68239 116.832 3.4142 117.224 4.33252C117.421 4.79718 117.729 5.52765 118.089 6.42802C118.387 7.17277 119.056 8.86595 119.808 11.0535C120.184 12.147 120.815 14.0397 121.489 16.4278C121.834 17.6532 122.287 19.3456 122.75 21.3783C123.188 23.3029 123.82 26.3307 124.331 30.0852C124.594 32.0124 124.873 34.4852 125.053 37.3721C125.229 40.1957 125.349 44.0401 125.121 48.5913C125.009 50.474 124.65 54.4881 124.393 56.617C124.042 59.0594 123.083 64.2734 122.457 67.0377C121.633 70.2228 119.503 76.9855 118.166 80.5436C116.443 84.6116 112.144 93.0706 109.522 97.4143C106.26 102.209 98.4854 111.674 93.9392 116.258C88.6618 120.906 76.9365 129.19 70.5241 132.748C63.8248 135.844 50.1338 140.439 43.2277 141.956C36.7337 142.924 24.3133 143.581 18.4396 143.354C13.2734 142.866 3.73042 141.244 -0.635162 140.179C-4.37636 139.098 -11.2098 136.704 -14.3061 135.432C-16.9547 134.245 -21.7956 131.83 -23.994 130.623C-25.8906 129.522 -29.376 127.35 -30.9693 126.289C-34.8055 123.682 -37.8481 121.222 -40.0229 119.349C-42.2473 117.433 -44.0727 115.689 -45.4653 114.296C-48.1781 111.584 -50.2284 109.219 -51.5051 107.69C-52.8544 106.075 -53.9359 104.676 -54.7068 103.65C-55.4985 102.596 -56.1585 101.674 -56.6673 100.948C-57.6598 99.531 -58.4346 98.346 -58.9301 97.5737C-59.4523 96.7597 -59.8813 96.065 -60.1948 95.5498C-60.8065 94.5444 -61.2839 93.7197 -61.5705 93.2189C-61.8793 92.6794 -62.1344 92.222 -62.3192 91.8875C-62.6816 91.2314 -62.9725 90.6878 -63.1596 90.335C-63.5362 89.6252 -63.8607 88.9938 -64.1205 88.4802C-64.3426 88.0411 -64.7695 87.1906 -65.2754 86.1255C-65.4193 85.8226 -65.6158 85.4051 -65.8445 84.9068C-66.0544 84.4493 -66.409 83.6681 -66.8295 82.6904C-67.0448 82.19 -67.3407 81.4909 -67.6804 80.6504C-67.9971 79.867 -68.5085 78.5746 -69.0887 76.9584C-69.3864 76.1293 -69.7733 75.0175 -70.1973 73.6949C-70.6033 72.4284 -71.1842 70.5314 -71.7871 68.2C-72.0959 67.006 -72.4588 65.5117 -72.8237 63.7794C-73.182 62.0788 -73.6099 59.8297 -73.9864 57.168C-74.3508 54.5915 -74.7737 50.8873 -74.9191 46.4094C-74.9625 44.5256 -74.9346 40.4354 -74.8501 38.2308C-74.689 35.6478 -74.1027 30.0081 -73.6501 26.9587C-72.9879 23.3432 -71.0593 15.4652 -69.7361 11.2303C-67.9014 6.2297 -62.9425 -4.38841 -59.7219 -9.91614C-55.5087 -16.1141 -45.0093 -28.2143 -38.6648 -33.9291C-31.3327 -39.4411 -15.1994 -48.3888 -6.52482 -51.7285C1.89204 -54.1238 18.2781 -56.609 26.1116 -56.8312C32.8046 -56.5343 45.0159 -54.8192 50.5057 -53.5372C54.9909 -52.2428 63.0369 -49.3323 66.6054 -47.7841C69.5248 -46.392 74.7815 -43.5818 77.1284 -42.1929C79.0805 -40.9703 82.63 -38.5811 84.2336 -37.4272C85.5931 -36.4106 88.091 -34.4461 89.233 -33.504C91.9567 -31.223 94.1199 -29.1636 95.6567 -27.6305C97.2328 -26.0581 98.5335 -24.6552 99.5279 -23.5447C100.537 -22.4176 101.394 -21.4089 102.083 -20.5764C103.43 -18.9484 104.494 -17.5566 105.216 -16.587C105.966 -15.581 106.585 -14.7101 107.05 -14.0437C107.956 -12.7445 108.661 -11.668 109.094 -10.9958C109.951 -9.66592 110.597 -8.59367 110.906 -8.0757C111.267 -7.47202 111.557 -6.97107 111.748 -6.63908C112.396 -5.51245 112.903 -4.57905 113.05 -4.30956L-62.677 91.1899C-62.6464 91.2463 -62.2179 92.0383 -61.6198 93.0783C-61.4413 93.3886 -61.1614 93.8713 -60.81 94.4599C-60.5097 94.9628 -59.8714 96.0231 -59.0202 97.3439C-58.59 98.0116 -57.8878 99.0844 -56.9837 100.38C-56.5199 101.045 -55.9014 101.915 -55.1526 102.92C-54.431 103.888 -53.3678 105.279 -52.0219 106.906C-51.3335 107.738 -50.4767 108.746 -49.4679 109.873C-48.4738 110.983 -47.1734 112.386 -45.5975 113.958C-44.0611 115.491 -41.8981 117.55 -39.1746 119.831C-38.0327 120.773 -35.5349 122.737 -34.1756 123.754C-32.572 124.907 -29.0226 127.297 -27.0706 128.519C-24.7238 129.908 -19.4672 132.718 -16.5479 134.11C-12.9795 135.658 -4.9336 138.569 -0.448441 139.863C5.04122 141.145 17.2525 142.86 23.9454 143.157C31.7789 142.935 48.1649 140.45 56.5817 138.054C65.2562 134.715 81.3895 125.767 88.7215 120.255C95.066 114.54 105.565 102.44 109.778 96.2423C112.999 90.7146 117.958 80.0966 119.793 75.0961C121.116 70.8613 123.044 62.9833 123.707 59.3679C124.159 56.3186 124.745 50.679 124.906 48.0961C124.991 45.8916 125.019 41.8016 124.976 39.9178C124.83 35.4402 124.407 31.7363 124.043 29.1602C123.666 26.4988 123.239 24.25 122.88 22.5498C122.516 20.8179 122.153 19.3241 121.844 18.1306C121.241 15.8001 120.661 13.9042 120.255 12.639C119.832 11.3175 119.445 10.2071 119.148 9.37947C118.569 7.76629 118.059 6.47744 117.744 5.69799C117.406 4.86156 117.112 4.16694 116.899 3.6715C116.482 2.7037 116.133 1.93418 115.929 1.49006C115.707 1.00508 115.517 0.602434 115.381 0.315796C114.906 -0.684435 114.521 -1.44908 114.345 -1.79814C114.13 -2.22173 113.855 -2.75903 113.521 -3.38749C113.356 -3.69952 113.085 -4.20571 112.74 -4.82955C112.564 -5.14792 112.318 -5.59051 112.016 -6.11682C111.737 -6.6045 111.267 -7.41758 110.661 -8.41317C110.35 -8.92352 109.924 -9.61384 109.404 -10.4239C108.911 -11.1923 108.139 -12.3738 107.149 -13.7881C106.641 -14.513 105.982 -15.4336 105.191 -16.4862C104.421 -17.511 103.34 -18.9088 101.992 -20.5234C100.716 -22.0509 98.666 -24.415 95.9539 -27.1271C94.5616 -28.5193 92.7364 -30.2626 90.5124 -32.1786C88.3378 -34.0519 85.2955 -36.5112 81.4596 -39.1185C79.8663 -40.1793 76.3811 -42.3513 74.4846 -43.4518C72.2863 -44.6593 67.4455 -47.074 64.797 -48.2603C61.7008 -49.5327 54.8675 -51.9264 51.1264 -53.0072C46.7609 -54.0724 37.218 -55.6951 32.0519 -56.1824C26.1782 -56.41 13.7579 -55.7523 7.26396 -54.7843C0.358002 -53.2678 -13.3329 -48.6731 -20.0322 -45.5766C-26.4445 -42.0187 -38.1698 -33.7348 -43.4471 -29.0867C-47.9932 -24.5027 -55.7683 -15.0377 -59.03 -10.2433C-61.6516 -5.89972 -65.9506 2.55915 -67.6736 6.62707C-69.0111 10.1851 -71.1407 16.9477 -71.9648 20.1326C-72.5903 22.8969 -73.5492 28.1107 -73.9009 30.553C-74.1576 32.6818 -74.5161 36.6958 -74.6283 38.5783C-74.8564 43.1292 -74.7363 46.9733 -74.5606 49.7965C-74.3809 52.683 -74.101 55.1554 -73.8386 57.0821C-73.3272 60.8356 -72.6959 63.8624 -72.2579 65.7857C-71.7953 67.8171 -71.3432 69.5081 -70.9979 70.7319C-70.3251 73.1168 -69.6954 75.0056 -69.3209 76.0945C-68.5718 78.2727 -67.9074 79.9537 -67.6158 80.6831C-67.2619 81.5681 -66.9623 82.2801 -66.7737 82.7228C-66.4011 83.5972 -66.0986 84.2714 -65.9596 84.5793L116.332 2.30096ZM112.688 -5.89497C113.783 -3.8776 110.028 -11.4397 102.976 -19.1073C95.1241 -27.6446 86.2212 -33.4473 78.1466 -36.857L0.345184 147.39C-16.9919 140.069 -32.0219 129.556 -44.2312 116.281C-55.6407 103.876 -61.9838 91.5478 -63.0727 89.5424L112.688 -5.89497ZM78.1632 -36.85C69.6548 -40.4445 62.4779 -42.0696 58.7714 -42.8064C54.6092 -43.6339 51.1647 -44.0406 48.9411 -44.2557C44.5856 -44.6771 41.1398 -44.7149 39.5024 -44.7162C36.0872 -44.719 33.4717 -44.5364 32.6839 -44.4805C31.5641 -44.401 30.7237 -44.3199 30.3551 -44.2832C29.9346 -44.2414 29.6471 -44.209 29.5571 -44.1988C29.4113 -44.1822 29.4545 -44.1861 29.9084 -44.2429C30.1111 -44.2683 30.3285 -44.2957 30.6208 -44.3327C30.8932 -44.3671 31.2307 -44.4097 31.5787 -44.4532C32.5591 -44.5759 35.3387 -44.927 38.1992 -45.1827C39.3093 -45.2819 42.8406 -45.5965 47.1626 -45.6397C48.9315 -45.6573 54.2539 -45.6929 60.9453 -44.8526C64.1251 -44.4532 70.9991 -43.4613 79.3451 -40.7631C83.651 -39.371 90.1347 -36.9595 97.4704 -32.8521C104.562 -28.8812 115.458 -21.6559 125.601 -9.42833L-28.33 118.263C-18.1964 130.479 -7.31414 137.694 -0.239792 141.655C7.07827 145.752 13.5404 148.155 17.821 149.539C26.1163 152.221 32.9242 153.199 36.0237 153.589C42.5547 154.409 47.6596 154.365 49.162 154.35C52.951 154.312 55.7534 154.046 56.0035 154.023C57.1438 153.921 57.6782 153.841 56.4049 154C56.0443 154.045 53.7762 154.336 52.1564 154.52C51.4072 154.606 49.3159 154.842 46.844 155.018C45.777 155.093 42.9302 155.287 39.3396 155.284C37.6145 155.282 34.095 155.242 29.6808 154.815C27.4278 154.597 23.9577 154.186 19.7738 153.355C16.0456 152.614 8.8508 150.983 0.328636 147.383L78.1632 -36.85ZM125.601 -9.42833C124.508 -10.7467 122.732 -12.8196 120.39 -15.2286C118.434 -17.2412 113.975 -21.6905 107.509 -26.3892C104.21 -28.7873 98.7484 -32.4572 91.4425 -35.9082C84.6775 -39.1037 71.8297 -44.2781 54.7405 -45.3052C35.9454 -46.4349 11.5961 -42.3665 -10.6642 -25.925C-31.8665 -10.265 -41.7412 9.67676 -46.1738 23.0545C-50.4913 36.0844 -51.1699 47.1521 -51.2412 53.347C-51.3184 60.047 -50.704 65.5216 -50.1747 69.1037C-49.1372 76.1259 -47.5595 81.5596 -46.6652 84.4084C-44.7893 90.3837 -42.6903 95.0891 -41.1921 98.1652C-39.694 101.241 -37.2837 105.795 -33.736 110.956C-32.0445 113.417 -28.7393 118.009 -23.8505 123.156C-21.3566 125.781 -17.4253 129.64 -12.1028 133.71C-7.18159 137.474 1.95039 143.764 14.8708 148.398C28.1362 153.157 49.9247 157.678 75.3265 150.641C101.996 143.253 120.212 126.591 130.911 111.097C140.639 97.0098 144.487 83.7043 146.142 76.4079C147.93 68.5282 148.408 61.966 148.554 57.8894C148.842 49.9022 148.088 43.6479 147.71 40.8668C147.257 37.5379 146.72 34.8619 146.356 33.188L-49.0848 75.6469C-49.4613 73.9142 -50.0072 71.1897 -50.4654 67.8213C-50.849 65.0007 -51.6044 58.7159 -51.3165 50.706C-51.1696 46.6181 -50.6906 40.0464 -48.9012 32.159C-47.2442 24.855 -43.394 11.5437 -33.6631 -2.54804C-22.961 -18.0461 -4.74134 -34.7104 21.932 -42.0997C47.3378 -49.1378 69.1307 -44.6162 82.4009 -39.8559C95.3261 -35.2194 104.463 -28.9266 109.39 -25.159C114.718 -21.0845 118.655 -17.22 121.155 -14.5882C126.056 -9.42876 129.375 -4.81953 131.08 -2.33911C134.655 2.86145 137.094 7.46621 138.617 10.5948C140.141 13.7235 142.262 18.4829 144.153 24.504C145.054 27.3757 146.637 32.8302 147.677 39.8699C148.208 43.4608 148.823 48.9433 148.746 55.6503C148.674 61.8521 147.995 72.9258 143.676 85.9605C139.241 99.3431 129.364 119.289 108.159 134.951C85.8952 151.395 61.5417 155.464 42.7415 154.335C25.6472 153.307 12.7933 148.131 6.02123 144.932C-1.29174 141.478 -6.76094 137.803 -10.0699 135.398C-16.5536 130.686 -21.0359 126.216 -23.0201 124.175C-25.3895 121.738 -27.1979 119.628 -28.33 118.263L125.601 -9.42833ZM146.356 33.188C145.993 31.514 145.371 28.8564 144.402 25.6396C143.592 22.9523 141.683 16.9491 138.107 9.80103C136.283 6.15272 133.125 0.38023 128.229 -6.0475C123.696 -11.9994 114.674 -22.509 99.978 -31.2905C83.8147 -40.9486 60.3273 -48.5503 32.9964 -44.2071C6.96448 -40.0703 -10.9842 -26.9163 -21.0794 -17.0828C-30.9122 -7.50494 -36.6114 2.00684 -39.5275 7.47286C-42.6814 13.3847 -44.6572 18.5271 -45.837 21.9505C-48.1498 28.6616 -49.2516 34.2114 -49.7697 37.152C-50.8563 43.3198 -51.1599 48.4632 -51.2466 51.8837C-51.3334 55.3041 -51.291 60.4563 -50.5185 66.6712C-50.1503 69.6344 -49.3312 75.2328 -47.3616 82.0526C-46.3569 85.5315 -44.6445 90.7674 -41.7943 96.8315C-39.1591 102.438 -33.9496 112.227 -24.615 122.291C-15.0313 132.624 2.22726 146.671 28.0159 152.122C55.0915 157.846 78.9341 151.445 95.5663 142.618C110.689 134.593 120.232 124.555 125.061 118.84C130.277 112.669 133.723 107.064 135.73 103.513C139.663 96.5553 141.875 90.6567 142.82 88.0139C143.951 84.8505 144.706 82.2277 145.154 80.5744L-47.8828 28.2605C-47.419 26.5492 -46.6489 23.8793 -45.5044 20.6783C-44.546 17.998 -42.3223 12.0714 -38.3781 5.09393C-36.3652 1.53292 -32.9137 -4.0799 -27.6931 -10.2571C-22.8587 -15.9774 -13.3111 -26.0202 1.81606 -34.0477C18.4528 -42.8762 42.2997 -49.278 69.3792 -43.5537C95.1719 -38.1015 112.434 -24.052 122.021 -13.7155C131.359 -3.64772 136.572 6.14589 139.21 11.759C142.063 17.8294 143.779 23.0729 144.786 26.5602C146.76 33.397 147.583 39.0166 147.954 42.0035C148.733 48.2661 148.777 53.4768 148.689 56.9556C148.601 60.4344 148.292 65.6361 147.197 71.8512C146.675 74.8155 145.568 80.3861 143.25 87.1139C142.067 90.5457 140.088 95.6955 136.931 101.613C134.011 107.086 128.309 116.602 118.472 126.184C108.373 136.021 90.421 149.177 64.3851 153.314C37.0501 157.658 13.5586 150.056 -2.60917 140.395C-17.3098 131.611 -26.336 121.097 -30.8741 115.139C-35.7748 108.705 -38.9372 102.924 -40.767 99.2657C-44.3524 92.0972 -46.2728 86.0655 -47.094 83.34C-48.0748 80.0851 -48.7084 77.3796 -49.0848 75.6469L146.356 33.188ZM145.154 80.5744C145.602 78.921 146.274 76.2757 146.895 72.974C147.414 70.2157 148.484 64.0076 148.602 56.0162C148.662 51.9374 148.518 45.3594 147.132 37.3991C145.849 30.0282 142.681 16.5448 133.679 1.9821C123.78 -14.0343 106.432 -31.5983 80.1711 -40.3291C55.1587 -48.6451 33.1689 -45.2344 19.6794 -41.1546C6.54057 -37.1809 -2.89858 -31.3622 -8.00425 -27.8532C-13.5263 -24.058 -17.6482 -20.4032 -20.272 -17.9076C-25.4155 -13.0156 -28.9493 -8.59673 -30.7633 -6.22501C-34.5682 -1.25052 -37.2063 3.17522 -38.8584 6.17144C-40.5106 9.16765 -42.8456 13.7606 -45.022 19.633C-46.0596 22.4328 -47.9107 27.7795 -49.303 34.7401C-50.0132 38.2908 -50.9044 43.7271 -51.167 50.4225C-51.4099 56.613 -51.2933 67.7008 -47.6421 80.9329C-43.8934 94.5182 -35.0426 114.935 -14.6616 131.65C6.73647 149.199 30.8482 154.497 49.6764 154.321C66.7957 154.162 79.8893 149.646 86.8077 146.797C94.2792 143.721 99.9193 140.333 103.336 138.105C110.032 133.74 114.711 129.523 116.767 127.612C119.228 125.325 121.106 123.345 122.265 122.084L-24.9938 -13.2486C-23.794 -14.5541 -21.881 -16.5694 -19.391 -18.8837C-17.3059 -20.8216 -12.6027 -25.0583 -5.88847 -29.4356C-2.46178 -31.6695 3.18671 -35.0623 10.6654 -38.1414C17.591 -40.9928 30.6908 -45.5106 47.8152 -45.6699C66.6485 -45.8452 90.7643 -40.5461 112.166 -22.9945C132.55 -6.27704 141.403 14.1436 145.153 27.7338C148.805 40.9708 148.922 52.0646 148.679 58.2621C148.416 64.9644 147.524 70.4086 146.812 73.968C145.416 80.9459 143.559 86.3131 142.513 89.1355C140.32 95.0529 137.96 99.6987 136.28 102.746C134.599 105.793 131.93 110.269 128.096 115.281C126.267 117.672 122.719 122.107 117.563 127.011C114.933 129.513 110.805 133.173 105.277 136.972C100.166 140.485 90.7212 146.306 77.5775 150.282C64.083 154.363 42.0889 157.774 17.0726 149.456C-9.19175 140.724 -26.543 123.158 -36.4455 107.137C-45.4495 92.5698 -48.6198 79.0804 -49.9043 71.7018C-51.2915 63.7339 -51.4366 57.1464 -51.3761 53.0563C-51.2575 45.0421 -50.1845 38.8036 -49.6583 36.0061C-49.03 32.6652 -48.3465 29.9719 -47.8828 28.2605L145.154 80.5744ZM-40.4275 8.94506C-40.063 8.23118 -39.6222 7.37904 -39.143 6.48281C-38.9629 6.14605 -38.4812 5.24729 -37.8588 4.1492C-37.7575 3.9705 -36.7024 2.09094 -35.2566 -0.185764C-34.8279 -0.860867 -34.0243 -2.11014 -32.9613 -3.64023C-32.364 -4.49998 -29.6736 -8.39874 -25.6693 -12.9166C-24.1358 -14.6467 -18.7446 -20.7154 -10.4423 -26.8791C-6.44224 -29.8487 2.51472 -36.1002 15.4563 -40.7342C27.9251 -45.1989 55.3932 -52.0455 86.9316 -39.1828C120.713 -25.4052 136.56 1.52263 142.894 18.5515C148.723 34.2219 149.155 47.517 149.167 53.1936C149.193 65.1097 147.003 74.233 146.47 76.482C144.962 82.8431 143.131 87.6466 142.775 88.5932C142.09 90.4172 141.491 91.8475 141.169 92.6017C140.51 94.1489 139.953 95.3468 139.719 95.848C139.191 96.9733 138.754 97.8517 138.577 98.206C138.155 99.0498 137.794 99.7425 137.584 100.145C137.114 101.04 136.645 101.906 136.205 102.705L-38.9334 6.13029C-39.0302 6.30587 -39.2357 6.68152 -39.527 7.2368C-39.6486 7.46862 -39.9412 8.02861 -40.3164 8.77926C-40.4703 9.08701 -40.8898 9.9288 -41.4044 11.0277C-41.6329 11.5156 -42.1854 12.7028 -42.8409 14.242C-43.1603 14.9921 -43.7581 16.419 -44.4425 18.2403C-44.7972 19.1841 -46.6278 23.9855 -48.1355 30.3451C-48.6685 32.5934 -50.8584 41.7161 -50.8323 53.6318C-50.8198 59.3082 -50.3878 72.6032 -44.5593 88.2735C-38.2256 105.302 -22.3785 132.23 11.4031 146.008C42.9415 158.87 70.4094 152.024 82.8781 147.559C95.8196 142.925 104.776 136.674 108.776 133.704C117.078 127.541 122.469 121.472 124.002 119.743C128.005 115.226 130.694 111.329 131.29 110.472C132.351 108.944 133.153 107.698 133.579 107.027C135.015 104.766 136.055 102.912 136.135 102.771C136.715 101.747 137.132 100.966 137.224 100.794C137.393 100.479 137.514 100.247 137.576 100.128C137.644 99.9978 137.686 99.9161 137.699 99.8898L-40.4275 8.94506ZM27.5663 -43.3377C29.8465 -43.8292 34.318 -44.7207 40.0162 -45.2229C42.9315 -45.4799 47.3295 -45.7424 52.6741 -45.5378C57.582 -45.35 66.3742 -44.6724 76.8906 -41.6045C86.8237 -38.7067 105.397 -31.6172 121.991 -13.8484C130.656 -4.57012 138.007 6.85485 142.855 20.1434C147.666 33.3335 149.216 46.1695 148.863 57.5298C148.195 79.0164 140.82 94.8081 136.578 102.54C131.965 110.948 127.081 116.963 124.117 120.348C118.249 127.049 112.778 131.458 110.418 133.303C107.504 135.582 104.971 137.303 103.229 138.435C99.77 140.683 96.5655 142.467 93.8304 143.858C91.6005 144.992 86.7975 147.349 80.4186 149.514C78.592 150.133 76.0266 150.946 72.9142 151.738C70.0355 152.471 65.1427 153.587 58.9668 154.255C55.7887 154.599 51.5082 154.909 46.4456 154.82C41.5209 154.734 34.4682 154.25 26.2021 152.387C10.7646 148.907 -21.2892 137.279 -40.169 101.673C-58.3111 67.4584 -50.9199 35.9066 -46.7079 23.2451C-42.2005 9.69595 -35.8247 0.347935 -33.0572 -3.50928C-29.7028 -8.18444 -26.6002 -11.6505 -24.7058 -13.6696C-22.6653 -15.8445 -20.8665 -17.5669 -19.5733 -18.761C-15.1533 -22.8423 -11.2802 -25.6572 -10.1783 -26.4584L107.45 135.293C108.192 134.754 111.828 132.128 116.106 128.178C117.364 127.017 119.133 125.324 121.149 123.175C123.019 121.182 126.103 117.738 129.443 113.082C132.197 109.244 138.564 99.9126 143.067 86.3767C147.274 73.7286 154.666 42.1872 136.528 7.98036C117.652 -27.6176 85.6062 -39.2409 70.1805 -42.718C61.9203 -44.5799 54.8743 -45.0627 49.9573 -45.1491C44.9022 -45.2379 40.6302 -44.9281 37.4612 -44.5854C31.3038 -43.9194 26.4325 -42.8076 23.5781 -42.081C20.4898 -41.2949 17.9513 -40.4903 16.1538 -39.8803C9.89117 -37.7553 5.23954 -35.4657 3.16679 -34.4116C0.588913 -33.1005 -2.45274 -31.4093 -5.77236 -29.2514C-7.44463 -28.1644 -9.91415 -26.4883 -12.7743 -24.2519C-15.08 -22.4491 -20.5072 -18.0796 -26.3442 -11.4142C-29.2929 -8.04713 -34.1643 -2.04855 -38.7687 6.34428C-43.002 14.0608 -50.3725 29.8385 -51.0404 51.3126C-51.3935 62.6667 -49.8444 75.4968 -45.0349 88.6814C-40.1895 101.965 -32.8408 113.384 -24.1802 122.658C-7.5948 140.418 10.965 147.5 20.8796 150.392C31.3776 153.455 40.1462 154.129 45.0248 154.316C50.3402 154.519 54.7034 154.258 57.5777 154.005C63.194 153.509 67.5593 152.635 69.7051 152.173L27.5663 -43.3377ZM-10.1713 -26.4635C-3.90137 -31.0223 1.66025 -33.8674 1.97424 -34.0334C3.64748 -34.9181 5.00963 -35.5776 5.68549 -35.9012C7.11235 -36.5843 8.30862 -37.1173 8.88227 -37.3711C10.1688 -37.9403 11.4066 -38.4635 12.2804 -38.8293C14.1574 -39.6152 16.3074 -40.4902 18.2999 -41.2869C20.2506 -42.0668 22.5655 -42.9776 24.6982 -43.7815C25.659 -44.1438 27.2775 -44.7474 29.0735 -45.3642C29.8575 -45.6335 31.6861 -46.2554 33.969 -46.9233C35.0466 -47.2386 37.297 -47.8813 40.1676 -48.53C40.7339 -48.658 50.2198 -51.0061 62.3212 -51.0039L62.2845 148.996C69.5736 148.997 75.2429 148.183 77.6103 147.815C80.5176 147.364 82.8432 146.869 84.251 146.551C87.037 145.922 89.181 145.307 90.132 145.029C92.1615 144.435 93.6556 143.922 94.0356 143.792C95.0234 143.452 95.5558 143.246 95.2457 143.363C94.8364 143.517 93.8704 143.892 92.5478 144.421C91.2669 144.933 90.151 145.39 89.5165 145.655C89.1345 145.815 89.3051 145.748 89.8063 145.526C89.9872 145.446 90.8613 145.06 92.0481 144.491C92.6039 144.225 93.8666 143.615 95.4623 142.772C96.2679 142.346 97.5926 141.631 99.202 140.689C100.492 139.933 103.65 138.056 107.443 135.298L-10.1713 -26.4635ZM62.3029 -51.0039C40.6311 -51.0039 22.795 -44.0618 10.1117 -36.2966C-1.92402 -28.9278 -9.92304 -20.528 -14.5768 -14.9248C-19.4022 -9.11498 -22.6816 -3.81963 -24.7193 -0.208195C-26.8353 3.54202 -28.3622 6.81814 -29.3989 9.21722C-31.4092 13.8692 -32.6422 17.7129 -33.2749 19.8041C-33.9708 22.1045 -34.4496 23.9949 -34.7386 25.1956C-35.294 27.5033 -35.6277 29.2805 -35.7213 29.78C-35.8312 30.3669 -35.9172 30.8689 -35.8602 30.542C-35.8526 30.4984 -35.7042 29.6379 -35.5215 28.6721C-35.3622 27.8298 -34.9352 25.6017 -34.2518 22.8401C-33.8988 21.4132 -33.3176 19.1902 -32.4709 16.5164C-31.7145 14.1279 -30.1796 9.55634 -27.6089 4.08199C-26.2831 1.25872 -24.2611 -2.71059 -21.3879 -7.21675C-18.6395 -11.5272 -14.0159 -18.0677 -7.03971 -24.9044C-0.168358 -31.6383 11.4914 -41.1149 28.4714 -47.3572C37.1674 -50.5541 46.986 -52.7892 57.656 -53.359C68.3689 -53.931 78.8312 -52.7631 88.6775 -50.1471L37.3225 143.147C47.1609 145.761 57.6153 146.928 68.3203 146.356C78.9824 145.787 88.7932 143.554 97.4813 140.36C114.446 134.123 126.09 124.657 132.946 117.938C139.907 111.117 144.515 104.596 147.248 100.309C150.106 95.8266 152.113 91.8852 153.424 89.0938C155.965 83.683 157.471 79.1906 158.198 76.8942C159.015 74.3124 159.568 72.1944 159.892 70.883C160.518 68.3522 160.889 66.3966 160.993 65.8481C161.12 65.1762 161.213 64.6309 161.166 64.9035C161.16 64.9388 161.12 65.1699 161.076 65.4144C161.03 65.6739 160.955 66.0931 160.861 66.597C160.711 67.3945 160.321 69.4506 159.708 71.9976C159.39 73.3179 158.883 75.3181 158.157 77.7158C157.495 79.9044 156.232 83.833 154.192 88.5549C153.14 90.989 151.598 94.2963 149.466 98.0738C147.413 101.712 144.119 107.031 139.278 112.859C134.608 118.481 126.593 126.896 114.542 134.274C101.843 142.049 83.9907 148.996 62.3029 148.996V-51.0039ZM88.6747 -50.1479C92.5693 -49.1133 99.2943 -47.1021 107.09 -43.3324C111.127 -41.3804 116.366 -38.52 122.057 -34.4334C127.705 -30.3784 134.841 -24.3706 141.706 -15.8541C148.73 -7.14059 155.623 4.41653 159.857 18.8328C164.168 33.5129 164.911 48.4399 162.73 62.4768C160.614 76.0923 156.03 87.1805 151.505 95.4114C147.025 103.558 142.144 109.756 138.26 114.089C130.827 122.382 123.623 127.624 119.884 130.175C115.704 133.027 112.095 135.031 109.862 136.211C105.579 138.473 101.955 139.99 101.162 140.325C100.702 140.519 99.9856 140.817 100.245 140.709C100.259 140.703 100.437 140.629 100.685 140.523C100.932 140.418 101.382 140.226 101.953 139.973C102.699 139.641 105.5 138.398 108.99 136.493C110.779 135.517 113.877 133.757 117.543 131.242C120.628 129.125 127.621 124.12 134.943 116.052C138.769 111.837 144.083 105.266 148.916 96.2931C153.789 87.247 159.138 73.9419 160.528 57.139C161.991 39.4531 158.734 21.4258 150.73 5.03493C143.088 -10.6127 132.797 -21.404 124.38 -28.3214C116.085 -35.1382 108.235 -39.3463 102.787 -41.8579C97.1844 -44.441 92.2866 -46.067 88.7657 -47.0861C81.9562 -49.057 76.3817 -49.8717 73.4803 -50.2338C67.6273 -50.9643 63.0765 -50.9814 61.6479 -50.9828C59.6706 -50.9846 58.1815 -50.9211 57.5317 -50.89L67.0741 148.882C65.8182 148.942 63.8337 149.019 61.4582 149.017C59.6316 149.015 54.7799 148.984 48.7099 148.226C45.7001 147.851 40.0381 147.019 33.1605 145.029C29.6055 144 24.6785 142.363 19.0509 139.769C13.5786 137.246 5.70875 133.026 -2.6018 126.196C-11.0348 119.266 -21.3367 108.461 -28.9852 92.7992C-36.9966 76.3941 -40.2558 58.3519 -38.7915 40.6505C-37.4002 23.832 -32.0461 10.5107 -27.1644 1.44781C-22.3219 -7.54225 -16.9953 -14.1302 -13.1526 -18.3639C-5.7974 -26.4677 1.24251 -31.5118 4.3875 -33.6697C8.11353 -36.2264 11.2843 -38.0293 13.1568 -39.0515C16.8141 -41.0481 19.8269 -42.3912 20.8154 -42.8299C22.0722 -43.3877 23.1264 -43.8252 23.3298 -43.9099C23.8794 -44.1389 23.4714 -43.9688 23.3233 -43.9062C23.1563 -43.8356 20.1741 -42.6019 16.4441 -40.6315C14.4867 -39.5975 11.1323 -37.7419 7.17022 -35.0388C3.65043 -32.6375 -3.37096 -27.545 -10.67 -19.4018C-14.4876 -15.1426 -19.3137 -9.02019 -23.7522 -0.947464C-28.2368 7.20912 -32.7936 18.2232 -34.8981 31.7651C-37.068 45.7284 -36.3289 60.5822 -32.0389 75.1897C-27.8263 89.5335 -20.9717 101.019 -14.0053 109.661C-7.19778 118.106 -0.138206 124.044 5.4129 128.029C11.0078 132.046 16.1288 134.838 20.0262 136.723C27.5432 140.357 33.9005 142.238 37.3253 143.148L88.6747 -50.1479ZM57.5139 -50.8892C58.8616 -50.9538 60.9596 -51.0354 63.4404 -51.0311C64.5135 -51.0293 71.1869 -51.0758 79.3893 -49.7794C81.8498 -49.3906 85.7949 -48.6772 90.543 -47.3618C94.5946 -46.2392 103.357 -43.5787 113.39 -37.8623C118.628 -34.8781 126.015 -30.048 133.618 -22.6531C141.313 -15.1694 150.539 -3.75937 156.858 12.1719C163.479 28.8653 165.478 47.0174 162.668 64.7232C159.988 81.6155 153.5 94.7364 147.656 103.695C136.956 120.099 124.186 129.054 119.437 132.228C113.39 136.268 108.144 138.81 105.22 140.14C99.3307 142.817 94.4592 144.33 92.4232 144.941C84.9569 147.18 78.613 148.093 77.3427 148.283C74.5364 148.704 71.6687 149.032 68.8274 149.262C66.1107 149.482 62.2173 149.711 57.6561 149.654C54.6538 149.617 44.5649 149.474 32.4211 146.341C26.8037 144.892 13.0254 140.936 -1.53857 130.433C-9.3902 124.771 -19.3357 115.866 -27.7088 102.616C-36.4896 88.7206 -42.2044 72.0823 -43.1004 53.987C-44.823 19.1961 -28.5057 -4.55414 -21.3518 -13.557C-13.3048 -23.6836 -5.09083 -29.9871 -1.15635 -32.8366L116.156 129.144C119.571 126.671 127.418 120.701 135.231 110.869C142.151 102.161 158.367 78.6664 156.655 44.0966C155.764 26.1118 150.083 9.57525 141.362 -4.22628C133.048 -17.3825 123.187 -26.2025 115.443 -31.7868C101.095 -42.1339 87.6241 -45.9655 82.3865 -47.3169C75.8842 -48.9945 70.592 -49.6352 67.6758 -49.9166C64.4741 -50.2255 61.8642 -50.3089 60.1317 -50.3304C56.744 -50.3723 54.1499 -50.2037 52.6967 -50.0861C51.1189 -49.9584 49.4789 -49.7743 47.7025 -49.5081C46.8074 -49.374 45.4888 -49.1609 43.8621 -48.8401C42.6962 -48.6102 39.2912 -47.9259 34.9568 -46.6257C33.0389 -46.0504 28.2631 -44.5721 22.4442 -41.9265C19.5556 -40.6132 14.3391 -38.0868 8.31482 -34.0611C5.20579 -31.9835 1.01797 -28.9348 -3.53464 -24.7784C-7.96698 -20.7317 -14.0855 -14.4204 -19.8574 -5.5716C-25.6962 3.37965 -32.1812 16.4938 -34.8606 33.3795C-37.6691 51.0786 -35.6711 69.2242 -29.0523 85.9113C-22.7359 101.836 -13.5144 113.24 -5.82614 120.718C1.77082 128.107 9.15064 132.931 14.3784 135.91C24.3913 141.615 33.1267 144.265 37.1433 145.378C41.8563 146.683 45.7585 147.388 48.1679 147.769C56.1661 149.033 62.5049 148.968 63.0929 148.969C65.0885 148.972 66.5507 148.907 67.0918 148.881L57.5139 -50.8892ZM-1.15371 -32.8385C-1.76506 -32.3958 -3.71382 -30.9777 -6.17168 -28.9133C-7.43105 -27.8555 -9.51516 -26.0516 -11.9572 -23.6379C-14.0739 -21.5458 -18.4773 -17.0303 -23.1014 -10.5127C-26.4123 -5.84611 -37.4989 10.1826 -40.6529 34.2793C-42.4389 47.9246 -41.8087 65.4018 -34.5631 83.8244C-27.2124 102.514 -15.2798 116.497 -2.9954 126.071C8.60902 135.116 19.8955 139.805 27.574 142.297C35.4003 144.837 42.1073 145.94 46.6236 146.475C55.3155 147.505 62.1978 147.138 65.232 146.926C71.4938 146.487 76.2814 145.518 76.9708 145.383C77.7723 145.227 78.3864 145.096 78.6806 145.032C78.8442 144.997 78.9709 144.969 79.0448 144.952C79.0833 144.944 79.1131 144.937 79.1321 144.933C79.151 144.929 79.1624 144.926 79.1634 144.926C79.5124 144.847 76.8492 145.466 74.0687 145.987C71.2476 146.515 65.801 147.444 59.0033 147.789C52.9404 148.096 40.4189 148.277 25.4663 144.1C9.59122 139.666 -14.4661 128.581 -31.7866 102.74C-49.0421 76.9967 -50.2294 50.596 -48.3559 34.1687L150.356 56.8313C152.073 41.7788 151.108 16.3928 134.346 -8.61552C117.518 -33.7205 94.2236 -44.3497 79.2718 -48.5261C65.2426 -52.4448 53.8049 -52.2044 48.8764 -51.9546C43.2133 -51.6675 38.9519 -50.9133 37.2572 -50.596C35.6031 -50.2862 34.0073 -49.9141 35.2554 -50.195C35.4534 -50.2395 36.9204 -50.5735 38.6564 -50.9123C39.6974 -51.1155 44.7807 -52.1322 51.2687 -52.5863C54.4159 -52.8066 61.3939 -53.174 70.1624 -52.1348C74.7171 -51.595 81.4575 -50.4849 89.3125 -47.9357C97.0194 -45.4344 108.329 -40.7337 119.952 -31.6749C132.255 -22.0862 144.201 -8.08669 151.559 10.6228C158.813 29.0651 159.445 46.5647 157.656 60.2353C154.495 84.3827 143.379 100.474 140.015 105.216C135.338 111.808 130.857 116.412 128.636 118.607C126.091 121.123 123.877 123.043 122.46 124.233C119.688 126.561 117.314 128.305 116.154 129.146L-1.15371 -32.8385ZM-48.3548 34.1589C-47.205 24.0854 -44.4281 12.8482 -38.9868 1.43487C-33.4703 -10.1364 -26.2561 -19.7023 -18.5328 -27.3381C-11.1146 -34.6724 -4.05911 -39.3981 0.30555 -42.0611C3.81031 -44.1995 7.93418 -46.3272 6.08916 -45.3463C5.80533 -45.1954 4.32122 -44.4091 2.44271 -43.2985C0.519379 -42.1614 -2.5463 -40.2611 -6.11816 -37.6011C-13.3372 -32.2252 -24.3162 -22.4999 -33.0675 -6.99036C-42.2212 9.23225 -45.752 26.1116 -45.8128 41.0813C-45.8687 54.8439 -43.0164 65.622 -40.9525 71.8692L148.952 9.13076C151.277 16.1683 154.244 27.5925 154.186 41.8935C154.123 57.4015 150.474 74.7116 141.117 91.2939C132.163 107.163 120.896 117.177 113.336 122.807C106.505 127.893 100.33 131.059 99.9761 131.247C97.7143 132.45 101.399 130.546 104.474 128.669C108.409 126.269 115.043 121.844 122.081 114.886C129.424 107.626 136.298 98.5117 141.546 87.5036C146.719 76.6535 149.299 66.0912 150.355 56.8411L-48.3548 34.1589ZM-40.9555 71.8601C-43.7825 63.3003 -49.0816 43.8717 -44.344 19.5699C-38.7331 -9.21137 -21.4526 -32.7424 1.19628 -47.1558C20.2838 -59.3028 38.6701 -62.2332 48.1195 -63.1613C58.5559 -64.1863 67.6447 -63.6162 73.9685 -62.9505L53.0315 135.951C54.6053 136.116 60.0308 136.631 67.6694 135.881C74.3209 135.228 90.7748 132.902 108.574 121.575C129.935 107.981 146.571 85.4852 151.961 57.8391C156.477 34.6723 151.379 16.4791 148.955 9.13989L-40.9555 71.8601ZM85.986 -60.9391C116.77 -53.8351 147.842 -32.3388 162.215 3.95609C168.646 20.196 174.371 47.3018 163.237 77.5453C149.697 114.323 114.855 142.374 71.6061 143.935L64.3939 -55.935C22.5482 -54.425 -11.3423 -27.1494 -24.4476 8.44742C-35.1471 37.5095 -29.5033 63.0279 -23.7355 77.593C-10.6892 110.538 16.7299 128.335 41.014 133.939L85.986 -60.9391ZM71.6518 143.933C65.3133 144.165 53.9784 144.041 40.5345 140.348C26.1097 136.386 7.03067 127.613 -8.92728 109.256C-24.8825 90.903 -30.325 71.4431 -32.2849 59.564C-33.2109 53.9519 -33.4496 49.4826 -33.5333 47.6428C-33.5743 46.7404 -33.5968 45.9448 -33.5925 46.0828C-33.5925 46.0829 -33.5921 46.0959 -33.5916 46.1136C-33.591 46.1321 -33.5901 46.1615 -33.5889 46.198C-33.5866 46.2691 -33.5828 46.3866 -33.5776 46.5327C-33.5675 46.8141 -33.549 47.3016 -33.5186 47.9103C-33.4448 49.3883 -33.1245 56.6783 -30.9938 65.7194C-28.7987 75.0333 -23.3308 92.2851 -8.6205 108.919C-1.13276 117.386 7.80553 124.594 17.8654 130.155C27.7793 135.635 37.5096 138.817 46.1133 140.579C62.4147 143.919 75.6952 142.38 82.4321 141.257C89.6935 140.047 95.2823 138.274 98.2754 137.243C101.526 136.123 104.056 135.056 105.546 134.401C108.402 133.145 110.386 132.092 110.712 131.92L17.2885 -44.9196C18.7116 -45.6715 21.5366 -47.1401 25.0368 -48.6793C26.8485 -49.476 29.6525 -50.652 33.1343 -51.8515C36.359 -52.9624 42.1378 -54.7862 49.5553 -56.0223C56.4483 -57.1711 69.8509 -58.7111 86.2481 -55.3523C94.8998 -53.5801 104.671 -50.3831 114.621 -44.8834C124.716 -39.3029 133.685 -32.0701 141.198 -23.5747C155.958 -6.88384 161.458 10.4417 163.673 19.8421C165.824 28.9697 166.154 36.3587 166.233 37.9444C166.265 38.58 166.284 39.095 166.295 39.4043C166.301 39.5643 166.305 39.6959 166.308 39.7812C166.311 39.8625 166.313 39.9291 166.313 39.9393C166.319 40.1349 166.298 39.3985 166.26 38.5565C166.182 36.8374 165.953 32.4934 165.047 27.0069C163.129 15.3791 157.774 -3.82773 142.011 -21.9591C126.247 -40.0935 107.467 -48.6748 93.5078 -52.5091C80.5297 -56.0738 69.8272 -56.1335 64.3482 -55.9333L71.6518 143.933ZM110.716 131.917C111.499 131.504 115.171 129.568 119.803 126.304C122.202 124.614 126.228 121.614 130.766 117.282C135.001 113.24 142.418 105.467 148.906 93.7713C155.804 81.3374 162.646 62.5201 161.199 39.2992C159.736 15.8058 150.406 -2.35885 141.496 -14.2465C133.32 -25.1556 124.795 -31.8048 120.83 -34.7139C116.598 -37.8188 113.058 -39.8679 112.411 -40.2461C111.974 -40.5017 111.535 -40.7521 111.789 -40.6065C111.861 -40.5657 112.438 -40.2361 113.137 -39.8227C114.465 -39.0381 117.592 -37.1614 121.327 -34.4493C127.993 -29.6086 143.812 -17.0397 154.127 5.73565C159.499 17.5966 162.627 30.6155 163.064 44.113C163.493 57.3406 161.279 68.9723 158.25 78.3945C155.278 87.6399 151.437 95.0504 148.11 100.493C144.763 105.968 141.384 110.351 138.616 113.62L-14.0104 -15.6281C-18.0026 -10.9138 -26.6957 0.20706 -32.1553 17.1921C-35.0788 26.2873 -37.2507 37.6256 -36.8309 50.5878C-36.4023 63.82 -33.3334 76.6018 -28.0585 88.2485C-17.9375 110.595 -2.46386 122.827 3.80546 127.38C7.3419 129.948 10.2586 131.693 11.3752 132.353C11.6972 132.543 11.9591 132.696 12.1266 132.792C12.2867 132.885 12.4072 132.954 12.4081 132.954C12.5584 133.04 12.0169 132.732 11.4804 132.418C10.6349 131.924 6.90932 129.76 2.51684 126.538C-1.6088 123.51 -10.2697 116.74 -18.5437 105.7C-27.5509 93.6822 -36.9412 75.3781 -38.4139 51.7312C-39.8697 28.3567 -32.987 9.37165 -25.9854 -3.24949C-19.3934 -15.1322 -11.8096 -23.1118 -7.33261 -27.3855C-2.55184 -31.9492 1.79264 -35.2053 4.59843 -37.1825C10.043 -41.0191 14.8811 -43.6477 17.2841 -44.9174L110.716 131.917ZM138.622 113.613C132.803 120.486 127.296 125.107 124.686 127.215C121.618 129.696 118.928 131.585 117.141 132.794C113.614 135.18 110.478 137.014 108.641 138.063C104.875 140.213 101.111 142.147 99.0462 143.202C95.9352 144.793 95.4169 145.038 94.1963 145.675C93.7709 145.897 94.3273 145.616 95.3471 145.035C95.868 144.739 97.0487 144.059 98.5848 143.088C99.7005 142.382 103.208 140.149 107.425 136.748L-18.1534 -18.9126C-15.6978 -20.8937 -13.5755 -22.4172 -12.1371 -23.4148C-10.6327 -24.4582 -9.31757 -25.3121 -8.31486 -25.9462C-6.36019 -27.1824 -4.67906 -28.1591 -3.58768 -28.7803C-2.42477 -29.4422 -1.37954 -30.0134 -0.560593 -30.4542C0.277733 -30.9054 1.06061 -31.3176 1.73228 -31.6678C3.03394 -32.3465 4.33038 -33.0067 5.30158 -33.5003C6.42701 -34.0723 7.15934 -34.4426 8.00423 -34.8746C8.7916 -35.2771 9.31493 -35.5489 9.66739 -35.7354C10.0591 -35.9427 9.93454 -35.8836 9.47533 -35.6214C9.22531 -35.4787 8.74133 -35.199 8.08701 -34.7997C7.46318 -34.4191 6.40617 -33.7605 5.07441 -32.8595C4.39089 -32.3971 3.53841 -31.8057 2.56224 -31.0935C1.59776 -30.3899 0.371902 -29.4661 -1.02684 -28.3357C-2.40027 -27.2257 -4.20682 -25.7018 -6.25128 -23.7874C-8.23647 -21.9285 -10.9937 -19.1912 -14.0166 -15.6208L138.622 113.613ZM107.435 136.739C93.8778 147.68 68.0388 162.832 33.0117 159.983C-0.64904 157.244 -22.1646 139.379 -30.9276 130.932C-35.6726 126.358 -39.0778 122.228 -40.8808 119.963C-41.8481 118.748 -42.6296 117.718 -43.1104 117.078C-43.3568 116.75 -43.567 116.467 -43.7023 116.285C-43.7701 116.194 -43.8336 116.108 -43.8738 116.054C-43.921 115.99 -43.9429 115.961 -43.9621 115.935C-46.4262 112.616 -39.4631 123.037 -28.2019 132.055L96.8077 -24.0625C104.332 -18.0378 109.441 -12.2096 111.874 -9.31538C114.379 -6.33429 116.343 -3.65844 116.615 -3.29252C119.065 0.00848961 114.38 -6.78994 107.876 -13.0596C100.669 -20.0066 80.8756 -36.7845 49.2272 -39.359C16.2126 -42.0446 -7.32371 -27.6519 -18.1639 -18.9042L107.435 136.739ZM-28.2032 132.054C-35.367 126.317 -41.7724 119.646 -45.356 115.693C-47.4364 113.399 -51.1822 109.154 -54.9929 103.863C-56.7093 101.48 -60.4413 96.1509 -64.0419 88.9505C-65.8405 85.3535 -68.8247 78.8976 -71.1693 70.415C-73.1755 63.1566 -77.1309 46.0652 -73.0312 24.6435L123.404 62.2368C127.469 40.9946 123.536 24.1274 121.603 17.1326C119.331 8.91367 116.47 2.76088 114.84 -0.498928C111.577 -7.02497 108.362 -11.5428 107.297 -13.0216C104.789 -16.5038 102.883 -18.5653 102.811 -18.6443C102.373 -19.1268 102.068 -19.4383 101.745 -19.7542C101.56 -19.9352 101.171 -20.3116 100.581 -20.8497C100.148 -21.2442 98.7947 -22.4714 96.809 -24.0615L-28.2032 132.054ZM-73.0374 24.6756C-73.2806 25.9486 -73.6342 27.9388 -73.9529 30.4095C-74.2296 32.5549 -74.7324 36.9434 -74.7609 42.5395C-74.7755 45.3974 -74.6777 49.7794 -74.0314 55.0874C-73.4452 59.9017 -72.0254 68.834 -67.921 79.3442C-64.091 89.1516 -54.8029 108.361 -33.709 123.745C-22.6581 131.805 -9.54617 137.884 5.01137 140.886C19.368 143.847 32.6208 143.307 43.6999 141.221C64.4567 137.314 78.6262 127.865 85.1127 123.009C92.3684 117.577 97.3907 112.264 100.185 109.094C105.742 102.788 109.248 97.1726 110.75 94.6809C114.094 89.135 116.206 84.3912 117.359 81.6171C118.605 78.6173 120.154 74.4694 121.518 69.3819C122.187 66.8852 123.229 62.6282 123.971 57.239C124.351 54.4829 124.775 50.5622 124.88 45.8359C124.978 41.3981 124.853 34.1073 123.205 25.2856C121.669 17.0712 117.817 2.01191 106.831 -13.6785C101.059 -21.9224 93.1768 -30.5161 82.7079 -37.9288C72.1006 -45.4394 60.2701 -50.713 47.9412 -53.6284C23.7086 -59.3587 3.56609 -54.7438 -7.83504 -50.7872C-19.3513 -46.7906 -27.6619 -41.5329 -32.2026 -38.3678C-41.1335 -32.1427 -46.9377 -25.8736 -49.0184 -23.5788C-51.7489 -20.5673 -53.7407 -17.9933 -54.8669 -16.4888L105.24 103.369C104.018 105 101.946 107.674 99.147 110.76C96.9981 113.13 91.1382 119.451 82.1628 125.707C77.5997 128.888 69.2696 134.156 57.7364 138.158C46.3183 142.121 26.1613 146.737 1.91674 141.004C-10.4182 138.087 -22.2541 132.811 -32.8662 125.297C-43.34 117.881 -51.226 109.283 -57.0019 101.034C-67.9955 85.3324 -71.8533 70.2588 -73.3917 62.0268C-75.0437 53.1876 -75.1698 45.8761 -75.0712 41.4148C-74.9662 36.6649 -74.5396 32.718 -74.1559 29.9334C-73.4053 24.4871 -72.3496 20.1639 -71.6611 17.5955C-70.2588 12.3646 -68.6514 8.05141 -67.3398 4.89404C-66.122 1.96236 -63.9368 -2.93128 -60.525 -8.5898C-58.9887 -11.1378 -55.4501 -16.8 -49.8628 -23.14C-47.054 -26.3273 -42.0173 -31.6536 -34.7483 -37.0956C-28.2483 -41.9617 -14.0663 -51.4174 6.7019 -55.3268C17.7867 -57.4134 31.045 -57.9536 45.4068 -54.9918C59.9695 -51.9886 73.0863 -45.9073 84.1418 -37.8443C105.245 -22.4534 114.541 -3.23276 118.377 6.59109C122.488 17.1177 123.913 26.0715 124.502 30.9128C125.152 36.2478 125.251 40.6624 125.236 43.5589C125.208 49.2323 124.697 53.7221 124.404 55.9966C124.068 58.5964 123.689 60.7434 123.41 62.2047L-73.0374 24.6756ZM-54.8396 -16.5253C-54.6669 -16.7558 -54.4129 -17.093 -54.1046 -17.4947C-53.8423 -17.8364 -53.2926 -18.5491 -52.5802 -19.4322C-52.2228 -19.8752 -51.625 -20.609 -50.866 -21.5002C-50.4768 -21.9571 -49.9462 -22.5718 -49.3055 -23.289C-48.6967 -23.9703 -47.7525 -25.0088 -46.56 -26.24C-45.9488 -26.871 -45.1617 -27.667 -44.2272 -28.5701C-43.3164 -29.4505 -42.0522 -30.6392 -40.4986 -31.9956C-39.0245 -33.2826 -36.6973 -35.2405 -33.6927 -37.434C-32.1509 -38.5595 -30.1562 -39.9484 -27.7655 -41.444C-25.4246 -42.9084 -22.2062 -44.7881 -18.2384 -46.7054C-14.3947 -48.5628 -8.68813 -51.0211 -1.48067 -53.0222C1.56065 -53.8153 8.18488 -55.1963 11.7668 -55.7508C15.9478 -56.2312 24.9784 -56.6663 29.8123 -56.5636C35.3374 -56.1588 46.9238 -54.2944 52.9326 -52.7648C59.4107 -50.6586 72.1927 -44.975 78.4129 -41.3776C84.4756 -37.2571 95.4672 -27.8881 100.358 -22.7114C104.611 -17.5365 111.712 -6.94502 114.599 -1.61697C116.892 3.26239 120.46 12.6905 121.793 17.1902C122.779 21.1492 124.181 28.6103 124.637 32.0936C125.579 40.4192 125.301 47.3554 124.892 52.0359C124.469 56.8757 123.76 60.9074 123.147 63.8351C122.519 66.8312 121.843 69.3717 121.271 71.3342C120.156 75.1562 119.02 78.1956 118.265 80.1042C117.467 82.1245 116.731 83.7926 116.181 84.992C115.11 87.3297 114.159 89.164 113.6 90.2166C112.481 92.326 111.524 93.9425 111.097 94.6562C110.169 96.2095 109.398 97.4004 109.105 97.8512C108.403 98.932 107.815 99.7902 107.479 100.276C107.11 100.811 106.613 101.519 106.016 102.339C105.725 102.739 105.226 103.418 104.592 104.247C104.27 104.669 103.792 105.286 103.201 106.024C102.681 106.673 101.665 107.927 100.324 109.456C99.6418 110.234 98.5913 111.408 97.2608 112.793C96.5791 113.502 95.7052 114.391 94.6673 115.395C93.6536 116.376 92.2591 117.683 90.5456 119.165C88.9101 120.579 86.381 122.675 83.1215 124.994C81.4502 126.184 79.3197 127.623 76.781 129.154C74.2838 130.659 70.9392 132.528 66.8576 134.402C62.8653 136.234 57.2146 138.512 50.1997 140.328C43.2895 142.116 33.3335 143.906 21.3054 143.444C8.90482 142.968 -6.14639 140.051 -21.4137 132.02C-26.9337 128.889 -37.317 121.613 -42.1393 117.499C-46.5207 113.264 -54.2514 104.319 -57.6058 99.6681C-65.7906 87.6062 -69.8981 75.9039 -72.0293 67.1352C-74.1604 58.3671 -74.7343 50.8268 -74.8391 45.4753C-74.9463 40.003 -74.5863 35.3796 -74.1875 31.9544C-73.7811 28.4628 -73.2472 25.4831 -72.7648 23.1626C-71.8255 18.6443 -70.7467 15.0367 -70.0107 12.7597C-69.2331 10.3541 -68.4896 8.36676 -67.9282 6.93833C-66.8345 4.15544 -65.8314 1.97387 -65.2419 0.728582C-64.5992 -0.629314 -64.0348 -1.742 -63.636 -2.51142C-62.8566 -4.01495 -62.1953 -5.19611 -61.8279 -5.84376C-61.4209 -6.56125 -61.0744 -7.15132 -60.8338 -7.55664C-60.3625 -8.35062 -59.9723 -8.98305 -59.7522 -9.33718L110.125 96.2175C110.322 95.8996 110.695 95.2961 111.153 94.5248C111.387 94.1308 111.727 93.5505 112.13 92.8413C112.492 92.2019 113.15 91.0276 113.927 89.5295C114.324 88.7629 114.887 87.6526 115.529 86.2968C116.117 85.0536 117.12 82.8738 118.213 80.0923C118.774 78.6646 119.517 76.678 120.295 74.273C121.03 71.9965 122.109 68.3894 123.048 63.8716C123.531 61.5512 124.065 58.5717 124.471 55.0803C124.87 51.6553 125.23 47.032 125.123 41.5599C125.018 36.2085 124.444 28.6684 122.313 19.9004C120.182 11.1317 116.074 -0.570415 107.889 -12.6322C104.535 -17.2827 96.8043 -26.2279 92.4229 -30.4635C87.6007 -34.5774 77.2174 -41.8526 71.6975 -44.9838C56.4302 -53.0151 41.3791 -55.9322 28.9786 -56.4083C16.9506 -56.8701 6.99464 -55.0802 0.0846481 -53.2917C-6.93022 -51.476 -12.5808 -49.1981 -16.5729 -47.3657C-20.6544 -45.4923 -23.9988 -43.6236 -26.4958 -42.1179C-29.0344 -40.5871 -31.1647 -39.1483 -32.8359 -37.9591C-36.095 -35.64 -38.6237 -33.544 -40.2588 -32.1304C-41.9718 -30.6494 -43.3658 -29.3421 -44.379 -28.3621C-45.4164 -27.3587 -46.2897 -26.4704 -46.9709 -25.7613C-48.3001 -24.3776 -49.3493 -23.2051 -50.0303 -22.4287C-51.3678 -20.9039 -52.3807 -19.6539 -52.8967 -19.0098C-53.4834 -18.2773 -53.9565 -17.6653 -54.2737 -17.2505C-54.8984 -16.4337 -55.3857 -15.77 -55.664 -15.3877C-56.2362 -14.6019 -56.7043 -13.9344 -57.0462 -13.4397C-57.3548 -12.9933 -57.9159 -12.174 -58.5983 -11.1238C-58.8814 -10.6883 -59.6438 -9.51055 -60.5663 -7.96744C-60.9899 -7.25884 -61.9443 -5.64668 -63.062 -3.54068C-63.6197 -2.48982 -64.5698 -0.657055 -65.6404 1.67938C-66.1896 2.87814 -66.9254 4.54575 -67.724 6.56553C-68.4785 8.47359 -69.6144 11.5126 -70.7291 15.3341C-71.3014 17.2964 -71.9774 19.8368 -72.6049 22.8326C-73.2182 25.7602 -73.9268 29.7917 -74.3496 34.6315C-74.7585 39.3118 -75.037 46.2479 -74.0953 54.5734C-73.6392 58.0566 -72.2372 65.5176 -71.2512 69.4766C-69.9183 73.9763 -66.3495 83.4043 -64.0569 88.2837C-61.1703 93.6117 -54.0692 104.203 -49.8163 109.378C-44.9253 114.555 -33.9338 123.924 -27.871 128.044C-21.6509 131.641 -8.8689 137.325 -2.3909 139.431C3.61794 140.961 15.2043 142.825 20.7294 143.23C25.5632 143.333 34.5937 142.898 38.7747 142.417C42.3566 141.863 48.9807 140.482 52.022 139.689C59.2294 137.688 64.9359 135.229 68.7794 133.372C72.747 131.455 75.9653 129.575 78.306 128.111C80.6966 126.615 82.6911 125.227 84.2327 124.101C87.237 121.908 89.5637 119.951 91.0373 118.664C92.5905 117.308 93.8541 116.12 94.7644 115.24C95.6983 114.337 96.4848 113.542 97.0953 112.912C98.2864 111.682 99.229 110.645 99.836 109.966C100.475 109.251 101.003 108.638 101.39 108.184C102.145 107.298 102.737 106.571 103.088 106.137C103.787 105.27 104.319 104.579 104.559 104.267C104.845 103.894 105.072 103.593 105.212 103.406L-54.8396 -16.5253ZM-59.7047 -9.41368C-57.8907 -12.3272 -54.3558 -17.6993 -48.9602 -23.6668C-46.1701 -26.7526 -42.0904 -30.882 -36.6573 -35.1623C-31.3374 -39.3534 -23.2225 -44.8764 -12.333 -49.2912C-1.14919 -53.8252 13.9141 -57.544 31.6055 -56.4168C49.8213 -55.2563 66.3558 -49.2231 79.986 -40.3098C92.9656 -31.822 101.603 -21.8889 107.038 -14.1659C112.47 -6.4483 115.845 0.669907 117.907 5.74426C121.871 15.495 123.398 23.7191 124.035 27.7206C124.766 32.3167 125.039 36.1076 125.159 38.5224C125.395 43.2797 125.239 47.0645 125.137 48.9639C124.923 52.9703 124.511 56.1653 124.279 57.8195C124.01 59.7378 123.677 61.7349 123.271 63.7811C123.067 64.81 122.766 66.2453 122.356 67.9409C122.059 69.1721 121.214 72.6135 119.755 76.8831C119.113 78.7617 117.452 83.4977 114.599 89.2179C113.187 92.048 110.443 97.2388 106.138 103.191C103.916 106.263 100.637 110.434 96.1851 114.932C91.8582 119.305 85.055 125.381 75.5691 130.926C65.9373 136.556 51.9094 142.565 34.1781 144.181C15.6072 145.873 -2.68141 142.315 -18.7903 134.446C-34.0665 126.984 -44.5622 117.069 -51.2061 109.226C-57.8126 101.427 -62.0048 94.0491 -64.5504 88.8987C-69.4367 79.0128 -71.5609 70.5385 -72.4434 66.6361C-73.4789 62.057 -73.9921 58.2769 -74.2606 55.9301C-74.7904 51.2988 -74.8779 47.6157 -74.9016 45.8845C-74.9294 43.8486 -74.89 42.1771 -74.8533 41.0855C-74.7808 38.9316 -74.6531 37.1975 -74.5775 36.2525C-74.4206 34.2936 -74.2338 32.6444 -74.1218 31.6972L124.494 55.1831C124.522 54.9474 124.656 53.8151 124.784 52.218C124.845 51.4539 124.965 49.8619 125.033 47.8162C125.068 46.7788 125.107 45.153 125.08 43.155C125.057 41.4617 124.971 37.8086 124.444 33.2001C124.176 30.8647 123.665 27.0943 122.631 22.523C121.75 18.6285 119.628 10.1603 114.744 0.278934C112.2 -4.86918 108.009 -12.2448 101.403 -20.0427C94.7606 -27.8848 84.2661 -37.7987 68.9913 -45.26C52.8837 -53.1281 34.5965 -56.686 16.027 -54.9938C-1.70289 -53.378 -15.7293 -47.3692 -25.3596 -41.74C-34.844 -36.1961 -41.6456 -30.1211 -45.9709 -25.7505C-50.4213 -21.2535 -53.6989 -17.0852 -55.9193 -14.0151C-60.2208 -8.06763 -62.9608 -2.88296 -64.3689 -0.0602684C-67.215 5.64506 -68.8679 10.3608 -69.5013 12.2145C-70.9432 16.4343 -71.7688 19.8067 -72.0463 20.9552C-72.4361 22.568 -72.7159 23.9065 -72.8992 24.8296C-73.2635 26.6642 -73.5546 28.4137 -73.789 30.088C-73.9865 31.4982 -74.3721 34.4528 -74.5762 38.2621C-74.6727 40.0629 -74.8275 43.76 -74.5948 48.4453C-74.4766 50.8242 -74.2069 54.583 -73.4799 59.1517C-72.8475 63.1258 -71.3261 71.327 -67.3696 81.06C-65.3105 86.1255 -61.9402 93.2361 -56.5125 100.948C-51.0812 108.664 -42.4489 118.593 -29.4745 127.077C-15.8494 135.987 0.679527 142.018 18.8894 143.178C36.5749 144.305 51.6318 140.588 62.8088 136.056C73.6915 131.644 81.7992 126.126 87.1114 121.941C92.5368 117.666 96.6084 113.545 99.3899 110.468C104.768 104.52 108.284 99.1738 110.077 96.294L-59.7047 -9.41368ZM12.8546 142.677C7.06499 141.957 -10.2166 139.489 -28.6386 127.761C-38.7986 121.292 -51.8027 110.39 -61.6963 93.1456C-72.1161 74.9839 -76.2133 54.7001 -74.6364 35.2669C-71.8199 0.557705 -52.4657 -20.6306 -45.4305 -27.6236C-36.2367 -36.762 -26.6645 -42.743 -18.7006 -46.6266C-11.139 -50.3142 0.961678 -55.0411 16.5732 -56.3934C27.9395 -57.378 69.6751 -58.716 101.293 -21.6991C134.901 17.6484 124.449 61.2232 120.662 73.2803C115.982 88.1789 108.903 98.3239 106.241 102.007L-55.8687 -15.1268C-58.4513 -11.5525 -65.4861 -1.49099 -70.1463 13.3451C-73.914 25.3397 -84.3711 68.873 -50.7841 108.196C-19.1879 145.188 22.5106 143.841 33.8329 142.86C49.4004 141.512 61.4503 136.801 68.9634 133.137C76.8788 129.277 86.4049 123.327 95.5637 114.224C102.564 107.265 121.895 86.115 124.708 51.4425C126.284 32.0276 122.19 11.7619 111.78 -6.38255C101.897 -23.6097 88.9087 -34.4955 78.7722 -40.9489C60.3973 -52.6476 43.1923 -55.0915 37.518 -55.7966L12.8546 142.677ZM106.241 102.007C107.355 100.465 109.069 98.0024 110.961 94.8393C112.571 92.1481 115.933 86.2828 118.902 78.259C120.427 74.1372 122.521 67.6611 123.84 59.4699C125.098 51.6588 126.295 38.405 122.862 22.4938C119.155 5.30888 109.977 -14.6712 91.7812 -30.9458C74.1013 -46.7588 54.6714 -53.0281 40.3866 -55.2344C26.6768 -57.3518 15.4194 -56.1664 8.70068 -55.0471C1.61009 -53.8659 -4.0743 -52.1295 -7.85677 -50.8071C-15.2426 -48.2248 -20.7716 -45.3066 -23.7065 -43.662C-29.8192 -40.2367 -34.451 -36.7903 -37.4509 -34.3756C-40.4508 -31.9608 -44.8072 -28.1722 -49.4594 -22.9324C-51.693 -20.4167 -55.7251 -15.6388 -59.8256 -8.97513C-61.9256 -5.56251 -64.8363 -0.380333 -67.5051 6.2942C-70.0339 12.6186 -73.5971 23.3629 -74.4575 37.2085C-75.354 51.6349 -73.3804 71.9556 -61.7097 92.6057C-49.6982 113.858 -32.1402 127.093 -16.1442 134.386C-1.33371 141.139 11.8699 142.801 19.7694 143.241C28.0533 143.702 34.8273 143.04 39.1797 142.431C47.6525 141.244 54.1007 139.213 57.0737 138.215C60.568 137.043 63.3399 135.895 65.0844 135.136L-14.7118 -48.2558C-12.9057 -49.0416 -10.0823 -50.2096 -6.54554 -51.3963C-3.53014 -52.408 2.95156 -54.4479 11.4501 -55.6377C15.8154 -56.2489 22.6003 -56.9117 30.8933 -56.4497C38.8018 -56.0091 52.0128 -54.3459 66.8289 -47.5904C82.8305 -40.2944 100.393 -27.0567 112.407 -5.79944C124.08 14.855 126.054 35.181 125.157 49.6134C124.297 63.465 120.732 74.216 118.2 80.5478C115.528 87.2297 112.613 92.4198 110.508 95.8409C106.397 102.521 102.351 107.318 100.099 109.854C95.4115 115.134 91.0075 118.966 87.9571 121.422C84.9067 123.877 80.2216 127.361 74.0623 130.812C71.1041 132.47 65.5535 135.398 58.1489 137.987C54.357 139.313 48.664 141.052 41.5656 142.234C34.8391 143.355 23.5747 144.54 9.859 142.422C-4.4318 140.215 -23.8666 133.943 -41.5503 118.127C-59.7501 101.849 -68.9302 81.8644 -72.6392 64.6734C-76.0734 48.7561 -74.8758 35.4948 -73.6166 27.6748C-72.2961 19.4746 -70.1991 12.9879 -68.6695 8.85397C-65.6915 0.805819 -62.3139 -5.09041 -60.6813 -7.82005C-58.7664 -11.0217 -57.0223 -13.5303 -55.8687 -15.1268L106.241 102.007ZM65.1278 135.117C66.8714 134.358 69.5994 133.111 72.8374 131.352C75.5921 129.856 81.4712 126.521 88.111 121.128C91.5218 118.358 96.6214 113.851 101.928 107.474C106.987 101.392 114.768 90.5945 119.917 75.15C125.478 58.4683 127.753 36.5918 120.373 13.3125C113.202 -9.30545 99.6634 -24.594 88.4902 -33.763C77.7665 -42.5631 67.4732 -47.2718 61.1219 -49.7272C54.4185 -52.3188 48.6429 -53.717 44.7151 -54.5038C37.0454 -56.04 30.8027 -56.3425 27.4406 -56.4208C20.4378 -56.5841 14.6985 -55.9758 10.8885 -55.4248C7.0785 -54.8738 1.40206 -53.8311 -5.26756 -51.6906C-8.4697 -50.6629 -14.371 -48.6042 -21.2912 -44.958C-24.8351 -43.0907 -29.9779 -40.1134 -35.6724 -35.7289C-41.0679 -31.5746 -49.6055 -24.1427 -57.3966 -12.665C-65.5143 -0.706203 -74.1668 17.7917 -74.6358 41.5145C-75.1184 65.9309 -66.7382 86.2664 -56.679 100.689C-47.3659 114.042 -36.8442 122.193 -30.2692 126.592C-23.3737 131.205 -17.2061 134.082 -13.1503 135.772C-5.25468 139.063 1.32847 140.596 4.3942 141.25C7.99778 142.02 10.9672 142.442 12.8546 142.677L37.518 -55.7966C39.4721 -55.5537 42.496 -55.1221 46.1434 -54.3436C49.2529 -53.6798 55.8692 -52.137 63.7888 -48.8364C67.8566 -47.141 74.0338 -44.2587 80.9369 -39.6406C87.5195 -35.237 98.0467 -27.0809 107.363 -13.7228C117.426 0.705042 125.808 21.0456 125.325 45.4671C124.856 69.195 116.202 87.6979 108.081 99.6617C100.286 111.144 91.7437 118.581 86.342 122.74C80.6412 127.13 75.4908 130.112 71.938 131.984C65.0002 135.639 59.0767 137.707 55.8491 138.742C49.1287 140.899 43.3887 141.956 39.5145 142.516C35.6404 143.076 29.8363 143.689 22.7801 143.525C19.3913 143.446 13.1247 143.141 5.43555 141.601C1.49802 140.812 -4.28622 139.412 -10.997 136.817C-17.3557 134.359 -27.6552 129.647 -38.3834 120.843C-49.5613 111.67 -63.1032 96.3775 -70.2754 73.7547C-77.6573 50.4706 -75.3817 28.5887 -69.8188 11.9012C-64.6684 -3.54921 -56.8833 -14.3536 -51.818 -20.4417C-46.5061 -26.8263 -41.3985 -31.3407 -37.9777 -34.119C-31.3177 -39.5281 -25.4096 -42.8822 -22.6155 -44.3997C-19.3382 -46.1797 -16.5604 -47.4504 -14.7552 -48.2369L65.1278 135.117ZM12.8546 142.677C14.7419 142.911 17.7245 143.228 21.4067 143.365C24.5394 143.48 31.2975 143.605 39.7584 142.347C44.1045 141.701 50.7888 140.421 58.6036 137.636C66.0552 134.98 78.2518 129.652 90.5499 118.985C103.833 107.463 116.936 89.7967 122.444 66.0047C127.795 42.8887 123.933 22.8357 118.989 9.25373C114.244 -3.78174 107.785 -13.0772 103.571 -18.4257C99.1227 -24.0706 94.865 -28.2161 91.8858 -30.894C86.0685 -36.123 80.8506 -39.5635 77.9974 -41.3436C72.0545 -45.0515 66.8059 -47.4518 63.2466 -48.9185C59.6873 -50.3853 54.2715 -52.3797 47.4417 -53.9354C44.1627 -54.6823 38.0358 -55.9169 30.2234 -56.3046C26.2225 -56.5031 20.2804 -56.561 13.1466 -55.6889C6.38741 -54.8626 -4.74529 -52.8165 -17.2966 -46.9087C-30.3741 -40.7533 -47.243 -29.2433 -59.7314 -9.06831C-72.5849 11.6966 -75.7329 33.4647 -74.4241 51C-73.2123 67.2349 -68.3105 79.6089 -64.8932 86.7434C-61.3095 94.2257 -57.4679 99.8436 -54.8389 103.364C-49.7209 110.218 -44.837 114.891 -42.5322 117.016C-39.8231 119.513 -37.4832 121.39 -35.9786 122.553L86.3512 -35.6728C87.909 -34.4684 90.2912 -32.5565 93.0333 -30.0285C95.371 -27.8733 100.278 -23.1752 105.412 -16.3005C108.049 -12.7695 111.896 -7.1423 115.484 0.348167C118.905 7.49089 123.809 19.8721 125.021 36.1131C126.33 53.6547 123.181 75.428 110.325 96.1972C97.834 116.376 80.9609 127.89 67.878 134.048C55.3213 139.958 44.1818 142.006 37.4148 142.833C30.2731 143.706 24.322 143.649 20.3112 143.45C12.4789 143.061 6.32838 141.823 3.02332 141.07C-3.85851 139.502 -9.33598 137.487 -12.9552 135.996C-16.5744 134.504 -21.8812 132.075 -27.8694 128.339C-30.7453 126.545 -35.9826 123.09 -41.8147 117.848C-44.8013 115.163 -49.0652 111.012 -53.5183 105.36C-57.7378 100.006 -64.2003 90.7042 -68.9473 77.6631C-73.8932 64.0755 -77.7557 44.0172 -72.403 20.8962C-66.8939 -2.90068 -53.7886 -20.5711 -40.5007 -32.0972C-28.1979 -42.7688 -15.9947 -48.1003 -8.53453 -50.7589C-0.711136 -53.5469 5.98372 -54.8297 10.3427 -55.4779C18.8293 -56.7398 25.6219 -56.6163 28.7993 -56.4988C32.5264 -56.361 35.5639 -56.0394 37.518 -55.7966L12.8546 142.677ZM40.8006 142.214C40.7429 142.223 40.6695 142.234 40.5898 142.247C40.5495 142.253 40.495 142.262 40.432 142.271C40.3761 142.28 40.2728 142.296 40.145 142.316C40.0802 142.325 39.981 142.341 39.8604 142.359C39.7985 142.368 39.7194 142.38 39.6274 142.393C39.5381 142.406 39.4139 142.425 39.2657 142.446C39.127 142.466 38.9018 142.498 38.6239 142.536C38.4814 142.555 38.2927 142.581 38.0705 142.61C37.8571 142.638 37.5434 142.679 37.1635 142.725C37.0006 142.745 36.6444 142.787 36.4511 142.809C36.2165 142.836 35.6931 142.893 35.4042 142.924C35.0374 142.961 34.1928 143.042 33.715 143.085C33.0624 143.14 31.4726 143.255 30.5351 143.311C29.0658 143.38 24.9943 143.461 22.393 143.426C16.555 143.099 -10.5041 136.926 -30.0408 126.916C-73.4546 60.6777 -39.2427 -33.1299 -19.982 -45.8246C-14.5352 -48.3695 -6.44111 -51.4504 -3.91474 -52.2517C-2.48385 -52.6731 -0.128922 -53.3166 0.791275 -53.5514C1.43304 -53.7096 2.54675 -53.9736 3.0182 -54.0813C3.38053 -54.1624 4.02878 -54.3041 4.31461 -54.3651C4.54699 -54.4141 4.97098 -54.502 5.1626 -54.541C5.3242 -54.5737 5.6231 -54.6334 5.76045 -54.6605C5.8793 -54.6838 6.10136 -54.7269 6.20463 -54.7468C6.45397 -54.7946 6.6647 -54.8341 6.82059 -54.863C6.98021 -54.8926 7.11825 -54.9178 7.22763 -54.9376C7.33846 -54.9577 7.43604 -54.9752 7.51681 -54.9896C7.67499 -55.0177 7.80713 -55.0409 7.90089 -55.0572C8.08395 -55.0891 8.23108 -55.1142 8.31472 -55.1284C8.40644 -55.144 8.48302 -55.1568 8.53677 -55.1658C8.642 -55.1835 8.72773 -55.1977 8.77795 -55.206C8.83302 -55.2151 8.88041 -55.2229 8.91595 -55.2287C8.98602 -55.2402 9.04762 -55.2502 9.09254 -55.2575C9.18337 -55.2723 9.27189 -55.2866 9.3478 -55.2988C9.41923 -55.3104 9.5181 -55.3262 9.62394 -55.3431C9.66866 -55.3503 9.7716 -55.3666 9.89691 -55.3863C9.93262 -55.3919 9.97951 -55.3992 10.0343 -55.4078C10.0866 -55.4159 10.1648 -55.428 10.2595 -55.4426C10.3421 -55.4552 10.5069 -55.4804 10.7147 -55.5113C10.8202 -55.5269 10.9845 -55.5512 11.1856 -55.5801C11.2887 -55.5949 11.4215 -55.6139 11.5762 -55.6355C11.7264 -55.6565 11.9365 -55.6855 12.1877 -55.719C12.293 -55.733 12.5215 -55.763 12.6446 -55.7789C12.7894 -55.7975 13.1081 -55.8375 13.2821 -55.8589C13.4935 -55.8846 13.9692 -55.9405 14.2336 -55.9706C14.5709 -56.008 15.3573 -56.0907 15.8064 -56.1351C16.4281 -56.1931 17.9752 -56.3207 18.9009 -56.3855C20.4076 -56.4724 24.8198 -56.5962 27.7246 -56.5714C35.3806 -56.1005 85.2189 -36.7467 114.787 -1.46497C122.044 69.1568 71.2605 132.275 61.3834 136.71C58.0542 137.926 53.0075 139.521 51.3224 139.988C50.3224 140.251 48.6528 140.665 47.9847 140.822C47.5112 140.931 46.6816 141.115 46.3257 141.192C46.0506 141.25 45.5548 141.353 45.3342 141.399C45.1546 141.435 44.825 141.501 44.6749 141.53C44.5485 141.555 44.3135 141.601 44.2048 141.621C43.9472 141.671 43.7319 141.711 43.579 141.739C43.4211 141.768 43.2858 141.793 43.1811 141.812C43.0746 141.831 42.9815 141.848 42.9056 141.861C42.7571 141.887 42.6339 141.909 42.5485 141.924C42.3815 141.953 42.2478 141.976 42.174 141.988C42.0242 142.014 41.9047 142.034 41.8511 142.043C41.7859 142.053 41.7304 142.063 41.6916 142.069C41.6146 142.082 41.544 142.093 41.4906 142.102C41.4335 142.112 41.3743 142.121 41.3147 142.131L9.05783 -55.2506C9.0886 -55.2557 9.10435 -55.2583 9.1086 -55.2589C9.11652 -55.2602 9.09372 -55.2565 9.05268 -55.2497C9.03189 -55.2463 8.99151 -55.2396 8.93869 -55.2308C8.89745 -55.2239 8.78759 -55.2056 8.64496 -55.1813C8.57475 -55.1694 8.44392 -55.147 8.27937 -55.1184C8.19518 -55.1038 8.07293 -55.0824 7.92537 -55.0562C7.84991 -55.0428 7.75721 -55.0262 7.65112 -55.0071C7.54677 -54.9883 7.41179 -54.9637 7.25426 -54.9346C7.1016 -54.9064 6.8866 -54.8663 6.62923 -54.8171C6.52068 -54.7963 6.28577 -54.7508 6.15946 -54.7261C6.00949 -54.6965 5.67994 -54.6308 5.50043 -54.5945C5.27988 -54.5494 4.78418 -54.4462 4.50912 -54.3877C4.15331 -54.311 3.32376 -54.1268 2.85028 -54.0183C2.18226 -53.8611 0.512688 -53.4471 -0.487274 -53.1844C-2.17233 -52.7167 -7.21905 -51.1223 -10.5482 -49.9064C-20.4253 -45.4711 -71.2089 17.6471 -63.9522 88.2689C-34.3836 123.551 15.4546 142.904 23.1106 143.375C26.0154 143.4 30.4275 143.276 31.9342 143.189C32.8599 143.125 34.4069 142.997 35.0286 142.939C35.4776 142.895 36.2639 142.812 36.6012 142.775C36.8655 142.745 37.3412 142.689 37.5525 142.663C37.7264 142.642 38.045 142.602 38.1897 142.583C38.3127 142.567 38.5411 142.537 38.6463 142.523C38.8973 142.49 39.1071 142.461 39.257 142.44C39.4114 142.418 39.5438 142.399 39.6466 142.384C39.847 142.356 40.0105 142.332 40.1151 142.316C40.321 142.285 40.4834 142.261 40.5631 142.248C40.655 142.234 40.73 142.223 40.7785 142.215C40.8296 142.207 40.8724 142.2 40.9036 142.196C41.0109 142.179 41.0896 142.166 41.1056 142.164C41.1342 142.159 41.153 142.156 41.159 142.155C41.1665 142.154 41.1703 142.153 41.171 142.153C41.1719 142.153 41.173 142.153 41.1754 142.152C41.1772 142.152 41.1846 142.151 41.1973 142.149C41.2074 142.147 41.2371 142.142 41.28 142.135C41.302 142.132 41.337 142.126 41.3811 142.119C41.4203 142.112 41.4965 142.1 41.5938 142.083C41.6435 142.075 41.7166 142.063 41.8052 142.048C41.8857 142.034 42.0301 142.009 42.211 141.978C42.3036 141.962 42.4348 141.939 42.5921 141.911C42.6724 141.896 42.7696 141.879 42.8801 141.859C42.9891 141.839 43.1268 141.814 43.2861 141.785C43.4417 141.756 43.6521 141.716 43.9012 141.669C44.0043 141.649 44.2263 141.606 44.345 141.582C44.4823 141.555 44.7811 141.496 44.9426 141.463C45.1341 141.424 45.558 141.336 45.7903 141.287C46.0761 141.226 46.7243 141.084 47.0865 141.003C47.5579 140.896 48.6716 140.632 49.3133 140.473C50.2334 140.239 52.5883 139.595 54.0192 139.174C56.5455 138.372 64.6396 135.291 70.0864 132.747C89.3471 120.052 123.559 26.2444 80.1452 -39.9941C60.6084 -50.0042 33.5494 -56.1773 27.7115 -56.5036C25.1102 -56.5389 21.0387 -56.4584 19.5694 -56.3885C18.632 -56.3327 17.0422 -56.2176 16.3897 -56.1631C15.9119 -56.1204 15.0674 -56.0392 14.7007 -56.0017C14.4119 -55.9713 13.8885 -55.9139 13.6539 -55.8872C13.4608 -55.8649 13.1047 -55.8227 12.9419 -55.8029C12.5621 -55.7566 12.2487 -55.7161 12.0356 -55.6882C11.8138 -55.659 11.6253 -55.6335 11.4831 -55.6141C11.206 -55.5761 10.9816 -55.5442 10.8439 -55.5244C10.6967 -55.5033 10.5737 -55.4853 10.4856 -55.4723C10.395 -55.4589 10.3173 -55.4474 10.257 -55.4384C10.1395 -55.4208 10.0442 -55.4063 9.98375 -55.3971C9.86486 -55.3789 9.77296 -55.3647 9.73129 -55.3582C9.68246 -55.3506 9.64503 -55.3448 9.62468 -55.3416C9.58504 -55.3354 9.56371 -55.332 9.57201 -55.3333L40.8006 142.214ZM83.2233 -37.9951C83.7762 -37.6011 84.8158 -36.8542 86.0598 -35.9066C86.667 -35.4441 87.7467 -34.612 89.0546 -33.5364C89.7198 -32.9895 93.155 -30.1893 97.0874 -26.1666C98.2554 -24.9717 99.9729 -23.1563 101.933 -20.8397C103.691 -18.761 106.909 -14.7986 110.308 -9.37811C112.059 -6.58644 114.411 -2.53361 116.722 2.58509C118.937 7.48815 121.998 15.298 123.879 25.3404C125.744 35.3013 127.057 50.7487 122.416 68.7339C117.415 88.1162 106.552 106.092 90.578 119.751C75.6366 132.528 60.1152 138.257 49.3097 140.896C38.5571 143.522 29.4817 143.841 23.7111 143.733C12.5881 143.525 4.05241 141.474 0.499672 140.554C-7.21555 138.555 -12.937 136.053 -14.6198 135.314C-19.0154 133.385 -22.298 131.552 -23.2388 131.027C-24.7037 130.208 -25.895 129.495 -26.6984 129.003C-29.0402 127.571 -32.7911 125.151 -37.0484 121.761C-38.2882 120.774 -40.4797 118.985 -43.0577 116.578C-44.3753 115.347 -46.2502 113.531 -48.3811 111.217C-50.336 109.094 -53.6754 105.295 -57.2397 100.11C-60.0906 95.9626 -67.22 85.0953 -71.4504 69.2577C-73.717 60.7722 -75.8648 48.2371 -74.3089 33.1732C-72.6677 17.2831 -67.0111 0.142773 -55.6706 -15.4282C-33.3813 -46.0324 -2.71831 -53.3418 9.14732 -55.268C22.4437 -57.4264 33.0533 -56.3514 37.518 -55.7966L12.8546 142.677C17.3064 143.23 27.9058 144.305 41.1945 142.148C53.0525 140.223 83.7104 132.916 105.997 102.316C117.336 86.7466 122.992 69.6084 124.633 53.7209C126.188 38.6595 124.041 26.1272 121.775 17.6447C117.546 1.81329 110.421 -9.04685 107.575 -13.186C104.017 -18.363 100.685 -22.1531 98.739 -24.266C96.6173 -26.57 94.7531 -28.3754 93.4478 -29.5944C90.8942 -31.9791 88.7329 -33.7425 87.5272 -34.7025C83.4066 -37.9834 79.8558 -40.2682 77.6646 -41.6085C76.8989 -42.0769 75.7422 -42.7704 74.307 -43.5721C73.396 -44.0811 70.1382 -45.9009 65.7608 -47.8222C64.0871 -48.5567 58.3732 -51.0556 50.6635 -53.0532C47.1136 -53.973 38.5802 -56.0232 27.4591 -56.2317C21.6894 -56.3398 12.6147 -56.0203 1.86279 -53.3946C-8.94201 -50.756 -24.4629 -45.0274 -39.4039 -32.2509C-55.3775 -18.5913 -66.2402 -0.616386 -71.2412 18.7653C-75.8817 36.75 -74.569 52.1968 -72.7036 62.157C-70.823 72.1987 -67.7625 80.0077 -65.5483 84.9098C-63.2368 90.0276 -60.8857 94.0794 -59.1359 96.87C-55.7385 102.288 -52.5218 106.248 -50.7661 108.324C-48.8091 110.637 -47.0948 112.449 -45.9305 113.64C-42.0135 117.647 -38.6038 120.425 -37.976 120.941C-36.7054 121.986 -35.6751 122.779 -35.1308 123.193C-34.0129 124.045 -33.154 124.659 -32.8507 124.875L83.2233 -37.9951ZM-74.4556 29.2876L-73.951 26.1152L123.566 57.5322L123.061 60.7046L-74.4556 29.2876ZM50.5564 141.51L48.5564 142.01L0.0492935 -52.0182L2.04929 -52.5182L50.5564 141.51ZM-71.5366 18.0495L-71.42 17.6055L122.026 68.3867L121.909 68.8308L-71.5366 18.0495ZM108.508 -12.4739L109.508 -10.9739L-56.9022 99.9661L-57.9022 98.4661L108.508 -12.4739Z" fill="#5CD7D4" mask="url(#path-1-inside-1_145_354)"/>
</svg>
