<svg width="209" height="199" viewBox="0 0 209 199" fill="none" xmlns="http://www.w3.org/2000/svg">
<path d="M48.5804 10H47.5684V2.124H48.5804V5.501H52.5184V2.124H53.5304V10H52.5184V6.447H48.5804V10ZM57.3534 10.176C56.5614 10.176 55.9087 9.90467 55.3954 9.362C54.882 8.81933 54.6254 8.13367 54.6254 7.305C54.6254 6.48367 54.8747 5.80167 55.3734 5.259C55.872 4.709 56.51 4.434 57.2874 4.434C58.0867 4.434 58.721 4.69433 59.1904 5.215C59.667 5.72833 59.9054 6.45067 59.9054 7.382L59.8944 7.492H55.6594C55.674 8.02 55.85 8.44533 56.1874 8.768C56.5247 9.09067 56.928 9.252 57.3974 9.252C58.0427 9.252 58.5487 8.92933 58.9154 8.284L59.8174 8.724C59.5754 9.17867 59.238 9.53433 58.8054 9.791C58.38 10.0477 57.896 10.176 57.3534 10.176ZM55.7364 6.656H58.8274C58.798 6.282 58.644 5.974 58.3654 5.732C58.094 5.48267 57.7274 5.358 57.2654 5.358C56.884 5.358 56.554 5.47533 56.2754 5.71C56.004 5.94467 55.8244 6.26 55.7364 6.656ZM61.8428 2.124V10H60.8308V2.124H61.8428ZM64.088 2.124V10H63.076V2.124H64.088ZM64.9594 7.305C64.9594 6.47633 65.2197 5.79067 65.7404 5.248C66.2684 4.70533 66.932 4.434 67.7314 4.434C68.5307 4.434 69.1907 4.70533 69.7114 5.248C70.2394 5.79067 70.5034 6.47633 70.5034 7.305C70.5034 8.141 70.2394 8.82667 69.7114 9.362C69.1907 9.90467 68.5307 10.176 67.7314 10.176C66.932 10.176 66.2684 9.90467 65.7404 9.362C65.2197 8.81933 64.9594 8.13367 64.9594 7.305ZM65.9714 7.305C65.9714 7.88433 66.14 8.35367 66.4774 8.713C66.8147 9.07233 67.2327 9.252 67.7314 9.252C68.23 9.252 68.648 9.07233 68.9854 8.713C69.3227 8.35367 69.4914 7.88433 69.4914 7.305C69.4914 6.733 69.3227 6.26733 68.9854 5.908C68.6407 5.54133 68.2227 5.358 67.7314 5.358C67.24 5.358 66.822 5.54133 66.4774 5.908C66.14 6.26733 65.9714 6.733 65.9714 7.305ZM72.5336 11.177C73.6886 10.781 74.4366 9.879 74.4366 8.691C74.4366 7.921 74.1066 7.415 73.4906 7.415C73.0506 7.415 72.6546 7.69 72.6546 8.207C72.6546 8.735 73.0286 8.999 73.4796 8.999C73.6886 8.999 73.9086 8.944 74.0626 8.746L73.4686 7.91L73.6776 8.845C73.6776 9.67 73.1826 10.231 72.2806 10.605L72.5336 11.177ZM87.3836 7.646C87.3836 8.36467 87.1343 8.966 86.6356 9.45C86.137 9.934 85.521 10.176 84.7876 10.176C84.201 10.176 83.6693 9.99267 83.1926 9.626C82.716 9.25933 82.4006 8.76433 82.2466 8.141L83.1486 7.778C83.2586 8.218 83.4566 8.56633 83.7426 8.823C84.036 9.07967 84.377 9.208 84.7656 9.208C85.235 9.208 85.6163 9.065 85.9096 8.779C86.2103 8.48567 86.3606 8.11167 86.3606 7.657C86.3606 7.195 86.2103 6.81733 85.9096 6.524C85.6163 6.23067 85.2386 6.084 84.7766 6.084C84.2413 6.084 83.8196 6.30033 83.5116 6.733L82.4886 6.293L82.9726 2.476H86.9216V3.444H83.8196L83.5446 5.6L83.5886 5.611C83.9626 5.31033 84.4173 5.16 84.9526 5.16C85.6273 5.16 86.1993 5.39833 86.6686 5.875C87.1453 6.35167 87.3836 6.942 87.3836 7.646ZM93.1442 9.032V10H88.3482V8.988L90.2952 7.019C90.9479 6.35167 91.3989 5.853 91.6482 5.523C91.8975 5.18567 92.0222 4.83367 92.0222 4.467C92.0222 4.137 91.8939 3.85467 91.6372 3.62C91.3805 3.38533 91.0505 3.268 90.6472 3.268C90.3025 3.268 90.0055 3.37067 89.7562 3.576C89.5069 3.78133 89.3455 4.03067 89.2722 4.324L88.3482 3.95C88.4949 3.488 88.7772 3.09933 89.1952 2.784C89.6132 2.46133 90.1045 2.3 90.6692 2.3C91.3512 2.3 91.9195 2.509 92.3742 2.927C92.8289 3.345 93.0562 3.85833 93.0562 4.467C93.0562 5.193 92.6565 5.97767 91.8572 6.821L89.6572 9.032H93.1442ZM95.427 10H94.415V2.124H95.427V5.501H99.365V2.124H100.377V10H99.365V6.447H95.427V10ZM105.872 10H101.516V9.12L104.585 5.534H101.604V4.61H105.828V5.49L102.759 9.076H105.872V10ZM107.478 6.865V7.547H116.014V6.865H107.478ZM106.84 1.475V2.08H111.922V1.475H106.84ZM111.746 8.394V9.043H115.288V8.394H111.746ZM106.741 9.945V10.638H116.729V9.945H106.741ZM111.295 7.118V10.286H112.12V7.118H111.295ZM109.018 0.76V6.568H109.755V0.76H109.018ZM108.545 8.042V10.319H109.337V8.042H108.545ZM107.841 3.202H110.954V4.104H107.841V3.202ZM107.17 2.641V4.665H111.658V2.641H107.17ZM109.744 4.632L109.337 4.995C109.81 5.248 110.91 5.875 111.328 6.172L111.735 5.622C111.394 5.435 110.129 4.797 109.744 4.632ZM113.286 0.770999C112.967 1.882 112.384 2.905 111.614 3.576C111.779 3.708 112.065 3.994 112.175 4.137C112.978 3.378 113.649 2.201 114.034 0.935999L113.286 0.770999ZM113.077 1.992L112.747 2.674H116.685V1.992H113.077ZM115.277 2.3C114.826 4.258 113.528 5.391 111.559 5.996C111.724 6.128 111.966 6.447 112.054 6.612C114.1 5.853 115.497 4.61 116.058 2.388L115.277 2.3ZM113.165 2.399L112.626 2.762C113.132 4.203 114.32 5.875 116.399 6.645C116.509 6.447 116.718 6.139 116.872 5.996C114.804 5.347 113.638 3.785 113.165 2.399ZM108.952 4.379C108.435 5.017 107.445 5.71 106.653 6.051C106.818 6.172 107.038 6.403 107.148 6.579C107.929 6.161 108.941 5.347 109.48 4.61L108.952 4.379ZM123.681 4.478V5.248H127.773V4.478H123.681ZM117.895 1.915V2.619H122.746V1.915H117.895ZM117.774 6.282V6.997H122.801V6.282H117.774ZM117.741 4.434V5.138H122.878V4.434H117.741ZM125.727 4.786V10.825H126.53V4.786H125.727ZM119.93 0.804V2.278H120.733V0.804H119.93ZM119.93 5.006V10.869H120.733V5.006H119.93ZM123.285 1.662V5.512C123.285 7.074 123.131 8.977 121.723 10.363C121.921 10.473 122.218 10.748 122.317 10.935C123.868 9.406 124.066 7.173 124.066 5.523V2.124C124.22 2.102 124.286 2.058 124.297 1.97L123.285 1.662ZM126.97 0.891999C126.167 1.288 124.715 1.673 123.483 1.937C123.582 2.102 123.692 2.388 123.736 2.564C125.056 2.333 126.596 1.959 127.63 1.497L126.97 0.891999ZM120.656 7.206L120.205 7.58C120.612 7.921 121.646 8.889 121.998 9.296L122.482 8.68C122.207 8.427 121.008 7.448 120.656 7.206ZM118.555 2.817C118.775 3.323 118.951 3.983 118.984 4.412L119.677 4.225C119.622 3.807 119.435 3.158 119.204 2.674L118.555 2.817ZM121.371 2.652C121.25 3.114 121.019 3.796 120.821 4.236L121.481 4.39C121.679 3.983 121.91 3.367 122.119 2.817L121.371 2.652ZM119.941 6.645C119.413 7.723 118.412 8.911 117.521 9.494C117.708 9.626 117.95 9.89 118.082 10.077C118.962 9.395 119.974 8.097 120.535 6.876L119.941 6.645ZM132.536 6.601V10.88H133.295V7.36H137.233V10.825H138.025V6.601H132.536ZM137.618 0.804C136.397 1.244 134.164 1.585 132.25 1.794C132.349 1.981 132.459 2.3 132.492 2.498C134.461 2.311 136.76 1.97 138.267 1.453L137.618 0.804ZM134.912 1.761V7.041H135.704V1.761H134.912ZM131.733 3.994V4.786H138.74V3.994H131.733ZM133.053 9.648V10.407H137.596V9.648H133.053ZM129.214 1.486C129.896 1.849 130.809 2.388 131.271 2.718L131.755 2.047C131.282 1.728 130.347 1.233 129.676 0.903L129.214 1.486ZM128.675 4.522C129.346 4.874 130.259 5.402 130.71 5.71L131.172 5.039C130.71 4.72 129.786 4.236 129.137 3.917L128.675 4.522ZM128.939 10.176L129.632 10.737C130.281 9.714 131.051 8.339 131.634 7.173L131.04 6.634C130.402 7.888 129.533 9.34 128.939 10.176ZM147.166 0.793V3.158H147.947V0.793H147.166ZM145.692 2.773V3.51H149.608V2.773H145.692ZM145.934 4.258C146.242 5.93 146.451 8.108 146.473 9.351L147.188 9.153C147.177 7.954 146.924 5.82 146.594 4.126L145.934 4.258ZM148.508 3.994C148.365 5.589 148.046 7.877 147.738 9.219L148.376 9.384C148.706 8.042 149.058 5.831 149.278 4.148L148.508 3.994ZM145.197 9.78V10.517H149.784V9.78H145.197ZM140.423 1.926V2.674H141.853V7.195H140.423V7.954H142.557V1.926H140.423ZM139.983 1.926V8.9H140.687V1.926H139.983ZM142.755 3.015V3.752H145.45V3.015H142.755ZM142.612 6.557L142.865 7.316C143.657 6.997 144.636 6.579 145.56 6.183L145.428 5.512C144.394 5.908 143.338 6.315 142.612 6.557ZM143.789 0.793V9.956C143.789 10.099 143.756 10.132 143.624 10.143C143.492 10.143 143.118 10.143 142.689 10.132C142.799 10.352 142.898 10.693 142.92 10.88C143.536 10.891 143.932 10.858 144.174 10.726C144.427 10.605 144.526 10.385 144.526 9.956V0.793H143.789ZM155.361 7.349H156.076L156.296 3.081L156.329 1.772H155.108L155.141 3.081L155.361 7.349ZM155.724 10.055C156.109 10.055 156.428 9.78 156.428 9.34C156.428 8.9 156.109 8.603 155.724 8.603C155.328 8.603 155.009 8.9 155.009 9.34C155.009 9.78 155.328 10.055 155.724 10.055ZM33.105 30.508V31.289H36.746V30.508H33.105ZM33.27 33.687V34.468H36.515V33.687H33.27ZM32.973 37.9L33.149 38.703C34.194 38.384 35.591 37.977 36.911 37.581L36.801 36.822C35.404 37.24 33.941 37.658 32.973 37.9ZM34.579 30.86V37.779L35.371 37.614V30.86H34.579ZM37.241 30.299V36.151H38.033V31.025H41.377V36.151H42.191V30.299H37.241ZM39.749 35.975V38.659C39.749 39.396 40.046 39.594 40.805 39.594H41.817C42.774 39.594 42.895 39.154 42.994 37.416C42.785 37.372 42.521 37.262 42.323 37.097C42.268 38.67 42.202 38.967 41.828 38.967H40.915C40.607 38.967 40.519 38.89 40.519 38.582V35.975H39.749ZM39.276 31.971V34.094C39.276 35.81 38.924 37.889 36.152 39.319C36.317 39.451 36.57 39.748 36.669 39.913C39.562 38.417 40.046 35.997 40.046 34.105V31.971H39.276ZM44.182 31.465V32.268H53.818V31.465H44.182ZM47.592 34.952V35.722H53.389V34.952H47.592ZM47.163 38.846V39.627H53.818V38.846H47.163ZM50.078 32.829V39.264H50.903V32.829H50.078ZM47.801 29.76C47.185 32.026 45.898 34.468 43.918 35.865C44.05 36.052 44.259 36.404 44.347 36.624C46.536 35.051 47.878 32.488 48.648 29.969L47.801 29.76ZM45.623 34.292V39.847H46.448V34.292H45.623ZM55.578 31.663V39.88H56.392V32.477H63.949V31.663H55.578ZM63.641 31.663V38.78C63.641 38.989 63.586 39.044 63.366 39.055C63.135 39.066 62.376 39.066 61.573 39.033C61.705 39.264 61.826 39.649 61.87 39.891C62.871 39.891 63.564 39.869 63.96 39.737C64.345 39.605 64.466 39.33 64.466 38.791V31.663H63.641ZM59.318 29.738C59.131 30.409 58.768 31.366 58.46 31.982L59.252 32.169C59.582 31.586 60 30.695 60.341 29.914L59.318 29.738ZM57.844 33.929V38.362H58.603V33.929H57.844ZM58.196 33.929V34.677H61.386V36.833H58.196V37.57H62.156V33.929H58.196ZM72.221 35.997C73.167 37.174 74.289 38.802 74.817 39.814L75.631 39.363C75.081 38.373 73.959 36.811 72.991 35.634L72.221 35.997ZM69.064 30.09C68.404 31.74 67.304 33.324 66.061 34.292C66.27 34.435 66.655 34.732 66.82 34.886C68.03 33.808 69.207 32.136 69.933 30.332L69.064 30.09ZM72.815 30.002L72.001 30.332C72.848 31.982 74.256 33.83 75.4 34.886C75.565 34.677 75.884 34.358 76.093 34.182C74.96 33.269 73.541 31.52 72.815 30.002ZM67.271 39.165C67.271 38.967 67.931 38.681 67.931 38.681V38.659C69.185 37.339 70.461 35.436 71.506 33.511L70.604 33.115C69.735 34.952 68.382 36.877 67.942 37.372C67.546 37.878 67.238 38.219 66.952 38.285C67.073 38.538 67.227 38.978 67.271 39.165ZM67.271 39.165C67.678 39 68.294 38.967 74.19 38.571C74.124 38.373 74.036 38.021 74.003 37.779L67.832 38.142L67.249 38.472L67.271 39.165ZM79.404 35.953C80.185 36.58 81.098 37.493 81.549 38.065L82.132 37.46C81.681 36.91 80.746 36.063 79.932 35.436L79.404 35.953ZM84.079 35.106L83.441 35.502C83.837 36.921 84.739 38.824 86.356 39.77C86.488 39.561 86.752 39.22 86.939 39.055C85.344 38.241 84.453 36.47 84.079 35.106ZM79.536 33.709C79.25 36.217 78.557 38.142 77.039 39.297C77.237 39.407 77.611 39.671 77.754 39.814C79.261 38.516 80.031 36.514 80.372 33.797L79.536 33.709ZM83.507 33.775C83.265 36.338 82.594 38.23 81.021 39.363C81.23 39.473 81.593 39.748 81.736 39.88C83.287 38.615 84.035 36.646 84.343 33.863L83.507 33.775ZM82.33 30.387L81.67 30.64C82.671 32.323 84.508 33.764 86.477 34.402C86.609 34.171 86.873 33.83 87.06 33.654C85.102 33.137 83.232 31.817 82.33 30.387ZM81.923 29.694C81.021 31.586 79.184 32.983 77.017 33.698C77.237 33.896 77.479 34.226 77.6 34.468C79.866 33.588 81.703 32.07 82.726 30.024L81.923 29.694ZM89.843 31.685V34.831C89.843 36.239 89.722 38.219 87.907 39.33C88.061 39.451 88.259 39.682 88.358 39.825C90.294 38.56 90.503 36.437 90.503 34.831V31.685H89.843ZM90.228 37.57C90.745 38.186 91.328 39.022 91.592 39.539L92.142 39.099C91.867 38.593 91.251 37.79 90.745 37.196L90.228 37.57ZM88.435 30.288V37.053H89.084V30.97H91.218V37.031H91.878V30.288H88.435ZM92.153 34.05V34.82H97.895V34.05H92.153ZM95.508 34.49L94.793 34.655C95.277 36.811 96.179 38.659 97.554 39.649C97.686 39.44 97.928 39.143 98.115 39.011C96.817 38.175 95.926 36.426 95.508 34.49ZM92.989 39.946C92.989 39.66 93.913 39.209 93.913 39.209V29.991H93.143V38.538C93.143 38.978 92.846 39.187 92.659 39.275C92.78 39.44 92.934 39.759 92.989 39.946ZM96.751 30.244C96.19 31.355 95.255 32.411 94.287 33.104C94.463 33.247 94.76 33.555 94.892 33.709C95.871 32.928 96.883 31.729 97.51 30.486L96.751 30.244ZM92.989 39.946C93.176 39.792 93.484 39.66 95.607 38.791C95.574 38.626 95.541 38.296 95.541 38.076L93.231 38.901L92.901 39.22L92.989 39.946ZM101.349 30.948H106.596V32.444H101.349V30.948ZM100.535 30.222V33.181H107.454V30.222H100.535ZM99.182 34.171V34.93H108.763V34.171H99.182ZM101.239 36.151V36.91H106.849V36.151H101.239ZM106.596 36.151L106.585 36.272C106.354 37.988 106.112 38.769 105.782 39.011C105.661 39.11 105.518 39.121 105.254 39.121C104.957 39.121 104.154 39.11 103.373 39.033C103.527 39.253 103.637 39.583 103.659 39.825C104.418 39.869 105.155 39.869 105.529 39.858C105.958 39.836 106.222 39.781 106.486 39.55C106.882 39.198 107.157 38.373 107.421 36.536C107.443 36.415 107.465 36.151 107.465 36.151H106.596ZM101.591 34.49C101.349 35.271 101.019 36.261 100.733 36.899H101.679C101.91 36.316 102.24 35.392 102.46 34.611L101.591 34.49ZM117.145 34.82C117.145 36.976 118.014 38.714 119.334 40.056L119.994 39.715C118.718 38.406 117.937 36.789 117.937 34.82C117.937 32.862 118.718 31.245 119.994 29.936L119.334 29.595C118.014 30.937 117.145 32.675 117.145 34.82ZM125.593 29.925V38.736C125.593 38.956 125.516 39.033 125.285 39.033C125.065 39.044 124.273 39.055 123.459 39.022C123.602 39.264 123.756 39.649 123.8 39.891C124.845 39.891 125.527 39.869 125.923 39.726C126.319 39.594 126.484 39.352 126.484 38.736V29.925H125.593ZM128.255 32.73C129.19 34.303 130.081 36.371 130.345 37.669L131.225 37.317C130.939 35.986 130.004 33.973 129.047 32.422L128.255 32.73ZM122.711 32.499C122.436 33.984 121.831 35.887 120.852 37.053C121.072 37.141 121.435 37.339 121.633 37.493C122.634 36.261 123.272 34.27 123.635 32.653L122.711 32.499ZM136.56 35.238V39.891H137.396V35.238H136.56ZM134.8 33.522H139.178V34.677H134.8V33.522ZM134.019 32.873V35.337H140.003V32.873H134.019ZM132.182 36.294V37.042H141.84V36.294H132.182ZM136.329 36.613C135.394 37.647 133.546 38.538 131.841 38.923C132.028 39.088 132.27 39.418 132.391 39.638C134.107 39.165 135.966 38.142 137 36.91L136.329 36.613ZM137.627 36.624L136.978 36.899C137.979 38.164 139.794 39.187 141.543 39.649C141.675 39.418 141.928 39.077 142.115 38.912C140.366 38.549 138.551 37.669 137.627 36.624ZM136.538 29.76V31.74H137.374V29.76H136.538ZM132.424 31.366V33.599H133.194V32.103H140.85V33.599H141.653V31.366H132.424ZM133.326 30.145C133.667 30.541 134.041 31.113 134.206 31.487L134.965 31.135C134.8 30.772 134.415 30.244 134.063 29.848L133.326 30.145ZM139.86 29.804C139.651 30.189 139.244 30.761 138.936 31.124L139.607 31.399C139.937 31.058 140.344 30.574 140.718 30.09L139.86 29.804ZM145.844 34.82C145.844 32.675 144.975 30.937 143.655 29.595L142.995 29.936C144.271 31.245 145.052 32.862 145.052 34.82C145.052 36.789 144.271 38.406 142.995 39.715L143.655 40.056C144.975 38.714 145.844 36.976 145.844 34.82ZM157.966 34.545L157.262 34.765C158.384 37.471 160.463 39.231 163.587 39.913C163.697 39.693 163.928 39.352 164.104 39.187C161.046 38.593 158.956 36.954 157.966 34.545ZM161.893 34.237V34.38C161.068 37.031 158.703 38.571 156.129 39.198C156.294 39.374 156.492 39.693 156.58 39.902C159.33 39.154 161.783 37.548 162.784 34.457L162.223 34.204L162.058 34.237H161.893ZM157.724 34.237L157.493 35.029H162.025V34.237H157.724ZM158.483 29.727C157.999 33.643 156.745 36.613 153.83 38.373C154.028 38.527 154.325 38.835 154.446 39.011C157.548 37.108 158.835 34.039 159.396 29.87L158.483 29.727ZM160.892 30.31C161.376 30.827 161.992 31.531 162.3 31.949L162.96 31.498C162.652 31.091 162.014 30.409 161.541 29.925L160.892 30.31ZM155.084 33.247C155.084 33.049 155.744 32.774 155.744 32.774V32.763C156.118 32.147 156.558 31.168 156.833 30.233L155.942 30.079C155.766 30.926 155.337 31.806 155.216 32.037C155.084 32.279 154.952 32.433 154.809 32.477C154.897 32.675 155.029 33.071 155.084 33.247ZM155.084 33.247C155.194 33.126 155.557 33.06 156.25 33.06H163.73V32.268H155.634L155.084 32.598V33.247ZM168.009 34.182V34.952H174.906V34.182H168.009ZM168.361 31.828V32.587H174.576V31.828H168.361ZM170.946 32.202V33.852C170.946 35.007 170.748 36.635 168.064 37.724C168.262 37.878 168.515 38.164 168.636 38.34C171.419 37.086 171.793 35.26 171.793 33.863V32.202H170.946ZM173.168 29.76C172.893 30.442 172.387 31.421 171.969 32.015L172.629 32.257C173.058 31.696 173.575 30.794 173.993 30.035L173.168 29.76ZM169.01 30.068C169.34 30.618 169.747 31.355 169.945 31.784L170.671 31.454C170.462 31.036 170.044 30.321 169.703 29.804L169.01 30.068ZM167.228 33.5H165.028V34.259H166.425V38.23H167.228V33.5ZM165.347 30.288C165.941 30.904 166.634 31.762 166.964 32.301L167.657 31.839C167.316 31.311 166.601 30.486 166.007 29.892L165.347 30.288ZM166.755 37.658C166.205 37.658 165.49 38.263 164.764 39.11L165.369 39.891C165.886 39.132 166.392 38.439 166.733 38.439C166.975 38.439 167.36 38.835 167.811 39.132C168.614 39.638 169.549 39.759 170.979 39.759C172.101 39.759 174.147 39.682 174.928 39.638C174.95 39.385 175.082 38.945 175.192 38.725C174.081 38.846 172.376 38.945 171.012 38.945C169.725 38.945 168.757 38.868 168.02 38.395C167.382 37.999 167.118 37.658 166.755 37.658ZM170.902 35.26C171.925 36.195 173.267 37.504 173.905 38.263L174.488 37.691C173.817 36.943 172.453 35.678 171.452 34.776L170.902 35.26ZM59.4613 48.059V48.818H64.5873V48.059H59.4613ZM59.1973 50.82V51.579H64.9943V50.82H59.1973ZM61.4743 48.631V50.149C61.4743 51.568 61.3423 53.768 58.7903 55.396C59.0103 55.539 59.2853 55.803 59.4173 55.979C62.0683 54.175 62.3103 51.788 62.3103 50.16V48.631H61.4743ZM62.2223 51.469L61.5293 51.634C62.0573 53.559 63.0583 55.11 64.5653 55.869C64.6863 55.66 64.9283 55.352 65.1153 55.187C63.6853 54.56 62.7063 53.163 62.2223 51.469ZM63.3993 45.947C63.1133 46.607 62.5853 47.531 62.1673 48.114L62.8493 48.356C63.2893 47.795 63.8173 46.948 64.2463 46.189L63.3993 45.947ZM59.8133 46.266C60.2533 46.783 60.7043 47.509 60.9023 47.993L61.6063 47.608C61.4083 47.135 60.9353 46.442 60.4843 45.936L59.8133 46.266ZM54.9953 46.244V46.992H59.1313V46.244H54.9953ZM56.0513 48.543V49.247H58.1853V48.543H56.0513ZM56.0513 50.809V51.513H58.1853V50.809H56.0513ZM55.6003 46.618V53.658H56.3373V46.618H55.6003ZM57.9323 46.607V55.891H58.6583V46.607H57.9323ZM54.8963 53.526L55.0723 54.307C56.2823 54.098 57.9653 53.801 59.5713 53.526L59.5163 52.811C57.8223 53.086 56.0513 53.372 54.8963 53.526ZM68.6243 52.547C68.0523 53.339 67.1283 54.142 66.2593 54.681C66.4683 54.802 66.8203 55.077 66.9853 55.231C67.8103 54.637 68.7893 53.724 69.4493 52.833L68.6243 52.547ZM72.4853 52.91C73.3983 53.625 74.5313 54.626 75.0813 55.253L75.7743 54.758C75.1913 54.12 74.0473 53.163 73.1343 52.492L72.4853 52.91ZM70.6703 51.667V54.78C70.6703 54.912 70.6263 54.956 70.4503 54.967C70.2633 54.967 69.6693 54.967 68.9983 54.945C69.1303 55.176 69.2733 55.517 69.3173 55.759C70.1203 55.759 70.6813 55.759 71.0443 55.616C71.4073 55.484 71.5063 55.253 71.5063 54.802V51.667H70.6703ZM74.3113 45.848C72.5403 46.288 69.3283 46.585 66.6553 46.728C66.7543 46.915 66.8533 47.234 66.8643 47.443C69.5703 47.322 72.8263 47.036 74.8943 46.53L74.3113 45.848ZM66.9083 52.305C66.9083 52.151 67.4803 51.975 67.4803 51.975V51.953C69.5593 51.062 71.7373 49.852 73.7943 48.279L73.1673 47.74C71.3303 49.236 68.9323 50.589 68.1843 50.941C67.4913 51.293 67.0073 51.502 66.6553 51.546C66.7433 51.766 66.8753 52.151 66.9083 52.305ZM66.9083 52.305C67.3043 52.151 67.9313 52.096 74.4653 51.623C74.4543 51.469 74.4543 51.161 74.4763 50.952L67.4363 51.425L66.8863 51.722L66.9083 52.305ZM67.5023 50.017C67.5023 49.852 68.0303 49.654 68.0303 49.654V49.632C69.0533 49.005 70.1203 48.103 71.0773 47.113L70.3733 46.717C69.5703 47.674 68.4263 48.598 68.0743 48.84C67.7553 49.082 67.4803 49.247 67.2713 49.269C67.3593 49.478 67.4693 49.852 67.5023 50.017ZM67.5023 50.017C67.7663 49.918 68.1953 49.863 71.6823 49.665C71.6933 49.511 71.7153 49.214 71.7703 49.016L67.9533 49.203L67.4913 49.456L67.5023 50.017ZM72.7823 50.116C73.6183 50.875 74.5753 51.953 75.0153 52.635L75.6753 52.239C75.2133 51.568 74.2783 50.545 73.4203 49.786L72.7823 50.116ZM77.2373 47.674V48.466H86.7743V47.674H77.2373ZM80.6693 50.237V51.04H85.0693V50.237H80.6693ZM84.8493 50.237V50.38C84.6513 53.339 84.4203 54.56 84.0793 54.879C83.9473 54.978 83.8043 55 83.5623 55C83.2653 55 82.4953 54.989 81.6923 54.923C81.8573 55.143 81.9783 55.484 81.9893 55.737C82.7373 55.781 83.4523 55.792 83.8483 55.77C84.2773 55.737 84.5413 55.66 84.7943 55.385C85.2343 54.945 85.4543 53.746 85.6743 50.633C85.6963 50.512 85.7073 50.237 85.7073 50.237H84.8493ZM80.2513 48.147C80.1303 50.743 79.9433 53.779 76.9953 55.253C77.2043 55.418 77.4683 55.704 77.6003 55.913C80.7023 54.274 81.0103 51.018 81.1533 48.147H80.2513ZM81.3293 46.002C81.6043 46.541 81.9453 47.245 82.0883 47.696L82.9243 47.333C82.7593 46.893 82.4293 46.211 82.1213 45.694L81.3293 46.002ZM95.2883 46.31C95.8603 46.706 96.5313 47.3 96.8613 47.696L97.4443 47.179C97.1033 46.794 96.4103 46.222 95.8383 45.837L95.2883 46.31ZM88.0943 47.817V48.62H97.8953V47.817H88.0943ZM88.4683 50.27V51.073H93.3303V50.27H88.4683ZM90.4483 50.699V54.626H91.2733V50.699H90.4483ZM88.1383 54.736L88.3913 55.561C89.8103 55.242 91.8233 54.78 93.7043 54.34L93.6383 53.603C91.6033 54.043 89.4473 54.483 88.1383 54.736ZM93.6933 45.815C93.7373 51.139 94.6283 55.902 96.8173 55.902C97.6643 55.902 97.9833 55.341 98.1263 53.416C97.8953 53.339 97.5763 53.152 97.3893 52.965C97.3233 54.439 97.1913 55.044 96.8833 55.044C95.5303 55.044 94.5403 50.919 94.5733 45.815H93.6933ZM103.589 53.724H104.403V51.326H106.636V50.578H104.403V48.169H103.589V50.578H101.356V51.326H103.589V53.724ZM116.672 50.303C115.649 53.064 113.328 54.472 110.017 55.165C110.182 55.341 110.435 55.715 110.523 55.913C113.878 55.077 116.309 53.57 117.508 50.545L116.672 50.303ZM113.009 48.433C112.349 49.28 111.249 50.149 110.27 50.688C110.457 50.831 110.776 51.139 110.919 51.304C111.887 50.677 113.053 49.698 113.812 48.752L113.009 48.433ZM113.383 50.369L112.646 50.6C113.823 53.449 116.056 55.165 119.521 55.814C119.631 55.583 119.862 55.242 120.038 55.066C116.661 54.516 114.406 52.91 113.383 50.369ZM110.237 47.289V48.092H119.752V47.289H110.237ZM116.298 48.895C117.321 49.599 118.553 50.644 119.114 51.348L119.796 50.809C119.202 50.105 117.948 49.104 116.947 48.422L116.298 48.895ZM114.098 45.936C114.406 46.398 114.736 47.014 114.879 47.41L115.693 47.091C115.55 46.717 115.187 46.101 114.879 45.661L114.098 45.936ZM124.669 50.248L123.954 50.468C125.065 53.372 127.177 55.176 130.521 55.88C130.631 55.649 130.862 55.308 131.049 55.132C127.771 54.538 125.637 52.855 124.669 50.248ZM128.728 49.863V50.017C127.925 52.899 125.604 54.527 122.975 55.187C123.151 55.352 123.349 55.671 123.448 55.891C126.275 55.077 128.673 53.394 129.597 50.072L129.036 49.819L128.882 49.863H128.728ZM121.27 47.597V48.4H130.774V47.597H121.27ZM124.218 49.863L123.987 50.666H128.816V49.863H124.218ZM124.218 45.76C124.163 46.761 124.064 52.437 120.896 54.956C121.16 55.11 121.446 55.319 121.611 55.528C124.801 52.789 124.988 47.025 125.065 45.76H124.218ZM133.744 48.521V49.203H140.245V48.521H133.744ZM132.182 54.835V55.583H141.818V54.835H132.182ZM134.712 52.349H139.222V53.405H134.712V52.349ZM134.712 50.677H139.222V51.722H134.712V50.677ZM133.92 50.017V54.065H140.058V50.017H133.92ZM132.391 46.794V48.928H133.205V47.531H140.795V48.928H141.631V46.794H132.391ZM136.219 45.936C136.472 46.365 136.736 46.937 136.846 47.289L137.682 47.025C137.561 46.673 137.275 46.112 137.022 45.705L136.219 45.936ZM145.129 54.703V55.407H150.948V54.703H145.129ZM144.7 50.699V51.381H151.344V50.699H144.7ZM144.7 49.049V49.72H151.344V49.049H144.7ZM143.105 47.41V48.136H152.972V47.41H143.105ZM144.601 52.415V55.88H145.404V53.13H150.629V55.847H151.465V52.415H144.601ZM147.043 45.98C147.461 46.475 147.923 47.124 148.099 47.564L148.946 47.289C148.737 46.849 148.264 46.211 147.835 45.749L147.043 45.98ZM37.615 71.815C37.252 73.432 36.614 75.016 35.8 76.039C35.987 76.16 36.317 76.424 36.46 76.567C37.307 75.445 38 73.751 38.429 71.991L37.615 71.815ZM37.428 76.479C37.12 77.799 36.592 79.108 35.91 79.955C36.108 80.054 36.46 80.274 36.625 80.406C37.296 79.482 37.89 78.085 38.231 76.644L37.428 76.479ZM37.516 73.883L37.197 74.653H42.466V73.883H37.516ZM39.221 74.202V80.879C39.221 81.022 39.177 81.066 39.034 81.066C38.88 81.066 38.407 81.077 37.89 81.055C38.011 81.297 38.132 81.66 38.187 81.891C38.869 81.891 39.342 81.869 39.639 81.726C39.947 81.594 40.046 81.352 40.046 80.879V74.202H39.221ZM40.838 76.644C41.443 77.799 41.993 79.35 42.169 80.362L42.95 80.098C42.763 79.075 42.213 77.557 41.575 76.402L40.838 76.644ZM42.224 73.883V74.004C42.114 74.73 41.971 75.654 41.85 76.204L42.565 76.336C42.708 75.742 42.895 74.796 43.049 73.982L42.477 73.861L42.334 73.883H42.224ZM35.404 71.804C34.788 73.476 33.754 75.126 32.665 76.193C32.819 76.38 33.05 76.82 33.138 77.007C34.326 75.775 35.459 73.916 36.185 72.046L35.404 71.804ZM34.26 74.642V81.869H35.052V73.872L35.03 73.861L34.26 74.642ZM48.758 74.213H52.432V75.093H48.758V74.213ZM48.758 72.75H52.432V73.63H48.758V72.75ZM47.999 72.123V75.731H53.224V72.123H47.999ZM47.493 76.523V77.216H53.829V76.523H47.493ZM50.199 76.864V81.044L50.969 81.363V76.864H50.199ZM48.725 78.888L48.219 79.075C48.89 81.319 50.155 81.715 51.992 81.715H53.928C53.95 81.506 54.06 81.154 54.17 80.978C53.785 80.989 52.3 80.989 52.025 80.989C50.496 80.989 49.286 80.714 48.725 78.888ZM50.727 78.503V79.185H53.279V78.503H50.727ZM48.219 77.733C48.043 79.361 47.548 80.604 46.569 81.385C46.734 81.506 47.053 81.748 47.185 81.88C48.175 81 48.747 79.636 48.967 77.821L48.219 77.733ZM43.808 77.612L44.017 78.415C44.952 78.118 46.151 77.722 47.295 77.348L47.174 76.589C45.942 76.985 44.666 77.381 43.808 77.612ZM43.929 73.982V74.752H47.284V73.982H43.929ZM45.293 71.771V80.846C45.293 81.011 45.249 81.055 45.106 81.055C44.974 81.055 44.556 81.055 44.072 81.044C44.182 81.275 44.281 81.616 44.314 81.814C45.007 81.814 45.436 81.792 45.689 81.66C45.964 81.528 46.063 81.308 46.063 80.857V71.771H45.293ZM61.584 76.237C60.572 79.02 58.262 80.45 54.929 81.143C55.105 81.341 55.369 81.715 55.457 81.924C58.834 81.077 61.254 79.548 62.464 76.479L61.584 76.237ZM57.998 74.345C57.327 75.28 56.161 76.193 55.083 76.765C55.292 76.919 55.611 77.249 55.754 77.425C56.821 76.754 58.053 75.72 58.834 74.664L57.998 74.345ZM58.438 76.292L57.657 76.534C58.834 79.46 61.045 81.22 64.554 81.891C64.675 81.66 64.917 81.286 65.104 81.099C61.694 80.538 59.461 78.899 58.438 76.292ZM55.171 73.201V74.004H64.829V73.201H55.171ZM59.549 71.749V73.718H60.396V71.749H59.549ZM61.287 74.807C62.343 75.522 63.619 76.589 64.213 77.315L64.928 76.743C64.301 76.017 63.003 74.994 61.969 74.301L61.287 74.807ZM66.941 73.531V74.268H69.515V79.977H66.941V80.725H70.285V73.531H66.941ZM66.446 73.531V81.605H67.216V73.531H66.446ZM66.886 76.589V77.326H69.922V76.589H66.886ZM68.129 71.738C68.041 72.31 67.832 73.146 67.645 73.674L68.305 73.839C68.525 73.344 68.8 72.585 69.02 71.903L68.129 71.738ZM71.847 73.498V74.268H75.224V73.498H71.847ZM74.938 73.498V73.674C74.784 78.525 74.608 80.351 74.245 80.747C74.124 80.89 73.992 80.923 73.772 80.923C73.519 80.923 72.859 80.912 72.144 80.857C72.298 81.077 72.397 81.418 72.419 81.66C73.035 81.693 73.684 81.715 74.058 81.671C74.443 81.638 74.696 81.539 74.938 81.22C75.378 80.681 75.532 78.976 75.708 73.927C75.708 73.806 75.708 73.498 75.708 73.498H74.938ZM72.078 71.716C71.726 73.245 71.121 74.763 70.373 75.731C70.571 75.841 70.912 76.072 71.055 76.204C71.814 75.159 72.463 73.542 72.87 71.903L72.078 71.716ZM71.572 76.358C72.177 77.161 72.914 78.25 73.244 78.921L73.948 78.481C73.596 77.832 72.837 76.765 72.21 75.984L71.572 76.358ZM80.944 72.288V72.959H86.037V72.288H80.944ZM80.812 75.335V76.017H86.235V75.335H80.812ZM80.812 76.864V77.546H86.213V76.864H80.812ZM81.131 80.681V81.363H85.905V80.681H81.131ZM79.91 73.806V74.499H87.071V73.806H79.91ZM80.702 78.393V81.88H81.494V79.064H85.509V81.847H86.334V78.393H80.702ZM79.536 71.793C78.898 73.465 77.82 75.104 76.709 76.149C76.863 76.347 77.094 76.776 77.171 76.963C78.392 75.742 79.569 73.894 80.317 72.035L79.536 71.793ZM78.392 74.631V81.858H79.184V73.861L79.173 73.85L78.392 74.631ZM90.789 78.921V80.747C90.789 81.594 91.075 81.825 92.23 81.825C92.472 81.825 94.133 81.825 94.386 81.825C95.299 81.825 95.541 81.528 95.651 80.307C95.431 80.263 95.09 80.142 94.903 80.01C94.859 80.945 94.782 81.077 94.309 81.077C93.946 81.077 92.56 81.077 92.296 81.077C91.702 81.077 91.603 81.022 91.603 80.736V78.921H90.789ZM91.922 78.536C92.56 78.976 93.275 79.647 93.583 80.131L94.232 79.669C93.902 79.174 93.176 78.536 92.527 78.107L91.922 78.536ZM95.475 79.13C96.278 79.834 97.103 80.824 97.444 81.517L98.148 81.055C97.796 80.351 96.927 79.394 96.135 78.723L95.475 79.13ZM89.282 78.833C89.04 79.636 88.578 80.516 87.907 81.044L88.578 81.517C89.304 80.923 89.733 79.955 90.008 79.097L89.282 78.833ZM90.481 74.851H95.629V75.764H90.481V74.851ZM90.481 76.402H95.629V77.315H90.481V76.402ZM90.481 73.322H95.629V74.224H90.481V73.322ZM89.689 72.662V77.986H96.454V72.662H89.689ZM92.615 71.65C92.516 72.002 92.329 72.519 92.164 72.871L92.901 73.047C93.088 72.728 93.352 72.288 93.572 71.815L92.615 71.65ZM102.251 77.007V77.777H109.049V77.007H102.251ZM106.728 76.127V80.868C106.728 81.033 106.684 81.066 106.508 81.077C106.31 81.088 105.694 81.088 105.012 81.066C105.133 81.308 105.254 81.649 105.287 81.88C106.156 81.88 106.739 81.869 107.091 81.737C107.443 81.605 107.542 81.363 107.542 80.879V76.127H106.728ZM107.839 71.76C106.508 72.178 104.165 72.563 102.152 72.794C102.251 72.97 102.35 73.267 102.383 73.454C104.429 73.245 106.838 72.871 108.411 72.398L107.839 71.76ZM102.548 74.026C102.889 74.664 103.208 75.533 103.318 76.061L104.055 75.797C103.945 75.258 103.593 74.422 103.241 73.795L102.548 74.026ZM104.704 73.597C104.957 74.246 105.166 75.082 105.199 75.61L105.98 75.401C105.936 74.884 105.705 74.07 105.441 73.421L104.704 73.597ZM103.131 78.591C103.703 79.174 104.33 80.01 104.572 80.571L105.287 80.153C105.012 79.603 104.385 78.789 103.813 78.228L103.131 78.591ZM100.997 71.771V81.88H101.789V71.771H100.997ZM98.775 78.965L99.193 79.812C99.886 79.35 100.7 78.789 101.481 78.239L101.217 77.546C100.315 78.096 99.391 78.646 98.775 78.965ZM98.896 73.487C99.402 74.202 99.93 75.159 100.128 75.786L100.843 75.401C100.634 74.796 100.095 73.861 99.567 73.168L98.896 73.487ZM108.103 73.289C107.641 74.147 106.805 75.28 106.189 75.995L106.827 76.358C107.454 75.643 108.257 74.587 108.851 73.663L108.103 73.289ZM113.504 73.498C114.208 74.312 114.923 75.445 115.209 76.204L116.001 75.775C115.682 75.027 114.978 73.938 114.241 73.135L113.504 73.498ZM109.885 79.834L110.182 80.692C111.403 80.164 113.075 79.427 114.604 78.723L114.417 77.92C112.767 78.646 111.007 79.394 109.885 79.834ZM116.485 78.382C117.541 79.46 118.861 80.945 119.477 81.858L120.181 81.209C119.532 80.307 118.168 78.877 117.123 77.843L116.485 78.382ZM118.014 72.332C117.519 77.117 116.353 79.812 112.547 81.198C112.756 81.374 113.086 81.737 113.207 81.913C117.057 80.307 118.344 77.502 118.905 72.42L118.014 72.332ZM111.227 72.365L111.414 79.636L112.261 79.603L112.074 72.332L111.227 72.365ZM121.281 78.998C121.281 78.833 121.842 78.602 121.842 78.602V78.58C122.909 77.524 124.009 76.05 124.911 74.565L124.24 74.147C123.448 75.621 122.249 77.15 121.875 77.546C121.523 77.942 121.27 78.217 121.028 78.261C121.116 78.459 121.237 78.844 121.281 78.998ZM121.281 78.998C121.512 78.866 121.908 78.756 124.922 78.151C124.9 77.986 124.9 77.667 124.922 77.447L121.644 78.052L121.237 78.338L121.281 78.998ZM121.204 76.358C121.204 76.182 121.699 75.929 121.699 75.929V75.907C122.502 74.906 123.305 73.476 123.899 72.112L123.14 71.76C122.667 73.091 121.831 74.532 121.589 74.906C121.336 75.269 121.138 75.533 120.929 75.577C121.039 75.797 121.16 76.182 121.204 76.358ZM121.204 76.358C121.391 76.27 121.699 76.204 123.613 75.94C123.613 75.786 123.635 75.489 123.679 75.28L121.578 75.5L121.182 75.753L121.204 76.358ZM120.995 80.417L121.149 81.231C122.183 80.956 123.569 80.615 124.911 80.285L124.823 79.57C123.404 79.9 121.952 80.23 120.995 80.417ZM127.991 72.849C128.035 77.744 128.464 81.781 130.037 81.781C130.741 81.781 131.005 81.297 131.115 79.636C130.906 79.57 130.62 79.394 130.444 79.229C130.411 80.439 130.323 80.978 130.114 80.978C129.3 80.978 128.772 77.513 128.816 72.849H127.991ZM125.868 76.039V76.809H130.807V76.039H125.868ZM130.048 71.848C128.937 72.211 127.012 72.552 125.362 72.772C125.45 72.948 125.571 73.256 125.604 73.443C127.298 73.245 129.278 72.915 130.642 72.508L130.048 71.848ZM125.318 81.913C125.527 81.748 125.857 81.605 128.123 80.835C128.09 80.648 128.046 80.34 128.035 80.109L125.604 80.868L125.241 81.176L125.318 81.913ZM125.318 81.913C125.318 81.616 126.143 81.11 126.143 81.11V72.772H125.362V80.472C125.362 80.923 125.131 81.143 124.955 81.253C125.087 81.396 125.263 81.726 125.318 81.913ZM135.009 72.772V73.487H139.387V72.772H135.009ZM139.156 72.772V72.915C138.012 75.049 134.965 76.347 132.138 76.798C132.281 76.974 132.457 77.315 132.523 77.535C135.526 76.963 138.661 75.61 140.036 73.058L139.475 72.739L139.332 72.772H139.156ZM135.647 71.749C135.075 72.739 133.942 73.883 132.303 74.675C132.501 74.807 132.765 75.082 132.897 75.28C134.624 74.356 135.801 73.146 136.56 71.914L135.647 71.749ZM135.042 73.234L134.338 73.542C135.757 75.654 138.386 76.886 141.521 77.359C141.62 77.139 141.84 76.798 142.016 76.611C138.914 76.226 136.285 75.093 135.042 73.234ZM132.116 77.876V78.624H141.884V77.876H132.116ZM136.549 76.699V81.88H137.385V76.699H136.549ZM136.186 78.206C135.273 79.394 133.502 80.505 131.907 81.011C132.083 81.187 132.325 81.484 132.446 81.693C134.063 81.077 135.845 79.867 136.835 78.492L136.186 78.206ZM137.759 78.195L137.099 78.492C138.089 79.856 139.871 81.055 141.532 81.649C141.653 81.44 141.906 81.121 142.093 80.945C140.432 80.461 138.672 79.394 137.759 78.195ZM143.941 73.531V74.268H146.515V79.977H143.941V80.725H147.285V73.531H143.941ZM143.446 73.531V81.605H144.216V73.531H143.446ZM143.886 76.589V77.326H146.922V76.589H143.886ZM145.129 71.738C145.041 72.31 144.832 73.146 144.645 73.674L145.305 73.839C145.525 73.344 145.8 72.585 146.02 71.903L145.129 71.738ZM148.847 73.498V74.268H152.224V73.498H148.847ZM151.938 73.498V73.674C151.784 78.525 151.608 80.351 151.245 80.747C151.124 80.89 150.992 80.923 150.772 80.923C150.519 80.923 149.859 80.912 149.144 80.857C149.298 81.077 149.397 81.418 149.419 81.66C150.035 81.693 150.684 81.715 151.058 81.671C151.443 81.638 151.696 81.539 151.938 81.22C152.378 80.681 152.532 78.976 152.708 73.927C152.708 73.806 152.708 73.498 152.708 73.498H151.938ZM149.078 71.716C148.726 73.245 148.121 74.763 147.373 75.731C147.571 75.841 147.912 76.072 148.055 76.204C148.814 75.159 149.463 73.542 149.87 71.903L149.078 71.716ZM148.572 76.358C149.177 77.161 149.914 78.25 150.244 78.921L150.948 78.481C150.596 77.832 149.837 76.765 149.21 75.984L148.572 76.358ZM154.127 72.442V73.223H159.792V72.442H154.127ZM153.951 76.072V76.842H159.946V76.072H153.951ZM157.944 72.651V81.88H158.758V72.651H157.944ZM155.392 72.64V76.182C155.392 78.03 155.238 79.922 153.896 81.396C154.094 81.517 154.391 81.781 154.523 81.946C155.997 80.329 156.173 78.25 156.173 76.182V72.64H155.392ZM162.795 71.947C162.124 72.838 160.859 73.762 159.803 74.29C160.023 74.444 160.265 74.697 160.408 74.873C161.519 74.257 162.762 73.278 163.576 72.266L162.795 71.947ZM163.125 74.972C162.388 75.929 161.046 76.93 159.924 77.502C160.133 77.656 160.375 77.909 160.507 78.085C161.684 77.425 163.026 76.369 163.873 75.291L163.125 74.972ZM163.367 77.953C162.542 79.328 160.98 80.538 159.352 81.22C159.561 81.385 159.803 81.682 159.935 81.88C161.64 81.088 163.213 79.779 164.148 78.261L163.367 77.953ZM172.299 72.31C172.871 72.706 173.542 73.3 173.872 73.696L174.455 73.179C174.114 72.794 173.421 72.222 172.849 71.837L172.299 72.31ZM165.105 73.817V74.62H174.906V73.817H165.105ZM165.479 76.27V77.073H170.341V76.27H165.479ZM167.459 76.699V80.626H168.284V76.699H167.459ZM165.149 80.736L165.402 81.561C166.821 81.242 168.834 80.78 170.715 80.34L170.649 79.603C168.614 80.043 166.458 80.483 165.149 80.736ZM170.704 71.815C170.748 77.139 171.639 81.902 173.828 81.902C174.675 81.902 174.994 81.341 175.137 79.416C174.906 79.339 174.587 79.152 174.4 78.965C174.334 80.439 174.202 81.044 173.894 81.044C172.541 81.044 171.551 76.919 171.584 71.815H170.704ZM32.214 89.105V89.842H36.449V89.105H32.214ZM32.181 86.465V87.235H36.944V86.465H32.181ZM34.227 84.771V89.545H35.03V84.771H34.227ZM31.84 86.465V89.127C31.84 90.711 31.719 92.911 30.586 94.462C30.773 94.55 31.114 94.759 31.257 94.902C32.434 93.263 32.621 90.821 32.621 89.127V86.465H31.84ZM33.358 89.49L32.643 89.677C33.38 92.207 34.821 94.077 37.109 94.924C37.241 94.682 37.483 94.363 37.67 94.198C35.459 93.494 34.018 91.756 33.358 89.49ZM36.713 86.465V86.597C36.581 87.268 36.361 88.115 36.163 88.621L36.867 88.764C37.109 88.225 37.362 87.334 37.549 86.575L36.966 86.432L36.834 86.465H36.713ZM36.262 89.105V89.248C35.701 91.778 33.985 93.505 32.038 94.22C32.203 94.374 32.423 94.682 32.522 94.891C34.645 94.022 36.416 92.229 37.087 89.259L36.57 89.072L36.416 89.105H36.262ZM29.046 90.161V94.891H29.827V89.226L29.046 90.161ZM27.528 86.806V87.554H30.773V86.806H27.528ZM29.024 84.804V87.235H29.805V84.804H29.024ZM29.739 89.237L29.31 89.6C29.673 90.018 30.608 91.239 30.927 91.756L31.422 91.195C31.169 90.876 30.058 89.545 29.739 89.237ZM30.564 86.806V86.982C29.97 88.577 28.584 90.216 27.275 91.096C27.407 91.228 27.616 91.613 27.693 91.822C29.079 90.799 30.586 89.006 31.312 87.07L30.872 86.773L30.729 86.806H30.564ZM31.103 88.775C30.883 89.193 30.454 89.809 30.146 90.172L30.553 90.491C30.872 90.15 31.279 89.622 31.62 89.149L31.103 88.775ZM43.643 87.345V88.137H48.538V87.345H43.643ZM38.847 86.19V86.938H43.258V86.19H38.847ZM38.759 90.766V91.514H43.357V90.766H38.759ZM38.495 88.467V89.226H43.478V88.467H38.495ZM46.635 84.87V93.813C46.635 94 46.569 94.055 46.36 94.066C46.173 94.066 45.568 94.077 44.875 94.055C44.996 94.275 45.139 94.638 45.183 94.858C46.107 94.858 46.646 94.836 46.987 94.704C47.306 94.561 47.449 94.33 47.449 93.813V84.87H46.635ZM44.072 89.402C44.468 90.216 44.93 91.316 45.139 91.954L45.909 91.635C45.667 91.019 45.172 89.941 44.776 89.149L44.072 89.402ZM40.662 84.76V88.863H41.454V84.76H40.662ZM40.662 89.479V93.703H41.454V89.479H40.662ZM38.396 93.604L38.517 94.429C39.892 94.198 41.839 93.879 43.687 93.56L43.654 92.801C41.729 93.098 39.694 93.428 38.396 93.604ZM52.685 91.085V91.855H59.527V91.085H52.685ZM53.62 88.236V88.995H58.152V88.236H53.62ZM55.765 90.062V93.901C55.765 94.055 55.71 94.099 55.523 94.11C55.325 94.11 54.676 94.121 53.939 94.099C54.049 94.33 54.159 94.649 54.203 94.88C55.149 94.88 55.754 94.88 56.117 94.759C56.491 94.627 56.59 94.396 56.59 93.912V90.062H55.765ZM57.932 88.236V88.39C57.514 88.962 56.645 89.732 55.908 90.172C56.051 90.282 56.26 90.513 56.37 90.656C57.217 90.15 58.185 89.347 58.834 88.588L58.306 88.192L58.13 88.236H57.932ZM49.682 86.201V86.993H59.318V86.201H49.682ZM53.235 84.76C52.619 87.037 51.343 89.479 49.341 90.876C49.484 91.074 49.693 91.437 49.781 91.646C51.981 90.073 53.323 87.51 54.093 84.98L53.235 84.76ZM51.068 89.259V94.858H51.893V89.259H51.068ZM60.682 86.465V87.268H70.318V86.465H60.682ZM64.092 89.952V90.722H69.889V89.952H64.092ZM63.663 93.846V94.627H70.318V93.846H63.663ZM66.578 87.829V94.264H67.403V87.829H66.578ZM64.301 84.76C63.685 87.026 62.398 89.468 60.418 90.865C60.55 91.052 60.759 91.404 60.847 91.624C63.036 90.051 64.378 87.488 65.148 84.969L64.301 84.76ZM62.123 89.292V94.847H62.948V89.292H62.123ZM76.951 89.358L76.148 89.534C76.907 92.328 78.37 94.143 81.043 94.902C81.175 94.671 81.417 94.319 81.615 94.132C79.041 93.505 77.589 91.822 76.951 89.358ZM71.99 89.039V89.875H81.043V89.039H71.99ZM71.649 85.618V86.454H81.329V85.618H71.649ZM75.983 85.849V88.412C75.983 90.425 75.554 92.79 71.44 94.187C71.616 94.352 71.858 94.704 71.946 94.913C76.357 93.384 76.852 90.733 76.852 88.412V85.849H75.983ZM84.618 86.454V87.235H87.423V86.454H84.618ZM89.425 84.771V94.858H90.272V84.771H89.425ZM83.419 89.215C84.343 89.743 85.454 90.568 85.982 91.14L86.444 90.458C85.905 89.897 84.772 89.116 83.848 88.61L83.419 89.215ZM84.937 84.76C84.42 86.751 83.507 88.577 82.286 89.699C82.484 89.831 82.836 90.095 82.979 90.238C84.211 88.995 85.179 87.081 85.762 84.925L84.937 84.76ZM88.292 87.378L87.599 87.642C88.633 89.556 90.448 91.382 92.241 92.306C92.384 92.086 92.637 91.778 92.835 91.613C91.053 90.81 89.227 89.105 88.292 87.378ZM87.192 86.454V86.641C86.62 90.557 84.882 92.977 82.539 94.209C82.737 94.341 83.056 94.638 83.199 94.825C85.553 93.505 87.368 90.876 88.028 86.597L87.5 86.421L87.346 86.454H87.192ZM98.951 89.358L98.148 89.534C98.907 92.328 100.37 94.143 103.043 94.902C103.175 94.671 103.417 94.319 103.615 94.132C101.041 93.505 99.589 91.822 98.951 89.358ZM93.99 89.039V89.875H103.043V89.039H93.99ZM93.649 85.618V86.454H103.329V85.618H93.649ZM97.983 85.849V88.412C97.983 90.425 97.554 92.79 93.44 94.187C93.616 94.352 93.858 94.704 93.946 94.913C98.357 93.384 98.852 90.733 98.852 88.412V85.849H97.983ZM110.688 84.793V93.857H111.524V84.793H110.688ZM107.707 93.692L107.861 94.55C109.412 94.374 111.7 94.132 113.823 93.868L113.812 93.065C111.568 93.307 109.181 93.56 107.707 93.692ZM112.47 91.657C112.976 92.68 113.537 94.033 113.768 94.836L114.593 94.55C114.34 93.758 113.735 92.438 113.24 91.437L112.47 91.657ZM109.082 87.664H113.108V90.282H109.082V87.664ZM108.268 86.938V91.008H113.955V86.938H108.268ZM104.594 85.376C106.42 86.982 106.684 88.731 106.684 90.722C106.684 92.163 106.585 93.505 106.31 93.868C106.211 93.989 106.112 94.044 105.947 94.066C105.694 94.088 105.265 94.099 104.748 94.055C104.88 94.286 104.968 94.594 104.979 94.847C105.452 94.869 105.892 94.869 106.266 94.803C106.552 94.748 106.75 94.627 106.904 94.44C107.355 93.835 107.476 92.35 107.476 90.744C107.476 88.654 107.212 86.685 105.166 84.936L104.594 85.376ZM106.728 88.896C106.244 89.93 105.243 91.085 104.363 91.657C104.561 91.811 104.792 92.086 104.924 92.284C105.815 91.591 106.816 90.348 107.333 89.27L106.728 88.896ZM107.267 84.947C106.651 86.069 105.551 87.345 104.418 88.17C104.594 88.302 104.858 88.533 104.99 88.698C106.145 87.807 107.267 86.564 107.982 85.321L107.267 84.947ZM120.06 84.771V86.234H120.907V84.771H120.06ZM115.957 85.75V87.939H116.76V86.509H124.262V87.939H125.098V85.75H115.957ZM117.365 87.609V88.335H123.558V87.609H117.365ZM118.806 89.259C120.94 90.887 120.984 93.373 120.203 93.934C119.983 94.121 119.741 94.143 119.444 94.143C119.191 94.143 118.817 94.132 118.41 94.088C118.553 94.319 118.63 94.66 118.652 94.88C118.993 94.902 119.345 94.913 119.609 94.913C120.104 94.913 120.412 94.836 120.786 94.539C121.919 93.747 121.864 90.678 119.422 88.874L118.806 89.259ZM120.456 87.774C119.455 88.709 117.563 89.457 115.88 89.864C116.023 90.018 116.243 90.359 116.331 90.513C118.047 90.018 120.005 89.171 121.138 88.071L120.456 87.774ZM119.675 89.875C118.861 90.546 117.2 91.327 115.957 91.668C116.122 91.833 116.298 92.119 116.397 92.306C117.662 91.855 119.312 90.997 120.225 90.249L119.675 89.875ZM120.489 91.008C119.455 92.075 117.321 93.219 115.572 93.681C115.726 93.868 115.913 94.165 116.012 94.374C117.772 93.791 119.917 92.581 121.061 91.426L120.489 91.008ZM121.501 87.895L120.819 88.038C121.479 90.799 122.777 93.032 124.944 94.022C125.076 93.791 125.329 93.472 125.516 93.307C123.426 92.471 122.106 90.37 121.501 87.895ZM124.328 88.709C123.701 89.27 122.634 90.018 121.886 90.458L122.403 90.964C123.184 90.546 124.218 89.864 124.966 89.259L124.328 88.709ZM133.084 89.237C132.072 92.02 129.762 93.45 126.429 94.143C126.605 94.341 126.869 94.715 126.957 94.924C130.334 94.077 132.754 92.548 133.964 89.479L133.084 89.237ZM129.498 87.345C128.827 88.28 127.661 89.193 126.583 89.765C126.792 89.919 127.111 90.249 127.254 90.425C128.321 89.754 129.553 88.72 130.334 87.664L129.498 87.345ZM129.938 89.292L129.157 89.534C130.334 92.46 132.545 94.22 136.054 94.891C136.175 94.66 136.417 94.286 136.604 94.099C133.194 93.538 130.961 91.899 129.938 89.292ZM126.671 86.201V87.004H136.329V86.201H126.671ZM131.049 84.749V86.718H131.896V84.749H131.049ZM132.787 87.807C133.843 88.522 135.119 89.589 135.713 90.315L136.428 89.743C135.801 89.017 134.503 87.994 133.469 87.301L132.787 87.807ZM141.158 89.248L140.443 89.468C141.554 92.372 143.666 94.176 147.01 94.88C147.12 94.649 147.351 94.308 147.538 94.132C144.26 93.538 142.126 91.855 141.158 89.248ZM145.217 88.863V89.017C144.414 91.899 142.093 93.527 139.464 94.187C139.64 94.352 139.838 94.671 139.937 94.891C142.764 94.077 145.162 92.394 146.086 89.072L145.525 88.819L145.371 88.863H145.217ZM137.759 86.597V87.4H147.263V86.597H137.759ZM140.707 88.863L140.476 89.666H145.305V88.863H140.707ZM140.707 84.76C140.652 85.761 140.553 91.437 137.385 93.956C137.649 94.11 137.935 94.319 138.1 94.528C141.29 91.789 141.477 86.025 141.554 84.76H140.707ZM150.167 89.424V94.869H150.959V90.062H156.14V94.825H156.976V89.424H150.167ZM150.552 90.92V91.514H156.569V90.92H150.552ZM148.715 85.684V86.399H158.274V85.684H148.715ZM150.552 92.383V92.966H156.569V92.383H150.552ZM150.552 93.857V94.495H156.569V93.857H150.552ZM153.071 84.771V86.19H153.885V84.771H153.071ZM149.804 86.102V87.367C149.804 88.28 150.2 88.599 151.454 88.599C151.828 88.599 155.282 88.599 155.92 88.599C156.635 88.599 157.438 88.588 157.713 88.522C157.68 88.346 157.636 88.049 157.603 87.796C157.24 87.862 156.36 87.884 155.832 87.884C155.183 87.884 151.993 87.884 151.399 87.884C150.772 87.884 150.629 87.752 150.629 87.378V86.102H149.804ZM162.289 87.026V87.653H166.689V87.026H162.289ZM164.5 85.475C165.578 86.487 167.47 87.565 169.032 88.126C169.153 87.906 169.351 87.609 169.527 87.422C167.888 86.916 166.051 85.926 164.841 84.782H164.06C163.158 85.816 161.354 86.971 159.517 87.631C159.682 87.807 159.869 88.104 159.968 88.291C161.772 87.576 163.532 86.454 164.5 85.475ZM162.003 88.94H166.942V89.974H162.003V88.94ZM161.255 88.324V90.579H167.723V88.324H161.255ZM159.495 93.846V94.572H169.505V93.846H159.495ZM160.738 91.305V94.231H161.508V91.987H162.982V94.231H163.752V91.987H165.226V94.231H165.996V91.987H167.492V94.231H168.295V91.305H160.738ZM171.056 86.729V91.965H171.881V87.543H179.064V91.91H179.922V86.729H171.056ZM171.496 90.469V91.272H179.559V90.469H171.496ZM175.038 84.76V94.869H175.896V84.76H175.038ZM60.979 113.037V113.829H70.087V113.037H60.979ZM60.572 116.216V117.008H70.439V116.216H60.572ZM67.051 113.444V120.88H67.898V113.444H67.051ZM63.135 113.444V115.941C63.135 117.514 62.871 119.175 60.572 120.33C60.748 120.484 61.023 120.77 61.133 120.968C63.641 119.681 63.949 117.778 63.949 115.952V113.444H63.135ZM62.387 111.057C62.86 111.662 63.344 112.498 63.531 113.026L64.301 112.685C64.092 112.157 63.597 111.354 63.113 110.771L62.387 111.057ZM67.788 110.738C67.535 111.343 67.062 112.19 66.666 112.729L67.381 112.993C67.788 112.498 68.283 111.706 68.712 111.024L67.788 110.738ZM71.682 112.465V113.268H81.318V112.465H71.682ZM75.092 115.952V116.722H80.889V115.952H75.092ZM74.663 119.846V120.627H81.318V119.846H74.663ZM77.578 113.829V120.264H78.403V113.829H77.578ZM75.301 110.76C74.685 113.026 73.398 115.468 71.418 116.865C71.55 117.052 71.759 117.404 71.847 117.624C74.036 116.051 75.378 113.488 76.148 110.969L75.301 110.76ZM73.123 115.292V120.847H73.948V115.292H73.123ZM86.62 112.135V112.883H92.472V112.135H86.62ZM86.884 113.884V114.61H91.295V113.884H86.884ZM85.135 116.161V116.92H92.681V116.161H85.135ZM86.279 118.603V119.318H92.604V118.603H86.279ZM86.862 110.76C86.488 112.058 85.828 113.345 85.025 114.159C85.234 114.258 85.586 114.5 85.74 114.632C86.521 113.752 87.236 112.366 87.676 110.936L86.862 110.76ZM86.543 113.884C86.356 115.721 85.982 118.273 85.685 119.758L86.477 119.824C86.741 118.35 87.093 115.776 87.313 113.884H86.543ZM88.732 114.181C88.633 115.666 88.413 117.745 88.226 118.955H88.952C89.128 117.778 89.326 115.71 89.458 114.181H88.732ZM91.042 113.884V114.049C90.888 118.185 90.712 119.692 90.404 120.033C90.305 120.165 90.195 120.187 89.997 120.187C89.777 120.187 89.271 120.187 88.71 120.143C88.831 120.33 88.908 120.627 88.919 120.847C89.469 120.869 89.997 120.88 90.327 120.847C90.657 120.825 90.877 120.737 91.086 120.462C91.46 120.011 91.636 118.559 91.801 114.28C91.812 114.17 91.812 113.884 91.812 113.884H91.042ZM82.957 111.475C83.617 111.805 84.398 112.333 84.783 112.729L85.278 112.069C84.893 111.684 84.09 111.189 83.43 110.881L82.957 111.475ZM82.429 114.412C83.1 114.72 83.892 115.204 84.277 115.578L84.761 114.918C84.365 114.555 83.551 114.082 82.891 113.807L82.429 114.412ZM82.682 120.275L83.419 120.748C83.947 119.725 84.585 118.328 85.058 117.162L84.398 116.7C83.892 117.954 83.177 119.417 82.682 120.275ZM98.06 116.238V120.891H98.896V116.238H98.06ZM96.3 114.522H100.678V115.677H96.3V114.522ZM95.519 113.873V116.337H101.503V113.873H95.519ZM93.682 117.294V118.042H103.34V117.294H93.682ZM97.829 117.613C96.894 118.647 95.046 119.538 93.341 119.923C93.528 120.088 93.77 120.418 93.891 120.638C95.607 120.165 97.466 119.142 98.5 117.91L97.829 117.613ZM99.127 117.624L98.478 117.899C99.479 119.164 101.294 120.187 103.043 120.649C103.175 120.418 103.428 120.077 103.615 119.912C101.866 119.549 100.051 118.669 99.127 117.624ZM98.038 110.76V112.74H98.874V110.76H98.038ZM93.924 112.366V114.599H94.694V113.103H102.35V114.599H103.153V112.366H93.924ZM94.826 111.145C95.167 111.541 95.541 112.113 95.706 112.487L96.465 112.135C96.3 111.772 95.915 111.244 95.563 110.848L94.826 111.145ZM101.36 110.804C101.151 111.189 100.744 111.761 100.436 112.124L101.107 112.399C101.437 112.058 101.844 111.574 102.218 111.09L101.36 110.804ZM112.481 114.654V118.317C112.481 118.471 112.426 118.526 112.206 118.526C111.997 118.548 111.249 118.548 110.435 118.515C110.545 118.768 110.666 119.12 110.699 119.384C111.744 119.384 112.426 119.384 112.822 119.241C113.229 119.109 113.339 118.834 113.339 118.328V114.654H112.481ZM107.96 115.149V120.858H108.818V115.149H107.96ZM105.067 114.654V115.446H112.844V114.654H105.067ZM104.605 112.014V112.806H114.395V112.014H104.605ZM107.179 110.76V114.06H108.015V110.76H107.179ZM110.974 110.76V114.06H111.832V110.76H110.974ZM116.441 112.531V113.268H119.015V118.977H116.441V119.725H119.785V112.531H116.441ZM115.946 112.531V120.605H116.716V112.531H115.946ZM116.386 115.589V116.326H119.422V115.589H116.386ZM117.629 110.738C117.541 111.31 117.332 112.146 117.145 112.674L117.805 112.839C118.025 112.344 118.3 111.585 118.52 110.903L117.629 110.738ZM121.347 112.498V113.268H124.724V112.498H121.347ZM124.438 112.498V112.674C124.284 117.525 124.108 119.351 123.745 119.747C123.624 119.89 123.492 119.923 123.272 119.923C123.019 119.923 122.359 119.912 121.644 119.857C121.798 120.077 121.897 120.418 121.919 120.66C122.535 120.693 123.184 120.715 123.558 120.671C123.943 120.638 124.196 120.539 124.438 120.22C124.878 119.681 125.032 117.976 125.208 112.927C125.208 112.806 125.208 112.498 125.208 112.498H124.438ZM121.578 110.716C121.226 112.245 120.621 113.763 119.873 114.731C120.071 114.841 120.412 115.072 120.555 115.204C121.314 114.159 121.963 112.542 122.37 110.903L121.578 110.716ZM121.072 115.358C121.677 116.161 122.414 117.25 122.744 117.921L123.448 117.481C123.096 116.832 122.337 115.765 121.71 114.984L121.072 115.358ZM131.038 110.76V115.105H131.929V110.76H131.038ZM127.32 111.552C127.903 112.322 128.508 113.389 128.75 114.104L129.531 113.752C129.278 113.059 128.684 112.014 128.068 111.244L127.32 111.552ZM134.811 111.156C134.481 111.992 133.876 113.169 133.392 113.895L134.107 114.181C134.602 113.466 135.229 112.388 135.691 111.453L134.811 111.156ZM127.474 114.654V115.479H134.679V120.891H135.548V114.654H127.474ZM127.848 117.074V117.877H135.009V117.074H127.848ZM127.265 119.593V120.407H135.119V119.593H127.265ZM142.951 115.358L142.148 115.534C142.907 118.328 144.37 120.143 147.043 120.902C147.175 120.671 147.417 120.319 147.615 120.132C145.041 119.505 143.589 117.822 142.951 115.358ZM137.99 115.039V115.875H147.043V115.039H137.99ZM137.649 111.618V112.454H147.329V111.618H137.649ZM141.983 111.849V114.412C141.983 116.425 141.554 118.79 137.44 120.187C137.616 120.352 137.858 120.704 137.946 120.913C142.357 119.384 142.852 116.733 142.852 114.412V111.849H141.983ZM33.182 125.465V126.268H42.818V125.465H33.182ZM36.592 128.952V129.722H42.389V128.952H36.592ZM36.163 132.846V133.627H42.818V132.846H36.163ZM39.078 126.829V133.264H39.903V126.829H39.078ZM36.801 123.76C36.185 126.026 34.898 128.468 32.918 129.865C33.05 130.052 33.259 130.404 33.347 130.624C35.536 129.051 36.878 126.488 37.648 123.969L36.801 123.76ZM34.623 128.292V133.847H35.448V128.292H34.623ZM49.451 128.358L48.648 128.534C49.407 131.328 50.87 133.143 53.543 133.902C53.675 133.671 53.917 133.319 54.115 133.132C51.541 132.505 50.089 130.822 49.451 128.358ZM44.49 128.039V128.875H53.543V128.039H44.49ZM44.149 124.618V125.454H53.829V124.618H44.149ZM48.483 124.849V127.412C48.483 129.425 48.054 131.79 43.94 133.187C44.116 133.352 44.358 133.704 44.446 133.913C48.857 132.384 49.352 129.733 49.352 127.412V124.849H48.483ZM57.118 125.454V126.235H59.923V125.454H57.118ZM61.925 123.771V133.858H62.772V123.771H61.925ZM55.919 128.215C56.843 128.743 57.954 129.568 58.482 130.14L58.944 129.458C58.405 128.897 57.272 128.116 56.348 127.61L55.919 128.215ZM57.437 123.76C56.92 125.751 56.007 127.577 54.786 128.699C54.984 128.831 55.336 129.095 55.479 129.238C56.711 127.995 57.679 126.081 58.262 123.925L57.437 123.76ZM60.792 126.378L60.099 126.642C61.133 128.556 62.948 130.382 64.741 131.306C64.884 131.086 65.137 130.778 65.335 130.613C63.553 129.81 61.727 128.105 60.792 126.378ZM59.692 125.454V125.641C59.12 129.557 57.382 131.977 55.039 133.209C55.237 133.341 55.556 133.638 55.699 133.825C58.053 132.505 59.868 129.876 60.528 125.597L60 125.421L59.846 125.454H59.692ZM71.451 128.358L70.648 128.534C71.407 131.328 72.87 133.143 75.543 133.902C75.675 133.671 75.917 133.319 76.115 133.132C73.541 132.505 72.089 130.822 71.451 128.358ZM66.49 128.039V128.875H75.543V128.039H66.49ZM66.149 124.618V125.454H75.829V124.618H66.149ZM70.483 124.849V127.412C70.483 129.425 70.054 131.79 65.94 133.187C66.116 133.352 66.358 133.704 66.446 133.913C70.857 132.384 71.352 129.733 71.352 127.412V124.849H70.483ZM80.812 129.601V133.88H81.571V130.36H85.509V133.825H86.301V129.601H80.812ZM85.894 123.804C84.673 124.244 82.44 124.585 80.526 124.794C80.625 124.981 80.735 125.3 80.768 125.498C82.737 125.311 85.036 124.97 86.543 124.453L85.894 123.804ZM83.188 124.761V130.041H83.98V124.761H83.188ZM80.009 126.994V127.786H87.016V126.994H80.009ZM81.329 132.648V133.407H85.872V132.648H81.329ZM77.49 124.486C78.172 124.849 79.085 125.388 79.547 125.718L80.031 125.047C79.558 124.728 78.623 124.233 77.952 123.903L77.49 124.486ZM76.951 127.522C77.622 127.874 78.535 128.402 78.986 128.71L79.448 128.039C78.986 127.72 78.062 127.236 77.413 126.917L76.951 127.522ZM77.215 133.176L77.908 133.737C78.557 132.714 79.327 131.339 79.91 130.173L79.316 129.634C78.678 130.888 77.809 132.34 77.215 133.176ZM93.077 126.301V127.093H97.488V126.301H93.077ZM97.081 126.301V126.488C96.96 130.866 96.806 132.45 96.509 132.802C96.388 132.934 96.267 132.967 96.08 132.956C95.838 132.956 95.266 132.956 94.639 132.901C94.793 133.132 94.881 133.473 94.903 133.715C95.486 133.748 96.08 133.759 96.421 133.726C96.784 133.682 97.004 133.594 97.224 133.297C97.609 132.813 97.741 131.262 97.884 126.719C97.884 126.609 97.895 126.301 97.895 126.301H97.081ZM94.672 123.958C94.661 127.555 94.65 131.339 92.538 133.275C92.747 133.407 93.033 133.682 93.176 133.869C95.409 131.757 95.464 127.786 95.486 123.958H94.672ZM88.479 124.662V125.41H92.736V124.662H88.479ZM88.083 127.291V128.039H92.934V127.291H88.083ZM91.328 129.183C91.735 130.184 92.208 131.526 92.395 132.307L93.121 132.054C92.923 131.295 92.428 129.975 91.999 128.996L91.328 129.183ZM88.479 132.527C88.743 132.373 89.161 132.252 92.549 131.493C92.516 131.317 92.461 130.998 92.439 130.778L88.831 131.537L88.413 131.834L88.479 132.527ZM88.479 132.527C88.479 132.351 89.051 132.065 89.051 132.065V132.054C89.612 130.921 90.173 129.304 90.514 127.83L89.711 127.577C89.447 129.007 88.886 130.591 88.721 130.987C88.534 131.416 88.391 131.702 88.215 131.757C88.303 131.966 88.435 132.351 88.479 132.527ZM99.105 124.508V125.289H102.746V124.508H99.105ZM99.27 127.687V128.468H102.515V127.687H99.27ZM98.973 131.9L99.149 132.703C100.194 132.384 101.591 131.977 102.911 131.581L102.801 130.822C101.404 131.24 99.941 131.658 98.973 131.9ZM100.579 124.86V131.779L101.371 131.614V124.86H100.579ZM103.241 124.299V130.151H104.033V125.025H107.377V130.151H108.191V124.299H103.241ZM105.749 129.975V132.659C105.749 133.396 106.046 133.594 106.805 133.594H107.817C108.774 133.594 108.895 133.154 108.994 131.416C108.785 131.372 108.521 131.262 108.323 131.097C108.268 132.67 108.202 132.967 107.828 132.967H106.915C106.607 132.967 106.519 132.89 106.519 132.582V129.975H105.749ZM105.276 125.971V128.094C105.276 129.81 104.924 131.889 102.152 133.319C102.317 133.451 102.57 133.748 102.669 133.913C105.562 132.417 106.046 129.997 106.046 128.105V125.971H105.276ZM110.05 126.455V127.236H113.383V126.455H110.05ZM111.392 123.892V131.262H112.173V123.892H111.392ZM109.885 131.581L110.16 132.417C111.117 132.054 112.36 131.559 113.515 131.086L113.361 130.338C112.085 130.811 110.765 131.306 109.885 131.581ZM113.625 124.288V125.069H118.223V124.288H113.625ZM119.015 127.313V127.489C118.806 131.174 118.564 132.56 118.256 132.89C118.146 133.033 118.047 133.055 117.871 133.055C117.684 133.055 117.266 133.044 116.815 133C116.936 133.22 117.024 133.561 117.035 133.792C117.508 133.814 117.948 133.814 118.223 133.781C118.542 133.759 118.751 133.671 118.971 133.407C119.356 132.945 119.587 131.592 119.807 127.72C119.829 127.599 119.84 127.313 119.84 127.313H119.015ZM114.01 128.226C114.01 128.061 114.593 127.83 114.593 127.83V127.808C115.913 127.082 117.354 126.004 118.839 124.673L118.212 124.211L117.816 124.376V124.431C116.749 125.564 115.22 126.631 114.769 126.906C114.351 127.181 113.944 127.412 113.658 127.456C113.779 127.654 113.955 128.05 114.01 128.226ZM114.01 128.226C114.109 128.138 114.461 128.094 114.967 128.094H119.301V127.313H114.483L114.01 127.544V128.226ZM117.563 127.753C116.892 130.272 115.616 132.23 113.669 133.396C113.856 133.506 114.164 133.737 114.296 133.869C116.199 132.593 117.541 130.591 118.289 127.896L117.563 127.753ZM115.869 127.764C115.44 129.128 114.571 130.272 113.471 130.976C113.647 131.086 113.955 131.328 114.087 131.449C115.187 130.657 116.111 129.425 116.595 127.918L115.869 127.764ZM123.448 123.793C122.832 125.465 121.798 127.115 120.72 128.182C120.874 128.369 121.105 128.809 121.193 128.996C122.381 127.764 123.514 125.894 124.229 124.035L123.448 123.793ZM122.282 126.642V133.869H123.096V125.85L123.085 125.839L122.282 126.642ZM124.174 126.114V126.906H130.928V126.114H124.174ZM123.899 129.623V130.437H131.06V129.623H123.899ZM125.593 123.881V130.063H126.407V123.881H125.593ZM128.552 123.87V130.074H129.355V123.87H128.552ZM125.824 131.053C125.351 131.9 124.592 132.769 123.833 133.341C124.02 133.451 124.339 133.715 124.493 133.858C125.23 133.231 126.066 132.252 126.605 131.295L125.824 131.053ZM128.321 131.449C129.058 132.186 129.872 133.209 130.246 133.891L130.939 133.451C130.543 132.78 129.729 131.801 128.97 131.075L128.321 131.449ZM132.182 126.928V127.764H141.851V126.928H132.182ZM137.539 127.258L136.714 127.456C137.539 130.415 139.035 132.736 141.411 133.858C141.554 133.627 141.829 133.275 142.038 133.088C139.75 132.142 138.254 129.92 137.539 127.258ZM136.571 123.771C136.549 126.411 136.637 131.152 131.962 133.187C132.193 133.352 132.457 133.649 132.589 133.869C137.396 131.669 137.418 126.653 137.462 123.771H136.571ZM147.56 123.771V125.234H148.407V123.771H147.56ZM143.457 124.75V126.939H144.26V125.509H151.762V126.939H152.598V124.75H143.457ZM144.865 126.609V127.335H151.058V126.609H144.865ZM146.306 128.259C148.44 129.887 148.484 132.373 147.703 132.934C147.483 133.121 147.241 133.143 146.944 133.143C146.691 133.143 146.317 133.132 145.91 133.088C146.053 133.319 146.13 133.66 146.152 133.88C146.493 133.902 146.845 133.913 147.109 133.913C147.604 133.913 147.912 133.836 148.286 133.539C149.419 132.747 149.364 129.678 146.922 127.874L146.306 128.259ZM147.956 126.774C146.955 127.709 145.063 128.457 143.38 128.864C143.523 129.018 143.743 129.359 143.831 129.513C145.547 129.018 147.505 128.171 148.638 127.071L147.956 126.774ZM147.175 128.875C146.361 129.546 144.7 130.327 143.457 130.668C143.622 130.833 143.798 131.119 143.897 131.306C145.162 130.855 146.812 129.997 147.725 129.249L147.175 128.875ZM147.989 130.008C146.955 131.075 144.821 132.219 143.072 132.681C143.226 132.868 143.413 133.165 143.512 133.374C145.272 132.791 147.417 131.581 148.561 130.426L147.989 130.008ZM149.001 126.895L148.319 127.038C148.979 129.799 150.277 132.032 152.444 133.022C152.576 132.791 152.829 132.472 153.016 132.307C150.926 131.471 149.606 129.37 149.001 126.895ZM151.828 127.709C151.201 128.27 150.134 129.018 149.386 129.458L149.903 129.964C150.684 129.546 151.718 128.864 152.466 128.259L151.828 127.709ZM153.808 129.612L154.028 130.415C155.051 130.118 156.371 129.7 157.625 129.304L157.526 128.556C156.162 128.952 154.754 129.37 153.808 129.612ZM153.951 125.982V126.752H157.515V125.982H153.951ZM155.48 123.771V132.934C155.48 133.088 155.425 133.143 155.271 133.143C155.139 133.143 154.677 133.143 154.182 133.132C154.281 133.352 154.402 133.682 154.424 133.88C155.161 133.891 155.601 133.869 155.887 133.737C156.173 133.616 156.283 133.385 156.283 132.934V123.771H155.48ZM157.9 126.301V133.847H158.681V127.082H163.026V133.781H163.851V126.301H157.9ZM158.373 129.238V130.019H163.268V129.238H158.373ZM158.395 132.285V133.077H163.29V132.285H158.395ZM160.43 123.782V132.769H161.211V123.782H160.43ZM170.121 125.278V126.081H174.18V125.278H170.121ZM165.017 124.453V125.223H170.396V124.453H165.017ZM166.304 126.686V127.445H169.164V126.686H166.304ZM166.304 128.974V129.722H169.164V128.974H166.304ZM173.938 125.278V125.476C173.465 129.337 171.826 131.922 169.648 133.055C169.835 133.209 170.066 133.517 170.198 133.726C172.552 132.362 174.235 129.777 174.763 125.399L174.235 125.256L174.081 125.278H173.938ZM171.122 126.125L170.33 126.279C171.012 129.733 172.277 132.417 174.664 133.77C174.796 133.55 175.06 133.242 175.247 133.077C172.981 131.911 171.705 129.304 171.122 126.125ZM165.875 124.75V131.889H166.667V124.75H165.875ZM168.823 124.75V133.858H169.615V124.75H168.823ZM164.797 131.647L164.951 132.472C166.095 132.296 167.679 132.043 169.186 131.801L169.142 131.042C167.536 131.284 165.875 131.515 164.797 131.647ZM7.145 160.82C7.145 162.976 8.014 164.714 9.334 166.056L9.994 165.715C8.718 164.406 7.937 162.789 7.937 160.82C7.937 158.862 8.718 157.245 9.994 155.936L9.334 155.595C8.014 156.937 7.145 158.675 7.145 160.82ZM12.139 161.128V161.931H19.817V161.128H12.139ZM12.139 164.384V165.198H19.784V164.384H12.139ZM11.754 157.905V165.88H12.568V158.73H19.41V165.836H20.257V157.905H11.754ZM15.538 155.771V164.813H16.385V155.771H15.538ZM22.094 160.16V160.974H31.906V160.16H22.094ZM26.659 156.827V164.681C26.659 164.901 26.571 164.967 26.34 164.978C26.087 164.989 25.251 164.989 24.349 164.967C24.47 165.209 24.635 165.594 24.69 165.836C25.812 165.836 26.538 165.814 26.945 165.682C27.363 165.539 27.528 165.286 27.528 164.681V156.827H26.659ZM22.864 156.552V157.366H31.136V156.552H22.864ZM32.984 160.259V161.161H43.049V160.259H32.984ZM45.348 162.393V163.185H52.773V162.393H45.348ZM44.116 164.802V165.616H53.884V164.802H44.116ZM46.8 157.652V158.4H48.956V157.652H46.8ZM49.539 155.771V160.094C49.539 161.073 49.814 161.348 50.87 161.348C51.09 161.348 52.498 161.348 52.74 161.348C53.653 161.348 53.895 160.93 54.005 159.445C53.763 159.39 53.422 159.258 53.235 159.115C53.191 160.347 53.114 160.567 52.674 160.567C52.366 160.567 51.178 160.567 50.947 160.567C50.441 160.567 50.364 160.49 50.364 160.094V155.771H49.539ZM43.951 160.864L44.05 161.678C45.37 161.513 47.251 161.271 49.044 161.029L49.022 160.27C47.152 160.501 45.216 160.732 43.951 160.864ZM52.817 156.849C52.102 157.3 50.848 157.806 49.748 158.158C49.858 158.334 49.968 158.62 50.023 158.807C51.189 158.455 52.52 157.982 53.477 157.487L52.817 156.849ZM46.437 155.771V160.897L47.24 160.809V155.771H46.437ZM44.688 156.97V161.084L45.447 161.007V156.97H44.688ZM56.414 156.376V157.135H64.873V156.376H56.414ZM55.941 156.376V159.489C55.941 161.194 55.842 163.559 54.874 165.242C55.083 165.319 55.435 165.528 55.589 165.66C56.601 163.9 56.755 161.282 56.755 159.489V156.376H55.941ZM58.559 160.578H63.157V161.623H58.559V160.578ZM58.559 158.939H63.157V159.962H58.559V158.939ZM57.745 158.279V162.272H63.993V158.279H57.745ZM60.44 161.744V164.967C60.44 165.099 60.396 165.143 60.231 165.154C60.066 165.154 59.494 165.154 58.845 165.143C58.955 165.352 59.065 165.66 59.098 165.869C59.956 165.869 60.495 165.869 60.825 165.748C61.155 165.627 61.243 165.407 61.243 164.978V161.744H60.44ZM60.33 157.256C60.198 157.652 59.956 158.202 59.747 158.598L60.495 158.752C60.737 158.411 61.023 157.894 61.276 157.399L60.33 157.256ZM62.178 163.196C62.838 163.9 63.718 164.89 64.136 165.473L64.829 165.044C64.378 164.472 63.498 163.515 62.827 162.844L62.178 163.196ZM58.57 162.822C58.086 163.559 57.36 164.395 56.7 164.956C56.898 165.066 57.239 165.286 57.404 165.407C58.02 164.813 58.79 163.889 59.351 163.086L58.57 162.822ZM67.821 159.236V159.995H74.168V159.236H67.821ZM70.703 157.432C70.604 160.248 70.395 162.514 67.832 163.625C68.008 163.768 68.25 164.076 68.36 164.274C71.088 163.02 71.396 160.534 71.506 157.432H70.703ZM70.549 160.886C71.66 161.865 72.958 163.273 73.574 164.175L74.168 163.669C73.552 162.789 72.254 161.447 71.11 160.468L70.549 160.886ZM66.402 156.211V165.869H67.183V156.97H74.806V165.869H75.62V156.211H66.402ZM66.886 164.626V165.33H75.235V164.626H66.886ZM78.227 166.177C79.382 165.781 80.13 164.879 80.13 163.691C80.13 162.921 79.8 162.415 79.184 162.415C78.744 162.415 78.348 162.69 78.348 163.207C78.348 163.735 78.722 163.999 79.173 163.999C79.382 163.999 79.602 163.944 79.756 163.746L79.162 162.91L79.371 163.845C79.371 164.67 78.876 165.231 77.974 165.605L78.227 166.177ZM89.414 156.376V157.135H97.873V156.376H89.414ZM88.941 156.376V159.489C88.941 161.194 88.842 163.559 87.874 165.242C88.083 165.319 88.435 165.528 88.589 165.66C89.601 163.9 89.755 161.282 89.755 159.489V156.376H88.941ZM91.559 160.578H96.157V161.623H91.559V160.578ZM91.559 158.939H96.157V159.962H91.559V158.939ZM90.745 158.279V162.272H96.993V158.279H90.745ZM93.44 161.744V164.967C93.44 165.099 93.396 165.143 93.231 165.154C93.066 165.154 92.494 165.154 91.845 165.143C91.955 165.352 92.065 165.66 92.098 165.869C92.956 165.869 93.495 165.869 93.825 165.748C94.155 165.627 94.243 165.407 94.243 164.978V161.744H93.44ZM93.33 157.256C93.198 157.652 92.956 158.202 92.747 158.598L93.495 158.752C93.737 158.411 94.023 157.894 94.276 157.399L93.33 157.256ZM95.178 163.196C95.838 163.9 96.718 164.89 97.136 165.473L97.829 165.044C97.378 164.472 96.498 163.515 95.827 162.844L95.178 163.196ZM91.57 162.822C91.086 163.559 90.36 164.395 89.7 164.956C89.898 165.066 90.239 165.286 90.404 165.407C91.02 164.813 91.79 163.889 92.351 163.086L91.57 162.822ZM99.193 157.19V157.971H108.829V157.19H99.193ZM101.877 161.117V161.832H107.047V161.117H101.877ZM101.294 159.247V165.88H102.108V159.984H106.915V159.247H101.294ZM106.728 159.247V164.846C106.728 165.011 106.662 165.066 106.475 165.077C106.277 165.077 105.606 165.088 104.869 165.055C104.99 165.286 105.111 165.627 105.144 165.858C106.09 165.858 106.706 165.858 107.058 165.726C107.432 165.594 107.531 165.341 107.531 164.857V159.247H106.728ZM102.79 155.76C102.196 157.971 100.898 160.303 98.929 161.656C99.094 161.821 99.347 162.107 99.457 162.294C101.558 160.82 102.878 158.378 103.626 155.958L102.79 155.76ZM101.877 162.976V163.691H107.047V162.976H101.877ZM110.941 157.531V158.268H113.515V163.977H110.941V164.725H114.285V157.531H110.941ZM110.446 157.531V165.605H111.216V157.531H110.446ZM110.886 160.589V161.326H113.922V160.589H110.886ZM112.129 155.738C112.041 156.31 111.832 157.146 111.645 157.674L112.305 157.839C112.525 157.344 112.8 156.585 113.02 155.903L112.129 155.738ZM115.847 157.498V158.268H119.224V157.498H115.847ZM118.938 157.498V157.674C118.784 162.525 118.608 164.351 118.245 164.747C118.124 164.89 117.992 164.923 117.772 164.923C117.519 164.923 116.859 164.912 116.144 164.857C116.298 165.077 116.397 165.418 116.419 165.66C117.035 165.693 117.684 165.715 118.058 165.671C118.443 165.638 118.696 165.539 118.938 165.22C119.378 164.681 119.532 162.976 119.708 157.927C119.708 157.806 119.708 157.498 119.708 157.498H118.938ZM116.078 155.716C115.726 157.245 115.121 158.763 114.373 159.731C114.571 159.841 114.912 160.072 115.055 160.204C115.814 159.159 116.463 157.542 116.87 155.903L116.078 155.716ZM115.572 160.358C116.177 161.161 116.914 162.25 117.244 162.921L117.948 162.481C117.596 161.832 116.837 160.765 116.21 159.984L115.572 160.358ZM125.923 156.618V157.41H130.059V156.618H125.923ZM129.784 156.618V156.805C129.256 161.106 127.375 163.933 124.911 165.165C125.109 165.33 125.351 165.66 125.461 165.869C128.101 164.406 130.015 161.557 130.609 156.728L130.07 156.574L129.927 156.618H129.784ZM126.968 157.289L126.187 157.41C126.792 161.37 127.925 164.406 130.477 165.913C130.609 165.682 130.873 165.374 131.071 165.209C128.629 163.9 127.485 160.941 126.968 157.289ZM121.204 156.618V157.41H124.955V156.618H121.204ZM124.647 156.618V156.816C124.229 160.798 122.799 163.823 120.874 165.22C121.083 165.363 121.347 165.682 121.479 165.88C123.536 164.23 124.988 161.227 125.45 156.728L124.933 156.574L124.779 156.618H124.647ZM121.292 159.027C122.7 160.699 124.284 163.009 124.944 164.439L125.637 163.878C124.944 162.448 123.327 160.215 121.919 158.554L121.292 159.027ZM132.578 157.663V165.88H133.392V158.477H140.949V157.663H132.578ZM140.641 157.663V164.78C140.641 164.989 140.586 165.044 140.366 165.055C140.135 165.066 139.376 165.066 138.573 165.033C138.705 165.264 138.826 165.649 138.87 165.891C139.871 165.891 140.564 165.869 140.96 165.737C141.345 165.605 141.466 165.33 141.466 164.791V157.663H140.641ZM136.318 155.738C136.131 156.409 135.768 157.366 135.46 157.982L136.252 158.169C136.582 157.586 137 156.695 137.341 155.914L136.318 155.738ZM134.844 159.929V164.362H135.603V159.929H134.844ZM135.196 159.929V160.677H138.386V162.833H135.196V163.57H139.156V159.929H135.196ZM149.232 156.992V161.854C149.232 162.778 149.463 163.042 150.332 163.042C150.519 163.042 151.399 163.042 151.597 163.042C152.4 163.042 152.609 162.569 152.697 160.897C152.466 160.831 152.136 160.71 151.96 160.556C151.916 162.019 151.861 162.272 151.52 162.272C151.333 162.272 150.596 162.272 150.442 162.272C150.101 162.272 150.046 162.217 150.046 161.854V156.992H149.232ZM146.548 157.003C146.504 159.984 146.405 161.843 144.744 162.877C144.92 163.009 145.173 163.317 145.272 163.504C147.12 162.338 147.307 160.248 147.351 157.003H146.548ZM152.675 156.464H143.534V165.198H152.818V164.406H144.348V157.278H152.675V156.464ZM160.001 159.72V160.512H163.312V159.72H160.001ZM159.627 159.72V164.494C159.627 165.517 159.935 165.77 160.947 165.77C161.167 165.77 162.564 165.77 162.795 165.77C163.807 165.77 164.038 165.264 164.148 163.471C163.917 163.416 163.565 163.273 163.378 163.119C163.323 164.703 163.235 164.989 162.751 164.989C162.432 164.989 161.266 164.989 161.035 164.989C160.529 164.989 160.441 164.912 160.441 164.494V159.72H159.627ZM159.583 156.266V157.058H162.927V161.26H163.73V156.266H159.583ZM154.391 158.213V165.836H155.062V158.917H158.12V165.693H158.802V158.213H154.391ZM154.732 162.646V163.262H158.439V162.646H154.732ZM154.732 164.417V165.088H158.439V164.417H154.732ZM154.127 156.189V156.937H159.044V156.189H154.127ZM155.711 156.398V158.719H156.305V156.398H155.711ZM156.943 156.398V158.719H157.548V156.398H156.943ZM155.821 158.708V159.786C155.821 160.38 155.711 161.106 155.062 161.667C155.172 161.722 155.359 161.887 155.436 161.986C156.118 161.359 156.283 160.479 156.283 159.797V158.708H155.821ZM156.888 158.708V160.996C156.888 161.535 157.02 161.634 157.46 161.634C157.548 161.634 157.922 161.634 157.999 161.634C158.307 161.634 158.461 161.535 158.516 161.304C158.373 161.26 158.186 161.205 158.076 161.117C158.065 161.15 158.032 161.15 157.911 161.15C157.845 161.15 157.559 161.15 157.504 161.15C157.383 161.15 157.361 161.128 157.361 160.996V158.708H156.888ZM165.061 157.069V157.85H169.098V157.069H165.061ZM169.186 158.279V159.071H174.411V158.279H169.186ZM166.689 157.377V162.888H167.492V157.377H166.689ZM174.026 158.279V158.455C173.872 162.833 173.696 164.461 173.355 164.835C173.234 164.967 173.113 165 172.893 165C172.651 165 172.024 165 171.353 164.934C171.496 165.165 171.584 165.517 171.606 165.748C172.233 165.792 172.871 165.803 173.234 165.77C173.608 165.726 173.839 165.638 174.081 165.33C174.499 164.835 174.653 163.24 174.829 158.697C174.84 158.576 174.84 158.279 174.84 158.279H174.026ZM164.907 163.009L165.116 163.856C166.282 163.537 167.877 163.086 169.373 162.657L169.263 161.876C167.668 162.305 165.996 162.756 164.907 163.009ZM171.056 155.947C171.034 159.962 171.1 163.526 167.877 165.242C168.075 165.396 168.35 165.693 168.471 165.891C171.837 163.999 171.87 160.193 171.892 155.947H171.056ZM176.6 159.687V165.869H177.37V160.391H180.087V159.687H176.6ZM179.713 159.687V164.923C179.713 165.066 179.669 165.099 179.526 165.099C179.372 165.11 178.899 165.121 178.382 165.099C178.492 165.308 178.613 165.638 178.657 165.858C179.35 165.858 179.834 165.847 180.142 165.715C180.439 165.583 180.527 165.352 180.527 164.934V159.687H179.713ZM176.963 161.326V161.975H180.142V161.326H176.963ZM176.963 162.976V163.636H180.142V162.976H176.963ZM181.561 155.782V159.434C181.561 160.336 181.825 160.589 182.881 160.589C183.101 160.589 184.542 160.589 184.773 160.589C185.653 160.589 185.895 160.237 185.994 158.895C185.763 158.84 185.422 158.719 185.257 158.576C185.213 159.665 185.136 159.852 184.707 159.852C184.399 159.852 183.189 159.852 182.958 159.852C182.452 159.852 182.364 159.775 182.364 159.423V155.782H181.561ZM184.927 156.596C184.179 156.981 182.925 157.465 181.836 157.806C181.935 157.971 182.045 158.213 182.089 158.389C183.222 158.07 184.542 157.641 185.477 157.201L184.927 156.596ZM181.561 160.897V164.626C181.561 165.539 181.836 165.792 182.914 165.792C183.134 165.792 184.597 165.792 184.828 165.792C185.752 165.792 185.994 165.396 186.093 163.911C185.862 163.867 185.532 163.735 185.356 163.603C185.301 164.846 185.224 165.055 184.773 165.055C184.443 165.055 183.222 165.055 182.991 165.055C182.474 165.055 182.375 164.989 182.375 164.626V160.897H181.561ZM185.059 161.502C184.311 161.986 182.98 162.492 181.836 162.822C181.924 162.987 182.045 163.251 182.089 163.416C183.277 163.097 184.685 162.646 185.609 162.118L185.059 161.502ZM178.921 156.695C179.482 157.454 180.065 158.477 180.296 159.137L181.011 158.818C180.791 158.147 180.175 157.157 179.603 156.42L178.921 156.695ZM176.413 158.917C176.413 158.741 176.941 158.488 176.941 158.488V158.466C177.524 157.861 178.173 156.915 178.646 156.002L177.788 155.738C177.436 156.596 176.842 157.465 176.644 157.696C176.468 157.938 176.303 158.092 176.138 158.125C176.237 158.345 176.369 158.752 176.413 158.917ZM176.413 158.917C176.655 158.829 177.051 158.774 180.329 158.532C180.329 158.378 180.362 158.081 180.406 157.883L176.82 158.092L176.391 158.345L176.413 158.917ZM192.924 158.235V158.906H196.961V158.235H192.924ZM194.904 158.521V161.535H195.674V158.521H194.904ZM188.414 161.766V165.891H189.206V162.426H194.794V165.858H195.619V161.766H188.414ZM188.964 163.328V163.922H195.036V163.328H188.964ZM188.964 164.846V165.495H195.069V164.846H188.964ZM196.202 155.925C195.377 156.2 193.925 156.398 192.715 156.497C192.792 156.673 192.88 156.937 192.913 157.102C194.156 157.025 195.663 156.838 196.653 156.541L196.202 155.925ZM192.715 156.497V158.147C192.715 159.049 192.627 160.248 191.912 161.139C192.088 161.205 192.418 161.425 192.55 161.546C193.298 160.611 193.452 159.192 193.452 158.158V156.497H192.715ZM187.083 156.497V157.146H192.187V156.497H187.083ZM189.69 157.608V161.546H190.46V157.608H189.69ZM187.468 159.148C187.468 158.994 187.897 158.752 187.897 158.752V158.73C188.579 158.059 189.327 157.003 189.899 155.969L189.074 155.738C188.678 156.673 187.974 157.674 187.776 157.927C187.567 158.18 187.391 158.367 187.215 158.4C187.303 158.609 187.424 158.983 187.468 159.148ZM187.468 159.148C187.567 159.06 187.908 158.994 188.37 158.994H192.198V158.334H187.908L187.468 158.554V159.148ZM187.094 160.138L187.171 160.842C188.469 160.688 190.339 160.49 192.143 160.292V159.665C190.251 159.852 188.326 160.039 187.094 160.138ZM198.787 156.684V157.432H201.064V163.097H198.787V163.845H201.834V156.684H198.787ZM198.831 159.841V160.578H201.35V159.841H198.831ZM198.391 156.684V164.725H199.172V156.684H198.391ZM202.329 157.971V158.785H208.071V157.971H202.329ZM205.904 155.826V164.637C205.904 164.868 205.816 164.934 205.585 164.945C205.343 164.956 204.54 164.956 203.682 164.934C203.803 165.165 203.935 165.539 203.979 165.77C205.09 165.781 205.783 165.759 206.179 165.627C206.575 165.495 206.74 165.242 206.74 164.637V155.826H205.904ZM202.703 160.028C203.297 160.875 204.034 162.052 204.386 162.723L205.112 162.294C204.738 161.634 203.979 160.512 203.385 159.676L202.703 160.028ZM0.919 174.114V174.928H9.191V174.114H0.919ZM0.248 176.897V177.711H9.785V176.897H0.248ZM5.462 177.161L4.714 177.37C5.572 179.57 7.167 181.132 9.477 181.814C9.598 181.561 9.862 181.209 10.06 181.022C7.816 180.472 6.21 179.064 5.462 177.161ZM7.321 171.804C7.013 172.563 6.43 173.641 5.968 174.301L6.661 174.576C7.145 173.949 7.739 172.959 8.212 172.112L7.321 171.804ZM1.964 172.222C2.404 172.794 2.877 173.597 3.064 174.125L3.801 173.718C3.592 173.201 3.119 172.431 2.646 171.87L1.964 172.222ZM4.56 174.411V176.27C4.56 177.788 4.219 179.735 0.028 181.154C0.248 181.33 0.512 181.682 0.622 181.88C5.022 180.329 5.506 178.096 5.506 176.281V174.411H4.56ZM13.151 175.379V176.16H19.091V175.379H13.151ZM16.693 173.905V179.889C16.693 180.054 16.627 180.098 16.451 180.109C16.264 180.12 15.659 180.12 14.999 180.098C15.12 180.329 15.241 180.67 15.285 180.901C16.165 180.901 16.726 180.89 17.078 180.747C17.43 180.626 17.54 180.395 17.54 179.9V173.905H16.693ZM11.468 174.246V181.891H12.293V174.246H11.468ZM11.633 172.288C12.15 172.783 12.744 173.465 12.997 173.927L13.679 173.465C13.404 173.003 12.799 172.354 12.271 171.881L11.633 172.288ZM14.405 172.365V173.146H20.191V172.365H14.405ZM19.729 172.365V180.835C19.729 181 19.674 181.033 19.52 181.044C19.366 181.055 18.849 181.055 18.332 181.044C18.442 181.242 18.563 181.594 18.607 181.814C19.333 181.814 19.828 181.803 20.136 181.671C20.433 181.528 20.532 181.308 20.532 180.846V172.365H19.729ZM16.451 175.764C15.747 177.117 14.328 178.415 12.656 179.273C12.832 179.405 13.107 179.691 13.228 179.856C14.944 178.921 16.374 177.568 17.21 176.017L16.451 175.764ZM23.227 182.177C24.382 181.781 25.13 180.879 25.13 179.691C25.13 178.921 24.8 178.415 24.184 178.415C23.744 178.415 23.348 178.69 23.348 179.207C23.348 179.735 23.722 179.999 24.173 179.999C24.382 179.999 24.602 179.944 24.756 179.746L24.162 178.91L24.371 179.845C24.371 180.67 23.876 181.231 22.974 181.605L23.227 182.177ZM40.233 172.486C40.882 173.058 41.63 173.85 41.96 174.378L42.642 173.894C42.279 173.388 41.509 172.607 40.86 172.057L40.233 172.486ZM33.105 175.016V175.808H42.906V175.016H33.105ZM32.94 178.25L33.182 179.075C34.568 178.767 36.515 178.316 38.319 177.898L38.253 177.15C36.317 177.568 34.249 178.008 32.94 178.25ZM35.47 172.882V180.813C35.47 181.011 35.404 181.066 35.206 181.066C35.008 181.077 34.359 181.088 33.655 181.055C33.776 181.297 33.919 181.671 33.963 181.891C34.876 181.902 35.459 181.869 35.811 181.737C36.163 181.605 36.295 181.363 36.295 180.824V172.882H35.47ZM37.56 171.892C36.504 172.288 34.722 172.662 33.171 172.904C33.281 173.091 33.38 173.399 33.424 173.586C34.997 173.366 36.867 173.025 38.143 172.585L37.56 171.892ZM38.66 171.859C38.704 177.095 39.683 181.924 41.839 181.924C42.664 181.924 42.961 181.385 43.115 179.559C42.884 179.471 42.587 179.284 42.411 179.097C42.345 180.516 42.213 181.088 41.916 181.088C40.574 181.088 39.496 176.908 39.518 171.859H38.66ZM41.641 176.314C40.662 178.173 38.847 179.867 36.889 180.813C37.098 181 37.329 181.264 37.461 181.473C39.485 180.406 41.3 178.635 42.378 176.622L41.641 176.314ZM49.825 172.167V172.926H53.136V172.167H49.825ZM52.817 172.167V180.835C52.817 181.011 52.751 181.066 52.575 181.077C52.388 181.088 51.783 181.099 51.156 181.066C51.266 181.286 51.387 181.649 51.42 181.858C52.289 181.858 52.85 181.847 53.18 181.715C53.521 181.583 53.642 181.341 53.642 180.846V172.167H52.817ZM47.68 172.123C48.164 172.794 48.714 173.718 48.956 174.279L49.638 173.883C49.385 173.333 48.802 172.431 48.318 171.771L47.68 172.123ZM47.218 173.982V181.88H48.021V173.982H47.218ZM45.964 171.826C45.513 173.52 44.754 175.214 43.885 176.325C44.028 176.534 44.259 176.974 44.336 177.161C45.326 175.874 46.184 173.938 46.734 172.035L45.964 171.826ZM45.095 174.598V181.88H45.887V173.85L45.854 173.828L45.095 174.598ZM58.339 177.15V177.909H64.95V177.15H58.339ZM62.794 175.786V180.89C62.794 181.044 62.75 181.099 62.574 181.11C62.376 181.11 61.76 181.11 61.089 181.088C61.199 181.319 61.331 181.66 61.353 181.869C62.233 181.869 62.816 181.869 63.157 181.737C63.509 181.616 63.619 181.374 63.619 180.901V175.786H62.794ZM59.131 178.602C59.692 179.185 60.319 180.032 60.561 180.582L61.287 180.164C61.012 179.614 60.374 178.811 59.802 178.239L59.131 178.602ZM57.019 171.771V181.88H57.822V171.771H57.019ZM54.918 178.811L55.38 179.515C56.029 178.932 56.81 178.184 57.525 177.491L57.206 176.82C56.37 177.59 55.49 178.36 54.918 178.811ZM54.973 173.707C55.545 174.257 56.183 175.049 56.458 175.566L57.063 175.06C56.788 174.543 56.117 173.795 55.556 173.256L54.973 173.707ZM61.023 172.651L60.594 173.333H64.026L64.191 172.651H61.023ZM61.386 171.76C60.781 172.64 59.626 173.542 58.361 174.081C58.526 174.213 58.779 174.455 58.9 174.62C60.198 174.004 61.463 173.036 62.222 172.002L61.386 171.76ZM60.044 174.29C60.495 174.664 60.979 175.192 61.188 175.555L61.837 175.159C61.606 174.796 61.1 174.279 60.66 173.927L60.044 174.29ZM63.905 172.651V172.783C63.025 174.642 60.704 175.797 58.449 176.237C58.592 176.391 58.768 176.688 58.856 176.897C61.276 176.347 63.707 175.126 64.752 172.904L64.213 172.618L64.059 172.651H63.905ZM72.067 175.544V181.891H72.903V175.544H72.067ZM68.855 177.161V177.92H75.994V177.161H68.855ZM73.134 177.458L72.496 177.7C73.222 179.163 74.498 180.648 75.697 181.418C75.84 181.22 76.104 180.923 76.28 180.769C75.081 180.109 73.794 178.778 73.134 177.458ZM71.88 177.403C71.187 178.745 69.834 180.109 68.547 180.747C68.723 180.912 68.976 181.198 69.119 181.396C70.428 180.637 71.792 179.163 72.529 177.645L71.88 177.403ZM70.461 173.025H74.564V175.038H70.461V173.025ZM69.68 172.288V175.786H75.378V172.288H69.68ZM68.536 171.793C67.898 173.465 66.842 175.104 65.742 176.149C65.896 176.347 66.127 176.776 66.215 176.963C67.414 175.742 68.569 173.894 69.317 172.035L68.536 171.793ZM67.392 174.631V181.858H68.184V173.861L68.173 173.85L67.392 174.631ZM78.348 177.271V181.88H79.184V177.953H84.893V181.836H85.762V177.271H78.348ZM78.777 179.031V179.669H85.267V179.031H78.777ZM82 172.376V173.102H86.059V172.376H82ZM78.777 180.791V181.484H85.267V180.791H78.777ZM81.615 177.546V181.176H82.407V177.546H81.615ZM85.795 172.376V172.508C85.718 174.807 85.608 175.643 85.421 175.852C85.344 175.951 85.245 175.973 85.08 175.962C84.904 175.973 84.464 175.962 83.98 175.929C84.101 176.116 84.189 176.424 84.2 176.644C84.695 176.666 85.179 176.677 85.443 176.655C85.729 176.622 85.927 176.545 86.103 176.347C86.367 176.028 86.477 175.137 86.587 172.728C86.587 172.607 86.587 172.376 86.587 172.376H85.795ZM80.889 171.771C80.152 172.112 78.865 172.475 77.754 172.717C77.853 172.882 77.963 173.157 77.996 173.322C79.151 173.102 80.504 172.761 81.45 172.376L80.889 171.771ZM83.342 172.629C83.21 174.334 82.88 175.654 81.285 176.358C81.45 176.49 81.67 176.765 81.769 176.952C83.54 176.116 83.969 174.609 84.112 172.629H83.342ZM79.855 173.971C80.35 174.73 80.878 175.753 81.076 176.391L81.802 176.072C81.593 175.434 81.043 174.444 80.526 173.707L79.855 173.971ZM77.787 176.688C78.018 176.534 78.381 176.413 81.131 175.665C81.076 175.489 80.999 175.192 80.955 174.972L78.106 175.676L77.732 175.984L77.787 176.688ZM77.787 176.688C77.787 176.358 78.557 175.731 78.557 175.731V172.717H77.754V175.126C77.754 175.632 77.523 175.918 77.347 176.061C77.479 176.193 77.71 176.512 77.787 176.688ZM88.27 177.447V178.151H92.483V177.447H88.27ZM88.039 173.817V174.499H93.341V173.817H88.039ZM92.362 171.98C92.175 172.409 91.812 173.047 91.537 173.443L92.076 173.696C92.373 173.333 92.736 172.783 93.066 172.277L92.362 171.98ZM90.316 171.76V176.567H91.086V171.76H90.316ZM88.457 172.288C88.754 172.739 89.051 173.344 89.15 173.74L89.777 173.454C89.678 173.069 89.37 172.475 89.062 172.046L88.457 172.288ZM90.338 174.092C89.843 174.939 88.842 175.819 87.929 176.215C88.083 176.38 88.281 176.655 88.369 176.853C89.326 176.336 90.36 175.346 90.899 174.422L90.338 174.092ZM90.976 174.334L90.558 174.697C91.042 174.994 92.186 175.863 92.571 176.226L93.033 175.621C92.714 175.401 91.361 174.543 90.976 174.334ZM94.221 173.894V174.664H97.917V173.894H94.221ZM94.408 171.859C94.133 173.795 93.638 175.632 92.791 176.798C92.967 176.908 93.286 177.172 93.407 177.304C94.287 176.017 94.848 174.081 95.167 171.969L94.408 171.859ZM96.443 174.334C96.014 177.799 94.991 180.021 92.461 181.253C92.604 181.407 92.835 181.748 92.912 181.913C95.585 180.494 96.696 178.151 97.213 174.411L96.443 174.334ZM94.617 174.587L93.935 174.708C94.485 177.92 95.563 180.549 97.631 181.792C97.752 181.583 97.994 181.297 98.181 181.143C96.19 180.076 95.112 177.535 94.617 174.587ZM88.699 179.317C89.865 179.768 91.295 180.527 92.032 181.077L92.549 180.527C91.779 179.999 90.371 179.262 89.216 178.833L88.699 179.317ZM92.208 177.447V177.568C91.625 179.581 89.898 180.714 87.951 181.154C88.094 181.308 88.259 181.605 88.336 181.792C90.437 181.22 92.252 179.988 92.934 177.601L92.494 177.425L92.351 177.447H92.208ZM88.699 179.317L89.458 179.471C89.887 178.822 90.448 177.777 90.789 176.886L90.063 176.743C89.744 177.59 89.183 178.646 88.699 179.317ZM103.23 172.244V172.97H107.861V174.378H103.252V175.093H108.653V172.244H103.23ZM102.845 172.244V175.577C102.845 177.326 102.735 179.724 101.591 181.418C101.789 181.495 102.13 181.737 102.273 181.88C103.483 180.109 103.648 177.425 103.648 175.577V172.244H102.845ZM103.285 176.303V177.029H109.027V176.303H103.285ZM104.165 180.758V181.44H108.235V180.758H104.165ZM105.782 175.005V178.701H106.574V175.005H105.782ZM103.813 178.393V181.891H104.55V179.097H107.927V181.847H108.686V178.393H103.813ZM98.819 177.612L99.028 178.415C99.974 178.107 101.195 177.711 102.361 177.326L102.251 176.567C100.986 176.974 99.677 177.37 98.819 177.612ZM98.951 173.982V174.752H102.35V173.982H98.951ZM100.337 171.771V180.846C100.337 181.011 100.271 181.055 100.139 181.055C100.007 181.055 99.589 181.055 99.105 181.044C99.215 181.275 99.314 181.616 99.347 181.814C100.04 181.814 100.469 181.792 100.722 181.66C100.997 181.528 101.096 181.308 101.096 180.857V171.771H100.337ZM110.479 174.037V174.829H119.587V174.037H110.479ZM110.072 177.216V178.019H119.939V177.216H110.072ZM116.551 174.444V181.88H117.409V174.444H116.551ZM112.635 174.444V176.93C112.635 178.492 112.371 180.153 110.094 181.297C110.281 181.451 110.567 181.759 110.688 181.957C113.174 180.681 113.482 178.767 113.482 176.941V174.444H112.635ZM111.887 172.057C112.36 172.662 112.844 173.498 113.031 174.026L113.845 173.674C113.636 173.135 113.13 172.343 112.657 171.749L111.887 172.057ZM117.233 171.738C116.98 172.497 116.496 173.564 116.111 174.235L116.837 174.488C117.255 173.861 117.761 172.86 118.179 172.002L117.233 171.738ZM121.182 173.465V174.268H130.818V173.465H121.182ZM124.592 176.952V177.722H130.389V176.952H124.592ZM124.163 180.846V181.627H130.818V180.846H124.163ZM127.078 174.829V181.264H127.903V174.829H127.078ZM124.801 171.76C124.185 174.026 122.898 176.468 120.918 177.865C121.05 178.052 121.259 178.404 121.347 178.624C123.536 177.051 124.878 174.488 125.648 171.969L124.801 171.76ZM122.623 176.292V181.847H123.448V176.292H122.623ZM132.204 174.081V174.917H141.807V174.081H132.204ZM133.986 178.987V179.823H139.992V178.987H133.986ZM136.549 171.771V181.88H137.418V171.771H136.549ZM135.757 174.356C134.998 176.435 133.513 178.481 131.907 179.471C132.105 179.636 132.369 179.933 132.512 180.142C134.173 178.987 135.669 176.886 136.505 174.587L135.757 174.356ZM138.188 174.389L137.451 174.609C138.276 176.897 139.761 179.009 141.466 180.109C141.609 179.878 141.895 179.559 142.115 179.394C140.432 178.448 138.936 176.457 138.188 174.389ZM147.483 171.771C147.142 173.52 146.515 175.236 145.668 176.314C145.888 176.413 146.295 176.655 146.471 176.776C147.296 175.61 147.956 173.806 148.363 171.925L147.483 171.771ZM147.384 173.641L147.021 174.455H152.103V173.641H147.384ZM151.85 173.641V173.839C151.685 174.719 151.234 175.896 150.893 176.578C151.08 176.655 151.41 176.82 151.586 176.919C151.971 176.16 152.466 175.005 152.741 173.916L152.136 173.586L151.971 173.641H151.85ZM143.127 173.113C143.875 173.542 144.799 174.191 145.25 174.653L145.778 173.971C145.305 173.531 144.37 172.915 143.622 172.519L143.127 173.113ZM142.951 180.197L143.71 180.769C144.403 179.79 145.228 178.514 145.877 177.381L145.239 176.842C144.524 178.041 143.6 179.405 142.951 180.197ZM149.529 176.072L148.814 176.193C149.342 178.921 150.387 180.912 152.51 181.814C152.631 181.583 152.884 181.242 153.071 181.088C151.047 180.351 149.991 178.481 149.529 176.072ZM148.759 174.983V175.665C148.759 177.249 148.506 179.636 145.129 181.286C145.338 181.44 145.635 181.737 145.767 181.935C149.32 180.131 149.628 177.469 149.628 175.687V174.983H148.759ZM157.812 177.601V181.88H158.571V178.36H162.509V181.825H163.301V177.601H157.812ZM162.894 171.804C161.673 172.244 159.44 172.585 157.526 172.794C157.625 172.981 157.735 173.3 157.768 173.498C159.737 173.311 162.036 172.97 163.543 172.453L162.894 171.804ZM160.188 172.761V178.041H160.98V172.761H160.188ZM157.009 174.994V175.786H164.016V174.994H157.009ZM158.329 180.648V181.407H162.872V180.648H158.329ZM154.49 172.486C155.172 172.849 156.085 173.388 156.547 173.718L157.031 173.047C156.558 172.728 155.623 172.233 154.952 171.903L154.49 172.486ZM153.951 175.522C154.622 175.874 155.535 176.402 155.986 176.71L156.448 176.039C155.986 175.72 155.062 175.236 154.413 174.917L153.951 175.522ZM154.215 181.176L154.908 181.737C155.557 180.714 156.327 179.339 156.91 178.173L156.316 177.634C155.678 178.888 154.809 180.34 154.215 181.176ZM170.077 174.301V175.093H174.488V174.301H170.077ZM174.081 174.301V174.488C173.96 178.866 173.806 180.45 173.509 180.802C173.388 180.934 173.267 180.967 173.08 180.956C172.838 180.956 172.266 180.956 171.639 180.901C171.793 181.132 171.881 181.473 171.903 181.715C172.486 181.748 173.08 181.759 173.421 181.726C173.784 181.682 174.004 181.594 174.224 181.297C174.609 180.813 174.741 179.262 174.884 174.719C174.884 174.609 174.895 174.301 174.895 174.301H174.081ZM171.672 171.958C171.661 175.555 171.65 179.339 169.538 181.275C169.747 181.407 170.033 181.682 170.176 181.869C172.409 179.757 172.464 175.786 172.486 171.958H171.672ZM165.479 172.662V173.41H169.736V172.662H165.479ZM165.083 175.291V176.039H169.934V175.291H165.083ZM168.328 177.183C168.735 178.184 169.208 179.526 169.395 180.307L170.121 180.054C169.923 179.295 169.428 177.975 168.999 176.996L168.328 177.183ZM165.479 180.527C165.743 180.373 166.161 180.252 169.549 179.493C169.516 179.317 169.461 178.998 169.439 178.778L165.831 179.537L165.413 179.834L165.479 180.527ZM165.479 180.527C165.479 180.351 166.051 180.065 166.051 180.065V180.054C166.612 178.921 167.173 177.304 167.514 175.83L166.711 175.577C166.447 177.007 165.886 178.591 165.721 178.987C165.534 179.416 165.391 179.702 165.215 179.757C165.303 179.966 165.435 180.351 165.479 180.527ZM177.568 174.818V175.61H185.994V174.818H177.568ZM179.328 180.549V181.33H184.674V180.549H179.328ZM184.531 171.859C182.826 172.277 179.768 172.596 177.15 172.761C177.238 172.948 177.348 173.267 177.37 173.476C180.032 173.333 183.156 173.014 185.224 172.53L184.531 171.859ZM178.921 177.183V181.891H179.746V177.953H184.322V181.88H185.18V177.183H178.921ZM177.15 172.761V175.61C177.15 177.315 177.04 179.669 175.852 181.341C176.05 181.44 176.391 181.737 176.534 181.902C177.81 180.12 177.997 177.436 177.997 175.61V172.761H177.15ZM187.072 180.857V181.539H196.939V180.857H187.072ZM187.127 173.718V174.4H196.873V173.718H187.127ZM187.886 179.251V179.911H196.235V179.251H187.886ZM191.538 172.607V181.187H192.363V172.607H191.538ZM195.366 171.826C193.628 172.145 190.515 172.343 187.952 172.409C188.029 172.585 188.128 172.871 188.128 173.069C190.702 173.014 193.837 172.827 195.806 172.464L195.366 171.826ZM189.041 177.04H194.992V177.887H189.041V177.04ZM189.041 175.654H194.992V176.49H189.041V175.654ZM188.238 175.06V178.481H195.828V175.06H188.238ZM203.935 175.478V176.248H208.038V175.478H203.935ZM198.171 172.915V173.619H203.022V172.915H198.171ZM198.05 177.282V177.997H203.077V177.282H198.05ZM197.995 175.434V176.138H203.198V175.434H197.995ZM206.025 175.808V181.836H206.828V175.808H206.025ZM198.886 173.839C199.106 174.345 199.271 175.005 199.315 175.423L200.019 175.236C199.975 174.818 199.777 174.169 199.557 173.685L198.886 173.839ZM201.647 173.674C201.493 174.224 201.218 175.049 200.987 175.555L201.669 175.72C201.9 175.236 202.175 174.488 202.406 173.839L201.647 173.674ZM207.015 171.958C206.234 172.299 204.804 172.618 203.572 172.827C203.682 173.003 203.803 173.278 203.836 173.454C205.123 173.267 206.63 172.959 207.686 172.574L207.015 171.958ZM199.854 171.914C200.107 172.376 200.382 172.992 200.503 173.377L201.273 173.146C201.152 172.772 200.855 172.167 200.591 171.727L199.854 171.914ZM200.261 175.852V180.813C200.261 180.923 200.228 180.956 200.118 180.956C199.997 180.956 199.667 180.956 199.282 180.945C199.392 181.154 199.491 181.451 199.524 181.649C200.052 181.649 200.437 181.638 200.69 181.517C200.932 181.396 201.009 181.198 201.009 180.813V175.852H200.261ZM203.572 172.827V176.611C203.572 178.063 203.484 179.955 202.56 181.275C202.736 181.374 203.066 181.627 203.198 181.781C204.21 180.351 204.342 178.184 204.342 176.611V172.827H203.572ZM201.449 178.657C201.79 179.207 202.175 179.966 202.351 180.439L202.945 180.098C202.769 179.625 202.384 178.91 202.021 178.36L201.449 178.657ZM198.985 178.415C198.754 179.097 198.391 179.779 197.951 180.263C198.116 180.351 198.391 180.56 198.523 180.67C198.963 180.153 199.392 179.35 199.656 178.591L198.985 178.415ZM88.479 188.486V189.267H97.587V188.486H88.479ZM88.072 192.413V193.205H97.939V192.413H88.072ZM94.628 188.893V197.891H95.475V188.893H94.628ZM90.712 188.893V191.94C90.712 193.843 90.459 195.856 88.094 197.319C88.303 197.451 88.6 197.737 88.743 197.924C91.273 196.329 91.548 194.074 91.548 191.94V188.893H90.712ZM101.844 196.373V197.132H107.729V196.373H101.844ZM101.525 193.59V197.836H102.328V194.349H107.41V197.814H108.246V193.59H101.525ZM100.513 189.344V190.103H107.223V191.632H100.513V192.413H108.048V189.344H100.513ZM100.183 189.344V191.995C100.183 193.59 100.062 195.779 98.885 197.352C99.083 197.451 99.424 197.748 99.567 197.902C100.832 196.241 101.03 193.733 101.03 191.995V189.344H100.183ZM103.296 187.98C103.56 188.442 103.868 189.08 103.989 189.487L104.825 189.212C104.671 188.816 104.374 188.211 104.077 187.749L103.296 187.98ZM112.844 192.82C112.844 190.675 111.975 188.937 110.655 187.595L109.995 187.936C111.271 189.245 112.052 190.862 112.052 192.82C112.052 194.789 111.271 196.406 109.995 197.715L110.655 198.056C111.975 196.714 112.844 194.976 112.844 192.82Z" fill="#EFEFEF"/>
</svg>
